%TF.GenerationSoftware,KiCad,Pcbnew,(5.1.6)-1*%
%TF.CreationDate,2020-09-26T10:02:19-05:00*%
%TF.ProjectId,customDisplay,63757374-6f6d-4446-9973-706c61792e6b,A0*%
%TF.SameCoordinates,Original*%
%TF.FileFunction,Soldermask,Bot*%
%TF.FilePolarity,Negative*%
%FSLAX46Y46*%
G04 Gerber Fmt 4.6, Leading zero omitted, Abs format (unit mm)*
G04 Created by KiCad (PCBNEW (5.1.6)-1) date 2020-09-26 10:02:19*
%MOMM*%
%LPD*%
G01*
G04 APERTURE LIST*
%ADD10C,1.448000*%
%ADD11C,2.000000*%
%ADD12C,1.000000*%
%ADD13R,0.500000X2.000000*%
%ADD14O,1.500000X1.100000*%
%ADD15O,1.700000X1.350000*%
%ADD16C,3.200000*%
%ADD17R,1.700000X1.700000*%
%ADD18O,1.700000X1.700000*%
%ADD19R,1.000000X1.000000*%
%ADD20C,0.990600*%
%ADD21C,2.374900*%
G04 APERTURE END LIST*
D10*
%TO.C,TH1*%
X130048000Y-69850000D03*
%TD*%
%TO.C,TH2*%
X181610000Y-68580000D03*
%TD*%
%TO.C,TH3*%
X179578000Y-128778000D03*
%TD*%
D11*
%TO.C,U5*%
X147142200Y-125984000D03*
%TD*%
D12*
%TO.C,J1*%
X116395500Y-116014500D03*
X117665500Y-116014500D03*
X116395500Y-114744500D03*
X117665500Y-114744500D03*
X116395500Y-113474500D03*
X117665500Y-113474500D03*
X116395500Y-112204500D03*
X117665500Y-112204500D03*
X116395500Y-110934500D03*
X117665500Y-110934500D03*
X116395500Y-109664500D03*
X117665500Y-109664500D03*
X116395500Y-108394500D03*
X117665500Y-108394500D03*
%TD*%
D13*
%TO.C,J3*%
X127020000Y-127190000D03*
X127020000Y-131890000D03*
X127820000Y-127190000D03*
X127820000Y-131890000D03*
X128620000Y-127190000D03*
X128620000Y-131890000D03*
X129420000Y-127190000D03*
X129420000Y-131890000D03*
X130220000Y-127190000D03*
X130220000Y-131890000D03*
X131020000Y-127190000D03*
X131020000Y-131890000D03*
X131820000Y-127190000D03*
X131820000Y-131890000D03*
X132620000Y-127190000D03*
X132620000Y-131890000D03*
X133420000Y-127190000D03*
X133420000Y-131890000D03*
X134220000Y-127190000D03*
X134220000Y-131890000D03*
X135020000Y-127190000D03*
X135020000Y-131890000D03*
X135820000Y-127190000D03*
X135820000Y-131890000D03*
X136620000Y-127190000D03*
X136620000Y-131890000D03*
X137420000Y-127190000D03*
X137420000Y-131890000D03*
X138220000Y-127190000D03*
X138220000Y-131890000D03*
X139020000Y-127190000D03*
X139020000Y-131890000D03*
X139820000Y-127190000D03*
X139820000Y-131890000D03*
X140620000Y-127190000D03*
X140620000Y-131890000D03*
X141420000Y-127190000D03*
X141420000Y-131890000D03*
X142220000Y-127190000D03*
X142220000Y-131890000D03*
%TD*%
%TO.C,J2*%
X157460000Y-73470000D03*
X157460000Y-68770000D03*
X156660000Y-73470000D03*
X156660000Y-68770000D03*
X155860000Y-73470000D03*
X155860000Y-68770000D03*
X155060000Y-73470000D03*
X155060000Y-68770000D03*
X154260000Y-73470000D03*
X154260000Y-68770000D03*
X153460000Y-73470000D03*
X153460000Y-68770000D03*
X152660000Y-73470000D03*
X152660000Y-68770000D03*
X151860000Y-73470000D03*
X151860000Y-68770000D03*
X151060000Y-73470000D03*
X151060000Y-68770000D03*
X150260000Y-73470000D03*
X150260000Y-68770000D03*
X149460000Y-73470000D03*
X149460000Y-68770000D03*
X148660000Y-73470000D03*
X148660000Y-68770000D03*
X147860000Y-73470000D03*
X147860000Y-68770000D03*
X147060000Y-73470000D03*
X147060000Y-68770000D03*
X146260000Y-73470000D03*
X146260000Y-68770000D03*
X145460000Y-73470000D03*
X145460000Y-68770000D03*
X144660000Y-73470000D03*
X144660000Y-68770000D03*
X143860000Y-73470000D03*
X143860000Y-68770000D03*
X143060000Y-73470000D03*
X143060000Y-68770000D03*
X142260000Y-73470000D03*
X142260000Y-68770000D03*
%TD*%
D14*
%TO.C,J6*%
X118979000Y-76110000D03*
X118979000Y-80950000D03*
D15*
X115979000Y-75800000D03*
X115979000Y-81260000D03*
%TD*%
D16*
%TO.C,H1*%
X118110000Y-69850000D03*
%TD*%
%TO.C,H2*%
X186690000Y-130810000D03*
%TD*%
%TO.C,H3*%
X186690000Y-69850000D03*
%TD*%
%TO.C,H4*%
X118110000Y-130810000D03*
%TD*%
D17*
%TO.C,J7*%
X187960000Y-118364000D03*
D18*
X187960000Y-120904000D03*
%TD*%
D19*
%TO.C,TP3*%
X189230000Y-85090000D03*
%TD*%
%TO.C,TP4*%
X189230000Y-87630000D03*
%TD*%
%TO.C,TP5*%
X115570000Y-95250000D03*
%TD*%
%TO.C,TP6*%
X115570000Y-97790000D03*
%TD*%
%TO.C,TP7*%
X189230000Y-90170000D03*
%TD*%
D11*
%TO.C,TP8*%
X123698000Y-69088000D03*
%TD*%
D20*
%TO.C,J8*%
X168402000Y-128016000D03*
X167386000Y-117856000D03*
X169418000Y-117856000D03*
D21*
X165862000Y-128016000D03*
X165862000Y-119761000D03*
X170942000Y-128016000D03*
X170942000Y-119761000D03*
%TD*%
D19*
%TO.C,TP1*%
X115570000Y-100330000D03*
%TD*%
%TO.C,TP2*%
X115570000Y-102870000D03*
%TD*%
M02*
