%TF.GenerationSoftware,KiCad,Pcbnew,(5.1.6)-1*%
%TF.CreationDate,2020-09-26T10:02:19-05:00*%
%TF.ProjectId,customDisplay,63757374-6f6d-4446-9973-706c61792e6b,A0*%
%TF.SameCoordinates,Original*%
%TF.FileFunction,Paste,Bot*%
%TF.FilePolarity,Positive*%
%FSLAX46Y46*%
G04 Gerber Fmt 4.6, Leading zero omitted, Abs format (unit mm)*
G04 Created by KiCad (PCBNEW (5.1.6)-1) date 2020-09-26 10:02:19*
%MOMM*%
%LPD*%
G01*
G04 APERTURE LIST*
%ADD10R,0.500000X2.000000*%
G04 APERTURE END LIST*
D10*
%TO.C,J3*%
X127020000Y-127190000D03*
X127020000Y-131890000D03*
X127820000Y-127190000D03*
X127820000Y-131890000D03*
X128620000Y-127190000D03*
X128620000Y-131890000D03*
X129420000Y-127190000D03*
X129420000Y-131890000D03*
X130220000Y-127190000D03*
X130220000Y-131890000D03*
X131020000Y-127190000D03*
X131020000Y-131890000D03*
X131820000Y-127190000D03*
X131820000Y-131890000D03*
X132620000Y-127190000D03*
X132620000Y-131890000D03*
X133420000Y-127190000D03*
X133420000Y-131890000D03*
X134220000Y-127190000D03*
X134220000Y-131890000D03*
X135020000Y-127190000D03*
X135020000Y-131890000D03*
X135820000Y-127190000D03*
X135820000Y-131890000D03*
X136620000Y-127190000D03*
X136620000Y-131890000D03*
X137420000Y-127190000D03*
X137420000Y-131890000D03*
X138220000Y-127190000D03*
X138220000Y-131890000D03*
X139020000Y-127190000D03*
X139020000Y-131890000D03*
X139820000Y-127190000D03*
X139820000Y-131890000D03*
X140620000Y-127190000D03*
X140620000Y-131890000D03*
X141420000Y-127190000D03*
X141420000Y-131890000D03*
X142220000Y-127190000D03*
X142220000Y-131890000D03*
%TD*%
%TO.C,J2*%
X157460000Y-73470000D03*
X157460000Y-68770000D03*
X156660000Y-73470000D03*
X156660000Y-68770000D03*
X155860000Y-73470000D03*
X155860000Y-68770000D03*
X155060000Y-73470000D03*
X155060000Y-68770000D03*
X154260000Y-73470000D03*
X154260000Y-68770000D03*
X153460000Y-73470000D03*
X153460000Y-68770000D03*
X152660000Y-73470000D03*
X152660000Y-68770000D03*
X151860000Y-73470000D03*
X151860000Y-68770000D03*
X151060000Y-73470000D03*
X151060000Y-68770000D03*
X150260000Y-73470000D03*
X150260000Y-68770000D03*
X149460000Y-73470000D03*
X149460000Y-68770000D03*
X148660000Y-73470000D03*
X148660000Y-68770000D03*
X147860000Y-73470000D03*
X147860000Y-68770000D03*
X147060000Y-73470000D03*
X147060000Y-68770000D03*
X146260000Y-73470000D03*
X146260000Y-68770000D03*
X145460000Y-73470000D03*
X145460000Y-68770000D03*
X144660000Y-73470000D03*
X144660000Y-68770000D03*
X143860000Y-73470000D03*
X143860000Y-68770000D03*
X143060000Y-73470000D03*
X143060000Y-68770000D03*
X142260000Y-73470000D03*
X142260000Y-68770000D03*
%TD*%
M02*
