%TF.GenerationSoftware,KiCad,Pcbnew,(5.1.6)-1*%
%TF.CreationDate,2020-09-25T10:07:23-05:00*%
%TF.ProjectId,customDisplay,63757374-6f6d-4446-9973-706c61792e6b,rev?*%
%TF.SameCoordinates,Original*%
%TF.FileFunction,Soldermask,Top*%
%TF.FilePolarity,Negative*%
%FSLAX46Y46*%
G04 Gerber Fmt 4.6, Leading zero omitted, Abs format (unit mm)*
G04 Created by KiCad (PCBNEW (5.1.6)-1) date 2020-09-25 10:07:23*
%MOMM*%
%LPD*%
G01*
G04 APERTURE LIST*
%ADD10C,1.448000*%
%ADD11R,3.400000X4.300000*%
%ADD12C,2.000000*%
%ADD13C,1.000000*%
%ADD14R,2.000000X0.300000*%
%ADD15R,1.800000X2.200000*%
%ADD16R,0.250000X1.300000*%
%ADD17R,0.500000X1.200000*%
%ADD18R,1.000000X0.500000*%
%ADD19R,0.750000X1.000000*%
%ADD20C,0.100000*%
%ADD21R,2.999999X2.999999*%
%ADD22R,2.000000X1.350000*%
%ADD23R,0.700000X1.825000*%
%ADD24R,1.500000X2.000000*%
%ADD25R,1.650000X0.400000*%
%ADD26O,1.500000X1.100000*%
%ADD27O,1.700000X1.350000*%
%ADD28R,2.500000X1.430000*%
%ADD29R,1.060000X0.650000*%
%ADD30C,3.200000*%
%ADD31R,1.700000X1.700000*%
%ADD32O,1.700000X1.700000*%
%ADD33R,3.800000X2.000000*%
%ADD34R,0.900000X1.200000*%
%ADD35R,2.500000X1.500000*%
%ADD36R,0.300000X1.300000*%
%ADD37R,1.000000X1.000000*%
%ADD38C,0.787400*%
%ADD39C,0.990600*%
%ADD40C,2.374900*%
G04 APERTURE END LIST*
D10*
%TO.C,TH1*%
X130048000Y-69850000D03*
%TD*%
%TO.C,TH2*%
X181610000Y-68580000D03*
%TD*%
%TO.C,TH3*%
X179578000Y-128778000D03*
%TD*%
%TO.C,U5*%
G36*
G01*
X142642200Y-124079000D02*
X142642200Y-124079000D01*
G75*
G02*
X142892200Y-123829000I250000J0D01*
G01*
X143392200Y-123829000D01*
G75*
G02*
X143642200Y-124079000I0J-250000D01*
G01*
X143642200Y-124079000D01*
G75*
G02*
X143392200Y-124329000I-250000J0D01*
G01*
X142892200Y-124329000D01*
G75*
G02*
X142642200Y-124079000I0J250000D01*
G01*
G37*
G36*
G01*
X142642200Y-125349000D02*
X142642200Y-125349000D01*
G75*
G02*
X142892200Y-125099000I250000J0D01*
G01*
X143392200Y-125099000D01*
G75*
G02*
X143642200Y-125349000I0J-250000D01*
G01*
X143642200Y-125349000D01*
G75*
G02*
X143392200Y-125599000I-250000J0D01*
G01*
X142892200Y-125599000D01*
G75*
G02*
X142642200Y-125349000I0J250000D01*
G01*
G37*
G36*
G01*
X142642200Y-126619000D02*
X142642200Y-126619000D01*
G75*
G02*
X142892200Y-126369000I250000J0D01*
G01*
X143392200Y-126369000D01*
G75*
G02*
X143642200Y-126619000I0J-250000D01*
G01*
X143642200Y-126619000D01*
G75*
G02*
X143392200Y-126869000I-250000J0D01*
G01*
X142892200Y-126869000D01*
G75*
G02*
X142642200Y-126619000I0J250000D01*
G01*
G37*
G36*
G01*
X142642200Y-127889000D02*
X142642200Y-127889000D01*
G75*
G02*
X142892200Y-127639000I250000J0D01*
G01*
X143392200Y-127639000D01*
G75*
G02*
X143642200Y-127889000I0J-250000D01*
G01*
X143642200Y-127889000D01*
G75*
G02*
X143392200Y-128139000I-250000J0D01*
G01*
X142892200Y-128139000D01*
G75*
G02*
X142642200Y-127889000I0J250000D01*
G01*
G37*
G36*
G01*
X150642200Y-127889000D02*
X150642200Y-127889000D01*
G75*
G02*
X150892200Y-127639000I250000J0D01*
G01*
X151392200Y-127639000D01*
G75*
G02*
X151642200Y-127889000I0J-250000D01*
G01*
X151642200Y-127889000D01*
G75*
G02*
X151392200Y-128139000I-250000J0D01*
G01*
X150892200Y-128139000D01*
G75*
G02*
X150642200Y-127889000I0J250000D01*
G01*
G37*
G36*
G01*
X150642200Y-126619000D02*
X150642200Y-126619000D01*
G75*
G02*
X150892200Y-126369000I250000J0D01*
G01*
X151392200Y-126369000D01*
G75*
G02*
X151642200Y-126619000I0J-250000D01*
G01*
X151642200Y-126619000D01*
G75*
G02*
X151392200Y-126869000I-250000J0D01*
G01*
X150892200Y-126869000D01*
G75*
G02*
X150642200Y-126619000I0J250000D01*
G01*
G37*
G36*
G01*
X150642200Y-125349000D02*
X150642200Y-125349000D01*
G75*
G02*
X150892200Y-125099000I250000J0D01*
G01*
X151392200Y-125099000D01*
G75*
G02*
X151642200Y-125349000I0J-250000D01*
G01*
X151642200Y-125349000D01*
G75*
G02*
X151392200Y-125599000I-250000J0D01*
G01*
X150892200Y-125599000D01*
G75*
G02*
X150642200Y-125349000I0J250000D01*
G01*
G37*
G36*
G01*
X150642200Y-124079000D02*
X150642200Y-124079000D01*
G75*
G02*
X150892200Y-123829000I250000J0D01*
G01*
X151392200Y-123829000D01*
G75*
G02*
X151642200Y-124079000I0J-250000D01*
G01*
X151642200Y-124079000D01*
G75*
G02*
X151392200Y-124329000I-250000J0D01*
G01*
X150892200Y-124329000D01*
G75*
G02*
X150642200Y-124079000I0J250000D01*
G01*
G37*
D11*
X147142200Y-125984000D03*
D12*
X147142200Y-125984000D03*
%TD*%
%TO.C,U1*%
G36*
G01*
X141335944Y-119263700D02*
X141229878Y-119369766D01*
G75*
G02*
X141123812Y-119369766I-53033J53033D01*
G01*
X140169218Y-118415172D01*
G75*
G02*
X140169218Y-118309106I53033J53033D01*
G01*
X140275284Y-118203040D01*
G75*
G02*
X140381350Y-118203040I53033J-53033D01*
G01*
X141335944Y-119157634D01*
G75*
G02*
X141335944Y-119263700I-53033J-53033D01*
G01*
G37*
G36*
G01*
X141689497Y-118910147D02*
X141583431Y-119016213D01*
G75*
G02*
X141477365Y-119016213I-53033J53033D01*
G01*
X140522771Y-118061619D01*
G75*
G02*
X140522771Y-117955553I53033J53033D01*
G01*
X140628837Y-117849487D01*
G75*
G02*
X140734903Y-117849487I53033J-53033D01*
G01*
X141689497Y-118804081D01*
G75*
G02*
X141689497Y-118910147I-53033J-53033D01*
G01*
G37*
G36*
G01*
X142043050Y-118556594D02*
X141936984Y-118662660D01*
G75*
G02*
X141830918Y-118662660I-53033J53033D01*
G01*
X140876324Y-117708066D01*
G75*
G02*
X140876324Y-117602000I53033J53033D01*
G01*
X140982390Y-117495934D01*
G75*
G02*
X141088456Y-117495934I53033J-53033D01*
G01*
X142043050Y-118450528D01*
G75*
G02*
X142043050Y-118556594I-53033J-53033D01*
G01*
G37*
G36*
G01*
X142396604Y-118203040D02*
X142290538Y-118309106D01*
G75*
G02*
X142184472Y-118309106I-53033J53033D01*
G01*
X141229878Y-117354512D01*
G75*
G02*
X141229878Y-117248446I53033J53033D01*
G01*
X141335944Y-117142380D01*
G75*
G02*
X141442010Y-117142380I53033J-53033D01*
G01*
X142396604Y-118096974D01*
G75*
G02*
X142396604Y-118203040I-53033J-53033D01*
G01*
G37*
G36*
G01*
X142750157Y-117849487D02*
X142644091Y-117955553D01*
G75*
G02*
X142538025Y-117955553I-53033J53033D01*
G01*
X141583431Y-117000959D01*
G75*
G02*
X141583431Y-116894893I53033J53033D01*
G01*
X141689497Y-116788827D01*
G75*
G02*
X141795563Y-116788827I53033J-53033D01*
G01*
X142750157Y-117743421D01*
G75*
G02*
X142750157Y-117849487I-53033J-53033D01*
G01*
G37*
G36*
G01*
X143103711Y-117495934D02*
X142997645Y-117602000D01*
G75*
G02*
X142891579Y-117602000I-53033J53033D01*
G01*
X141936985Y-116647406D01*
G75*
G02*
X141936985Y-116541340I53033J53033D01*
G01*
X142043051Y-116435274D01*
G75*
G02*
X142149117Y-116435274I53033J-53033D01*
G01*
X143103711Y-117389868D01*
G75*
G02*
X143103711Y-117495934I-53033J-53033D01*
G01*
G37*
G36*
G01*
X143457264Y-117142380D02*
X143351198Y-117248446D01*
G75*
G02*
X143245132Y-117248446I-53033J53033D01*
G01*
X142290538Y-116293852D01*
G75*
G02*
X142290538Y-116187786I53033J53033D01*
G01*
X142396604Y-116081720D01*
G75*
G02*
X142502670Y-116081720I53033J-53033D01*
G01*
X143457264Y-117036314D01*
G75*
G02*
X143457264Y-117142380I-53033J-53033D01*
G01*
G37*
G36*
G01*
X143810817Y-116788827D02*
X143704751Y-116894893D01*
G75*
G02*
X143598685Y-116894893I-53033J53033D01*
G01*
X142644091Y-115940299D01*
G75*
G02*
X142644091Y-115834233I53033J53033D01*
G01*
X142750157Y-115728167D01*
G75*
G02*
X142856223Y-115728167I53033J-53033D01*
G01*
X143810817Y-116682761D01*
G75*
G02*
X143810817Y-116788827I-53033J-53033D01*
G01*
G37*
G36*
G01*
X144164371Y-116435273D02*
X144058305Y-116541339D01*
G75*
G02*
X143952239Y-116541339I-53033J53033D01*
G01*
X142997645Y-115586745D01*
G75*
G02*
X142997645Y-115480679I53033J53033D01*
G01*
X143103711Y-115374613D01*
G75*
G02*
X143209777Y-115374613I53033J-53033D01*
G01*
X144164371Y-116329207D01*
G75*
G02*
X144164371Y-116435273I-53033J-53033D01*
G01*
G37*
G36*
G01*
X144517924Y-116081720D02*
X144411858Y-116187786D01*
G75*
G02*
X144305792Y-116187786I-53033J53033D01*
G01*
X143351198Y-115233192D01*
G75*
G02*
X143351198Y-115127126I53033J53033D01*
G01*
X143457264Y-115021060D01*
G75*
G02*
X143563330Y-115021060I53033J-53033D01*
G01*
X144517924Y-115975654D01*
G75*
G02*
X144517924Y-116081720I-53033J-53033D01*
G01*
G37*
G36*
G01*
X144871477Y-115728167D02*
X144765411Y-115834233D01*
G75*
G02*
X144659345Y-115834233I-53033J53033D01*
G01*
X143704751Y-114879639D01*
G75*
G02*
X143704751Y-114773573I53033J53033D01*
G01*
X143810817Y-114667507D01*
G75*
G02*
X143916883Y-114667507I53033J-53033D01*
G01*
X144871477Y-115622101D01*
G75*
G02*
X144871477Y-115728167I-53033J-53033D01*
G01*
G37*
G36*
G01*
X145225031Y-115374613D02*
X145118965Y-115480679D01*
G75*
G02*
X145012899Y-115480679I-53033J53033D01*
G01*
X144058305Y-114526085D01*
G75*
G02*
X144058305Y-114420019I53033J53033D01*
G01*
X144164371Y-114313953D01*
G75*
G02*
X144270437Y-114313953I53033J-53033D01*
G01*
X145225031Y-115268547D01*
G75*
G02*
X145225031Y-115374613I-53033J-53033D01*
G01*
G37*
G36*
G01*
X145578584Y-115021060D02*
X145472518Y-115127126D01*
G75*
G02*
X145366452Y-115127126I-53033J53033D01*
G01*
X144411858Y-114172532D01*
G75*
G02*
X144411858Y-114066466I53033J53033D01*
G01*
X144517924Y-113960400D01*
G75*
G02*
X144623990Y-113960400I53033J-53033D01*
G01*
X145578584Y-114914994D01*
G75*
G02*
X145578584Y-115021060I-53033J-53033D01*
G01*
G37*
G36*
G01*
X145932138Y-114667506D02*
X145826072Y-114773572D01*
G75*
G02*
X145720006Y-114773572I-53033J53033D01*
G01*
X144765412Y-113818978D01*
G75*
G02*
X144765412Y-113712912I53033J53033D01*
G01*
X144871478Y-113606846D01*
G75*
G02*
X144977544Y-113606846I53033J-53033D01*
G01*
X145932138Y-114561440D01*
G75*
G02*
X145932138Y-114667506I-53033J-53033D01*
G01*
G37*
G36*
G01*
X146285691Y-114313953D02*
X146179625Y-114420019D01*
G75*
G02*
X146073559Y-114420019I-53033J53033D01*
G01*
X145118965Y-113465425D01*
G75*
G02*
X145118965Y-113359359I53033J53033D01*
G01*
X145225031Y-113253293D01*
G75*
G02*
X145331097Y-113253293I53033J-53033D01*
G01*
X146285691Y-114207887D01*
G75*
G02*
X146285691Y-114313953I-53033J-53033D01*
G01*
G37*
G36*
G01*
X146639244Y-113960400D02*
X146533178Y-114066466D01*
G75*
G02*
X146427112Y-114066466I-53033J53033D01*
G01*
X145472518Y-113111872D01*
G75*
G02*
X145472518Y-113005806I53033J53033D01*
G01*
X145578584Y-112899740D01*
G75*
G02*
X145684650Y-112899740I53033J-53033D01*
G01*
X146639244Y-113854334D01*
G75*
G02*
X146639244Y-113960400I-53033J-53033D01*
G01*
G37*
G36*
G01*
X146992798Y-113606846D02*
X146886732Y-113712912D01*
G75*
G02*
X146780666Y-113712912I-53033J53033D01*
G01*
X145826072Y-112758318D01*
G75*
G02*
X145826072Y-112652252I53033J53033D01*
G01*
X145932138Y-112546186D01*
G75*
G02*
X146038204Y-112546186I53033J-53033D01*
G01*
X146992798Y-113500780D01*
G75*
G02*
X146992798Y-113606846I-53033J-53033D01*
G01*
G37*
G36*
G01*
X147346351Y-113253293D02*
X147240285Y-113359359D01*
G75*
G02*
X147134219Y-113359359I-53033J53033D01*
G01*
X146179625Y-112404765D01*
G75*
G02*
X146179625Y-112298699I53033J53033D01*
G01*
X146285691Y-112192633D01*
G75*
G02*
X146391757Y-112192633I53033J-53033D01*
G01*
X147346351Y-113147227D01*
G75*
G02*
X147346351Y-113253293I-53033J-53033D01*
G01*
G37*
G36*
G01*
X147699905Y-112899739D02*
X147593839Y-113005805D01*
G75*
G02*
X147487773Y-113005805I-53033J53033D01*
G01*
X146533179Y-112051211D01*
G75*
G02*
X146533179Y-111945145I53033J53033D01*
G01*
X146639245Y-111839079D01*
G75*
G02*
X146745311Y-111839079I53033J-53033D01*
G01*
X147699905Y-112793673D01*
G75*
G02*
X147699905Y-112899739I-53033J-53033D01*
G01*
G37*
G36*
G01*
X148053458Y-112546186D02*
X147947392Y-112652252D01*
G75*
G02*
X147841326Y-112652252I-53033J53033D01*
G01*
X146886732Y-111697658D01*
G75*
G02*
X146886732Y-111591592I53033J53033D01*
G01*
X146992798Y-111485526D01*
G75*
G02*
X147098864Y-111485526I53033J-53033D01*
G01*
X148053458Y-112440120D01*
G75*
G02*
X148053458Y-112546186I-53033J-53033D01*
G01*
G37*
G36*
G01*
X148407011Y-112192633D02*
X148300945Y-112298699D01*
G75*
G02*
X148194879Y-112298699I-53033J53033D01*
G01*
X147240285Y-111344105D01*
G75*
G02*
X147240285Y-111238039I53033J53033D01*
G01*
X147346351Y-111131973D01*
G75*
G02*
X147452417Y-111131973I53033J-53033D01*
G01*
X148407011Y-112086567D01*
G75*
G02*
X148407011Y-112192633I-53033J-53033D01*
G01*
G37*
G36*
G01*
X148760565Y-111839079D02*
X148654499Y-111945145D01*
G75*
G02*
X148548433Y-111945145I-53033J53033D01*
G01*
X147593839Y-110990551D01*
G75*
G02*
X147593839Y-110884485I53033J53033D01*
G01*
X147699905Y-110778419D01*
G75*
G02*
X147805971Y-110778419I53033J-53033D01*
G01*
X148760565Y-111733013D01*
G75*
G02*
X148760565Y-111839079I-53033J-53033D01*
G01*
G37*
G36*
G01*
X149114118Y-111485526D02*
X149008052Y-111591592D01*
G75*
G02*
X148901986Y-111591592I-53033J53033D01*
G01*
X147947392Y-110636998D01*
G75*
G02*
X147947392Y-110530932I53033J53033D01*
G01*
X148053458Y-110424866D01*
G75*
G02*
X148159524Y-110424866I53033J-53033D01*
G01*
X149114118Y-111379460D01*
G75*
G02*
X149114118Y-111485526I-53033J-53033D01*
G01*
G37*
G36*
G01*
X149467672Y-111131972D02*
X149361606Y-111238038D01*
G75*
G02*
X149255540Y-111238038I-53033J53033D01*
G01*
X148300946Y-110283444D01*
G75*
G02*
X148300946Y-110177378I53033J53033D01*
G01*
X148407012Y-110071312D01*
G75*
G02*
X148513078Y-110071312I53033J-53033D01*
G01*
X149467672Y-111025906D01*
G75*
G02*
X149467672Y-111131972I-53033J-53033D01*
G01*
G37*
G36*
G01*
X149821225Y-110778419D02*
X149715159Y-110884485D01*
G75*
G02*
X149609093Y-110884485I-53033J53033D01*
G01*
X148654499Y-109929891D01*
G75*
G02*
X148654499Y-109823825I53033J53033D01*
G01*
X148760565Y-109717759D01*
G75*
G02*
X148866631Y-109717759I53033J-53033D01*
G01*
X149821225Y-110672353D01*
G75*
G02*
X149821225Y-110778419I-53033J-53033D01*
G01*
G37*
G36*
G01*
X150174778Y-110424866D02*
X150068712Y-110530932D01*
G75*
G02*
X149962646Y-110530932I-53033J53033D01*
G01*
X149008052Y-109576338D01*
G75*
G02*
X149008052Y-109470272I53033J53033D01*
G01*
X149114118Y-109364206D01*
G75*
G02*
X149220184Y-109364206I53033J-53033D01*
G01*
X150174778Y-110318800D01*
G75*
G02*
X150174778Y-110424866I-53033J-53033D01*
G01*
G37*
G36*
G01*
X150528332Y-110071312D02*
X150422266Y-110177378D01*
G75*
G02*
X150316200Y-110177378I-53033J53033D01*
G01*
X149361606Y-109222784D01*
G75*
G02*
X149361606Y-109116718I53033J53033D01*
G01*
X149467672Y-109010652D01*
G75*
G02*
X149573738Y-109010652I53033J-53033D01*
G01*
X150528332Y-109965246D01*
G75*
G02*
X150528332Y-110071312I-53033J-53033D01*
G01*
G37*
G36*
G01*
X150881885Y-109717759D02*
X150775819Y-109823825D01*
G75*
G02*
X150669753Y-109823825I-53033J53033D01*
G01*
X149715159Y-108869231D01*
G75*
G02*
X149715159Y-108763165I53033J53033D01*
G01*
X149821225Y-108657099D01*
G75*
G02*
X149927291Y-108657099I53033J-53033D01*
G01*
X150881885Y-109611693D01*
G75*
G02*
X150881885Y-109717759I-53033J-53033D01*
G01*
G37*
G36*
G01*
X151235438Y-109364206D02*
X151129372Y-109470272D01*
G75*
G02*
X151023306Y-109470272I-53033J53033D01*
G01*
X150068712Y-108515678D01*
G75*
G02*
X150068712Y-108409612I53033J53033D01*
G01*
X150174778Y-108303546D01*
G75*
G02*
X150280844Y-108303546I53033J-53033D01*
G01*
X151235438Y-109258140D01*
G75*
G02*
X151235438Y-109364206I-53033J-53033D01*
G01*
G37*
G36*
G01*
X151588992Y-109010652D02*
X151482926Y-109116718D01*
G75*
G02*
X151376860Y-109116718I-53033J53033D01*
G01*
X150422266Y-108162124D01*
G75*
G02*
X150422266Y-108056058I53033J53033D01*
G01*
X150528332Y-107949992D01*
G75*
G02*
X150634398Y-107949992I53033J-53033D01*
G01*
X151588992Y-108904586D01*
G75*
G02*
X151588992Y-109010652I-53033J-53033D01*
G01*
G37*
G36*
G01*
X151942545Y-108657099D02*
X151836479Y-108763165D01*
G75*
G02*
X151730413Y-108763165I-53033J53033D01*
G01*
X150775819Y-107808571D01*
G75*
G02*
X150775819Y-107702505I53033J53033D01*
G01*
X150881885Y-107596439D01*
G75*
G02*
X150987951Y-107596439I53033J-53033D01*
G01*
X151942545Y-108551033D01*
G75*
G02*
X151942545Y-108657099I-53033J-53033D01*
G01*
G37*
G36*
G01*
X152296099Y-108303545D02*
X152190033Y-108409611D01*
G75*
G02*
X152083967Y-108409611I-53033J53033D01*
G01*
X151129373Y-107455017D01*
G75*
G02*
X151129373Y-107348951I53033J53033D01*
G01*
X151235439Y-107242885D01*
G75*
G02*
X151341505Y-107242885I53033J-53033D01*
G01*
X152296099Y-108197479D01*
G75*
G02*
X152296099Y-108303545I-53033J-53033D01*
G01*
G37*
G36*
G01*
X152649652Y-107949992D02*
X152543586Y-108056058D01*
G75*
G02*
X152437520Y-108056058I-53033J53033D01*
G01*
X151482926Y-107101464D01*
G75*
G02*
X151482926Y-106995398I53033J53033D01*
G01*
X151588992Y-106889332D01*
G75*
G02*
X151695058Y-106889332I53033J-53033D01*
G01*
X152649652Y-107843926D01*
G75*
G02*
X152649652Y-107949992I-53033J-53033D01*
G01*
G37*
G36*
G01*
X153003205Y-107596439D02*
X152897139Y-107702505D01*
G75*
G02*
X152791073Y-107702505I-53033J53033D01*
G01*
X151836479Y-106747911D01*
G75*
G02*
X151836479Y-106641845I53033J53033D01*
G01*
X151942545Y-106535779D01*
G75*
G02*
X152048611Y-106535779I53033J-53033D01*
G01*
X153003205Y-107490373D01*
G75*
G02*
X153003205Y-107596439I-53033J-53033D01*
G01*
G37*
G36*
G01*
X153356759Y-107242885D02*
X153250693Y-107348951D01*
G75*
G02*
X153144627Y-107348951I-53033J53033D01*
G01*
X152190033Y-106394357D01*
G75*
G02*
X152190033Y-106288291I53033J53033D01*
G01*
X152296099Y-106182225D01*
G75*
G02*
X152402165Y-106182225I53033J-53033D01*
G01*
X153356759Y-107136819D01*
G75*
G02*
X153356759Y-107242885I-53033J-53033D01*
G01*
G37*
G36*
G01*
X153710312Y-106889332D02*
X153604246Y-106995398D01*
G75*
G02*
X153498180Y-106995398I-53033J53033D01*
G01*
X152543586Y-106040804D01*
G75*
G02*
X152543586Y-105934738I53033J53033D01*
G01*
X152649652Y-105828672D01*
G75*
G02*
X152755718Y-105828672I53033J-53033D01*
G01*
X153710312Y-106783266D01*
G75*
G02*
X153710312Y-106889332I-53033J-53033D01*
G01*
G37*
G36*
G01*
X154063866Y-106535778D02*
X153957800Y-106641844D01*
G75*
G02*
X153851734Y-106641844I-53033J53033D01*
G01*
X152897140Y-105687250D01*
G75*
G02*
X152897140Y-105581184I53033J53033D01*
G01*
X153003206Y-105475118D01*
G75*
G02*
X153109272Y-105475118I53033J-53033D01*
G01*
X154063866Y-106429712D01*
G75*
G02*
X154063866Y-106535778I-53033J-53033D01*
G01*
G37*
G36*
G01*
X154417419Y-106182225D02*
X154311353Y-106288291D01*
G75*
G02*
X154205287Y-106288291I-53033J53033D01*
G01*
X153250693Y-105333697D01*
G75*
G02*
X153250693Y-105227631I53033J53033D01*
G01*
X153356759Y-105121565D01*
G75*
G02*
X153462825Y-105121565I53033J-53033D01*
G01*
X154417419Y-106076159D01*
G75*
G02*
X154417419Y-106182225I-53033J-53033D01*
G01*
G37*
G36*
G01*
X154770972Y-105828672D02*
X154664906Y-105934738D01*
G75*
G02*
X154558840Y-105934738I-53033J53033D01*
G01*
X153604246Y-104980144D01*
G75*
G02*
X153604246Y-104874078I53033J53033D01*
G01*
X153710312Y-104768012D01*
G75*
G02*
X153816378Y-104768012I53033J-53033D01*
G01*
X154770972Y-105722606D01*
G75*
G02*
X154770972Y-105828672I-53033J-53033D01*
G01*
G37*
G36*
G01*
X155124526Y-105475118D02*
X155018460Y-105581184D01*
G75*
G02*
X154912394Y-105581184I-53033J53033D01*
G01*
X153957800Y-104626590D01*
G75*
G02*
X153957800Y-104520524I53033J53033D01*
G01*
X154063866Y-104414458D01*
G75*
G02*
X154169932Y-104414458I53033J-53033D01*
G01*
X155124526Y-105369052D01*
G75*
G02*
X155124526Y-105475118I-53033J-53033D01*
G01*
G37*
G36*
G01*
X155478079Y-105121565D02*
X155372013Y-105227631D01*
G75*
G02*
X155265947Y-105227631I-53033J53033D01*
G01*
X154311353Y-104273037D01*
G75*
G02*
X154311353Y-104166971I53033J53033D01*
G01*
X154417419Y-104060905D01*
G75*
G02*
X154523485Y-104060905I53033J-53033D01*
G01*
X155478079Y-105015499D01*
G75*
G02*
X155478079Y-105121565I-53033J-53033D01*
G01*
G37*
G36*
G01*
X155831633Y-104768011D02*
X155725567Y-104874077D01*
G75*
G02*
X155619501Y-104874077I-53033J53033D01*
G01*
X154664907Y-103919483D01*
G75*
G02*
X154664907Y-103813417I53033J53033D01*
G01*
X154770973Y-103707351D01*
G75*
G02*
X154877039Y-103707351I53033J-53033D01*
G01*
X155831633Y-104661945D01*
G75*
G02*
X155831633Y-104768011I-53033J-53033D01*
G01*
G37*
G36*
G01*
X156185186Y-104414458D02*
X156079120Y-104520524D01*
G75*
G02*
X155973054Y-104520524I-53033J53033D01*
G01*
X155018460Y-103565930D01*
G75*
G02*
X155018460Y-103459864I53033J53033D01*
G01*
X155124526Y-103353798D01*
G75*
G02*
X155230592Y-103353798I53033J-53033D01*
G01*
X156185186Y-104308392D01*
G75*
G02*
X156185186Y-104414458I-53033J-53033D01*
G01*
G37*
G36*
G01*
X156538739Y-104060905D02*
X156432673Y-104166971D01*
G75*
G02*
X156326607Y-104166971I-53033J53033D01*
G01*
X155372013Y-103212377D01*
G75*
G02*
X155372013Y-103106311I53033J53033D01*
G01*
X155478079Y-103000245D01*
G75*
G02*
X155584145Y-103000245I53033J-53033D01*
G01*
X156538739Y-103954839D01*
G75*
G02*
X156538739Y-104060905I-53033J-53033D01*
G01*
G37*
G36*
G01*
X156892293Y-103707351D02*
X156786227Y-103813417D01*
G75*
G02*
X156680161Y-103813417I-53033J53033D01*
G01*
X155725567Y-102858823D01*
G75*
G02*
X155725567Y-102752757I53033J53033D01*
G01*
X155831633Y-102646691D01*
G75*
G02*
X155937699Y-102646691I53033J-53033D01*
G01*
X156892293Y-103601285D01*
G75*
G02*
X156892293Y-103707351I-53033J-53033D01*
G01*
G37*
G36*
G01*
X157245846Y-103353798D02*
X157139780Y-103459864D01*
G75*
G02*
X157033714Y-103459864I-53033J53033D01*
G01*
X156079120Y-102505270D01*
G75*
G02*
X156079120Y-102399204I53033J53033D01*
G01*
X156185186Y-102293138D01*
G75*
G02*
X156291252Y-102293138I53033J-53033D01*
G01*
X157245846Y-103247732D01*
G75*
G02*
X157245846Y-103353798I-53033J-53033D01*
G01*
G37*
G36*
G01*
X157599400Y-103000245D02*
X157493334Y-103106311D01*
G75*
G02*
X157387268Y-103106311I-53033J53033D01*
G01*
X156432674Y-102151717D01*
G75*
G02*
X156432674Y-102045651I53033J53033D01*
G01*
X156538740Y-101939585D01*
G75*
G02*
X156644806Y-101939585I53033J-53033D01*
G01*
X157599400Y-102894179D01*
G75*
G02*
X157599400Y-103000245I-53033J-53033D01*
G01*
G37*
G36*
G01*
X157952953Y-102646691D02*
X157846887Y-102752757D01*
G75*
G02*
X157740821Y-102752757I-53033J53033D01*
G01*
X156786227Y-101798163D01*
G75*
G02*
X156786227Y-101692097I53033J53033D01*
G01*
X156892293Y-101586031D01*
G75*
G02*
X156998359Y-101586031I53033J-53033D01*
G01*
X157952953Y-102540625D01*
G75*
G02*
X157952953Y-102646691I-53033J-53033D01*
G01*
G37*
G36*
G01*
X158306506Y-102293138D02*
X158200440Y-102399204D01*
G75*
G02*
X158094374Y-102399204I-53033J53033D01*
G01*
X157139780Y-101444610D01*
G75*
G02*
X157139780Y-101338544I53033J53033D01*
G01*
X157245846Y-101232478D01*
G75*
G02*
X157351912Y-101232478I53033J-53033D01*
G01*
X158306506Y-102187072D01*
G75*
G02*
X158306506Y-102293138I-53033J-53033D01*
G01*
G37*
G36*
G01*
X158660060Y-101939584D02*
X158553994Y-102045650D01*
G75*
G02*
X158447928Y-102045650I-53033J53033D01*
G01*
X157493334Y-101091056D01*
G75*
G02*
X157493334Y-100984990I53033J53033D01*
G01*
X157599400Y-100878924D01*
G75*
G02*
X157705466Y-100878924I53033J-53033D01*
G01*
X158660060Y-101833518D01*
G75*
G02*
X158660060Y-101939584I-53033J-53033D01*
G01*
G37*
G36*
G01*
X159013613Y-101586031D02*
X158907547Y-101692097D01*
G75*
G02*
X158801481Y-101692097I-53033J53033D01*
G01*
X157846887Y-100737503D01*
G75*
G02*
X157846887Y-100631437I53033J53033D01*
G01*
X157952953Y-100525371D01*
G75*
G02*
X158059019Y-100525371I53033J-53033D01*
G01*
X159013613Y-101479965D01*
G75*
G02*
X159013613Y-101586031I-53033J-53033D01*
G01*
G37*
G36*
G01*
X159367166Y-101232478D02*
X159261100Y-101338544D01*
G75*
G02*
X159155034Y-101338544I-53033J53033D01*
G01*
X158200440Y-100383950D01*
G75*
G02*
X158200440Y-100277884I53033J53033D01*
G01*
X158306506Y-100171818D01*
G75*
G02*
X158412572Y-100171818I53033J-53033D01*
G01*
X159367166Y-101126412D01*
G75*
G02*
X159367166Y-101232478I-53033J-53033D01*
G01*
G37*
G36*
G01*
X159367166Y-97661588D02*
X158412572Y-98616182D01*
G75*
G02*
X158306506Y-98616182I-53033J53033D01*
G01*
X158200440Y-98510116D01*
G75*
G02*
X158200440Y-98404050I53033J53033D01*
G01*
X159155034Y-97449456D01*
G75*
G02*
X159261100Y-97449456I53033J-53033D01*
G01*
X159367166Y-97555522D01*
G75*
G02*
X159367166Y-97661588I-53033J-53033D01*
G01*
G37*
G36*
G01*
X159013613Y-97308035D02*
X158059019Y-98262629D01*
G75*
G02*
X157952953Y-98262629I-53033J53033D01*
G01*
X157846887Y-98156563D01*
G75*
G02*
X157846887Y-98050497I53033J53033D01*
G01*
X158801481Y-97095903D01*
G75*
G02*
X158907547Y-97095903I53033J-53033D01*
G01*
X159013613Y-97201969D01*
G75*
G02*
X159013613Y-97308035I-53033J-53033D01*
G01*
G37*
G36*
G01*
X158660060Y-96954482D02*
X157705466Y-97909076D01*
G75*
G02*
X157599400Y-97909076I-53033J53033D01*
G01*
X157493334Y-97803010D01*
G75*
G02*
X157493334Y-97696944I53033J53033D01*
G01*
X158447928Y-96742350D01*
G75*
G02*
X158553994Y-96742350I53033J-53033D01*
G01*
X158660060Y-96848416D01*
G75*
G02*
X158660060Y-96954482I-53033J-53033D01*
G01*
G37*
G36*
G01*
X158306506Y-96600928D02*
X157351912Y-97555522D01*
G75*
G02*
X157245846Y-97555522I-53033J53033D01*
G01*
X157139780Y-97449456D01*
G75*
G02*
X157139780Y-97343390I53033J53033D01*
G01*
X158094374Y-96388796D01*
G75*
G02*
X158200440Y-96388796I53033J-53033D01*
G01*
X158306506Y-96494862D01*
G75*
G02*
X158306506Y-96600928I-53033J-53033D01*
G01*
G37*
G36*
G01*
X157952953Y-96247375D02*
X156998359Y-97201969D01*
G75*
G02*
X156892293Y-97201969I-53033J53033D01*
G01*
X156786227Y-97095903D01*
G75*
G02*
X156786227Y-96989837I53033J53033D01*
G01*
X157740821Y-96035243D01*
G75*
G02*
X157846887Y-96035243I53033J-53033D01*
G01*
X157952953Y-96141309D01*
G75*
G02*
X157952953Y-96247375I-53033J-53033D01*
G01*
G37*
G36*
G01*
X157599400Y-95893821D02*
X156644806Y-96848415D01*
G75*
G02*
X156538740Y-96848415I-53033J53033D01*
G01*
X156432674Y-96742349D01*
G75*
G02*
X156432674Y-96636283I53033J53033D01*
G01*
X157387268Y-95681689D01*
G75*
G02*
X157493334Y-95681689I53033J-53033D01*
G01*
X157599400Y-95787755D01*
G75*
G02*
X157599400Y-95893821I-53033J-53033D01*
G01*
G37*
G36*
G01*
X157245846Y-95540268D02*
X156291252Y-96494862D01*
G75*
G02*
X156185186Y-96494862I-53033J53033D01*
G01*
X156079120Y-96388796D01*
G75*
G02*
X156079120Y-96282730I53033J53033D01*
G01*
X157033714Y-95328136D01*
G75*
G02*
X157139780Y-95328136I53033J-53033D01*
G01*
X157245846Y-95434202D01*
G75*
G02*
X157245846Y-95540268I-53033J-53033D01*
G01*
G37*
G36*
G01*
X156892293Y-95186715D02*
X155937699Y-96141309D01*
G75*
G02*
X155831633Y-96141309I-53033J53033D01*
G01*
X155725567Y-96035243D01*
G75*
G02*
X155725567Y-95929177I53033J53033D01*
G01*
X156680161Y-94974583D01*
G75*
G02*
X156786227Y-94974583I53033J-53033D01*
G01*
X156892293Y-95080649D01*
G75*
G02*
X156892293Y-95186715I-53033J-53033D01*
G01*
G37*
G36*
G01*
X156538739Y-94833161D02*
X155584145Y-95787755D01*
G75*
G02*
X155478079Y-95787755I-53033J53033D01*
G01*
X155372013Y-95681689D01*
G75*
G02*
X155372013Y-95575623I53033J53033D01*
G01*
X156326607Y-94621029D01*
G75*
G02*
X156432673Y-94621029I53033J-53033D01*
G01*
X156538739Y-94727095D01*
G75*
G02*
X156538739Y-94833161I-53033J-53033D01*
G01*
G37*
G36*
G01*
X156185186Y-94479608D02*
X155230592Y-95434202D01*
G75*
G02*
X155124526Y-95434202I-53033J53033D01*
G01*
X155018460Y-95328136D01*
G75*
G02*
X155018460Y-95222070I53033J53033D01*
G01*
X155973054Y-94267476D01*
G75*
G02*
X156079120Y-94267476I53033J-53033D01*
G01*
X156185186Y-94373542D01*
G75*
G02*
X156185186Y-94479608I-53033J-53033D01*
G01*
G37*
G36*
G01*
X155831633Y-94126055D02*
X154877039Y-95080649D01*
G75*
G02*
X154770973Y-95080649I-53033J53033D01*
G01*
X154664907Y-94974583D01*
G75*
G02*
X154664907Y-94868517I53033J53033D01*
G01*
X155619501Y-93913923D01*
G75*
G02*
X155725567Y-93913923I53033J-53033D01*
G01*
X155831633Y-94019989D01*
G75*
G02*
X155831633Y-94126055I-53033J-53033D01*
G01*
G37*
G36*
G01*
X155478079Y-93772501D02*
X154523485Y-94727095D01*
G75*
G02*
X154417419Y-94727095I-53033J53033D01*
G01*
X154311353Y-94621029D01*
G75*
G02*
X154311353Y-94514963I53033J53033D01*
G01*
X155265947Y-93560369D01*
G75*
G02*
X155372013Y-93560369I53033J-53033D01*
G01*
X155478079Y-93666435D01*
G75*
G02*
X155478079Y-93772501I-53033J-53033D01*
G01*
G37*
G36*
G01*
X155124526Y-93418948D02*
X154169932Y-94373542D01*
G75*
G02*
X154063866Y-94373542I-53033J53033D01*
G01*
X153957800Y-94267476D01*
G75*
G02*
X153957800Y-94161410I53033J53033D01*
G01*
X154912394Y-93206816D01*
G75*
G02*
X155018460Y-93206816I53033J-53033D01*
G01*
X155124526Y-93312882D01*
G75*
G02*
X155124526Y-93418948I-53033J-53033D01*
G01*
G37*
G36*
G01*
X154770972Y-93065394D02*
X153816378Y-94019988D01*
G75*
G02*
X153710312Y-94019988I-53033J53033D01*
G01*
X153604246Y-93913922D01*
G75*
G02*
X153604246Y-93807856I53033J53033D01*
G01*
X154558840Y-92853262D01*
G75*
G02*
X154664906Y-92853262I53033J-53033D01*
G01*
X154770972Y-92959328D01*
G75*
G02*
X154770972Y-93065394I-53033J-53033D01*
G01*
G37*
G36*
G01*
X154417419Y-92711841D02*
X153462825Y-93666435D01*
G75*
G02*
X153356759Y-93666435I-53033J53033D01*
G01*
X153250693Y-93560369D01*
G75*
G02*
X153250693Y-93454303I53033J53033D01*
G01*
X154205287Y-92499709D01*
G75*
G02*
X154311353Y-92499709I53033J-53033D01*
G01*
X154417419Y-92605775D01*
G75*
G02*
X154417419Y-92711841I-53033J-53033D01*
G01*
G37*
G36*
G01*
X154063866Y-92358288D02*
X153109272Y-93312882D01*
G75*
G02*
X153003206Y-93312882I-53033J53033D01*
G01*
X152897140Y-93206816D01*
G75*
G02*
X152897140Y-93100750I53033J53033D01*
G01*
X153851734Y-92146156D01*
G75*
G02*
X153957800Y-92146156I53033J-53033D01*
G01*
X154063866Y-92252222D01*
G75*
G02*
X154063866Y-92358288I-53033J-53033D01*
G01*
G37*
G36*
G01*
X153710312Y-92004734D02*
X152755718Y-92959328D01*
G75*
G02*
X152649652Y-92959328I-53033J53033D01*
G01*
X152543586Y-92853262D01*
G75*
G02*
X152543586Y-92747196I53033J53033D01*
G01*
X153498180Y-91792602D01*
G75*
G02*
X153604246Y-91792602I53033J-53033D01*
G01*
X153710312Y-91898668D01*
G75*
G02*
X153710312Y-92004734I-53033J-53033D01*
G01*
G37*
G36*
G01*
X153356759Y-91651181D02*
X152402165Y-92605775D01*
G75*
G02*
X152296099Y-92605775I-53033J53033D01*
G01*
X152190033Y-92499709D01*
G75*
G02*
X152190033Y-92393643I53033J53033D01*
G01*
X153144627Y-91439049D01*
G75*
G02*
X153250693Y-91439049I53033J-53033D01*
G01*
X153356759Y-91545115D01*
G75*
G02*
X153356759Y-91651181I-53033J-53033D01*
G01*
G37*
G36*
G01*
X153003205Y-91297627D02*
X152048611Y-92252221D01*
G75*
G02*
X151942545Y-92252221I-53033J53033D01*
G01*
X151836479Y-92146155D01*
G75*
G02*
X151836479Y-92040089I53033J53033D01*
G01*
X152791073Y-91085495D01*
G75*
G02*
X152897139Y-91085495I53033J-53033D01*
G01*
X153003205Y-91191561D01*
G75*
G02*
X153003205Y-91297627I-53033J-53033D01*
G01*
G37*
G36*
G01*
X152649652Y-90944074D02*
X151695058Y-91898668D01*
G75*
G02*
X151588992Y-91898668I-53033J53033D01*
G01*
X151482926Y-91792602D01*
G75*
G02*
X151482926Y-91686536I53033J53033D01*
G01*
X152437520Y-90731942D01*
G75*
G02*
X152543586Y-90731942I53033J-53033D01*
G01*
X152649652Y-90838008D01*
G75*
G02*
X152649652Y-90944074I-53033J-53033D01*
G01*
G37*
G36*
G01*
X152296099Y-90590521D02*
X151341505Y-91545115D01*
G75*
G02*
X151235439Y-91545115I-53033J53033D01*
G01*
X151129373Y-91439049D01*
G75*
G02*
X151129373Y-91332983I53033J53033D01*
G01*
X152083967Y-90378389D01*
G75*
G02*
X152190033Y-90378389I53033J-53033D01*
G01*
X152296099Y-90484455D01*
G75*
G02*
X152296099Y-90590521I-53033J-53033D01*
G01*
G37*
G36*
G01*
X151942545Y-90236967D02*
X150987951Y-91191561D01*
G75*
G02*
X150881885Y-91191561I-53033J53033D01*
G01*
X150775819Y-91085495D01*
G75*
G02*
X150775819Y-90979429I53033J53033D01*
G01*
X151730413Y-90024835D01*
G75*
G02*
X151836479Y-90024835I53033J-53033D01*
G01*
X151942545Y-90130901D01*
G75*
G02*
X151942545Y-90236967I-53033J-53033D01*
G01*
G37*
G36*
G01*
X151588992Y-89883414D02*
X150634398Y-90838008D01*
G75*
G02*
X150528332Y-90838008I-53033J53033D01*
G01*
X150422266Y-90731942D01*
G75*
G02*
X150422266Y-90625876I53033J53033D01*
G01*
X151376860Y-89671282D01*
G75*
G02*
X151482926Y-89671282I53033J-53033D01*
G01*
X151588992Y-89777348D01*
G75*
G02*
X151588992Y-89883414I-53033J-53033D01*
G01*
G37*
G36*
G01*
X151235438Y-89529860D02*
X150280844Y-90484454D01*
G75*
G02*
X150174778Y-90484454I-53033J53033D01*
G01*
X150068712Y-90378388D01*
G75*
G02*
X150068712Y-90272322I53033J53033D01*
G01*
X151023306Y-89317728D01*
G75*
G02*
X151129372Y-89317728I53033J-53033D01*
G01*
X151235438Y-89423794D01*
G75*
G02*
X151235438Y-89529860I-53033J-53033D01*
G01*
G37*
G36*
G01*
X150881885Y-89176307D02*
X149927291Y-90130901D01*
G75*
G02*
X149821225Y-90130901I-53033J53033D01*
G01*
X149715159Y-90024835D01*
G75*
G02*
X149715159Y-89918769I53033J53033D01*
G01*
X150669753Y-88964175D01*
G75*
G02*
X150775819Y-88964175I53033J-53033D01*
G01*
X150881885Y-89070241D01*
G75*
G02*
X150881885Y-89176307I-53033J-53033D01*
G01*
G37*
G36*
G01*
X150528332Y-88822754D02*
X149573738Y-89777348D01*
G75*
G02*
X149467672Y-89777348I-53033J53033D01*
G01*
X149361606Y-89671282D01*
G75*
G02*
X149361606Y-89565216I53033J53033D01*
G01*
X150316200Y-88610622D01*
G75*
G02*
X150422266Y-88610622I53033J-53033D01*
G01*
X150528332Y-88716688D01*
G75*
G02*
X150528332Y-88822754I-53033J-53033D01*
G01*
G37*
G36*
G01*
X150174778Y-88469200D02*
X149220184Y-89423794D01*
G75*
G02*
X149114118Y-89423794I-53033J53033D01*
G01*
X149008052Y-89317728D01*
G75*
G02*
X149008052Y-89211662I53033J53033D01*
G01*
X149962646Y-88257068D01*
G75*
G02*
X150068712Y-88257068I53033J-53033D01*
G01*
X150174778Y-88363134D01*
G75*
G02*
X150174778Y-88469200I-53033J-53033D01*
G01*
G37*
G36*
G01*
X149821225Y-88115647D02*
X148866631Y-89070241D01*
G75*
G02*
X148760565Y-89070241I-53033J53033D01*
G01*
X148654499Y-88964175D01*
G75*
G02*
X148654499Y-88858109I53033J53033D01*
G01*
X149609093Y-87903515D01*
G75*
G02*
X149715159Y-87903515I53033J-53033D01*
G01*
X149821225Y-88009581D01*
G75*
G02*
X149821225Y-88115647I-53033J-53033D01*
G01*
G37*
G36*
G01*
X149467672Y-87762094D02*
X148513078Y-88716688D01*
G75*
G02*
X148407012Y-88716688I-53033J53033D01*
G01*
X148300946Y-88610622D01*
G75*
G02*
X148300946Y-88504556I53033J53033D01*
G01*
X149255540Y-87549962D01*
G75*
G02*
X149361606Y-87549962I53033J-53033D01*
G01*
X149467672Y-87656028D01*
G75*
G02*
X149467672Y-87762094I-53033J-53033D01*
G01*
G37*
G36*
G01*
X149114118Y-87408540D02*
X148159524Y-88363134D01*
G75*
G02*
X148053458Y-88363134I-53033J53033D01*
G01*
X147947392Y-88257068D01*
G75*
G02*
X147947392Y-88151002I53033J53033D01*
G01*
X148901986Y-87196408D01*
G75*
G02*
X149008052Y-87196408I53033J-53033D01*
G01*
X149114118Y-87302474D01*
G75*
G02*
X149114118Y-87408540I-53033J-53033D01*
G01*
G37*
G36*
G01*
X148760565Y-87054987D02*
X147805971Y-88009581D01*
G75*
G02*
X147699905Y-88009581I-53033J53033D01*
G01*
X147593839Y-87903515D01*
G75*
G02*
X147593839Y-87797449I53033J53033D01*
G01*
X148548433Y-86842855D01*
G75*
G02*
X148654499Y-86842855I53033J-53033D01*
G01*
X148760565Y-86948921D01*
G75*
G02*
X148760565Y-87054987I-53033J-53033D01*
G01*
G37*
G36*
G01*
X148407011Y-86701433D02*
X147452417Y-87656027D01*
G75*
G02*
X147346351Y-87656027I-53033J53033D01*
G01*
X147240285Y-87549961D01*
G75*
G02*
X147240285Y-87443895I53033J53033D01*
G01*
X148194879Y-86489301D01*
G75*
G02*
X148300945Y-86489301I53033J-53033D01*
G01*
X148407011Y-86595367D01*
G75*
G02*
X148407011Y-86701433I-53033J-53033D01*
G01*
G37*
G36*
G01*
X148053458Y-86347880D02*
X147098864Y-87302474D01*
G75*
G02*
X146992798Y-87302474I-53033J53033D01*
G01*
X146886732Y-87196408D01*
G75*
G02*
X146886732Y-87090342I53033J53033D01*
G01*
X147841326Y-86135748D01*
G75*
G02*
X147947392Y-86135748I53033J-53033D01*
G01*
X148053458Y-86241814D01*
G75*
G02*
X148053458Y-86347880I-53033J-53033D01*
G01*
G37*
G36*
G01*
X147699905Y-85994327D02*
X146745311Y-86948921D01*
G75*
G02*
X146639245Y-86948921I-53033J53033D01*
G01*
X146533179Y-86842855D01*
G75*
G02*
X146533179Y-86736789I53033J53033D01*
G01*
X147487773Y-85782195D01*
G75*
G02*
X147593839Y-85782195I53033J-53033D01*
G01*
X147699905Y-85888261D01*
G75*
G02*
X147699905Y-85994327I-53033J-53033D01*
G01*
G37*
G36*
G01*
X147346351Y-85640773D02*
X146391757Y-86595367D01*
G75*
G02*
X146285691Y-86595367I-53033J53033D01*
G01*
X146179625Y-86489301D01*
G75*
G02*
X146179625Y-86383235I53033J53033D01*
G01*
X147134219Y-85428641D01*
G75*
G02*
X147240285Y-85428641I53033J-53033D01*
G01*
X147346351Y-85534707D01*
G75*
G02*
X147346351Y-85640773I-53033J-53033D01*
G01*
G37*
G36*
G01*
X146992798Y-85287220D02*
X146038204Y-86241814D01*
G75*
G02*
X145932138Y-86241814I-53033J53033D01*
G01*
X145826072Y-86135748D01*
G75*
G02*
X145826072Y-86029682I53033J53033D01*
G01*
X146780666Y-85075088D01*
G75*
G02*
X146886732Y-85075088I53033J-53033D01*
G01*
X146992798Y-85181154D01*
G75*
G02*
X146992798Y-85287220I-53033J-53033D01*
G01*
G37*
G36*
G01*
X146639244Y-84933666D02*
X145684650Y-85888260D01*
G75*
G02*
X145578584Y-85888260I-53033J53033D01*
G01*
X145472518Y-85782194D01*
G75*
G02*
X145472518Y-85676128I53033J53033D01*
G01*
X146427112Y-84721534D01*
G75*
G02*
X146533178Y-84721534I53033J-53033D01*
G01*
X146639244Y-84827600D01*
G75*
G02*
X146639244Y-84933666I-53033J-53033D01*
G01*
G37*
G36*
G01*
X146285691Y-84580113D02*
X145331097Y-85534707D01*
G75*
G02*
X145225031Y-85534707I-53033J53033D01*
G01*
X145118965Y-85428641D01*
G75*
G02*
X145118965Y-85322575I53033J53033D01*
G01*
X146073559Y-84367981D01*
G75*
G02*
X146179625Y-84367981I53033J-53033D01*
G01*
X146285691Y-84474047D01*
G75*
G02*
X146285691Y-84580113I-53033J-53033D01*
G01*
G37*
G36*
G01*
X145932138Y-84226560D02*
X144977544Y-85181154D01*
G75*
G02*
X144871478Y-85181154I-53033J53033D01*
G01*
X144765412Y-85075088D01*
G75*
G02*
X144765412Y-84969022I53033J53033D01*
G01*
X145720006Y-84014428D01*
G75*
G02*
X145826072Y-84014428I53033J-53033D01*
G01*
X145932138Y-84120494D01*
G75*
G02*
X145932138Y-84226560I-53033J-53033D01*
G01*
G37*
G36*
G01*
X145578584Y-83873006D02*
X144623990Y-84827600D01*
G75*
G02*
X144517924Y-84827600I-53033J53033D01*
G01*
X144411858Y-84721534D01*
G75*
G02*
X144411858Y-84615468I53033J53033D01*
G01*
X145366452Y-83660874D01*
G75*
G02*
X145472518Y-83660874I53033J-53033D01*
G01*
X145578584Y-83766940D01*
G75*
G02*
X145578584Y-83873006I-53033J-53033D01*
G01*
G37*
G36*
G01*
X145225031Y-83519453D02*
X144270437Y-84474047D01*
G75*
G02*
X144164371Y-84474047I-53033J53033D01*
G01*
X144058305Y-84367981D01*
G75*
G02*
X144058305Y-84261915I53033J53033D01*
G01*
X145012899Y-83307321D01*
G75*
G02*
X145118965Y-83307321I53033J-53033D01*
G01*
X145225031Y-83413387D01*
G75*
G02*
X145225031Y-83519453I-53033J-53033D01*
G01*
G37*
G36*
G01*
X144871477Y-83165899D02*
X143916883Y-84120493D01*
G75*
G02*
X143810817Y-84120493I-53033J53033D01*
G01*
X143704751Y-84014427D01*
G75*
G02*
X143704751Y-83908361I53033J53033D01*
G01*
X144659345Y-82953767D01*
G75*
G02*
X144765411Y-82953767I53033J-53033D01*
G01*
X144871477Y-83059833D01*
G75*
G02*
X144871477Y-83165899I-53033J-53033D01*
G01*
G37*
G36*
G01*
X144517924Y-82812346D02*
X143563330Y-83766940D01*
G75*
G02*
X143457264Y-83766940I-53033J53033D01*
G01*
X143351198Y-83660874D01*
G75*
G02*
X143351198Y-83554808I53033J53033D01*
G01*
X144305792Y-82600214D01*
G75*
G02*
X144411858Y-82600214I53033J-53033D01*
G01*
X144517924Y-82706280D01*
G75*
G02*
X144517924Y-82812346I-53033J-53033D01*
G01*
G37*
G36*
G01*
X144164371Y-82458793D02*
X143209777Y-83413387D01*
G75*
G02*
X143103711Y-83413387I-53033J53033D01*
G01*
X142997645Y-83307321D01*
G75*
G02*
X142997645Y-83201255I53033J53033D01*
G01*
X143952239Y-82246661D01*
G75*
G02*
X144058305Y-82246661I53033J-53033D01*
G01*
X144164371Y-82352727D01*
G75*
G02*
X144164371Y-82458793I-53033J-53033D01*
G01*
G37*
G36*
G01*
X143810817Y-82105239D02*
X142856223Y-83059833D01*
G75*
G02*
X142750157Y-83059833I-53033J53033D01*
G01*
X142644091Y-82953767D01*
G75*
G02*
X142644091Y-82847701I53033J53033D01*
G01*
X143598685Y-81893107D01*
G75*
G02*
X143704751Y-81893107I53033J-53033D01*
G01*
X143810817Y-81999173D01*
G75*
G02*
X143810817Y-82105239I-53033J-53033D01*
G01*
G37*
G36*
G01*
X143457264Y-81751686D02*
X142502670Y-82706280D01*
G75*
G02*
X142396604Y-82706280I-53033J53033D01*
G01*
X142290538Y-82600214D01*
G75*
G02*
X142290538Y-82494148I53033J53033D01*
G01*
X143245132Y-81539554D01*
G75*
G02*
X143351198Y-81539554I53033J-53033D01*
G01*
X143457264Y-81645620D01*
G75*
G02*
X143457264Y-81751686I-53033J-53033D01*
G01*
G37*
G36*
G01*
X143103711Y-81398132D02*
X142149117Y-82352726D01*
G75*
G02*
X142043051Y-82352726I-53033J53033D01*
G01*
X141936985Y-82246660D01*
G75*
G02*
X141936985Y-82140594I53033J53033D01*
G01*
X142891579Y-81186000D01*
G75*
G02*
X142997645Y-81186000I53033J-53033D01*
G01*
X143103711Y-81292066D01*
G75*
G02*
X143103711Y-81398132I-53033J-53033D01*
G01*
G37*
G36*
G01*
X142750157Y-81044579D02*
X141795563Y-81999173D01*
G75*
G02*
X141689497Y-81999173I-53033J53033D01*
G01*
X141583431Y-81893107D01*
G75*
G02*
X141583431Y-81787041I53033J53033D01*
G01*
X142538025Y-80832447D01*
G75*
G02*
X142644091Y-80832447I53033J-53033D01*
G01*
X142750157Y-80938513D01*
G75*
G02*
X142750157Y-81044579I-53033J-53033D01*
G01*
G37*
G36*
G01*
X142396604Y-80691026D02*
X141442010Y-81645620D01*
G75*
G02*
X141335944Y-81645620I-53033J53033D01*
G01*
X141229878Y-81539554D01*
G75*
G02*
X141229878Y-81433488I53033J53033D01*
G01*
X142184472Y-80478894D01*
G75*
G02*
X142290538Y-80478894I53033J-53033D01*
G01*
X142396604Y-80584960D01*
G75*
G02*
X142396604Y-80691026I-53033J-53033D01*
G01*
G37*
G36*
G01*
X142043050Y-80337472D02*
X141088456Y-81292066D01*
G75*
G02*
X140982390Y-81292066I-53033J53033D01*
G01*
X140876324Y-81186000D01*
G75*
G02*
X140876324Y-81079934I53033J53033D01*
G01*
X141830918Y-80125340D01*
G75*
G02*
X141936984Y-80125340I53033J-53033D01*
G01*
X142043050Y-80231406D01*
G75*
G02*
X142043050Y-80337472I-53033J-53033D01*
G01*
G37*
G36*
G01*
X141689497Y-79983919D02*
X140734903Y-80938513D01*
G75*
G02*
X140628837Y-80938513I-53033J53033D01*
G01*
X140522771Y-80832447D01*
G75*
G02*
X140522771Y-80726381I53033J53033D01*
G01*
X141477365Y-79771787D01*
G75*
G02*
X141583431Y-79771787I53033J-53033D01*
G01*
X141689497Y-79877853D01*
G75*
G02*
X141689497Y-79983919I-53033J-53033D01*
G01*
G37*
G36*
G01*
X141335944Y-79630366D02*
X140381350Y-80584960D01*
G75*
G02*
X140275284Y-80584960I-53033J53033D01*
G01*
X140169218Y-80478894D01*
G75*
G02*
X140169218Y-80372828I53033J53033D01*
G01*
X141123812Y-79418234D01*
G75*
G02*
X141229878Y-79418234I53033J-53033D01*
G01*
X141335944Y-79524300D01*
G75*
G02*
X141335944Y-79630366I-53033J-53033D01*
G01*
G37*
G36*
G01*
X138613582Y-80478894D02*
X138507516Y-80584960D01*
G75*
G02*
X138401450Y-80584960I-53033J53033D01*
G01*
X137446856Y-79630366D01*
G75*
G02*
X137446856Y-79524300I53033J53033D01*
G01*
X137552922Y-79418234D01*
G75*
G02*
X137658988Y-79418234I53033J-53033D01*
G01*
X138613582Y-80372828D01*
G75*
G02*
X138613582Y-80478894I-53033J-53033D01*
G01*
G37*
G36*
G01*
X138260029Y-80832447D02*
X138153963Y-80938513D01*
G75*
G02*
X138047897Y-80938513I-53033J53033D01*
G01*
X137093303Y-79983919D01*
G75*
G02*
X137093303Y-79877853I53033J53033D01*
G01*
X137199369Y-79771787D01*
G75*
G02*
X137305435Y-79771787I53033J-53033D01*
G01*
X138260029Y-80726381D01*
G75*
G02*
X138260029Y-80832447I-53033J-53033D01*
G01*
G37*
G36*
G01*
X137906476Y-81186000D02*
X137800410Y-81292066D01*
G75*
G02*
X137694344Y-81292066I-53033J53033D01*
G01*
X136739750Y-80337472D01*
G75*
G02*
X136739750Y-80231406I53033J53033D01*
G01*
X136845816Y-80125340D01*
G75*
G02*
X136951882Y-80125340I53033J-53033D01*
G01*
X137906476Y-81079934D01*
G75*
G02*
X137906476Y-81186000I-53033J-53033D01*
G01*
G37*
G36*
G01*
X137552922Y-81539554D02*
X137446856Y-81645620D01*
G75*
G02*
X137340790Y-81645620I-53033J53033D01*
G01*
X136386196Y-80691026D01*
G75*
G02*
X136386196Y-80584960I53033J53033D01*
G01*
X136492262Y-80478894D01*
G75*
G02*
X136598328Y-80478894I53033J-53033D01*
G01*
X137552922Y-81433488D01*
G75*
G02*
X137552922Y-81539554I-53033J-53033D01*
G01*
G37*
G36*
G01*
X137199369Y-81893107D02*
X137093303Y-81999173D01*
G75*
G02*
X136987237Y-81999173I-53033J53033D01*
G01*
X136032643Y-81044579D01*
G75*
G02*
X136032643Y-80938513I53033J53033D01*
G01*
X136138709Y-80832447D01*
G75*
G02*
X136244775Y-80832447I53033J-53033D01*
G01*
X137199369Y-81787041D01*
G75*
G02*
X137199369Y-81893107I-53033J-53033D01*
G01*
G37*
G36*
G01*
X136845815Y-82246660D02*
X136739749Y-82352726D01*
G75*
G02*
X136633683Y-82352726I-53033J53033D01*
G01*
X135679089Y-81398132D01*
G75*
G02*
X135679089Y-81292066I53033J53033D01*
G01*
X135785155Y-81186000D01*
G75*
G02*
X135891221Y-81186000I53033J-53033D01*
G01*
X136845815Y-82140594D01*
G75*
G02*
X136845815Y-82246660I-53033J-53033D01*
G01*
G37*
G36*
G01*
X136492262Y-82600214D02*
X136386196Y-82706280D01*
G75*
G02*
X136280130Y-82706280I-53033J53033D01*
G01*
X135325536Y-81751686D01*
G75*
G02*
X135325536Y-81645620I53033J53033D01*
G01*
X135431602Y-81539554D01*
G75*
G02*
X135537668Y-81539554I53033J-53033D01*
G01*
X136492262Y-82494148D01*
G75*
G02*
X136492262Y-82600214I-53033J-53033D01*
G01*
G37*
G36*
G01*
X136138709Y-82953767D02*
X136032643Y-83059833D01*
G75*
G02*
X135926577Y-83059833I-53033J53033D01*
G01*
X134971983Y-82105239D01*
G75*
G02*
X134971983Y-81999173I53033J53033D01*
G01*
X135078049Y-81893107D01*
G75*
G02*
X135184115Y-81893107I53033J-53033D01*
G01*
X136138709Y-82847701D01*
G75*
G02*
X136138709Y-82953767I-53033J-53033D01*
G01*
G37*
G36*
G01*
X135785155Y-83307321D02*
X135679089Y-83413387D01*
G75*
G02*
X135573023Y-83413387I-53033J53033D01*
G01*
X134618429Y-82458793D01*
G75*
G02*
X134618429Y-82352727I53033J53033D01*
G01*
X134724495Y-82246661D01*
G75*
G02*
X134830561Y-82246661I53033J-53033D01*
G01*
X135785155Y-83201255D01*
G75*
G02*
X135785155Y-83307321I-53033J-53033D01*
G01*
G37*
G36*
G01*
X135431602Y-83660874D02*
X135325536Y-83766940D01*
G75*
G02*
X135219470Y-83766940I-53033J53033D01*
G01*
X134264876Y-82812346D01*
G75*
G02*
X134264876Y-82706280I53033J53033D01*
G01*
X134370942Y-82600214D01*
G75*
G02*
X134477008Y-82600214I53033J-53033D01*
G01*
X135431602Y-83554808D01*
G75*
G02*
X135431602Y-83660874I-53033J-53033D01*
G01*
G37*
G36*
G01*
X135078049Y-84014427D02*
X134971983Y-84120493D01*
G75*
G02*
X134865917Y-84120493I-53033J53033D01*
G01*
X133911323Y-83165899D01*
G75*
G02*
X133911323Y-83059833I53033J53033D01*
G01*
X134017389Y-82953767D01*
G75*
G02*
X134123455Y-82953767I53033J-53033D01*
G01*
X135078049Y-83908361D01*
G75*
G02*
X135078049Y-84014427I-53033J-53033D01*
G01*
G37*
G36*
G01*
X134724495Y-84367981D02*
X134618429Y-84474047D01*
G75*
G02*
X134512363Y-84474047I-53033J53033D01*
G01*
X133557769Y-83519453D01*
G75*
G02*
X133557769Y-83413387I53033J53033D01*
G01*
X133663835Y-83307321D01*
G75*
G02*
X133769901Y-83307321I53033J-53033D01*
G01*
X134724495Y-84261915D01*
G75*
G02*
X134724495Y-84367981I-53033J-53033D01*
G01*
G37*
G36*
G01*
X134370942Y-84721534D02*
X134264876Y-84827600D01*
G75*
G02*
X134158810Y-84827600I-53033J53033D01*
G01*
X133204216Y-83873006D01*
G75*
G02*
X133204216Y-83766940I53033J53033D01*
G01*
X133310282Y-83660874D01*
G75*
G02*
X133416348Y-83660874I53033J-53033D01*
G01*
X134370942Y-84615468D01*
G75*
G02*
X134370942Y-84721534I-53033J-53033D01*
G01*
G37*
G36*
G01*
X134017388Y-85075088D02*
X133911322Y-85181154D01*
G75*
G02*
X133805256Y-85181154I-53033J53033D01*
G01*
X132850662Y-84226560D01*
G75*
G02*
X132850662Y-84120494I53033J53033D01*
G01*
X132956728Y-84014428D01*
G75*
G02*
X133062794Y-84014428I53033J-53033D01*
G01*
X134017388Y-84969022D01*
G75*
G02*
X134017388Y-85075088I-53033J-53033D01*
G01*
G37*
G36*
G01*
X133663835Y-85428641D02*
X133557769Y-85534707D01*
G75*
G02*
X133451703Y-85534707I-53033J53033D01*
G01*
X132497109Y-84580113D01*
G75*
G02*
X132497109Y-84474047I53033J53033D01*
G01*
X132603175Y-84367981D01*
G75*
G02*
X132709241Y-84367981I53033J-53033D01*
G01*
X133663835Y-85322575D01*
G75*
G02*
X133663835Y-85428641I-53033J-53033D01*
G01*
G37*
G36*
G01*
X133310282Y-85782194D02*
X133204216Y-85888260D01*
G75*
G02*
X133098150Y-85888260I-53033J53033D01*
G01*
X132143556Y-84933666D01*
G75*
G02*
X132143556Y-84827600I53033J53033D01*
G01*
X132249622Y-84721534D01*
G75*
G02*
X132355688Y-84721534I53033J-53033D01*
G01*
X133310282Y-85676128D01*
G75*
G02*
X133310282Y-85782194I-53033J-53033D01*
G01*
G37*
G36*
G01*
X132956728Y-86135748D02*
X132850662Y-86241814D01*
G75*
G02*
X132744596Y-86241814I-53033J53033D01*
G01*
X131790002Y-85287220D01*
G75*
G02*
X131790002Y-85181154I53033J53033D01*
G01*
X131896068Y-85075088D01*
G75*
G02*
X132002134Y-85075088I53033J-53033D01*
G01*
X132956728Y-86029682D01*
G75*
G02*
X132956728Y-86135748I-53033J-53033D01*
G01*
G37*
G36*
G01*
X132603175Y-86489301D02*
X132497109Y-86595367D01*
G75*
G02*
X132391043Y-86595367I-53033J53033D01*
G01*
X131436449Y-85640773D01*
G75*
G02*
X131436449Y-85534707I53033J53033D01*
G01*
X131542515Y-85428641D01*
G75*
G02*
X131648581Y-85428641I53033J-53033D01*
G01*
X132603175Y-86383235D01*
G75*
G02*
X132603175Y-86489301I-53033J-53033D01*
G01*
G37*
G36*
G01*
X132249621Y-86842855D02*
X132143555Y-86948921D01*
G75*
G02*
X132037489Y-86948921I-53033J53033D01*
G01*
X131082895Y-85994327D01*
G75*
G02*
X131082895Y-85888261I53033J53033D01*
G01*
X131188961Y-85782195D01*
G75*
G02*
X131295027Y-85782195I53033J-53033D01*
G01*
X132249621Y-86736789D01*
G75*
G02*
X132249621Y-86842855I-53033J-53033D01*
G01*
G37*
G36*
G01*
X131896068Y-87196408D02*
X131790002Y-87302474D01*
G75*
G02*
X131683936Y-87302474I-53033J53033D01*
G01*
X130729342Y-86347880D01*
G75*
G02*
X130729342Y-86241814I53033J53033D01*
G01*
X130835408Y-86135748D01*
G75*
G02*
X130941474Y-86135748I53033J-53033D01*
G01*
X131896068Y-87090342D01*
G75*
G02*
X131896068Y-87196408I-53033J-53033D01*
G01*
G37*
G36*
G01*
X131542515Y-87549961D02*
X131436449Y-87656027D01*
G75*
G02*
X131330383Y-87656027I-53033J53033D01*
G01*
X130375789Y-86701433D01*
G75*
G02*
X130375789Y-86595367I53033J53033D01*
G01*
X130481855Y-86489301D01*
G75*
G02*
X130587921Y-86489301I53033J-53033D01*
G01*
X131542515Y-87443895D01*
G75*
G02*
X131542515Y-87549961I-53033J-53033D01*
G01*
G37*
G36*
G01*
X131188961Y-87903515D02*
X131082895Y-88009581D01*
G75*
G02*
X130976829Y-88009581I-53033J53033D01*
G01*
X130022235Y-87054987D01*
G75*
G02*
X130022235Y-86948921I53033J53033D01*
G01*
X130128301Y-86842855D01*
G75*
G02*
X130234367Y-86842855I53033J-53033D01*
G01*
X131188961Y-87797449D01*
G75*
G02*
X131188961Y-87903515I-53033J-53033D01*
G01*
G37*
G36*
G01*
X130835408Y-88257068D02*
X130729342Y-88363134D01*
G75*
G02*
X130623276Y-88363134I-53033J53033D01*
G01*
X129668682Y-87408540D01*
G75*
G02*
X129668682Y-87302474I53033J53033D01*
G01*
X129774748Y-87196408D01*
G75*
G02*
X129880814Y-87196408I53033J-53033D01*
G01*
X130835408Y-88151002D01*
G75*
G02*
X130835408Y-88257068I-53033J-53033D01*
G01*
G37*
G36*
G01*
X130481854Y-88610622D02*
X130375788Y-88716688D01*
G75*
G02*
X130269722Y-88716688I-53033J53033D01*
G01*
X129315128Y-87762094D01*
G75*
G02*
X129315128Y-87656028I53033J53033D01*
G01*
X129421194Y-87549962D01*
G75*
G02*
X129527260Y-87549962I53033J-53033D01*
G01*
X130481854Y-88504556D01*
G75*
G02*
X130481854Y-88610622I-53033J-53033D01*
G01*
G37*
G36*
G01*
X130128301Y-88964175D02*
X130022235Y-89070241D01*
G75*
G02*
X129916169Y-89070241I-53033J53033D01*
G01*
X128961575Y-88115647D01*
G75*
G02*
X128961575Y-88009581I53033J53033D01*
G01*
X129067641Y-87903515D01*
G75*
G02*
X129173707Y-87903515I53033J-53033D01*
G01*
X130128301Y-88858109D01*
G75*
G02*
X130128301Y-88964175I-53033J-53033D01*
G01*
G37*
G36*
G01*
X129774748Y-89317728D02*
X129668682Y-89423794D01*
G75*
G02*
X129562616Y-89423794I-53033J53033D01*
G01*
X128608022Y-88469200D01*
G75*
G02*
X128608022Y-88363134I53033J53033D01*
G01*
X128714088Y-88257068D01*
G75*
G02*
X128820154Y-88257068I53033J-53033D01*
G01*
X129774748Y-89211662D01*
G75*
G02*
X129774748Y-89317728I-53033J-53033D01*
G01*
G37*
G36*
G01*
X129421194Y-89671282D02*
X129315128Y-89777348D01*
G75*
G02*
X129209062Y-89777348I-53033J53033D01*
G01*
X128254468Y-88822754D01*
G75*
G02*
X128254468Y-88716688I53033J53033D01*
G01*
X128360534Y-88610622D01*
G75*
G02*
X128466600Y-88610622I53033J-53033D01*
G01*
X129421194Y-89565216D01*
G75*
G02*
X129421194Y-89671282I-53033J-53033D01*
G01*
G37*
G36*
G01*
X129067641Y-90024835D02*
X128961575Y-90130901D01*
G75*
G02*
X128855509Y-90130901I-53033J53033D01*
G01*
X127900915Y-89176307D01*
G75*
G02*
X127900915Y-89070241I53033J53033D01*
G01*
X128006981Y-88964175D01*
G75*
G02*
X128113047Y-88964175I53033J-53033D01*
G01*
X129067641Y-89918769D01*
G75*
G02*
X129067641Y-90024835I-53033J-53033D01*
G01*
G37*
G36*
G01*
X128714088Y-90378388D02*
X128608022Y-90484454D01*
G75*
G02*
X128501956Y-90484454I-53033J53033D01*
G01*
X127547362Y-89529860D01*
G75*
G02*
X127547362Y-89423794I53033J53033D01*
G01*
X127653428Y-89317728D01*
G75*
G02*
X127759494Y-89317728I53033J-53033D01*
G01*
X128714088Y-90272322D01*
G75*
G02*
X128714088Y-90378388I-53033J-53033D01*
G01*
G37*
G36*
G01*
X128360534Y-90731942D02*
X128254468Y-90838008D01*
G75*
G02*
X128148402Y-90838008I-53033J53033D01*
G01*
X127193808Y-89883414D01*
G75*
G02*
X127193808Y-89777348I53033J53033D01*
G01*
X127299874Y-89671282D01*
G75*
G02*
X127405940Y-89671282I53033J-53033D01*
G01*
X128360534Y-90625876D01*
G75*
G02*
X128360534Y-90731942I-53033J-53033D01*
G01*
G37*
G36*
G01*
X128006981Y-91085495D02*
X127900915Y-91191561D01*
G75*
G02*
X127794849Y-91191561I-53033J53033D01*
G01*
X126840255Y-90236967D01*
G75*
G02*
X126840255Y-90130901I53033J53033D01*
G01*
X126946321Y-90024835D01*
G75*
G02*
X127052387Y-90024835I53033J-53033D01*
G01*
X128006981Y-90979429D01*
G75*
G02*
X128006981Y-91085495I-53033J-53033D01*
G01*
G37*
G36*
G01*
X127653427Y-91439049D02*
X127547361Y-91545115D01*
G75*
G02*
X127441295Y-91545115I-53033J53033D01*
G01*
X126486701Y-90590521D01*
G75*
G02*
X126486701Y-90484455I53033J53033D01*
G01*
X126592767Y-90378389D01*
G75*
G02*
X126698833Y-90378389I53033J-53033D01*
G01*
X127653427Y-91332983D01*
G75*
G02*
X127653427Y-91439049I-53033J-53033D01*
G01*
G37*
G36*
G01*
X127299874Y-91792602D02*
X127193808Y-91898668D01*
G75*
G02*
X127087742Y-91898668I-53033J53033D01*
G01*
X126133148Y-90944074D01*
G75*
G02*
X126133148Y-90838008I53033J53033D01*
G01*
X126239214Y-90731942D01*
G75*
G02*
X126345280Y-90731942I53033J-53033D01*
G01*
X127299874Y-91686536D01*
G75*
G02*
X127299874Y-91792602I-53033J-53033D01*
G01*
G37*
G36*
G01*
X126946321Y-92146155D02*
X126840255Y-92252221D01*
G75*
G02*
X126734189Y-92252221I-53033J53033D01*
G01*
X125779595Y-91297627D01*
G75*
G02*
X125779595Y-91191561I53033J53033D01*
G01*
X125885661Y-91085495D01*
G75*
G02*
X125991727Y-91085495I53033J-53033D01*
G01*
X126946321Y-92040089D01*
G75*
G02*
X126946321Y-92146155I-53033J-53033D01*
G01*
G37*
G36*
G01*
X126592767Y-92499709D02*
X126486701Y-92605775D01*
G75*
G02*
X126380635Y-92605775I-53033J53033D01*
G01*
X125426041Y-91651181D01*
G75*
G02*
X125426041Y-91545115I53033J53033D01*
G01*
X125532107Y-91439049D01*
G75*
G02*
X125638173Y-91439049I53033J-53033D01*
G01*
X126592767Y-92393643D01*
G75*
G02*
X126592767Y-92499709I-53033J-53033D01*
G01*
G37*
G36*
G01*
X126239214Y-92853262D02*
X126133148Y-92959328D01*
G75*
G02*
X126027082Y-92959328I-53033J53033D01*
G01*
X125072488Y-92004734D01*
G75*
G02*
X125072488Y-91898668I53033J53033D01*
G01*
X125178554Y-91792602D01*
G75*
G02*
X125284620Y-91792602I53033J-53033D01*
G01*
X126239214Y-92747196D01*
G75*
G02*
X126239214Y-92853262I-53033J-53033D01*
G01*
G37*
G36*
G01*
X125885660Y-93206816D02*
X125779594Y-93312882D01*
G75*
G02*
X125673528Y-93312882I-53033J53033D01*
G01*
X124718934Y-92358288D01*
G75*
G02*
X124718934Y-92252222I53033J53033D01*
G01*
X124825000Y-92146156D01*
G75*
G02*
X124931066Y-92146156I53033J-53033D01*
G01*
X125885660Y-93100750D01*
G75*
G02*
X125885660Y-93206816I-53033J-53033D01*
G01*
G37*
G36*
G01*
X125532107Y-93560369D02*
X125426041Y-93666435D01*
G75*
G02*
X125319975Y-93666435I-53033J53033D01*
G01*
X124365381Y-92711841D01*
G75*
G02*
X124365381Y-92605775I53033J53033D01*
G01*
X124471447Y-92499709D01*
G75*
G02*
X124577513Y-92499709I53033J-53033D01*
G01*
X125532107Y-93454303D01*
G75*
G02*
X125532107Y-93560369I-53033J-53033D01*
G01*
G37*
G36*
G01*
X125178554Y-93913922D02*
X125072488Y-94019988D01*
G75*
G02*
X124966422Y-94019988I-53033J53033D01*
G01*
X124011828Y-93065394D01*
G75*
G02*
X124011828Y-92959328I53033J53033D01*
G01*
X124117894Y-92853262D01*
G75*
G02*
X124223960Y-92853262I53033J-53033D01*
G01*
X125178554Y-93807856D01*
G75*
G02*
X125178554Y-93913922I-53033J-53033D01*
G01*
G37*
G36*
G01*
X124825000Y-94267476D02*
X124718934Y-94373542D01*
G75*
G02*
X124612868Y-94373542I-53033J53033D01*
G01*
X123658274Y-93418948D01*
G75*
G02*
X123658274Y-93312882I53033J53033D01*
G01*
X123764340Y-93206816D01*
G75*
G02*
X123870406Y-93206816I53033J-53033D01*
G01*
X124825000Y-94161410D01*
G75*
G02*
X124825000Y-94267476I-53033J-53033D01*
G01*
G37*
G36*
G01*
X124471447Y-94621029D02*
X124365381Y-94727095D01*
G75*
G02*
X124259315Y-94727095I-53033J53033D01*
G01*
X123304721Y-93772501D01*
G75*
G02*
X123304721Y-93666435I53033J53033D01*
G01*
X123410787Y-93560369D01*
G75*
G02*
X123516853Y-93560369I53033J-53033D01*
G01*
X124471447Y-94514963D01*
G75*
G02*
X124471447Y-94621029I-53033J-53033D01*
G01*
G37*
G36*
G01*
X124117893Y-94974583D02*
X124011827Y-95080649D01*
G75*
G02*
X123905761Y-95080649I-53033J53033D01*
G01*
X122951167Y-94126055D01*
G75*
G02*
X122951167Y-94019989I53033J53033D01*
G01*
X123057233Y-93913923D01*
G75*
G02*
X123163299Y-93913923I53033J-53033D01*
G01*
X124117893Y-94868517D01*
G75*
G02*
X124117893Y-94974583I-53033J-53033D01*
G01*
G37*
G36*
G01*
X123764340Y-95328136D02*
X123658274Y-95434202D01*
G75*
G02*
X123552208Y-95434202I-53033J53033D01*
G01*
X122597614Y-94479608D01*
G75*
G02*
X122597614Y-94373542I53033J53033D01*
G01*
X122703680Y-94267476D01*
G75*
G02*
X122809746Y-94267476I53033J-53033D01*
G01*
X123764340Y-95222070D01*
G75*
G02*
X123764340Y-95328136I-53033J-53033D01*
G01*
G37*
G36*
G01*
X123410787Y-95681689D02*
X123304721Y-95787755D01*
G75*
G02*
X123198655Y-95787755I-53033J53033D01*
G01*
X122244061Y-94833161D01*
G75*
G02*
X122244061Y-94727095I53033J53033D01*
G01*
X122350127Y-94621029D01*
G75*
G02*
X122456193Y-94621029I53033J-53033D01*
G01*
X123410787Y-95575623D01*
G75*
G02*
X123410787Y-95681689I-53033J-53033D01*
G01*
G37*
G36*
G01*
X123057233Y-96035243D02*
X122951167Y-96141309D01*
G75*
G02*
X122845101Y-96141309I-53033J53033D01*
G01*
X121890507Y-95186715D01*
G75*
G02*
X121890507Y-95080649I53033J53033D01*
G01*
X121996573Y-94974583D01*
G75*
G02*
X122102639Y-94974583I53033J-53033D01*
G01*
X123057233Y-95929177D01*
G75*
G02*
X123057233Y-96035243I-53033J-53033D01*
G01*
G37*
G36*
G01*
X122703680Y-96388796D02*
X122597614Y-96494862D01*
G75*
G02*
X122491548Y-96494862I-53033J53033D01*
G01*
X121536954Y-95540268D01*
G75*
G02*
X121536954Y-95434202I53033J53033D01*
G01*
X121643020Y-95328136D01*
G75*
G02*
X121749086Y-95328136I53033J-53033D01*
G01*
X122703680Y-96282730D01*
G75*
G02*
X122703680Y-96388796I-53033J-53033D01*
G01*
G37*
G36*
G01*
X122350126Y-96742349D02*
X122244060Y-96848415D01*
G75*
G02*
X122137994Y-96848415I-53033J53033D01*
G01*
X121183400Y-95893821D01*
G75*
G02*
X121183400Y-95787755I53033J53033D01*
G01*
X121289466Y-95681689D01*
G75*
G02*
X121395532Y-95681689I53033J-53033D01*
G01*
X122350126Y-96636283D01*
G75*
G02*
X122350126Y-96742349I-53033J-53033D01*
G01*
G37*
G36*
G01*
X121996573Y-97095903D02*
X121890507Y-97201969D01*
G75*
G02*
X121784441Y-97201969I-53033J53033D01*
G01*
X120829847Y-96247375D01*
G75*
G02*
X120829847Y-96141309I53033J53033D01*
G01*
X120935913Y-96035243D01*
G75*
G02*
X121041979Y-96035243I53033J-53033D01*
G01*
X121996573Y-96989837D01*
G75*
G02*
X121996573Y-97095903I-53033J-53033D01*
G01*
G37*
G36*
G01*
X121643020Y-97449456D02*
X121536954Y-97555522D01*
G75*
G02*
X121430888Y-97555522I-53033J53033D01*
G01*
X120476294Y-96600928D01*
G75*
G02*
X120476294Y-96494862I53033J53033D01*
G01*
X120582360Y-96388796D01*
G75*
G02*
X120688426Y-96388796I53033J-53033D01*
G01*
X121643020Y-97343390D01*
G75*
G02*
X121643020Y-97449456I-53033J-53033D01*
G01*
G37*
G36*
G01*
X121289466Y-97803010D02*
X121183400Y-97909076D01*
G75*
G02*
X121077334Y-97909076I-53033J53033D01*
G01*
X120122740Y-96954482D01*
G75*
G02*
X120122740Y-96848416I53033J53033D01*
G01*
X120228806Y-96742350D01*
G75*
G02*
X120334872Y-96742350I53033J-53033D01*
G01*
X121289466Y-97696944D01*
G75*
G02*
X121289466Y-97803010I-53033J-53033D01*
G01*
G37*
G36*
G01*
X120935913Y-98156563D02*
X120829847Y-98262629D01*
G75*
G02*
X120723781Y-98262629I-53033J53033D01*
G01*
X119769187Y-97308035D01*
G75*
G02*
X119769187Y-97201969I53033J53033D01*
G01*
X119875253Y-97095903D01*
G75*
G02*
X119981319Y-97095903I53033J-53033D01*
G01*
X120935913Y-98050497D01*
G75*
G02*
X120935913Y-98156563I-53033J-53033D01*
G01*
G37*
G36*
G01*
X120582360Y-98510116D02*
X120476294Y-98616182D01*
G75*
G02*
X120370228Y-98616182I-53033J53033D01*
G01*
X119415634Y-97661588D01*
G75*
G02*
X119415634Y-97555522I53033J53033D01*
G01*
X119521700Y-97449456D01*
G75*
G02*
X119627766Y-97449456I53033J-53033D01*
G01*
X120582360Y-98404050D01*
G75*
G02*
X120582360Y-98510116I-53033J-53033D01*
G01*
G37*
G36*
G01*
X120582360Y-100383950D02*
X119627766Y-101338544D01*
G75*
G02*
X119521700Y-101338544I-53033J53033D01*
G01*
X119415634Y-101232478D01*
G75*
G02*
X119415634Y-101126412I53033J53033D01*
G01*
X120370228Y-100171818D01*
G75*
G02*
X120476294Y-100171818I53033J-53033D01*
G01*
X120582360Y-100277884D01*
G75*
G02*
X120582360Y-100383950I-53033J-53033D01*
G01*
G37*
G36*
G01*
X120935913Y-100737503D02*
X119981319Y-101692097D01*
G75*
G02*
X119875253Y-101692097I-53033J53033D01*
G01*
X119769187Y-101586031D01*
G75*
G02*
X119769187Y-101479965I53033J53033D01*
G01*
X120723781Y-100525371D01*
G75*
G02*
X120829847Y-100525371I53033J-53033D01*
G01*
X120935913Y-100631437D01*
G75*
G02*
X120935913Y-100737503I-53033J-53033D01*
G01*
G37*
G36*
G01*
X121289466Y-101091056D02*
X120334872Y-102045650D01*
G75*
G02*
X120228806Y-102045650I-53033J53033D01*
G01*
X120122740Y-101939584D01*
G75*
G02*
X120122740Y-101833518I53033J53033D01*
G01*
X121077334Y-100878924D01*
G75*
G02*
X121183400Y-100878924I53033J-53033D01*
G01*
X121289466Y-100984990D01*
G75*
G02*
X121289466Y-101091056I-53033J-53033D01*
G01*
G37*
G36*
G01*
X121643020Y-101444610D02*
X120688426Y-102399204D01*
G75*
G02*
X120582360Y-102399204I-53033J53033D01*
G01*
X120476294Y-102293138D01*
G75*
G02*
X120476294Y-102187072I53033J53033D01*
G01*
X121430888Y-101232478D01*
G75*
G02*
X121536954Y-101232478I53033J-53033D01*
G01*
X121643020Y-101338544D01*
G75*
G02*
X121643020Y-101444610I-53033J-53033D01*
G01*
G37*
G36*
G01*
X121996573Y-101798163D02*
X121041979Y-102752757D01*
G75*
G02*
X120935913Y-102752757I-53033J53033D01*
G01*
X120829847Y-102646691D01*
G75*
G02*
X120829847Y-102540625I53033J53033D01*
G01*
X121784441Y-101586031D01*
G75*
G02*
X121890507Y-101586031I53033J-53033D01*
G01*
X121996573Y-101692097D01*
G75*
G02*
X121996573Y-101798163I-53033J-53033D01*
G01*
G37*
G36*
G01*
X122350126Y-102151717D02*
X121395532Y-103106311D01*
G75*
G02*
X121289466Y-103106311I-53033J53033D01*
G01*
X121183400Y-103000245D01*
G75*
G02*
X121183400Y-102894179I53033J53033D01*
G01*
X122137994Y-101939585D01*
G75*
G02*
X122244060Y-101939585I53033J-53033D01*
G01*
X122350126Y-102045651D01*
G75*
G02*
X122350126Y-102151717I-53033J-53033D01*
G01*
G37*
G36*
G01*
X122703680Y-102505270D02*
X121749086Y-103459864D01*
G75*
G02*
X121643020Y-103459864I-53033J53033D01*
G01*
X121536954Y-103353798D01*
G75*
G02*
X121536954Y-103247732I53033J53033D01*
G01*
X122491548Y-102293138D01*
G75*
G02*
X122597614Y-102293138I53033J-53033D01*
G01*
X122703680Y-102399204D01*
G75*
G02*
X122703680Y-102505270I-53033J-53033D01*
G01*
G37*
G36*
G01*
X123057233Y-102858823D02*
X122102639Y-103813417D01*
G75*
G02*
X121996573Y-103813417I-53033J53033D01*
G01*
X121890507Y-103707351D01*
G75*
G02*
X121890507Y-103601285I53033J53033D01*
G01*
X122845101Y-102646691D01*
G75*
G02*
X122951167Y-102646691I53033J-53033D01*
G01*
X123057233Y-102752757D01*
G75*
G02*
X123057233Y-102858823I-53033J-53033D01*
G01*
G37*
G36*
G01*
X123410787Y-103212377D02*
X122456193Y-104166971D01*
G75*
G02*
X122350127Y-104166971I-53033J53033D01*
G01*
X122244061Y-104060905D01*
G75*
G02*
X122244061Y-103954839I53033J53033D01*
G01*
X123198655Y-103000245D01*
G75*
G02*
X123304721Y-103000245I53033J-53033D01*
G01*
X123410787Y-103106311D01*
G75*
G02*
X123410787Y-103212377I-53033J-53033D01*
G01*
G37*
G36*
G01*
X123764340Y-103565930D02*
X122809746Y-104520524D01*
G75*
G02*
X122703680Y-104520524I-53033J53033D01*
G01*
X122597614Y-104414458D01*
G75*
G02*
X122597614Y-104308392I53033J53033D01*
G01*
X123552208Y-103353798D01*
G75*
G02*
X123658274Y-103353798I53033J-53033D01*
G01*
X123764340Y-103459864D01*
G75*
G02*
X123764340Y-103565930I-53033J-53033D01*
G01*
G37*
G36*
G01*
X124117893Y-103919483D02*
X123163299Y-104874077D01*
G75*
G02*
X123057233Y-104874077I-53033J53033D01*
G01*
X122951167Y-104768011D01*
G75*
G02*
X122951167Y-104661945I53033J53033D01*
G01*
X123905761Y-103707351D01*
G75*
G02*
X124011827Y-103707351I53033J-53033D01*
G01*
X124117893Y-103813417D01*
G75*
G02*
X124117893Y-103919483I-53033J-53033D01*
G01*
G37*
G36*
G01*
X124471447Y-104273037D02*
X123516853Y-105227631D01*
G75*
G02*
X123410787Y-105227631I-53033J53033D01*
G01*
X123304721Y-105121565D01*
G75*
G02*
X123304721Y-105015499I53033J53033D01*
G01*
X124259315Y-104060905D01*
G75*
G02*
X124365381Y-104060905I53033J-53033D01*
G01*
X124471447Y-104166971D01*
G75*
G02*
X124471447Y-104273037I-53033J-53033D01*
G01*
G37*
G36*
G01*
X124825000Y-104626590D02*
X123870406Y-105581184D01*
G75*
G02*
X123764340Y-105581184I-53033J53033D01*
G01*
X123658274Y-105475118D01*
G75*
G02*
X123658274Y-105369052I53033J53033D01*
G01*
X124612868Y-104414458D01*
G75*
G02*
X124718934Y-104414458I53033J-53033D01*
G01*
X124825000Y-104520524D01*
G75*
G02*
X124825000Y-104626590I-53033J-53033D01*
G01*
G37*
G36*
G01*
X125178554Y-104980144D02*
X124223960Y-105934738D01*
G75*
G02*
X124117894Y-105934738I-53033J53033D01*
G01*
X124011828Y-105828672D01*
G75*
G02*
X124011828Y-105722606I53033J53033D01*
G01*
X124966422Y-104768012D01*
G75*
G02*
X125072488Y-104768012I53033J-53033D01*
G01*
X125178554Y-104874078D01*
G75*
G02*
X125178554Y-104980144I-53033J-53033D01*
G01*
G37*
G36*
G01*
X125532107Y-105333697D02*
X124577513Y-106288291D01*
G75*
G02*
X124471447Y-106288291I-53033J53033D01*
G01*
X124365381Y-106182225D01*
G75*
G02*
X124365381Y-106076159I53033J53033D01*
G01*
X125319975Y-105121565D01*
G75*
G02*
X125426041Y-105121565I53033J-53033D01*
G01*
X125532107Y-105227631D01*
G75*
G02*
X125532107Y-105333697I-53033J-53033D01*
G01*
G37*
G36*
G01*
X125885660Y-105687250D02*
X124931066Y-106641844D01*
G75*
G02*
X124825000Y-106641844I-53033J53033D01*
G01*
X124718934Y-106535778D01*
G75*
G02*
X124718934Y-106429712I53033J53033D01*
G01*
X125673528Y-105475118D01*
G75*
G02*
X125779594Y-105475118I53033J-53033D01*
G01*
X125885660Y-105581184D01*
G75*
G02*
X125885660Y-105687250I-53033J-53033D01*
G01*
G37*
G36*
G01*
X126239214Y-106040804D02*
X125284620Y-106995398D01*
G75*
G02*
X125178554Y-106995398I-53033J53033D01*
G01*
X125072488Y-106889332D01*
G75*
G02*
X125072488Y-106783266I53033J53033D01*
G01*
X126027082Y-105828672D01*
G75*
G02*
X126133148Y-105828672I53033J-53033D01*
G01*
X126239214Y-105934738D01*
G75*
G02*
X126239214Y-106040804I-53033J-53033D01*
G01*
G37*
G36*
G01*
X126592767Y-106394357D02*
X125638173Y-107348951D01*
G75*
G02*
X125532107Y-107348951I-53033J53033D01*
G01*
X125426041Y-107242885D01*
G75*
G02*
X125426041Y-107136819I53033J53033D01*
G01*
X126380635Y-106182225D01*
G75*
G02*
X126486701Y-106182225I53033J-53033D01*
G01*
X126592767Y-106288291D01*
G75*
G02*
X126592767Y-106394357I-53033J-53033D01*
G01*
G37*
G36*
G01*
X126946321Y-106747911D02*
X125991727Y-107702505D01*
G75*
G02*
X125885661Y-107702505I-53033J53033D01*
G01*
X125779595Y-107596439D01*
G75*
G02*
X125779595Y-107490373I53033J53033D01*
G01*
X126734189Y-106535779D01*
G75*
G02*
X126840255Y-106535779I53033J-53033D01*
G01*
X126946321Y-106641845D01*
G75*
G02*
X126946321Y-106747911I-53033J-53033D01*
G01*
G37*
G36*
G01*
X127299874Y-107101464D02*
X126345280Y-108056058D01*
G75*
G02*
X126239214Y-108056058I-53033J53033D01*
G01*
X126133148Y-107949992D01*
G75*
G02*
X126133148Y-107843926I53033J53033D01*
G01*
X127087742Y-106889332D01*
G75*
G02*
X127193808Y-106889332I53033J-53033D01*
G01*
X127299874Y-106995398D01*
G75*
G02*
X127299874Y-107101464I-53033J-53033D01*
G01*
G37*
G36*
G01*
X127653427Y-107455017D02*
X126698833Y-108409611D01*
G75*
G02*
X126592767Y-108409611I-53033J53033D01*
G01*
X126486701Y-108303545D01*
G75*
G02*
X126486701Y-108197479I53033J53033D01*
G01*
X127441295Y-107242885D01*
G75*
G02*
X127547361Y-107242885I53033J-53033D01*
G01*
X127653427Y-107348951D01*
G75*
G02*
X127653427Y-107455017I-53033J-53033D01*
G01*
G37*
G36*
G01*
X128006981Y-107808571D02*
X127052387Y-108763165D01*
G75*
G02*
X126946321Y-108763165I-53033J53033D01*
G01*
X126840255Y-108657099D01*
G75*
G02*
X126840255Y-108551033I53033J53033D01*
G01*
X127794849Y-107596439D01*
G75*
G02*
X127900915Y-107596439I53033J-53033D01*
G01*
X128006981Y-107702505D01*
G75*
G02*
X128006981Y-107808571I-53033J-53033D01*
G01*
G37*
G36*
G01*
X128360534Y-108162124D02*
X127405940Y-109116718D01*
G75*
G02*
X127299874Y-109116718I-53033J53033D01*
G01*
X127193808Y-109010652D01*
G75*
G02*
X127193808Y-108904586I53033J53033D01*
G01*
X128148402Y-107949992D01*
G75*
G02*
X128254468Y-107949992I53033J-53033D01*
G01*
X128360534Y-108056058D01*
G75*
G02*
X128360534Y-108162124I-53033J-53033D01*
G01*
G37*
G36*
G01*
X128714088Y-108515678D02*
X127759494Y-109470272D01*
G75*
G02*
X127653428Y-109470272I-53033J53033D01*
G01*
X127547362Y-109364206D01*
G75*
G02*
X127547362Y-109258140I53033J53033D01*
G01*
X128501956Y-108303546D01*
G75*
G02*
X128608022Y-108303546I53033J-53033D01*
G01*
X128714088Y-108409612D01*
G75*
G02*
X128714088Y-108515678I-53033J-53033D01*
G01*
G37*
G36*
G01*
X129067641Y-108869231D02*
X128113047Y-109823825D01*
G75*
G02*
X128006981Y-109823825I-53033J53033D01*
G01*
X127900915Y-109717759D01*
G75*
G02*
X127900915Y-109611693I53033J53033D01*
G01*
X128855509Y-108657099D01*
G75*
G02*
X128961575Y-108657099I53033J-53033D01*
G01*
X129067641Y-108763165D01*
G75*
G02*
X129067641Y-108869231I-53033J-53033D01*
G01*
G37*
G36*
G01*
X129421194Y-109222784D02*
X128466600Y-110177378D01*
G75*
G02*
X128360534Y-110177378I-53033J53033D01*
G01*
X128254468Y-110071312D01*
G75*
G02*
X128254468Y-109965246I53033J53033D01*
G01*
X129209062Y-109010652D01*
G75*
G02*
X129315128Y-109010652I53033J-53033D01*
G01*
X129421194Y-109116718D01*
G75*
G02*
X129421194Y-109222784I-53033J-53033D01*
G01*
G37*
G36*
G01*
X129774748Y-109576338D02*
X128820154Y-110530932D01*
G75*
G02*
X128714088Y-110530932I-53033J53033D01*
G01*
X128608022Y-110424866D01*
G75*
G02*
X128608022Y-110318800I53033J53033D01*
G01*
X129562616Y-109364206D01*
G75*
G02*
X129668682Y-109364206I53033J-53033D01*
G01*
X129774748Y-109470272D01*
G75*
G02*
X129774748Y-109576338I-53033J-53033D01*
G01*
G37*
G36*
G01*
X130128301Y-109929891D02*
X129173707Y-110884485D01*
G75*
G02*
X129067641Y-110884485I-53033J53033D01*
G01*
X128961575Y-110778419D01*
G75*
G02*
X128961575Y-110672353I53033J53033D01*
G01*
X129916169Y-109717759D01*
G75*
G02*
X130022235Y-109717759I53033J-53033D01*
G01*
X130128301Y-109823825D01*
G75*
G02*
X130128301Y-109929891I-53033J-53033D01*
G01*
G37*
G36*
G01*
X130481854Y-110283444D02*
X129527260Y-111238038D01*
G75*
G02*
X129421194Y-111238038I-53033J53033D01*
G01*
X129315128Y-111131972D01*
G75*
G02*
X129315128Y-111025906I53033J53033D01*
G01*
X130269722Y-110071312D01*
G75*
G02*
X130375788Y-110071312I53033J-53033D01*
G01*
X130481854Y-110177378D01*
G75*
G02*
X130481854Y-110283444I-53033J-53033D01*
G01*
G37*
G36*
G01*
X130835408Y-110636998D02*
X129880814Y-111591592D01*
G75*
G02*
X129774748Y-111591592I-53033J53033D01*
G01*
X129668682Y-111485526D01*
G75*
G02*
X129668682Y-111379460I53033J53033D01*
G01*
X130623276Y-110424866D01*
G75*
G02*
X130729342Y-110424866I53033J-53033D01*
G01*
X130835408Y-110530932D01*
G75*
G02*
X130835408Y-110636998I-53033J-53033D01*
G01*
G37*
G36*
G01*
X131188961Y-110990551D02*
X130234367Y-111945145D01*
G75*
G02*
X130128301Y-111945145I-53033J53033D01*
G01*
X130022235Y-111839079D01*
G75*
G02*
X130022235Y-111733013I53033J53033D01*
G01*
X130976829Y-110778419D01*
G75*
G02*
X131082895Y-110778419I53033J-53033D01*
G01*
X131188961Y-110884485D01*
G75*
G02*
X131188961Y-110990551I-53033J-53033D01*
G01*
G37*
G36*
G01*
X131542515Y-111344105D02*
X130587921Y-112298699D01*
G75*
G02*
X130481855Y-112298699I-53033J53033D01*
G01*
X130375789Y-112192633D01*
G75*
G02*
X130375789Y-112086567I53033J53033D01*
G01*
X131330383Y-111131973D01*
G75*
G02*
X131436449Y-111131973I53033J-53033D01*
G01*
X131542515Y-111238039D01*
G75*
G02*
X131542515Y-111344105I-53033J-53033D01*
G01*
G37*
G36*
G01*
X131896068Y-111697658D02*
X130941474Y-112652252D01*
G75*
G02*
X130835408Y-112652252I-53033J53033D01*
G01*
X130729342Y-112546186D01*
G75*
G02*
X130729342Y-112440120I53033J53033D01*
G01*
X131683936Y-111485526D01*
G75*
G02*
X131790002Y-111485526I53033J-53033D01*
G01*
X131896068Y-111591592D01*
G75*
G02*
X131896068Y-111697658I-53033J-53033D01*
G01*
G37*
G36*
G01*
X132249621Y-112051211D02*
X131295027Y-113005805D01*
G75*
G02*
X131188961Y-113005805I-53033J53033D01*
G01*
X131082895Y-112899739D01*
G75*
G02*
X131082895Y-112793673I53033J53033D01*
G01*
X132037489Y-111839079D01*
G75*
G02*
X132143555Y-111839079I53033J-53033D01*
G01*
X132249621Y-111945145D01*
G75*
G02*
X132249621Y-112051211I-53033J-53033D01*
G01*
G37*
G36*
G01*
X132603175Y-112404765D02*
X131648581Y-113359359D01*
G75*
G02*
X131542515Y-113359359I-53033J53033D01*
G01*
X131436449Y-113253293D01*
G75*
G02*
X131436449Y-113147227I53033J53033D01*
G01*
X132391043Y-112192633D01*
G75*
G02*
X132497109Y-112192633I53033J-53033D01*
G01*
X132603175Y-112298699D01*
G75*
G02*
X132603175Y-112404765I-53033J-53033D01*
G01*
G37*
G36*
G01*
X132956728Y-112758318D02*
X132002134Y-113712912D01*
G75*
G02*
X131896068Y-113712912I-53033J53033D01*
G01*
X131790002Y-113606846D01*
G75*
G02*
X131790002Y-113500780I53033J53033D01*
G01*
X132744596Y-112546186D01*
G75*
G02*
X132850662Y-112546186I53033J-53033D01*
G01*
X132956728Y-112652252D01*
G75*
G02*
X132956728Y-112758318I-53033J-53033D01*
G01*
G37*
G36*
G01*
X133310282Y-113111872D02*
X132355688Y-114066466D01*
G75*
G02*
X132249622Y-114066466I-53033J53033D01*
G01*
X132143556Y-113960400D01*
G75*
G02*
X132143556Y-113854334I53033J53033D01*
G01*
X133098150Y-112899740D01*
G75*
G02*
X133204216Y-112899740I53033J-53033D01*
G01*
X133310282Y-113005806D01*
G75*
G02*
X133310282Y-113111872I-53033J-53033D01*
G01*
G37*
G36*
G01*
X133663835Y-113465425D02*
X132709241Y-114420019D01*
G75*
G02*
X132603175Y-114420019I-53033J53033D01*
G01*
X132497109Y-114313953D01*
G75*
G02*
X132497109Y-114207887I53033J53033D01*
G01*
X133451703Y-113253293D01*
G75*
G02*
X133557769Y-113253293I53033J-53033D01*
G01*
X133663835Y-113359359D01*
G75*
G02*
X133663835Y-113465425I-53033J-53033D01*
G01*
G37*
G36*
G01*
X134017388Y-113818978D02*
X133062794Y-114773572D01*
G75*
G02*
X132956728Y-114773572I-53033J53033D01*
G01*
X132850662Y-114667506D01*
G75*
G02*
X132850662Y-114561440I53033J53033D01*
G01*
X133805256Y-113606846D01*
G75*
G02*
X133911322Y-113606846I53033J-53033D01*
G01*
X134017388Y-113712912D01*
G75*
G02*
X134017388Y-113818978I-53033J-53033D01*
G01*
G37*
G36*
G01*
X134370942Y-114172532D02*
X133416348Y-115127126D01*
G75*
G02*
X133310282Y-115127126I-53033J53033D01*
G01*
X133204216Y-115021060D01*
G75*
G02*
X133204216Y-114914994I53033J53033D01*
G01*
X134158810Y-113960400D01*
G75*
G02*
X134264876Y-113960400I53033J-53033D01*
G01*
X134370942Y-114066466D01*
G75*
G02*
X134370942Y-114172532I-53033J-53033D01*
G01*
G37*
G36*
G01*
X134724495Y-114526085D02*
X133769901Y-115480679D01*
G75*
G02*
X133663835Y-115480679I-53033J53033D01*
G01*
X133557769Y-115374613D01*
G75*
G02*
X133557769Y-115268547I53033J53033D01*
G01*
X134512363Y-114313953D01*
G75*
G02*
X134618429Y-114313953I53033J-53033D01*
G01*
X134724495Y-114420019D01*
G75*
G02*
X134724495Y-114526085I-53033J-53033D01*
G01*
G37*
G36*
G01*
X135078049Y-114879639D02*
X134123455Y-115834233D01*
G75*
G02*
X134017389Y-115834233I-53033J53033D01*
G01*
X133911323Y-115728167D01*
G75*
G02*
X133911323Y-115622101I53033J53033D01*
G01*
X134865917Y-114667507D01*
G75*
G02*
X134971983Y-114667507I53033J-53033D01*
G01*
X135078049Y-114773573D01*
G75*
G02*
X135078049Y-114879639I-53033J-53033D01*
G01*
G37*
G36*
G01*
X135431602Y-115233192D02*
X134477008Y-116187786D01*
G75*
G02*
X134370942Y-116187786I-53033J53033D01*
G01*
X134264876Y-116081720D01*
G75*
G02*
X134264876Y-115975654I53033J53033D01*
G01*
X135219470Y-115021060D01*
G75*
G02*
X135325536Y-115021060I53033J-53033D01*
G01*
X135431602Y-115127126D01*
G75*
G02*
X135431602Y-115233192I-53033J-53033D01*
G01*
G37*
G36*
G01*
X135785155Y-115586745D02*
X134830561Y-116541339D01*
G75*
G02*
X134724495Y-116541339I-53033J53033D01*
G01*
X134618429Y-116435273D01*
G75*
G02*
X134618429Y-116329207I53033J53033D01*
G01*
X135573023Y-115374613D01*
G75*
G02*
X135679089Y-115374613I53033J-53033D01*
G01*
X135785155Y-115480679D01*
G75*
G02*
X135785155Y-115586745I-53033J-53033D01*
G01*
G37*
G36*
G01*
X136138709Y-115940299D02*
X135184115Y-116894893D01*
G75*
G02*
X135078049Y-116894893I-53033J53033D01*
G01*
X134971983Y-116788827D01*
G75*
G02*
X134971983Y-116682761I53033J53033D01*
G01*
X135926577Y-115728167D01*
G75*
G02*
X136032643Y-115728167I53033J-53033D01*
G01*
X136138709Y-115834233D01*
G75*
G02*
X136138709Y-115940299I-53033J-53033D01*
G01*
G37*
G36*
G01*
X136492262Y-116293852D02*
X135537668Y-117248446D01*
G75*
G02*
X135431602Y-117248446I-53033J53033D01*
G01*
X135325536Y-117142380D01*
G75*
G02*
X135325536Y-117036314I53033J53033D01*
G01*
X136280130Y-116081720D01*
G75*
G02*
X136386196Y-116081720I53033J-53033D01*
G01*
X136492262Y-116187786D01*
G75*
G02*
X136492262Y-116293852I-53033J-53033D01*
G01*
G37*
G36*
G01*
X136845815Y-116647406D02*
X135891221Y-117602000D01*
G75*
G02*
X135785155Y-117602000I-53033J53033D01*
G01*
X135679089Y-117495934D01*
G75*
G02*
X135679089Y-117389868I53033J53033D01*
G01*
X136633683Y-116435274D01*
G75*
G02*
X136739749Y-116435274I53033J-53033D01*
G01*
X136845815Y-116541340D01*
G75*
G02*
X136845815Y-116647406I-53033J-53033D01*
G01*
G37*
G36*
G01*
X137199369Y-117000959D02*
X136244775Y-117955553D01*
G75*
G02*
X136138709Y-117955553I-53033J53033D01*
G01*
X136032643Y-117849487D01*
G75*
G02*
X136032643Y-117743421I53033J53033D01*
G01*
X136987237Y-116788827D01*
G75*
G02*
X137093303Y-116788827I53033J-53033D01*
G01*
X137199369Y-116894893D01*
G75*
G02*
X137199369Y-117000959I-53033J-53033D01*
G01*
G37*
G36*
G01*
X137552922Y-117354512D02*
X136598328Y-118309106D01*
G75*
G02*
X136492262Y-118309106I-53033J53033D01*
G01*
X136386196Y-118203040D01*
G75*
G02*
X136386196Y-118096974I53033J53033D01*
G01*
X137340790Y-117142380D01*
G75*
G02*
X137446856Y-117142380I53033J-53033D01*
G01*
X137552922Y-117248446D01*
G75*
G02*
X137552922Y-117354512I-53033J-53033D01*
G01*
G37*
G36*
G01*
X137906476Y-117708066D02*
X136951882Y-118662660D01*
G75*
G02*
X136845816Y-118662660I-53033J53033D01*
G01*
X136739750Y-118556594D01*
G75*
G02*
X136739750Y-118450528I53033J53033D01*
G01*
X137694344Y-117495934D01*
G75*
G02*
X137800410Y-117495934I53033J-53033D01*
G01*
X137906476Y-117602000D01*
G75*
G02*
X137906476Y-117708066I-53033J-53033D01*
G01*
G37*
G36*
G01*
X138260029Y-118061619D02*
X137305435Y-119016213D01*
G75*
G02*
X137199369Y-119016213I-53033J53033D01*
G01*
X137093303Y-118910147D01*
G75*
G02*
X137093303Y-118804081I53033J53033D01*
G01*
X138047897Y-117849487D01*
G75*
G02*
X138153963Y-117849487I53033J-53033D01*
G01*
X138260029Y-117955553D01*
G75*
G02*
X138260029Y-118061619I-53033J-53033D01*
G01*
G37*
G36*
G01*
X138613582Y-118415172D02*
X137658988Y-119369766D01*
G75*
G02*
X137552922Y-119369766I-53033J53033D01*
G01*
X137446856Y-119263700D01*
G75*
G02*
X137446856Y-119157634I53033J53033D01*
G01*
X138401450Y-118203040D01*
G75*
G02*
X138507516Y-118203040I53033J-53033D01*
G01*
X138613582Y-118309106D01*
G75*
G02*
X138613582Y-118415172I-53033J-53033D01*
G01*
G37*
%TD*%
D13*
%TO.C,J1*%
X116395500Y-116014500D03*
X117665500Y-116014500D03*
X116395500Y-114744500D03*
X117665500Y-114744500D03*
X116395500Y-113474500D03*
X117665500Y-113474500D03*
X116395500Y-112204500D03*
X117665500Y-112204500D03*
X116395500Y-110934500D03*
X117665500Y-110934500D03*
X116395500Y-109664500D03*
X117665500Y-109664500D03*
X116395500Y-108394500D03*
X117665500Y-108394500D03*
%TD*%
D14*
%TO.C,U2*%
X173136000Y-89529000D03*
X173136000Y-90029000D03*
X173136000Y-90529000D03*
X173136000Y-91029000D03*
X173136000Y-91529000D03*
X173136000Y-92029000D03*
X173136000Y-92529000D03*
X173136000Y-93029000D03*
X173136000Y-93529000D03*
X173136000Y-94029000D03*
X173136000Y-94529000D03*
X173136000Y-95029000D03*
X173136000Y-95529000D03*
X173136000Y-96029000D03*
X173136000Y-96529000D03*
X173136000Y-97029000D03*
X173136000Y-97529000D03*
X173136000Y-98029000D03*
X173136000Y-98529000D03*
X173136000Y-99029000D03*
X173136000Y-99529000D03*
X173136000Y-100029000D03*
X173136000Y-100529000D03*
X173136000Y-101029000D03*
X173136000Y-101529000D03*
X173136000Y-102029000D03*
X173136000Y-102529000D03*
X173136000Y-103029000D03*
X173136000Y-103529000D03*
X173136000Y-104029000D03*
X173136000Y-104529000D03*
X173136000Y-105029000D03*
X173136000Y-105529000D03*
X173136000Y-106029000D03*
X173136000Y-106529000D03*
X173136000Y-107029000D03*
X173136000Y-107529000D03*
X173136000Y-108029000D03*
X173136000Y-108529000D03*
X173136000Y-109029000D03*
X173136000Y-109529000D03*
X173136000Y-110029000D03*
X173136000Y-110529000D03*
X184336000Y-110529000D03*
X184336000Y-110029000D03*
X184336000Y-109529000D03*
X184336000Y-109029000D03*
X184336000Y-108529000D03*
X184336000Y-108029000D03*
X184336000Y-107529000D03*
X184336000Y-107029000D03*
X184336000Y-106529000D03*
X184336000Y-106029000D03*
X184336000Y-105529000D03*
X184336000Y-105029000D03*
X184336000Y-104529000D03*
X184336000Y-104029000D03*
X184336000Y-103529000D03*
X184336000Y-103029000D03*
X184336000Y-102529000D03*
X184336000Y-102029000D03*
X184336000Y-101529000D03*
X184336000Y-101029000D03*
X184336000Y-100529000D03*
X184336000Y-100029000D03*
X184336000Y-99529000D03*
X184336000Y-99029000D03*
X184336000Y-98529000D03*
X184336000Y-98029000D03*
X184336000Y-97529000D03*
X184336000Y-97029000D03*
X184336000Y-96529000D03*
X184336000Y-96029000D03*
X184336000Y-95529000D03*
X184336000Y-95029000D03*
X184336000Y-94529000D03*
X184336000Y-94029000D03*
X184336000Y-93529000D03*
X184336000Y-93029000D03*
X184336000Y-92529000D03*
X184336000Y-92029000D03*
X184336000Y-91529000D03*
X184336000Y-91029000D03*
X184336000Y-90529000D03*
X184336000Y-90029000D03*
X184336000Y-89529000D03*
%TD*%
%TO.C,C3*%
G36*
G01*
X128305727Y-112496322D02*
X128549678Y-112740274D01*
G75*
G02*
X128549678Y-112948870I-104298J-104298D01*
G01*
X128341082Y-113157466D01*
G75*
G02*
X128132486Y-113157466I-104298J104298D01*
G01*
X127888534Y-112913514D01*
G75*
G02*
X127888534Y-112704918I104298J104298D01*
G01*
X128097130Y-112496322D01*
G75*
G02*
X128305726Y-112496322I104298J-104298D01*
G01*
G37*
G36*
G01*
X128991621Y-111810428D02*
X129235572Y-112054380D01*
G75*
G02*
X129235572Y-112262976I-104298J-104298D01*
G01*
X129026976Y-112471572D01*
G75*
G02*
X128818380Y-112471572I-104298J104298D01*
G01*
X128574428Y-112227620D01*
G75*
G02*
X128574428Y-112019024I104298J104298D01*
G01*
X128783024Y-111810428D01*
G75*
G02*
X128991620Y-111810428I104298J-104298D01*
G01*
G37*
%TD*%
D15*
%TO.C,J4*%
X178858200Y-72010200D03*
X155558200Y-72010200D03*
D16*
X176958200Y-75260200D03*
X176458200Y-75260200D03*
X175958200Y-75260200D03*
X175458200Y-75260200D03*
X174958200Y-75260200D03*
X174458200Y-75260200D03*
X173958200Y-75260200D03*
X173458200Y-75260200D03*
X172958200Y-75260200D03*
X172458200Y-75260200D03*
X171958200Y-75260200D03*
X171458200Y-75260200D03*
X170958200Y-75260200D03*
X170458200Y-75260200D03*
X169958200Y-75260200D03*
X169458200Y-75260200D03*
X168958200Y-75260200D03*
X168458200Y-75260200D03*
X167958200Y-75260200D03*
X167458200Y-75260200D03*
X166958200Y-75260200D03*
X166458200Y-75260200D03*
X165958200Y-75260200D03*
X165458200Y-75260200D03*
X164958200Y-75260200D03*
X164458200Y-75260200D03*
X163958200Y-75260200D03*
X163458200Y-75260200D03*
X162958200Y-75260200D03*
X162458200Y-75260200D03*
X161958200Y-75260200D03*
X161458200Y-75260200D03*
X160958200Y-75260200D03*
X160458200Y-75260200D03*
X159958200Y-75260200D03*
X159458200Y-75260200D03*
X158958200Y-75260200D03*
X158458200Y-75260200D03*
X157958200Y-75260200D03*
X157458200Y-75260200D03*
%TD*%
%TO.C,C45*%
G36*
G01*
X171404500Y-81008000D02*
X171749500Y-81008000D01*
G75*
G02*
X171897000Y-81155500I0J-147500D01*
G01*
X171897000Y-81450500D01*
G75*
G02*
X171749500Y-81598000I-147500J0D01*
G01*
X171404500Y-81598000D01*
G75*
G02*
X171257000Y-81450500I0J147500D01*
G01*
X171257000Y-81155500D01*
G75*
G02*
X171404500Y-81008000I147500J0D01*
G01*
G37*
G36*
G01*
X171404500Y-81978000D02*
X171749500Y-81978000D01*
G75*
G02*
X171897000Y-82125500I0J-147500D01*
G01*
X171897000Y-82420500D01*
G75*
G02*
X171749500Y-82568000I-147500J0D01*
G01*
X171404500Y-82568000D01*
G75*
G02*
X171257000Y-82420500I0J147500D01*
G01*
X171257000Y-82125500D01*
G75*
G02*
X171404500Y-81978000I147500J0D01*
G01*
G37*
%TD*%
%TO.C,L2*%
G36*
G01*
X157919000Y-111049750D02*
X157919000Y-111962250D01*
G75*
G02*
X157675250Y-112206000I-243750J0D01*
G01*
X157187750Y-112206000D01*
G75*
G02*
X156944000Y-111962250I0J243750D01*
G01*
X156944000Y-111049750D01*
G75*
G02*
X157187750Y-110806000I243750J0D01*
G01*
X157675250Y-110806000D01*
G75*
G02*
X157919000Y-111049750I0J-243750D01*
G01*
G37*
G36*
G01*
X159794000Y-111049750D02*
X159794000Y-111962250D01*
G75*
G02*
X159550250Y-112206000I-243750J0D01*
G01*
X159062750Y-112206000D01*
G75*
G02*
X158819000Y-111962250I0J243750D01*
G01*
X158819000Y-111049750D01*
G75*
G02*
X159062750Y-110806000I243750J0D01*
G01*
X159550250Y-110806000D01*
G75*
G02*
X159794000Y-111049750I0J-243750D01*
G01*
G37*
%TD*%
%TO.C,C21*%
G36*
G01*
X155282481Y-106377432D02*
X155526433Y-106133481D01*
G75*
G02*
X155735029Y-106133481I104298J-104298D01*
G01*
X155943625Y-106342077D01*
G75*
G02*
X155943625Y-106550673I-104298J-104298D01*
G01*
X155699673Y-106794625D01*
G75*
G02*
X155491077Y-106794625I-104298J104298D01*
G01*
X155282481Y-106586029D01*
G75*
G02*
X155282481Y-106377433I104298J104298D01*
G01*
G37*
G36*
G01*
X155968375Y-107063326D02*
X156212327Y-106819375D01*
G75*
G02*
X156420923Y-106819375I104298J-104298D01*
G01*
X156629519Y-107027971D01*
G75*
G02*
X156629519Y-107236567I-104298J-104298D01*
G01*
X156385567Y-107480519D01*
G75*
G02*
X156176971Y-107480519I-104298J104298D01*
G01*
X155968375Y-107271923D01*
G75*
G02*
X155968375Y-107063327I104298J104298D01*
G01*
G37*
%TD*%
%TO.C,R4*%
G36*
G01*
X133705432Y-119164519D02*
X133461481Y-118920567D01*
G75*
G02*
X133461481Y-118711971I104298J104298D01*
G01*
X133670077Y-118503375D01*
G75*
G02*
X133878673Y-118503375I104298J-104298D01*
G01*
X134122625Y-118747327D01*
G75*
G02*
X134122625Y-118955923I-104298J-104298D01*
G01*
X133914029Y-119164519D01*
G75*
G02*
X133705433Y-119164519I-104298J104298D01*
G01*
G37*
G36*
G01*
X134391326Y-118478625D02*
X134147375Y-118234673D01*
G75*
G02*
X134147375Y-118026077I104298J104298D01*
G01*
X134355971Y-117817481D01*
G75*
G02*
X134564567Y-117817481I104298J-104298D01*
G01*
X134808519Y-118061433D01*
G75*
G02*
X134808519Y-118270029I-104298J-104298D01*
G01*
X134599923Y-118478625D01*
G75*
G02*
X134391327Y-118478625I-104298J104298D01*
G01*
G37*
%TD*%
%TO.C,C48*%
G36*
G01*
X185719000Y-82679250D02*
X185719000Y-82166750D01*
G75*
G02*
X185937750Y-81948000I218750J0D01*
G01*
X186375250Y-81948000D01*
G75*
G02*
X186594000Y-82166750I0J-218750D01*
G01*
X186594000Y-82679250D01*
G75*
G02*
X186375250Y-82898000I-218750J0D01*
G01*
X185937750Y-82898000D01*
G75*
G02*
X185719000Y-82679250I0J218750D01*
G01*
G37*
G36*
G01*
X187294000Y-82679250D02*
X187294000Y-82166750D01*
G75*
G02*
X187512750Y-81948000I218750J0D01*
G01*
X187950250Y-81948000D01*
G75*
G02*
X188169000Y-82166750I0J-218750D01*
G01*
X188169000Y-82679250D01*
G75*
G02*
X187950250Y-82898000I-218750J0D01*
G01*
X187512750Y-82898000D01*
G75*
G02*
X187294000Y-82679250I0J218750D01*
G01*
G37*
%TD*%
%TO.C,C47*%
G36*
G01*
X180337750Y-75610000D02*
X180850250Y-75610000D01*
G75*
G02*
X181069000Y-75828750I0J-218750D01*
G01*
X181069000Y-76266250D01*
G75*
G02*
X180850250Y-76485000I-218750J0D01*
G01*
X180337750Y-76485000D01*
G75*
G02*
X180119000Y-76266250I0J218750D01*
G01*
X180119000Y-75828750D01*
G75*
G02*
X180337750Y-75610000I218750J0D01*
G01*
G37*
G36*
G01*
X180337750Y-77185000D02*
X180850250Y-77185000D01*
G75*
G02*
X181069000Y-77403750I0J-218750D01*
G01*
X181069000Y-77841250D01*
G75*
G02*
X180850250Y-78060000I-218750J0D01*
G01*
X180337750Y-78060000D01*
G75*
G02*
X180119000Y-77841250I0J218750D01*
G01*
X180119000Y-77403750D01*
G75*
G02*
X180337750Y-77185000I218750J0D01*
G01*
G37*
%TD*%
D17*
%TO.C,U4*%
X184800000Y-78021000D03*
X184150000Y-78021000D03*
X183500000Y-78021000D03*
X183500000Y-80221000D03*
X184800000Y-80221000D03*
%TD*%
D18*
%TO.C,L5*%
X132196000Y-78682000D03*
X133996000Y-78682000D03*
X133996000Y-77782000D03*
X132196000Y-77782000D03*
%TD*%
%TO.C,C1*%
G36*
G01*
X134643074Y-119239975D02*
X134887025Y-119483927D01*
G75*
G02*
X134887025Y-119692523I-104298J-104298D01*
G01*
X134678429Y-119901119D01*
G75*
G02*
X134469833Y-119901119I-104298J104298D01*
G01*
X134225881Y-119657167D01*
G75*
G02*
X134225881Y-119448571I104298J104298D01*
G01*
X134434477Y-119239975D01*
G75*
G02*
X134643073Y-119239975I104298J-104298D01*
G01*
G37*
G36*
G01*
X135328968Y-118554081D02*
X135572919Y-118798033D01*
G75*
G02*
X135572919Y-119006629I-104298J-104298D01*
G01*
X135364323Y-119215225D01*
G75*
G02*
X135155727Y-119215225I-104298J104298D01*
G01*
X134911775Y-118971273D01*
G75*
G02*
X134911775Y-118762677I104298J104298D01*
G01*
X135120371Y-118554081D01*
G75*
G02*
X135328967Y-118554081I104298J-104298D01*
G01*
G37*
%TD*%
%TO.C,C15*%
G36*
G01*
X122853674Y-107153375D02*
X123097625Y-107397327D01*
G75*
G02*
X123097625Y-107605923I-104298J-104298D01*
G01*
X122889029Y-107814519D01*
G75*
G02*
X122680433Y-107814519I-104298J104298D01*
G01*
X122436481Y-107570567D01*
G75*
G02*
X122436481Y-107361971I104298J104298D01*
G01*
X122645077Y-107153375D01*
G75*
G02*
X122853673Y-107153375I104298J-104298D01*
G01*
G37*
G36*
G01*
X123539568Y-106467481D02*
X123783519Y-106711433D01*
G75*
G02*
X123783519Y-106920029I-104298J-104298D01*
G01*
X123574923Y-107128625D01*
G75*
G02*
X123366327Y-107128625I-104298J104298D01*
G01*
X123122375Y-106884673D01*
G75*
G02*
X123122375Y-106676077I104298J104298D01*
G01*
X123330971Y-106467481D01*
G75*
G02*
X123539567Y-106467481I104298J-104298D01*
G01*
G37*
%TD*%
%TO.C,C2*%
G36*
G01*
X118967568Y-101895481D02*
X119211519Y-102139433D01*
G75*
G02*
X119211519Y-102348029I-104298J-104298D01*
G01*
X119002923Y-102556625D01*
G75*
G02*
X118794327Y-102556625I-104298J104298D01*
G01*
X118550375Y-102312673D01*
G75*
G02*
X118550375Y-102104077I104298J104298D01*
G01*
X118758971Y-101895481D01*
G75*
G02*
X118967567Y-101895481I104298J-104298D01*
G01*
G37*
G36*
G01*
X118281674Y-102581375D02*
X118525625Y-102825327D01*
G75*
G02*
X118525625Y-103033923I-104298J-104298D01*
G01*
X118317029Y-103242519D01*
G75*
G02*
X118108433Y-103242519I-104298J104298D01*
G01*
X117864481Y-102998567D01*
G75*
G02*
X117864481Y-102789971I104298J104298D01*
G01*
X118073077Y-102581375D01*
G75*
G02*
X118281673Y-102581375I104298J-104298D01*
G01*
G37*
%TD*%
%TO.C,C16*%
G36*
G01*
X120557625Y-93930674D02*
X120313673Y-94174625D01*
G75*
G02*
X120105077Y-94174625I-104298J104298D01*
G01*
X119896481Y-93966029D01*
G75*
G02*
X119896481Y-93757433I104298J104298D01*
G01*
X120140433Y-93513481D01*
G75*
G02*
X120349029Y-93513481I104298J-104298D01*
G01*
X120557625Y-93722077D01*
G75*
G02*
X120557625Y-93930673I-104298J-104298D01*
G01*
G37*
G36*
G01*
X121243519Y-94616568D02*
X120999567Y-94860519D01*
G75*
G02*
X120790971Y-94860519I-104298J104298D01*
G01*
X120582375Y-94651923D01*
G75*
G02*
X120582375Y-94443327I104298J104298D01*
G01*
X120826327Y-94199375D01*
G75*
G02*
X121034923Y-94199375I104298J-104298D01*
G01*
X121243519Y-94407971D01*
G75*
G02*
X121243519Y-94616567I-104298J-104298D01*
G01*
G37*
%TD*%
%TO.C,C17*%
G36*
G01*
X129879519Y-85726568D02*
X129635567Y-85970519D01*
G75*
G02*
X129426971Y-85970519I-104298J104298D01*
G01*
X129218375Y-85761923D01*
G75*
G02*
X129218375Y-85553327I104298J104298D01*
G01*
X129462327Y-85309375D01*
G75*
G02*
X129670923Y-85309375I104298J-104298D01*
G01*
X129879519Y-85517971D01*
G75*
G02*
X129879519Y-85726567I-104298J-104298D01*
G01*
G37*
G36*
G01*
X129193625Y-85040674D02*
X128949673Y-85284625D01*
G75*
G02*
X128741077Y-85284625I-104298J104298D01*
G01*
X128532481Y-85076029D01*
G75*
G02*
X128532481Y-84867433I104298J104298D01*
G01*
X128776433Y-84623481D01*
G75*
G02*
X128985029Y-84623481I104298J-104298D01*
G01*
X129193625Y-84832077D01*
G75*
G02*
X129193625Y-85040673I-104298J-104298D01*
G01*
G37*
%TD*%
%TO.C,C4*%
G36*
G01*
X133435519Y-82170568D02*
X133191567Y-82414519D01*
G75*
G02*
X132982971Y-82414519I-104298J104298D01*
G01*
X132774375Y-82205923D01*
G75*
G02*
X132774375Y-81997327I104298J104298D01*
G01*
X133018327Y-81753375D01*
G75*
G02*
X133226923Y-81753375I104298J-104298D01*
G01*
X133435519Y-81961971D01*
G75*
G02*
X133435519Y-82170567I-104298J-104298D01*
G01*
G37*
G36*
G01*
X132749625Y-81484674D02*
X132505673Y-81728625D01*
G75*
G02*
X132297077Y-81728625I-104298J104298D01*
G01*
X132088481Y-81520029D01*
G75*
G02*
X132088481Y-81311433I104298J104298D01*
G01*
X132332433Y-81067481D01*
G75*
G02*
X132541029Y-81067481I104298J-104298D01*
G01*
X132749625Y-81276077D01*
G75*
G02*
X132749625Y-81484673I-104298J-104298D01*
G01*
G37*
%TD*%
%TO.C,C18*%
G36*
G01*
X142924326Y-78172625D02*
X142680375Y-77928673D01*
G75*
G02*
X142680375Y-77720077I104298J104298D01*
G01*
X142888971Y-77511481D01*
G75*
G02*
X143097567Y-77511481I104298J-104298D01*
G01*
X143341519Y-77755433D01*
G75*
G02*
X143341519Y-77964029I-104298J-104298D01*
G01*
X143132923Y-78172625D01*
G75*
G02*
X142924327Y-78172625I-104298J104298D01*
G01*
G37*
G36*
G01*
X142238432Y-78858519D02*
X141994481Y-78614567D01*
G75*
G02*
X141994481Y-78405971I104298J104298D01*
G01*
X142203077Y-78197375D01*
G75*
G02*
X142411673Y-78197375I104298J-104298D01*
G01*
X142655625Y-78441327D01*
G75*
G02*
X142655625Y-78649923I-104298J-104298D01*
G01*
X142447029Y-78858519D01*
G75*
G02*
X142238433Y-78858519I-104298J104298D01*
G01*
G37*
%TD*%
%TO.C,C5*%
G36*
G01*
X146480326Y-81982625D02*
X146236375Y-81738673D01*
G75*
G02*
X146236375Y-81530077I104298J104298D01*
G01*
X146444971Y-81321481D01*
G75*
G02*
X146653567Y-81321481I104298J-104298D01*
G01*
X146897519Y-81565433D01*
G75*
G02*
X146897519Y-81774029I-104298J-104298D01*
G01*
X146688923Y-81982625D01*
G75*
G02*
X146480327Y-81982625I-104298J104298D01*
G01*
G37*
G36*
G01*
X145794432Y-82668519D02*
X145550481Y-82424567D01*
G75*
G02*
X145550481Y-82215971I104298J104298D01*
G01*
X145759077Y-82007375D01*
G75*
G02*
X145967673Y-82007375I104298J-104298D01*
G01*
X146211625Y-82251327D01*
G75*
G02*
X146211625Y-82459923I-104298J-104298D01*
G01*
X146003029Y-82668519D01*
G75*
G02*
X145794433Y-82668519I-104298J104298D01*
G01*
G37*
%TD*%
%TO.C,C19*%
G36*
G01*
X149604432Y-86478519D02*
X149360481Y-86234567D01*
G75*
G02*
X149360481Y-86025971I104298J104298D01*
G01*
X149569077Y-85817375D01*
G75*
G02*
X149777673Y-85817375I104298J-104298D01*
G01*
X150021625Y-86061327D01*
G75*
G02*
X150021625Y-86269923I-104298J-104298D01*
G01*
X149813029Y-86478519D01*
G75*
G02*
X149604433Y-86478519I-104298J104298D01*
G01*
G37*
G36*
G01*
X150290326Y-85792625D02*
X150046375Y-85548673D01*
G75*
G02*
X150046375Y-85340077I104298J104298D01*
G01*
X150254971Y-85131481D01*
G75*
G02*
X150463567Y-85131481I104298J-104298D01*
G01*
X150707519Y-85375433D01*
G75*
G02*
X150707519Y-85584029I-104298J-104298D01*
G01*
X150498923Y-85792625D01*
G75*
G02*
X150290327Y-85792625I-104298J104298D01*
G01*
G37*
%TD*%
%TO.C,C6*%
G36*
G01*
X153160432Y-90034519D02*
X152916481Y-89790567D01*
G75*
G02*
X152916481Y-89581971I104298J104298D01*
G01*
X153125077Y-89373375D01*
G75*
G02*
X153333673Y-89373375I104298J-104298D01*
G01*
X153577625Y-89617327D01*
G75*
G02*
X153577625Y-89825923I-104298J-104298D01*
G01*
X153369029Y-90034519D01*
G75*
G02*
X153160433Y-90034519I-104298J104298D01*
G01*
G37*
G36*
G01*
X153846326Y-89348625D02*
X153602375Y-89104673D01*
G75*
G02*
X153602375Y-88896077I104298J104298D01*
G01*
X153810971Y-88687481D01*
G75*
G02*
X154019567Y-88687481I104298J-104298D01*
G01*
X154263519Y-88931433D01*
G75*
G02*
X154263519Y-89140029I-104298J-104298D01*
G01*
X154054923Y-89348625D01*
G75*
G02*
X153846327Y-89348625I-104298J104298D01*
G01*
G37*
%TD*%
%TO.C,C20*%
G36*
G01*
X158418326Y-93920625D02*
X158174375Y-93676673D01*
G75*
G02*
X158174375Y-93468077I104298J104298D01*
G01*
X158382971Y-93259481D01*
G75*
G02*
X158591567Y-93259481I104298J-104298D01*
G01*
X158835519Y-93503433D01*
G75*
G02*
X158835519Y-93712029I-104298J-104298D01*
G01*
X158626923Y-93920625D01*
G75*
G02*
X158418327Y-93920625I-104298J104298D01*
G01*
G37*
G36*
G01*
X157732432Y-94606519D02*
X157488481Y-94362567D01*
G75*
G02*
X157488481Y-94153971I104298J104298D01*
G01*
X157697077Y-93945375D01*
G75*
G02*
X157905673Y-93945375I104298J-104298D01*
G01*
X158149625Y-94189327D01*
G75*
G02*
X158149625Y-94397923I-104298J-104298D01*
G01*
X157941029Y-94606519D01*
G75*
G02*
X157732433Y-94606519I-104298J104298D01*
G01*
G37*
%TD*%
%TO.C,C7*%
G36*
G01*
X160460375Y-102825326D02*
X160704327Y-102581375D01*
G75*
G02*
X160912923Y-102581375I104298J-104298D01*
G01*
X161121519Y-102789971D01*
G75*
G02*
X161121519Y-102998567I-104298J-104298D01*
G01*
X160877567Y-103242519D01*
G75*
G02*
X160668971Y-103242519I-104298J104298D01*
G01*
X160460375Y-103033923D01*
G75*
G02*
X160460375Y-102825327I104298J104298D01*
G01*
G37*
G36*
G01*
X159774481Y-102139432D02*
X160018433Y-101895481D01*
G75*
G02*
X160227029Y-101895481I104298J-104298D01*
G01*
X160435625Y-102104077D01*
G75*
G02*
X160435625Y-102312673I-104298J-104298D01*
G01*
X160191673Y-102556625D01*
G75*
G02*
X159983077Y-102556625I-104298J104298D01*
G01*
X159774481Y-102348029D01*
G75*
G02*
X159774481Y-102139433I104298J104298D01*
G01*
G37*
%TD*%
%TO.C,C8*%
G36*
G01*
X150630481Y-111283432D02*
X150874433Y-111039481D01*
G75*
G02*
X151083029Y-111039481I104298J-104298D01*
G01*
X151291625Y-111248077D01*
G75*
G02*
X151291625Y-111456673I-104298J-104298D01*
G01*
X151047673Y-111700625D01*
G75*
G02*
X150839077Y-111700625I-104298J104298D01*
G01*
X150630481Y-111492029D01*
G75*
G02*
X150630481Y-111283433I104298J104298D01*
G01*
G37*
G36*
G01*
X151316375Y-111969326D02*
X151560327Y-111725375D01*
G75*
G02*
X151768923Y-111725375I104298J-104298D01*
G01*
X151977519Y-111933971D01*
G75*
G02*
X151977519Y-112142567I-104298J-104298D01*
G01*
X151733567Y-112386519D01*
G75*
G02*
X151524971Y-112386519I-104298J104298D01*
G01*
X151316375Y-112177923D01*
G75*
G02*
X151316375Y-111969327I104298J104298D01*
G01*
G37*
%TD*%
%TO.C,C22*%
G36*
G01*
X147252375Y-116033326D02*
X147496327Y-115789375D01*
G75*
G02*
X147704923Y-115789375I104298J-104298D01*
G01*
X147913519Y-115997971D01*
G75*
G02*
X147913519Y-116206567I-104298J-104298D01*
G01*
X147669567Y-116450519D01*
G75*
G02*
X147460971Y-116450519I-104298J104298D01*
G01*
X147252375Y-116241923D01*
G75*
G02*
X147252375Y-116033327I104298J104298D01*
G01*
G37*
G36*
G01*
X146566481Y-115347432D02*
X146810433Y-115103481D01*
G75*
G02*
X147019029Y-115103481I104298J-104298D01*
G01*
X147227625Y-115312077D01*
G75*
G02*
X147227625Y-115520673I-104298J-104298D01*
G01*
X146983673Y-115764625D01*
G75*
G02*
X146775077Y-115764625I-104298J104298D01*
G01*
X146566481Y-115556029D01*
G75*
G02*
X146566481Y-115347433I104298J104298D01*
G01*
G37*
%TD*%
%TO.C,C9*%
G36*
G01*
X143950375Y-119335326D02*
X144194327Y-119091375D01*
G75*
G02*
X144402923Y-119091375I104298J-104298D01*
G01*
X144611519Y-119299971D01*
G75*
G02*
X144611519Y-119508567I-104298J-104298D01*
G01*
X144367567Y-119752519D01*
G75*
G02*
X144158971Y-119752519I-104298J104298D01*
G01*
X143950375Y-119543923D01*
G75*
G02*
X143950375Y-119335327I104298J104298D01*
G01*
G37*
G36*
G01*
X143264481Y-118649432D02*
X143508433Y-118405481D01*
G75*
G02*
X143717029Y-118405481I104298J-104298D01*
G01*
X143925625Y-118614077D01*
G75*
G02*
X143925625Y-118822673I-104298J-104298D01*
G01*
X143681673Y-119066625D01*
G75*
G02*
X143473077Y-119066625I-104298J104298D01*
G01*
X143264481Y-118858029D01*
G75*
G02*
X143264481Y-118649433I104298J104298D01*
G01*
G37*
%TD*%
%TO.C,C23*%
G36*
G01*
X139970000Y-122891250D02*
X139970000Y-122378750D01*
G75*
G02*
X140188750Y-122160000I218750J0D01*
G01*
X140626250Y-122160000D01*
G75*
G02*
X140845000Y-122378750I0J-218750D01*
G01*
X140845000Y-122891250D01*
G75*
G02*
X140626250Y-123110000I-218750J0D01*
G01*
X140188750Y-123110000D01*
G75*
G02*
X139970000Y-122891250I0J218750D01*
G01*
G37*
G36*
G01*
X138395000Y-122891250D02*
X138395000Y-122378750D01*
G75*
G02*
X138613750Y-122160000I218750J0D01*
G01*
X139051250Y-122160000D01*
G75*
G02*
X139270000Y-122378750I0J-218750D01*
G01*
X139270000Y-122891250D01*
G75*
G02*
X139051250Y-123110000I-218750J0D01*
G01*
X138613750Y-123110000D01*
G75*
G02*
X138395000Y-122891250I0J218750D01*
G01*
G37*
%TD*%
%TO.C,C14*%
G36*
G01*
X153424481Y-108235432D02*
X153668433Y-107991481D01*
G75*
G02*
X153877029Y-107991481I104298J-104298D01*
G01*
X154085625Y-108200077D01*
G75*
G02*
X154085625Y-108408673I-104298J-104298D01*
G01*
X153841673Y-108652625D01*
G75*
G02*
X153633077Y-108652625I-104298J104298D01*
G01*
X153424481Y-108444029D01*
G75*
G02*
X153424481Y-108235433I104298J104298D01*
G01*
G37*
G36*
G01*
X154110375Y-108921326D02*
X154354327Y-108677375D01*
G75*
G02*
X154562923Y-108677375I104298J-104298D01*
G01*
X154771519Y-108885971D01*
G75*
G02*
X154771519Y-109094567I-104298J-104298D01*
G01*
X154527567Y-109338519D01*
G75*
G02*
X154318971Y-109338519I-104298J104298D01*
G01*
X154110375Y-109129923D01*
G75*
G02*
X154110375Y-108921327I104298J104298D01*
G01*
G37*
%TD*%
%TO.C,C30*%
G36*
G01*
X155656500Y-116060000D02*
X156001500Y-116060000D01*
G75*
G02*
X156149000Y-116207500I0J-147500D01*
G01*
X156149000Y-116502500D01*
G75*
G02*
X156001500Y-116650000I-147500J0D01*
G01*
X155656500Y-116650000D01*
G75*
G02*
X155509000Y-116502500I0J147500D01*
G01*
X155509000Y-116207500D01*
G75*
G02*
X155656500Y-116060000I147500J0D01*
G01*
G37*
G36*
G01*
X155656500Y-117030000D02*
X156001500Y-117030000D01*
G75*
G02*
X156149000Y-117177500I0J-147500D01*
G01*
X156149000Y-117472500D01*
G75*
G02*
X156001500Y-117620000I-147500J0D01*
G01*
X155656500Y-117620000D01*
G75*
G02*
X155509000Y-117472500I0J147500D01*
G01*
X155509000Y-117177500D01*
G75*
G02*
X155656500Y-117030000I147500J0D01*
G01*
G37*
%TD*%
%TO.C,C24*%
G36*
G01*
X156850000Y-109011500D02*
X156850000Y-108666500D01*
G75*
G02*
X156997500Y-108519000I147500J0D01*
G01*
X157292500Y-108519000D01*
G75*
G02*
X157440000Y-108666500I0J-147500D01*
G01*
X157440000Y-109011500D01*
G75*
G02*
X157292500Y-109159000I-147500J0D01*
G01*
X156997500Y-109159000D01*
G75*
G02*
X156850000Y-109011500I0J147500D01*
G01*
G37*
G36*
G01*
X157820000Y-109011500D02*
X157820000Y-108666500D01*
G75*
G02*
X157967500Y-108519000I147500J0D01*
G01*
X158262500Y-108519000D01*
G75*
G02*
X158410000Y-108666500I0J-147500D01*
G01*
X158410000Y-109011500D01*
G75*
G02*
X158262500Y-109159000I-147500J0D01*
G01*
X157967500Y-109159000D01*
G75*
G02*
X157820000Y-109011500I0J147500D01*
G01*
G37*
%TD*%
%TO.C,C31*%
G36*
G01*
X156799500Y-116060000D02*
X157144500Y-116060000D01*
G75*
G02*
X157292000Y-116207500I0J-147500D01*
G01*
X157292000Y-116502500D01*
G75*
G02*
X157144500Y-116650000I-147500J0D01*
G01*
X156799500Y-116650000D01*
G75*
G02*
X156652000Y-116502500I0J147500D01*
G01*
X156652000Y-116207500D01*
G75*
G02*
X156799500Y-116060000I147500J0D01*
G01*
G37*
G36*
G01*
X156799500Y-117030000D02*
X157144500Y-117030000D01*
G75*
G02*
X157292000Y-117177500I0J-147500D01*
G01*
X157292000Y-117472500D01*
G75*
G02*
X157144500Y-117620000I-147500J0D01*
G01*
X156799500Y-117620000D01*
G75*
G02*
X156652000Y-117472500I0J147500D01*
G01*
X156652000Y-117177500D01*
G75*
G02*
X156799500Y-117030000I147500J0D01*
G01*
G37*
%TD*%
%TO.C,C25*%
G36*
G01*
X157820000Y-110027500D02*
X157820000Y-109682500D01*
G75*
G02*
X157967500Y-109535000I147500J0D01*
G01*
X158262500Y-109535000D01*
G75*
G02*
X158410000Y-109682500I0J-147500D01*
G01*
X158410000Y-110027500D01*
G75*
G02*
X158262500Y-110175000I-147500J0D01*
G01*
X157967500Y-110175000D01*
G75*
G02*
X157820000Y-110027500I0J147500D01*
G01*
G37*
G36*
G01*
X156850000Y-110027500D02*
X156850000Y-109682500D01*
G75*
G02*
X156997500Y-109535000I147500J0D01*
G01*
X157292500Y-109535000D01*
G75*
G02*
X157440000Y-109682500I0J-147500D01*
G01*
X157440000Y-110027500D01*
G75*
G02*
X157292500Y-110175000I-147500J0D01*
G01*
X156997500Y-110175000D01*
G75*
G02*
X156850000Y-110027500I0J147500D01*
G01*
G37*
%TD*%
%TO.C,C26*%
G36*
G01*
X121871402Y-93094010D02*
X121509010Y-93456403D01*
G75*
G02*
X121199650Y-93456403I-154680J154680D01*
G01*
X120890291Y-93147044D01*
G75*
G02*
X120890291Y-92837684I154680J154680D01*
G01*
X121252684Y-92475291D01*
G75*
G02*
X121562044Y-92475291I154680J-154680D01*
G01*
X121871403Y-92784650D01*
G75*
G02*
X121871403Y-93094010I-154680J-154680D01*
G01*
G37*
G36*
G01*
X120757708Y-91980316D02*
X120395316Y-92342709D01*
G75*
G02*
X120085956Y-92342709I-154680J154680D01*
G01*
X119776597Y-92033350D01*
G75*
G02*
X119776597Y-91723990I154680J154680D01*
G01*
X120138990Y-91361597D01*
G75*
G02*
X120448350Y-91361597I154680J-154680D01*
G01*
X120757709Y-91670956D01*
G75*
G02*
X120757709Y-91980316I-154680J-154680D01*
G01*
G37*
%TD*%
%TO.C,C27*%
G36*
G01*
X146856798Y-79553590D02*
X147219190Y-79191197D01*
G75*
G02*
X147528550Y-79191197I154680J-154680D01*
G01*
X147837909Y-79500556D01*
G75*
G02*
X147837909Y-79809916I-154680J-154680D01*
G01*
X147475516Y-80172309D01*
G75*
G02*
X147166156Y-80172309I-154680J154680D01*
G01*
X146856797Y-79862950D01*
G75*
G02*
X146856797Y-79553590I154680J154680D01*
G01*
G37*
G36*
G01*
X147970492Y-80667284D02*
X148332884Y-80304891D01*
G75*
G02*
X148642244Y-80304891I154680J-154680D01*
G01*
X148951603Y-80614250D01*
G75*
G02*
X148951603Y-80923610I-154680J-154680D01*
G01*
X148589210Y-81286003D01*
G75*
G02*
X148279850Y-81286003I-154680J154680D01*
G01*
X147970491Y-80976644D01*
G75*
G02*
X147970491Y-80667284I154680J154680D01*
G01*
G37*
%TD*%
%TO.C,C12*%
G36*
G01*
X124367625Y-88850674D02*
X124123673Y-89094625D01*
G75*
G02*
X123915077Y-89094625I-104298J104298D01*
G01*
X123706481Y-88886029D01*
G75*
G02*
X123706481Y-88677433I104298J104298D01*
G01*
X123950433Y-88433481D01*
G75*
G02*
X124159029Y-88433481I104298J-104298D01*
G01*
X124367625Y-88642077D01*
G75*
G02*
X124367625Y-88850673I-104298J-104298D01*
G01*
G37*
G36*
G01*
X125053519Y-89536568D02*
X124809567Y-89780519D01*
G75*
G02*
X124600971Y-89780519I-104298J104298D01*
G01*
X124392375Y-89571923D01*
G75*
G02*
X124392375Y-89363327I104298J104298D01*
G01*
X124636327Y-89119375D01*
G75*
G02*
X124844923Y-89119375I104298J-104298D01*
G01*
X125053519Y-89327971D01*
G75*
G02*
X125053519Y-89536567I-104298J-104298D01*
G01*
G37*
%TD*%
%TO.C,C28*%
G36*
G01*
X148852481Y-119919432D02*
X149096433Y-119675481D01*
G75*
G02*
X149305029Y-119675481I104298J-104298D01*
G01*
X149513625Y-119884077D01*
G75*
G02*
X149513625Y-120092673I-104298J-104298D01*
G01*
X149269673Y-120336625D01*
G75*
G02*
X149061077Y-120336625I-104298J104298D01*
G01*
X148852481Y-120128029D01*
G75*
G02*
X148852481Y-119919433I104298J104298D01*
G01*
G37*
G36*
G01*
X149538375Y-120605326D02*
X149782327Y-120361375D01*
G75*
G02*
X149990923Y-120361375I104298J-104298D01*
G01*
X150199519Y-120569971D01*
G75*
G02*
X150199519Y-120778567I-104298J-104298D01*
G01*
X149955567Y-121022519D01*
G75*
G02*
X149746971Y-121022519I-104298J104298D01*
G01*
X149538375Y-120813923D01*
G75*
G02*
X149538375Y-120605327I104298J104298D01*
G01*
G37*
%TD*%
%TO.C,C13*%
G36*
G01*
X125815519Y-88774568D02*
X125571567Y-89018519D01*
G75*
G02*
X125362971Y-89018519I-104298J104298D01*
G01*
X125154375Y-88809923D01*
G75*
G02*
X125154375Y-88601327I104298J104298D01*
G01*
X125398327Y-88357375D01*
G75*
G02*
X125606923Y-88357375I104298J-104298D01*
G01*
X125815519Y-88565971D01*
G75*
G02*
X125815519Y-88774567I-104298J-104298D01*
G01*
G37*
G36*
G01*
X125129625Y-88088674D02*
X124885673Y-88332625D01*
G75*
G02*
X124677077Y-88332625I-104298J104298D01*
G01*
X124468481Y-88124029D01*
G75*
G02*
X124468481Y-87915433I104298J104298D01*
G01*
X124712433Y-87671481D01*
G75*
G02*
X124921029Y-87671481I104298J-104298D01*
G01*
X125129625Y-87880077D01*
G75*
G02*
X125129625Y-88088673I-104298J-104298D01*
G01*
G37*
%TD*%
%TO.C,C29*%
G36*
G01*
X148522375Y-121621326D02*
X148766327Y-121377375D01*
G75*
G02*
X148974923Y-121377375I104298J-104298D01*
G01*
X149183519Y-121585971D01*
G75*
G02*
X149183519Y-121794567I-104298J-104298D01*
G01*
X148939567Y-122038519D01*
G75*
G02*
X148730971Y-122038519I-104298J104298D01*
G01*
X148522375Y-121829923D01*
G75*
G02*
X148522375Y-121621327I104298J104298D01*
G01*
G37*
G36*
G01*
X147836481Y-120935432D02*
X148080433Y-120691481D01*
G75*
G02*
X148289029Y-120691481I104298J-104298D01*
G01*
X148497625Y-120900077D01*
G75*
G02*
X148497625Y-121108673I-104298J-104298D01*
G01*
X148253673Y-121352625D01*
G75*
G02*
X148045077Y-121352625I-104298J104298D01*
G01*
X147836481Y-121144029D01*
G75*
G02*
X147836481Y-120935433I104298J104298D01*
G01*
G37*
%TD*%
%TO.C,C10*%
G36*
G01*
X157482326Y-105270625D02*
X157238375Y-105026673D01*
G75*
G02*
X157238375Y-104818077I104298J104298D01*
G01*
X157446971Y-104609481D01*
G75*
G02*
X157655567Y-104609481I104298J-104298D01*
G01*
X157899519Y-104853433D01*
G75*
G02*
X157899519Y-105062029I-104298J-104298D01*
G01*
X157690923Y-105270625D01*
G75*
G02*
X157482327Y-105270625I-104298J104298D01*
G01*
G37*
G36*
G01*
X156796432Y-105956519D02*
X156552481Y-105712567D01*
G75*
G02*
X156552481Y-105503971I104298J104298D01*
G01*
X156761077Y-105295375D01*
G75*
G02*
X156969673Y-105295375I104298J-104298D01*
G01*
X157213625Y-105539327D01*
G75*
G02*
X157213625Y-105747923I-104298J-104298D01*
G01*
X157005029Y-105956519D01*
G75*
G02*
X156796433Y-105956519I-104298J104298D01*
G01*
G37*
%TD*%
%TO.C,C11*%
G36*
G01*
X157558432Y-106718519D02*
X157314481Y-106474567D01*
G75*
G02*
X157314481Y-106265971I104298J104298D01*
G01*
X157523077Y-106057375D01*
G75*
G02*
X157731673Y-106057375I104298J-104298D01*
G01*
X157975625Y-106301327D01*
G75*
G02*
X157975625Y-106509923I-104298J-104298D01*
G01*
X157767029Y-106718519D01*
G75*
G02*
X157558433Y-106718519I-104298J104298D01*
G01*
G37*
G36*
G01*
X158244326Y-106032625D02*
X158000375Y-105788673D01*
G75*
G02*
X158000375Y-105580077I104298J104298D01*
G01*
X158208971Y-105371481D01*
G75*
G02*
X158417567Y-105371481I104298J-104298D01*
G01*
X158661519Y-105615433D01*
G75*
G02*
X158661519Y-105824029I-104298J-104298D01*
G01*
X158452923Y-106032625D01*
G75*
G02*
X158244327Y-106032625I-104298J104298D01*
G01*
G37*
%TD*%
%TO.C,C32*%
G36*
G01*
X177448000Y-112901500D02*
X177448000Y-112556500D01*
G75*
G02*
X177595500Y-112409000I147500J0D01*
G01*
X177890500Y-112409000D01*
G75*
G02*
X178038000Y-112556500I0J-147500D01*
G01*
X178038000Y-112901500D01*
G75*
G02*
X177890500Y-113049000I-147500J0D01*
G01*
X177595500Y-113049000D01*
G75*
G02*
X177448000Y-112901500I0J147500D01*
G01*
G37*
G36*
G01*
X178418000Y-112901500D02*
X178418000Y-112556500D01*
G75*
G02*
X178565500Y-112409000I147500J0D01*
G01*
X178860500Y-112409000D01*
G75*
G02*
X179008000Y-112556500I0J-147500D01*
G01*
X179008000Y-112901500D01*
G75*
G02*
X178860500Y-113049000I-147500J0D01*
G01*
X178565500Y-113049000D01*
G75*
G02*
X178418000Y-112901500I0J147500D01*
G01*
G37*
%TD*%
%TO.C,C33*%
G36*
G01*
X170164000Y-110778500D02*
X170164000Y-111123500D01*
G75*
G02*
X170016500Y-111271000I-147500J0D01*
G01*
X169721500Y-111271000D01*
G75*
G02*
X169574000Y-111123500I0J147500D01*
G01*
X169574000Y-110778500D01*
G75*
G02*
X169721500Y-110631000I147500J0D01*
G01*
X170016500Y-110631000D01*
G75*
G02*
X170164000Y-110778500I0J-147500D01*
G01*
G37*
G36*
G01*
X171134000Y-110778500D02*
X171134000Y-111123500D01*
G75*
G02*
X170986500Y-111271000I-147500J0D01*
G01*
X170691500Y-111271000D01*
G75*
G02*
X170544000Y-111123500I0J147500D01*
G01*
X170544000Y-110778500D01*
G75*
G02*
X170691500Y-110631000I147500J0D01*
G01*
X170986500Y-110631000D01*
G75*
G02*
X171134000Y-110778500I0J-147500D01*
G01*
G37*
%TD*%
%TO.C,C40*%
G36*
G01*
X171134000Y-109254500D02*
X171134000Y-109599500D01*
G75*
G02*
X170986500Y-109747000I-147500J0D01*
G01*
X170691500Y-109747000D01*
G75*
G02*
X170544000Y-109599500I0J147500D01*
G01*
X170544000Y-109254500D01*
G75*
G02*
X170691500Y-109107000I147500J0D01*
G01*
X170986500Y-109107000D01*
G75*
G02*
X171134000Y-109254500I0J-147500D01*
G01*
G37*
G36*
G01*
X170164000Y-109254500D02*
X170164000Y-109599500D01*
G75*
G02*
X170016500Y-109747000I-147500J0D01*
G01*
X169721500Y-109747000D01*
G75*
G02*
X169574000Y-109599500I0J147500D01*
G01*
X169574000Y-109254500D01*
G75*
G02*
X169721500Y-109107000I147500J0D01*
G01*
X170016500Y-109107000D01*
G75*
G02*
X170164000Y-109254500I0J-147500D01*
G01*
G37*
%TD*%
%TO.C,C34*%
G36*
G01*
X171134000Y-106460500D02*
X171134000Y-106805500D01*
G75*
G02*
X170986500Y-106953000I-147500J0D01*
G01*
X170691500Y-106953000D01*
G75*
G02*
X170544000Y-106805500I0J147500D01*
G01*
X170544000Y-106460500D01*
G75*
G02*
X170691500Y-106313000I147500J0D01*
G01*
X170986500Y-106313000D01*
G75*
G02*
X171134000Y-106460500I0J-147500D01*
G01*
G37*
G36*
G01*
X170164000Y-106460500D02*
X170164000Y-106805500D01*
G75*
G02*
X170016500Y-106953000I-147500J0D01*
G01*
X169721500Y-106953000D01*
G75*
G02*
X169574000Y-106805500I0J147500D01*
G01*
X169574000Y-106460500D01*
G75*
G02*
X169721500Y-106313000I147500J0D01*
G01*
X170016500Y-106313000D01*
G75*
G02*
X170164000Y-106460500I0J-147500D01*
G01*
G37*
%TD*%
%TO.C,C41*%
G36*
G01*
X171134000Y-103412500D02*
X171134000Y-103757500D01*
G75*
G02*
X170986500Y-103905000I-147500J0D01*
G01*
X170691500Y-103905000D01*
G75*
G02*
X170544000Y-103757500I0J147500D01*
G01*
X170544000Y-103412500D01*
G75*
G02*
X170691500Y-103265000I147500J0D01*
G01*
X170986500Y-103265000D01*
G75*
G02*
X171134000Y-103412500I0J-147500D01*
G01*
G37*
G36*
G01*
X170164000Y-103412500D02*
X170164000Y-103757500D01*
G75*
G02*
X170016500Y-103905000I-147500J0D01*
G01*
X169721500Y-103905000D01*
G75*
G02*
X169574000Y-103757500I0J147500D01*
G01*
X169574000Y-103412500D01*
G75*
G02*
X169721500Y-103265000I147500J0D01*
G01*
X170016500Y-103265000D01*
G75*
G02*
X170164000Y-103412500I0J-147500D01*
G01*
G37*
%TD*%
%TO.C,C35*%
G36*
G01*
X170164000Y-96554500D02*
X170164000Y-96899500D01*
G75*
G02*
X170016500Y-97047000I-147500J0D01*
G01*
X169721500Y-97047000D01*
G75*
G02*
X169574000Y-96899500I0J147500D01*
G01*
X169574000Y-96554500D01*
G75*
G02*
X169721500Y-96407000I147500J0D01*
G01*
X170016500Y-96407000D01*
G75*
G02*
X170164000Y-96554500I0J-147500D01*
G01*
G37*
G36*
G01*
X171134000Y-96554500D02*
X171134000Y-96899500D01*
G75*
G02*
X170986500Y-97047000I-147500J0D01*
G01*
X170691500Y-97047000D01*
G75*
G02*
X170544000Y-96899500I0J147500D01*
G01*
X170544000Y-96554500D01*
G75*
G02*
X170691500Y-96407000I147500J0D01*
G01*
X170986500Y-96407000D01*
G75*
G02*
X171134000Y-96554500I0J-147500D01*
G01*
G37*
%TD*%
%TO.C,C42*%
G36*
G01*
X170164000Y-93506500D02*
X170164000Y-93851500D01*
G75*
G02*
X170016500Y-93999000I-147500J0D01*
G01*
X169721500Y-93999000D01*
G75*
G02*
X169574000Y-93851500I0J147500D01*
G01*
X169574000Y-93506500D01*
G75*
G02*
X169721500Y-93359000I147500J0D01*
G01*
X170016500Y-93359000D01*
G75*
G02*
X170164000Y-93506500I0J-147500D01*
G01*
G37*
G36*
G01*
X171134000Y-93506500D02*
X171134000Y-93851500D01*
G75*
G02*
X170986500Y-93999000I-147500J0D01*
G01*
X170691500Y-93999000D01*
G75*
G02*
X170544000Y-93851500I0J147500D01*
G01*
X170544000Y-93506500D01*
G75*
G02*
X170691500Y-93359000I147500J0D01*
G01*
X170986500Y-93359000D01*
G75*
G02*
X171134000Y-93506500I0J-147500D01*
G01*
G37*
%TD*%
%TO.C,C36*%
G36*
G01*
X171134000Y-90458500D02*
X171134000Y-90803500D01*
G75*
G02*
X170986500Y-90951000I-147500J0D01*
G01*
X170691500Y-90951000D01*
G75*
G02*
X170544000Y-90803500I0J147500D01*
G01*
X170544000Y-90458500D01*
G75*
G02*
X170691500Y-90311000I147500J0D01*
G01*
X170986500Y-90311000D01*
G75*
G02*
X171134000Y-90458500I0J-147500D01*
G01*
G37*
G36*
G01*
X170164000Y-90458500D02*
X170164000Y-90803500D01*
G75*
G02*
X170016500Y-90951000I-147500J0D01*
G01*
X169721500Y-90951000D01*
G75*
G02*
X169574000Y-90803500I0J147500D01*
G01*
X169574000Y-90458500D01*
G75*
G02*
X169721500Y-90311000I147500J0D01*
G01*
X170016500Y-90311000D01*
G75*
G02*
X170164000Y-90458500I0J-147500D01*
G01*
G37*
%TD*%
%TO.C,C43*%
G36*
G01*
X171111000Y-88934500D02*
X171111000Y-89279500D01*
G75*
G02*
X170963500Y-89427000I-147500J0D01*
G01*
X170668500Y-89427000D01*
G75*
G02*
X170521000Y-89279500I0J147500D01*
G01*
X170521000Y-88934500D01*
G75*
G02*
X170668500Y-88787000I147500J0D01*
G01*
X170963500Y-88787000D01*
G75*
G02*
X171111000Y-88934500I0J-147500D01*
G01*
G37*
G36*
G01*
X170141000Y-88934500D02*
X170141000Y-89279500D01*
G75*
G02*
X169993500Y-89427000I-147500J0D01*
G01*
X169698500Y-89427000D01*
G75*
G02*
X169551000Y-89279500I0J147500D01*
G01*
X169551000Y-88934500D01*
G75*
G02*
X169698500Y-88787000I147500J0D01*
G01*
X169993500Y-88787000D01*
G75*
G02*
X170141000Y-88934500I0J-147500D01*
G01*
G37*
%TD*%
%TO.C,C37*%
G36*
G01*
X187308000Y-108329500D02*
X187308000Y-107984500D01*
G75*
G02*
X187455500Y-107837000I147500J0D01*
G01*
X187750500Y-107837000D01*
G75*
G02*
X187898000Y-107984500I0J-147500D01*
G01*
X187898000Y-108329500D01*
G75*
G02*
X187750500Y-108477000I-147500J0D01*
G01*
X187455500Y-108477000D01*
G75*
G02*
X187308000Y-108329500I0J147500D01*
G01*
G37*
G36*
G01*
X186338000Y-108329500D02*
X186338000Y-107984500D01*
G75*
G02*
X186485500Y-107837000I147500J0D01*
G01*
X186780500Y-107837000D01*
G75*
G02*
X186928000Y-107984500I0J-147500D01*
G01*
X186928000Y-108329500D01*
G75*
G02*
X186780500Y-108477000I-147500J0D01*
G01*
X186485500Y-108477000D01*
G75*
G02*
X186338000Y-108329500I0J147500D01*
G01*
G37*
%TD*%
%TO.C,C44*%
G36*
G01*
X187308000Y-105027500D02*
X187308000Y-104682500D01*
G75*
G02*
X187455500Y-104535000I147500J0D01*
G01*
X187750500Y-104535000D01*
G75*
G02*
X187898000Y-104682500I0J-147500D01*
G01*
X187898000Y-105027500D01*
G75*
G02*
X187750500Y-105175000I-147500J0D01*
G01*
X187455500Y-105175000D01*
G75*
G02*
X187308000Y-105027500I0J147500D01*
G01*
G37*
G36*
G01*
X186338000Y-105027500D02*
X186338000Y-104682500D01*
G75*
G02*
X186485500Y-104535000I147500J0D01*
G01*
X186780500Y-104535000D01*
G75*
G02*
X186928000Y-104682500I0J-147500D01*
G01*
X186928000Y-105027500D01*
G75*
G02*
X186780500Y-105175000I-147500J0D01*
G01*
X186485500Y-105175000D01*
G75*
G02*
X186338000Y-105027500I0J147500D01*
G01*
G37*
%TD*%
%TO.C,C38*%
G36*
G01*
X186338000Y-95121500D02*
X186338000Y-94776500D01*
G75*
G02*
X186485500Y-94629000I147500J0D01*
G01*
X186780500Y-94629000D01*
G75*
G02*
X186928000Y-94776500I0J-147500D01*
G01*
X186928000Y-95121500D01*
G75*
G02*
X186780500Y-95269000I-147500J0D01*
G01*
X186485500Y-95269000D01*
G75*
G02*
X186338000Y-95121500I0J147500D01*
G01*
G37*
G36*
G01*
X187308000Y-95121500D02*
X187308000Y-94776500D01*
G75*
G02*
X187455500Y-94629000I147500J0D01*
G01*
X187750500Y-94629000D01*
G75*
G02*
X187898000Y-94776500I0J-147500D01*
G01*
X187898000Y-95121500D01*
G75*
G02*
X187750500Y-95269000I-147500J0D01*
G01*
X187455500Y-95269000D01*
G75*
G02*
X187308000Y-95121500I0J147500D01*
G01*
G37*
%TD*%
%TO.C,C39*%
G36*
G01*
X187308000Y-92073500D02*
X187308000Y-91728500D01*
G75*
G02*
X187455500Y-91581000I147500J0D01*
G01*
X187750500Y-91581000D01*
G75*
G02*
X187898000Y-91728500I0J-147500D01*
G01*
X187898000Y-92073500D01*
G75*
G02*
X187750500Y-92221000I-147500J0D01*
G01*
X187455500Y-92221000D01*
G75*
G02*
X187308000Y-92073500I0J147500D01*
G01*
G37*
G36*
G01*
X186338000Y-92073500D02*
X186338000Y-91728500D01*
G75*
G02*
X186485500Y-91581000I147500J0D01*
G01*
X186780500Y-91581000D01*
G75*
G02*
X186928000Y-91728500I0J-147500D01*
G01*
X186928000Y-92073500D01*
G75*
G02*
X186780500Y-92221000I-147500J0D01*
G01*
X186485500Y-92221000D01*
G75*
G02*
X186338000Y-92073500I0J147500D01*
G01*
G37*
%TD*%
%TO.C,L1*%
G36*
G01*
X160324010Y-105349755D02*
X160969245Y-105994990D01*
G75*
G02*
X160969245Y-106339704I-172357J-172357D01*
G01*
X160624530Y-106684419D01*
G75*
G02*
X160279816Y-106684419I-172357J172357D01*
G01*
X159634581Y-106039184D01*
G75*
G02*
X159634581Y-105694470I172357J172357D01*
G01*
X159979296Y-105349755D01*
G75*
G02*
X160324010Y-105349755I172357J-172357D01*
G01*
G37*
G36*
G01*
X158998184Y-106675581D02*
X159643419Y-107320816D01*
G75*
G02*
X159643419Y-107665530I-172357J-172357D01*
G01*
X159298704Y-108010245D01*
G75*
G02*
X158953990Y-108010245I-172357J172357D01*
G01*
X158308755Y-107365010D01*
G75*
G02*
X158308755Y-107020296I172357J172357D01*
G01*
X158653470Y-106675581D01*
G75*
G02*
X158998184Y-106675581I172357J-172357D01*
G01*
G37*
%TD*%
%TO.C,R5*%
G36*
G01*
X128307600Y-117571300D02*
X128307600Y-117226300D01*
G75*
G02*
X128455100Y-117078800I147500J0D01*
G01*
X128750100Y-117078800D01*
G75*
G02*
X128897600Y-117226300I0J-147500D01*
G01*
X128897600Y-117571300D01*
G75*
G02*
X128750100Y-117718800I-147500J0D01*
G01*
X128455100Y-117718800D01*
G75*
G02*
X128307600Y-117571300I0J147500D01*
G01*
G37*
G36*
G01*
X127337600Y-117571300D02*
X127337600Y-117226300D01*
G75*
G02*
X127485100Y-117078800I147500J0D01*
G01*
X127780100Y-117078800D01*
G75*
G02*
X127927600Y-117226300I0J-147500D01*
G01*
X127927600Y-117571300D01*
G75*
G02*
X127780100Y-117718800I-147500J0D01*
G01*
X127485100Y-117718800D01*
G75*
G02*
X127337600Y-117571300I0J147500D01*
G01*
G37*
%TD*%
D19*
%TO.C,SW2*%
X161895000Y-118970800D03*
X161895000Y-124970800D03*
X158145000Y-118970800D03*
X158145000Y-124970800D03*
%TD*%
%TO.C,SW1*%
X118521000Y-126634500D03*
X118521000Y-120634500D03*
X122271000Y-126634500D03*
X122271000Y-120634500D03*
%TD*%
D20*
%TO.C,X1*%
G36*
X148406726Y-119185066D02*
G01*
X147133934Y-117912274D01*
X147841040Y-117205168D01*
X149113832Y-118477960D01*
X148406726Y-119185066D01*
G37*
G36*
X146638960Y-120952832D02*
G01*
X145366168Y-119680040D01*
X146073274Y-118972934D01*
X147346066Y-120245726D01*
X146638960Y-120952832D01*
G37*
%TD*%
%TO.C,C46*%
G36*
G01*
X170388500Y-81978000D02*
X170733500Y-81978000D01*
G75*
G02*
X170881000Y-82125500I0J-147500D01*
G01*
X170881000Y-82420500D01*
G75*
G02*
X170733500Y-82568000I-147500J0D01*
G01*
X170388500Y-82568000D01*
G75*
G02*
X170241000Y-82420500I0J147500D01*
G01*
X170241000Y-82125500D01*
G75*
G02*
X170388500Y-81978000I147500J0D01*
G01*
G37*
G36*
G01*
X170388500Y-81008000D02*
X170733500Y-81008000D01*
G75*
G02*
X170881000Y-81155500I0J-147500D01*
G01*
X170881000Y-81450500D01*
G75*
G02*
X170733500Y-81598000I-147500J0D01*
G01*
X170388500Y-81598000D01*
G75*
G02*
X170241000Y-81450500I0J147500D01*
G01*
X170241000Y-81155500D01*
G75*
G02*
X170388500Y-81008000I147500J0D01*
G01*
G37*
%TD*%
%TO.C,R6*%
G36*
G01*
X162351500Y-86929600D02*
X162006500Y-86929600D01*
G75*
G02*
X161859000Y-86782100I0J147500D01*
G01*
X161859000Y-86487100D01*
G75*
G02*
X162006500Y-86339600I147500J0D01*
G01*
X162351500Y-86339600D01*
G75*
G02*
X162499000Y-86487100I0J-147500D01*
G01*
X162499000Y-86782100D01*
G75*
G02*
X162351500Y-86929600I-147500J0D01*
G01*
G37*
G36*
G01*
X162351500Y-87899600D02*
X162006500Y-87899600D01*
G75*
G02*
X161859000Y-87752100I0J147500D01*
G01*
X161859000Y-87457100D01*
G75*
G02*
X162006500Y-87309600I147500J0D01*
G01*
X162351500Y-87309600D01*
G75*
G02*
X162499000Y-87457100I0J-147500D01*
G01*
X162499000Y-87752100D01*
G75*
G02*
X162351500Y-87899600I-147500J0D01*
G01*
G37*
%TD*%
%TO.C,R7*%
G36*
G01*
X163494500Y-87902000D02*
X163149500Y-87902000D01*
G75*
G02*
X163002000Y-87754500I0J147500D01*
G01*
X163002000Y-87459500D01*
G75*
G02*
X163149500Y-87312000I147500J0D01*
G01*
X163494500Y-87312000D01*
G75*
G02*
X163642000Y-87459500I0J-147500D01*
G01*
X163642000Y-87754500D01*
G75*
G02*
X163494500Y-87902000I-147500J0D01*
G01*
G37*
G36*
G01*
X163494500Y-86932000D02*
X163149500Y-86932000D01*
G75*
G02*
X163002000Y-86784500I0J147500D01*
G01*
X163002000Y-86489500D01*
G75*
G02*
X163149500Y-86342000I147500J0D01*
G01*
X163494500Y-86342000D01*
G75*
G02*
X163642000Y-86489500I0J-147500D01*
G01*
X163642000Y-86784500D01*
G75*
G02*
X163494500Y-86932000I-147500J0D01*
G01*
G37*
%TD*%
%TO.C,U3*%
G36*
G01*
X169307000Y-80551000D02*
X169507000Y-80551000D01*
G75*
G02*
X169607000Y-80651000I0J-100000D01*
G01*
X169607000Y-82001000D01*
G75*
G02*
X169507000Y-82101000I-100000J0D01*
G01*
X169307000Y-82101000D01*
G75*
G02*
X169207000Y-82001000I0J100000D01*
G01*
X169207000Y-80651000D01*
G75*
G02*
X169307000Y-80551000I100000J0D01*
G01*
G37*
G36*
G01*
X168657000Y-80551000D02*
X168857000Y-80551000D01*
G75*
G02*
X168957000Y-80651000I0J-100000D01*
G01*
X168957000Y-82001000D01*
G75*
G02*
X168857000Y-82101000I-100000J0D01*
G01*
X168657000Y-82101000D01*
G75*
G02*
X168557000Y-82001000I0J100000D01*
G01*
X168557000Y-80651000D01*
G75*
G02*
X168657000Y-80551000I100000J0D01*
G01*
G37*
G36*
G01*
X168007000Y-80551000D02*
X168207000Y-80551000D01*
G75*
G02*
X168307000Y-80651000I0J-100000D01*
G01*
X168307000Y-82001000D01*
G75*
G02*
X168207000Y-82101000I-100000J0D01*
G01*
X168007000Y-82101000D01*
G75*
G02*
X167907000Y-82001000I0J100000D01*
G01*
X167907000Y-80651000D01*
G75*
G02*
X168007000Y-80551000I100000J0D01*
G01*
G37*
G36*
G01*
X167357000Y-80551000D02*
X167557000Y-80551000D01*
G75*
G02*
X167657000Y-80651000I0J-100000D01*
G01*
X167657000Y-82001000D01*
G75*
G02*
X167557000Y-82101000I-100000J0D01*
G01*
X167357000Y-82101000D01*
G75*
G02*
X167257000Y-82001000I0J100000D01*
G01*
X167257000Y-80651000D01*
G75*
G02*
X167357000Y-80551000I100000J0D01*
G01*
G37*
G36*
G01*
X166707000Y-80551000D02*
X166907000Y-80551000D01*
G75*
G02*
X167007000Y-80651000I0J-100000D01*
G01*
X167007000Y-82001000D01*
G75*
G02*
X166907000Y-82101000I-100000J0D01*
G01*
X166707000Y-82101000D01*
G75*
G02*
X166607000Y-82001000I0J100000D01*
G01*
X166607000Y-80651000D01*
G75*
G02*
X166707000Y-80551000I100000J0D01*
G01*
G37*
G36*
G01*
X166057000Y-80551000D02*
X166257000Y-80551000D01*
G75*
G02*
X166357000Y-80651000I0J-100000D01*
G01*
X166357000Y-82001000D01*
G75*
G02*
X166257000Y-82101000I-100000J0D01*
G01*
X166057000Y-82101000D01*
G75*
G02*
X165957000Y-82001000I0J100000D01*
G01*
X165957000Y-80651000D01*
G75*
G02*
X166057000Y-80551000I100000J0D01*
G01*
G37*
G36*
G01*
X165407000Y-80551000D02*
X165607000Y-80551000D01*
G75*
G02*
X165707000Y-80651000I0J-100000D01*
G01*
X165707000Y-82001000D01*
G75*
G02*
X165607000Y-82101000I-100000J0D01*
G01*
X165407000Y-82101000D01*
G75*
G02*
X165307000Y-82001000I0J100000D01*
G01*
X165307000Y-80651000D01*
G75*
G02*
X165407000Y-80551000I100000J0D01*
G01*
G37*
G36*
G01*
X164757000Y-80551000D02*
X164957000Y-80551000D01*
G75*
G02*
X165057000Y-80651000I0J-100000D01*
G01*
X165057000Y-82001000D01*
G75*
G02*
X164957000Y-82101000I-100000J0D01*
G01*
X164757000Y-82101000D01*
G75*
G02*
X164657000Y-82001000I0J100000D01*
G01*
X164657000Y-80651000D01*
G75*
G02*
X164757000Y-80551000I100000J0D01*
G01*
G37*
G36*
G01*
X164757000Y-86301000D02*
X164957000Y-86301000D01*
G75*
G02*
X165057000Y-86401000I0J-100000D01*
G01*
X165057000Y-87751000D01*
G75*
G02*
X164957000Y-87851000I-100000J0D01*
G01*
X164757000Y-87851000D01*
G75*
G02*
X164657000Y-87751000I0J100000D01*
G01*
X164657000Y-86401000D01*
G75*
G02*
X164757000Y-86301000I100000J0D01*
G01*
G37*
G36*
G01*
X165407000Y-86301000D02*
X165607000Y-86301000D01*
G75*
G02*
X165707000Y-86401000I0J-100000D01*
G01*
X165707000Y-87751000D01*
G75*
G02*
X165607000Y-87851000I-100000J0D01*
G01*
X165407000Y-87851000D01*
G75*
G02*
X165307000Y-87751000I0J100000D01*
G01*
X165307000Y-86401000D01*
G75*
G02*
X165407000Y-86301000I100000J0D01*
G01*
G37*
G36*
G01*
X166057000Y-86301000D02*
X166257000Y-86301000D01*
G75*
G02*
X166357000Y-86401000I0J-100000D01*
G01*
X166357000Y-87751000D01*
G75*
G02*
X166257000Y-87851000I-100000J0D01*
G01*
X166057000Y-87851000D01*
G75*
G02*
X165957000Y-87751000I0J100000D01*
G01*
X165957000Y-86401000D01*
G75*
G02*
X166057000Y-86301000I100000J0D01*
G01*
G37*
G36*
G01*
X166707000Y-86301000D02*
X166907000Y-86301000D01*
G75*
G02*
X167007000Y-86401000I0J-100000D01*
G01*
X167007000Y-87751000D01*
G75*
G02*
X166907000Y-87851000I-100000J0D01*
G01*
X166707000Y-87851000D01*
G75*
G02*
X166607000Y-87751000I0J100000D01*
G01*
X166607000Y-86401000D01*
G75*
G02*
X166707000Y-86301000I100000J0D01*
G01*
G37*
G36*
G01*
X167357000Y-86301000D02*
X167557000Y-86301000D01*
G75*
G02*
X167657000Y-86401000I0J-100000D01*
G01*
X167657000Y-87751000D01*
G75*
G02*
X167557000Y-87851000I-100000J0D01*
G01*
X167357000Y-87851000D01*
G75*
G02*
X167257000Y-87751000I0J100000D01*
G01*
X167257000Y-86401000D01*
G75*
G02*
X167357000Y-86301000I100000J0D01*
G01*
G37*
G36*
G01*
X168007000Y-86301000D02*
X168207000Y-86301000D01*
G75*
G02*
X168307000Y-86401000I0J-100000D01*
G01*
X168307000Y-87751000D01*
G75*
G02*
X168207000Y-87851000I-100000J0D01*
G01*
X168007000Y-87851000D01*
G75*
G02*
X167907000Y-87751000I0J100000D01*
G01*
X167907000Y-86401000D01*
G75*
G02*
X168007000Y-86301000I100000J0D01*
G01*
G37*
G36*
G01*
X168657000Y-86301000D02*
X168857000Y-86301000D01*
G75*
G02*
X168957000Y-86401000I0J-100000D01*
G01*
X168957000Y-87751000D01*
G75*
G02*
X168857000Y-87851000I-100000J0D01*
G01*
X168657000Y-87851000D01*
G75*
G02*
X168557000Y-87751000I0J100000D01*
G01*
X168557000Y-86401000D01*
G75*
G02*
X168657000Y-86301000I100000J0D01*
G01*
G37*
G36*
G01*
X169307000Y-86301000D02*
X169507000Y-86301000D01*
G75*
G02*
X169607000Y-86401000I0J-100000D01*
G01*
X169607000Y-87751000D01*
G75*
G02*
X169507000Y-87851000I-100000J0D01*
G01*
X169307000Y-87851000D01*
G75*
G02*
X169207000Y-87751000I0J100000D01*
G01*
X169207000Y-86401000D01*
G75*
G02*
X169307000Y-86301000I100000J0D01*
G01*
G37*
D21*
X167132000Y-84201000D03*
%TD*%
%TO.C,C49*%
G36*
G01*
X152456100Y-123832400D02*
X152801100Y-123832400D01*
G75*
G02*
X152948600Y-123979900I0J-147500D01*
G01*
X152948600Y-124274900D01*
G75*
G02*
X152801100Y-124422400I-147500J0D01*
G01*
X152456100Y-124422400D01*
G75*
G02*
X152308600Y-124274900I0J147500D01*
G01*
X152308600Y-123979900D01*
G75*
G02*
X152456100Y-123832400I147500J0D01*
G01*
G37*
G36*
G01*
X152456100Y-124802400D02*
X152801100Y-124802400D01*
G75*
G02*
X152948600Y-124949900I0J-147500D01*
G01*
X152948600Y-125244900D01*
G75*
G02*
X152801100Y-125392400I-147500J0D01*
G01*
X152456100Y-125392400D01*
G75*
G02*
X152308600Y-125244900I0J147500D01*
G01*
X152308600Y-124949900D01*
G75*
G02*
X152456100Y-124802400I147500J0D01*
G01*
G37*
%TD*%
%TO.C,R10*%
G36*
G01*
X141879100Y-125494000D02*
X141534100Y-125494000D01*
G75*
G02*
X141386600Y-125346500I0J147500D01*
G01*
X141386600Y-125051500D01*
G75*
G02*
X141534100Y-124904000I147500J0D01*
G01*
X141879100Y-124904000D01*
G75*
G02*
X142026600Y-125051500I0J-147500D01*
G01*
X142026600Y-125346500D01*
G75*
G02*
X141879100Y-125494000I-147500J0D01*
G01*
G37*
G36*
G01*
X141879100Y-124524000D02*
X141534100Y-124524000D01*
G75*
G02*
X141386600Y-124376500I0J147500D01*
G01*
X141386600Y-124081500D01*
G75*
G02*
X141534100Y-123934000I147500J0D01*
G01*
X141879100Y-123934000D01*
G75*
G02*
X142026600Y-124081500I0J-147500D01*
G01*
X142026600Y-124376500D01*
G75*
G02*
X141879100Y-124524000I-147500J0D01*
G01*
G37*
%TD*%
%TO.C,C50*%
G36*
G01*
X124178000Y-73481250D02*
X124178000Y-72568750D01*
G75*
G02*
X124421750Y-72325000I243750J0D01*
G01*
X124909250Y-72325000D01*
G75*
G02*
X125153000Y-72568750I0J-243750D01*
G01*
X125153000Y-73481250D01*
G75*
G02*
X124909250Y-73725000I-243750J0D01*
G01*
X124421750Y-73725000D01*
G75*
G02*
X124178000Y-73481250I0J243750D01*
G01*
G37*
G36*
G01*
X126053000Y-73481250D02*
X126053000Y-72568750D01*
G75*
G02*
X126296750Y-72325000I243750J0D01*
G01*
X126784250Y-72325000D01*
G75*
G02*
X127028000Y-72568750I0J-243750D01*
G01*
X127028000Y-73481250D01*
G75*
G02*
X126784250Y-73725000I-243750J0D01*
G01*
X126296750Y-73725000D01*
G75*
G02*
X126053000Y-73481250I0J243750D01*
G01*
G37*
%TD*%
%TO.C,C51*%
G36*
G01*
X128864000Y-78404500D02*
X128864000Y-78059500D01*
G75*
G02*
X129011500Y-77912000I147500J0D01*
G01*
X129306500Y-77912000D01*
G75*
G02*
X129454000Y-78059500I0J-147500D01*
G01*
X129454000Y-78404500D01*
G75*
G02*
X129306500Y-78552000I-147500J0D01*
G01*
X129011500Y-78552000D01*
G75*
G02*
X128864000Y-78404500I0J147500D01*
G01*
G37*
G36*
G01*
X129834000Y-78404500D02*
X129834000Y-78059500D01*
G75*
G02*
X129981500Y-77912000I147500J0D01*
G01*
X130276500Y-77912000D01*
G75*
G02*
X130424000Y-78059500I0J-147500D01*
G01*
X130424000Y-78404500D01*
G75*
G02*
X130276500Y-78552000I-147500J0D01*
G01*
X129981500Y-78552000D01*
G75*
G02*
X129834000Y-78404500I0J147500D01*
G01*
G37*
%TD*%
D22*
%TO.C,J6*%
X116909000Y-81280000D03*
X116909000Y-75800000D03*
D23*
X117659000Y-75580000D03*
X117659000Y-81530000D03*
D24*
X118959000Y-75680000D03*
X118979000Y-81430000D03*
D25*
X118859000Y-77230000D03*
X118859000Y-77880000D03*
X118859000Y-78530000D03*
X118859000Y-79180000D03*
X118859000Y-79830000D03*
D26*
X118979000Y-76110000D03*
X118979000Y-80950000D03*
D27*
X115979000Y-75800000D03*
X115979000Y-81260000D03*
D28*
X115709000Y-77570000D03*
X115709000Y-79490000D03*
%TD*%
%TO.C,L4*%
G36*
G01*
X123265250Y-75212000D02*
X122352750Y-75212000D01*
G75*
G02*
X122109000Y-74968250I0J243750D01*
G01*
X122109000Y-74480750D01*
G75*
G02*
X122352750Y-74237000I243750J0D01*
G01*
X123265250Y-74237000D01*
G75*
G02*
X123509000Y-74480750I0J-243750D01*
G01*
X123509000Y-74968250D01*
G75*
G02*
X123265250Y-75212000I-243750J0D01*
G01*
G37*
G36*
G01*
X123265250Y-73337000D02*
X122352750Y-73337000D01*
G75*
G02*
X122109000Y-73093250I0J243750D01*
G01*
X122109000Y-72605750D01*
G75*
G02*
X122352750Y-72362000I243750J0D01*
G01*
X123265250Y-72362000D01*
G75*
G02*
X123509000Y-72605750I0J-243750D01*
G01*
X123509000Y-73093250D01*
G75*
G02*
X123265250Y-73337000I-243750J0D01*
G01*
G37*
%TD*%
D29*
%TO.C,U6*%
X125519000Y-77282000D03*
X125519000Y-78232000D03*
X125519000Y-79182000D03*
X127719000Y-79182000D03*
X127719000Y-77282000D03*
X127719000Y-78232000D03*
%TD*%
D30*
%TO.C,H1*%
X118110000Y-69850000D03*
%TD*%
%TO.C,H2*%
X186690000Y-130810000D03*
%TD*%
%TO.C,H3*%
X186690000Y-69850000D03*
%TD*%
%TO.C,H4*%
X118110000Y-130810000D03*
%TD*%
%TO.C,C53*%
G36*
G01*
X184787250Y-124389500D02*
X184274750Y-124389500D01*
G75*
G02*
X184056000Y-124170750I0J218750D01*
G01*
X184056000Y-123733250D01*
G75*
G02*
X184274750Y-123514500I218750J0D01*
G01*
X184787250Y-123514500D01*
G75*
G02*
X185006000Y-123733250I0J-218750D01*
G01*
X185006000Y-124170750D01*
G75*
G02*
X184787250Y-124389500I-218750J0D01*
G01*
G37*
G36*
G01*
X184787250Y-125964500D02*
X184274750Y-125964500D01*
G75*
G02*
X184056000Y-125745750I0J218750D01*
G01*
X184056000Y-125308250D01*
G75*
G02*
X184274750Y-125089500I218750J0D01*
G01*
X184787250Y-125089500D01*
G75*
G02*
X185006000Y-125308250I0J-218750D01*
G01*
X185006000Y-125745750D01*
G75*
G02*
X184787250Y-125964500I-218750J0D01*
G01*
G37*
%TD*%
%TO.C,C54*%
G36*
G01*
X174749750Y-118282000D02*
X175262250Y-118282000D01*
G75*
G02*
X175481000Y-118500750I0J-218750D01*
G01*
X175481000Y-118938250D01*
G75*
G02*
X175262250Y-119157000I-218750J0D01*
G01*
X174749750Y-119157000D01*
G75*
G02*
X174531000Y-118938250I0J218750D01*
G01*
X174531000Y-118500750D01*
G75*
G02*
X174749750Y-118282000I218750J0D01*
G01*
G37*
G36*
G01*
X174749750Y-119857000D02*
X175262250Y-119857000D01*
G75*
G02*
X175481000Y-120075750I0J-218750D01*
G01*
X175481000Y-120513250D01*
G75*
G02*
X175262250Y-120732000I-218750J0D01*
G01*
X174749750Y-120732000D01*
G75*
G02*
X174531000Y-120513250I0J218750D01*
G01*
X174531000Y-120075750D01*
G75*
G02*
X174749750Y-119857000I218750J0D01*
G01*
G37*
%TD*%
D31*
%TO.C,J7*%
X187960000Y-118364000D03*
D32*
X187960000Y-120904000D03*
%TD*%
D33*
%TO.C,U8*%
X179959000Y-118643000D03*
D24*
X179959000Y-124943000D03*
X182259000Y-124943000D03*
X177659000Y-124943000D03*
%TD*%
%TO.C,D1*%
G36*
G01*
X115843500Y-85473250D02*
X115843500Y-84960750D01*
G75*
G02*
X116062250Y-84742000I218750J0D01*
G01*
X116499750Y-84742000D01*
G75*
G02*
X116718500Y-84960750I0J-218750D01*
G01*
X116718500Y-85473250D01*
G75*
G02*
X116499750Y-85692000I-218750J0D01*
G01*
X116062250Y-85692000D01*
G75*
G02*
X115843500Y-85473250I0J218750D01*
G01*
G37*
G36*
G01*
X117418500Y-85473250D02*
X117418500Y-84960750D01*
G75*
G02*
X117637250Y-84742000I218750J0D01*
G01*
X118074750Y-84742000D01*
G75*
G02*
X118293500Y-84960750I0J-218750D01*
G01*
X118293500Y-85473250D01*
G75*
G02*
X118074750Y-85692000I-218750J0D01*
G01*
X117637250Y-85692000D01*
G75*
G02*
X117418500Y-85473250I0J218750D01*
G01*
G37*
%TD*%
%TO.C,D2*%
G36*
G01*
X117444000Y-88775250D02*
X117444000Y-88262750D01*
G75*
G02*
X117662750Y-88044000I218750J0D01*
G01*
X118100250Y-88044000D01*
G75*
G02*
X118319000Y-88262750I0J-218750D01*
G01*
X118319000Y-88775250D01*
G75*
G02*
X118100250Y-88994000I-218750J0D01*
G01*
X117662750Y-88994000D01*
G75*
G02*
X117444000Y-88775250I0J218750D01*
G01*
G37*
G36*
G01*
X115869000Y-88775250D02*
X115869000Y-88262750D01*
G75*
G02*
X116087750Y-88044000I218750J0D01*
G01*
X116525250Y-88044000D01*
G75*
G02*
X116744000Y-88262750I0J-218750D01*
G01*
X116744000Y-88775250D01*
G75*
G02*
X116525250Y-88994000I-218750J0D01*
G01*
X116087750Y-88994000D01*
G75*
G02*
X115869000Y-88775250I0J218750D01*
G01*
G37*
%TD*%
%TO.C,D3*%
G36*
G01*
X115742000Y-91950250D02*
X115742000Y-91437750D01*
G75*
G02*
X115960750Y-91219000I218750J0D01*
G01*
X116398250Y-91219000D01*
G75*
G02*
X116617000Y-91437750I0J-218750D01*
G01*
X116617000Y-91950250D01*
G75*
G02*
X116398250Y-92169000I-218750J0D01*
G01*
X115960750Y-92169000D01*
G75*
G02*
X115742000Y-91950250I0J218750D01*
G01*
G37*
G36*
G01*
X117317000Y-91950250D02*
X117317000Y-91437750D01*
G75*
G02*
X117535750Y-91219000I218750J0D01*
G01*
X117973250Y-91219000D01*
G75*
G02*
X118192000Y-91437750I0J-218750D01*
G01*
X118192000Y-91950250D01*
G75*
G02*
X117973250Y-92169000I-218750J0D01*
G01*
X117535750Y-92169000D01*
G75*
G02*
X117317000Y-91950250I0J218750D01*
G01*
G37*
%TD*%
%TO.C,R1*%
G36*
G01*
X119616000Y-85389500D02*
X119616000Y-85044500D01*
G75*
G02*
X119763500Y-84897000I147500J0D01*
G01*
X120058500Y-84897000D01*
G75*
G02*
X120206000Y-85044500I0J-147500D01*
G01*
X120206000Y-85389500D01*
G75*
G02*
X120058500Y-85537000I-147500J0D01*
G01*
X119763500Y-85537000D01*
G75*
G02*
X119616000Y-85389500I0J147500D01*
G01*
G37*
G36*
G01*
X120586000Y-85389500D02*
X120586000Y-85044500D01*
G75*
G02*
X120733500Y-84897000I147500J0D01*
G01*
X121028500Y-84897000D01*
G75*
G02*
X121176000Y-85044500I0J-147500D01*
G01*
X121176000Y-85389500D01*
G75*
G02*
X121028500Y-85537000I-147500J0D01*
G01*
X120733500Y-85537000D01*
G75*
G02*
X120586000Y-85389500I0J147500D01*
G01*
G37*
%TD*%
%TO.C,R2*%
G36*
G01*
X120586000Y-86786500D02*
X120586000Y-86441500D01*
G75*
G02*
X120733500Y-86294000I147500J0D01*
G01*
X121028500Y-86294000D01*
G75*
G02*
X121176000Y-86441500I0J-147500D01*
G01*
X121176000Y-86786500D01*
G75*
G02*
X121028500Y-86934000I-147500J0D01*
G01*
X120733500Y-86934000D01*
G75*
G02*
X120586000Y-86786500I0J147500D01*
G01*
G37*
G36*
G01*
X119616000Y-86786500D02*
X119616000Y-86441500D01*
G75*
G02*
X119763500Y-86294000I147500J0D01*
G01*
X120058500Y-86294000D01*
G75*
G02*
X120206000Y-86441500I0J-147500D01*
G01*
X120206000Y-86786500D01*
G75*
G02*
X120058500Y-86934000I-147500J0D01*
G01*
X119763500Y-86934000D01*
G75*
G02*
X119616000Y-86786500I0J147500D01*
G01*
G37*
%TD*%
%TO.C,R3*%
G36*
G01*
X119616000Y-88183500D02*
X119616000Y-87838500D01*
G75*
G02*
X119763500Y-87691000I147500J0D01*
G01*
X120058500Y-87691000D01*
G75*
G02*
X120206000Y-87838500I0J-147500D01*
G01*
X120206000Y-88183500D01*
G75*
G02*
X120058500Y-88331000I-147500J0D01*
G01*
X119763500Y-88331000D01*
G75*
G02*
X119616000Y-88183500I0J147500D01*
G01*
G37*
G36*
G01*
X120586000Y-88183500D02*
X120586000Y-87838500D01*
G75*
G02*
X120733500Y-87691000I147500J0D01*
G01*
X121028500Y-87691000D01*
G75*
G02*
X121176000Y-87838500I0J-147500D01*
G01*
X121176000Y-88183500D01*
G75*
G02*
X121028500Y-88331000I-147500J0D01*
G01*
X120733500Y-88331000D01*
G75*
G02*
X120586000Y-88183500I0J147500D01*
G01*
G37*
%TD*%
D34*
%TO.C,D4*%
X182246000Y-74549000D03*
X185546000Y-74549000D03*
%TD*%
D20*
%TO.C,X2*%
G36*
X154329654Y-115885874D02*
G01*
X153481126Y-115037346D01*
X154471076Y-114047396D01*
X155319604Y-114895924D01*
X154329654Y-115885874D01*
G37*
G36*
X155885289Y-114330239D02*
G01*
X155036761Y-113481711D01*
X156026711Y-112491761D01*
X156875239Y-113340289D01*
X155885289Y-114330239D01*
G37*
G36*
X154683208Y-113128158D02*
G01*
X153834680Y-112279630D01*
X154824630Y-111289680D01*
X155673158Y-112138208D01*
X154683208Y-113128158D01*
G37*
G36*
X153127573Y-114683793D02*
G01*
X152279045Y-113835265D01*
X153268995Y-112845315D01*
X154117523Y-113693843D01*
X153127573Y-114683793D01*
G37*
%TD*%
%TO.C,C52*%
G36*
G01*
X125712000Y-83484500D02*
X125712000Y-83139500D01*
G75*
G02*
X125859500Y-82992000I147500J0D01*
G01*
X126154500Y-82992000D01*
G75*
G02*
X126302000Y-83139500I0J-147500D01*
G01*
X126302000Y-83484500D01*
G75*
G02*
X126154500Y-83632000I-147500J0D01*
G01*
X125859500Y-83632000D01*
G75*
G02*
X125712000Y-83484500I0J147500D01*
G01*
G37*
G36*
G01*
X126682000Y-83484500D02*
X126682000Y-83139500D01*
G75*
G02*
X126829500Y-82992000I147500J0D01*
G01*
X127124500Y-82992000D01*
G75*
G02*
X127272000Y-83139500I0J-147500D01*
G01*
X127272000Y-83484500D01*
G75*
G02*
X127124500Y-83632000I-147500J0D01*
G01*
X126829500Y-83632000D01*
G75*
G02*
X126682000Y-83484500I0J147500D01*
G01*
G37*
%TD*%
D29*
%TO.C,U7*%
X122471000Y-82362000D03*
X122471000Y-83312000D03*
X122471000Y-84262000D03*
X124671000Y-84262000D03*
X124671000Y-82362000D03*
X124671000Y-83312000D03*
%TD*%
D12*
%TO.C,FID1*%
X139700000Y-101600000D03*
%TD*%
%TO.C,FID2*%
X175260000Y-128270000D03*
%TD*%
%TO.C,FID3*%
X130810000Y-73660000D03*
%TD*%
%TO.C,FID4*%
X121221500Y-117983000D03*
%TD*%
%TO.C,FID5*%
X178282600Y-87528400D03*
%TD*%
D35*
%TO.C,L3*%
X187833000Y-80082000D03*
X187833000Y-76382000D03*
%TD*%
%TO.C,R8*%
G36*
G01*
X180985000Y-81978000D02*
X182235000Y-81978000D01*
G75*
G02*
X182485000Y-82228000I0J-250000D01*
G01*
X182485000Y-82978000D01*
G75*
G02*
X182235000Y-83228000I-250000J0D01*
G01*
X180985000Y-83228000D01*
G75*
G02*
X180735000Y-82978000I0J250000D01*
G01*
X180735000Y-82228000D01*
G75*
G02*
X180985000Y-81978000I250000J0D01*
G01*
G37*
G36*
G01*
X180985000Y-79178000D02*
X182235000Y-79178000D01*
G75*
G02*
X182485000Y-79428000I0J-250000D01*
G01*
X182485000Y-80178000D01*
G75*
G02*
X182235000Y-80428000I-250000J0D01*
G01*
X180985000Y-80428000D01*
G75*
G02*
X180735000Y-80178000I0J250000D01*
G01*
X180735000Y-79428000D01*
G75*
G02*
X180985000Y-79178000I250000J0D01*
G01*
G37*
%TD*%
%TO.C,R9*%
G36*
G01*
X178572000Y-79178000D02*
X179822000Y-79178000D01*
G75*
G02*
X180072000Y-79428000I0J-250000D01*
G01*
X180072000Y-80178000D01*
G75*
G02*
X179822000Y-80428000I-250000J0D01*
G01*
X178572000Y-80428000D01*
G75*
G02*
X178322000Y-80178000I0J250000D01*
G01*
X178322000Y-79428000D01*
G75*
G02*
X178572000Y-79178000I250000J0D01*
G01*
G37*
G36*
G01*
X178572000Y-81978000D02*
X179822000Y-81978000D01*
G75*
G02*
X180072000Y-82228000I0J-250000D01*
G01*
X180072000Y-82978000D01*
G75*
G02*
X179822000Y-83228000I-250000J0D01*
G01*
X178572000Y-83228000D01*
G75*
G02*
X178322000Y-82978000I0J250000D01*
G01*
X178322000Y-82228000D01*
G75*
G02*
X178572000Y-81978000I250000J0D01*
G01*
G37*
%TD*%
D15*
%TO.C,J5*%
X136423000Y-71879000D03*
X142723000Y-71879000D03*
D36*
X140823000Y-75129000D03*
X140323000Y-75129000D03*
X139823000Y-75129000D03*
X139323000Y-75129000D03*
X138823000Y-75129000D03*
X138323000Y-75129000D03*
%TD*%
D37*
%TO.C,TP3*%
X189230000Y-85090000D03*
%TD*%
%TO.C,TP4*%
X189230000Y-87630000D03*
%TD*%
%TO.C,TP5*%
X115570000Y-95250000D03*
%TD*%
%TO.C,TP6*%
X115570000Y-97790000D03*
%TD*%
%TO.C,TP7*%
X189230000Y-90170000D03*
%TD*%
D12*
%TO.C,TP8*%
X123698000Y-69088000D03*
%TD*%
D38*
%TO.C,J8*%
X169037000Y-126746000D03*
X169037000Y-125476000D03*
X169037000Y-124206000D03*
X169037000Y-122936000D03*
X169037000Y-121666000D03*
X169037000Y-120396000D03*
X169037000Y-119126000D03*
X167767000Y-119126000D03*
X167767000Y-120396000D03*
X167767000Y-121666000D03*
X167767000Y-122936000D03*
X167767000Y-124206000D03*
X167767000Y-125476000D03*
X167767000Y-126746000D03*
D39*
X168402000Y-128016000D03*
X167386000Y-117856000D03*
X169418000Y-117856000D03*
D40*
X165862000Y-128016000D03*
X165862000Y-119761000D03*
X170942000Y-128016000D03*
X170942000Y-119761000D03*
%TD*%
D37*
%TO.C,TP1*%
X115570000Y-100330000D03*
%TD*%
%TO.C,TP2*%
X115570000Y-102870000D03*
%TD*%
M02*
