%TF.GenerationSoftware,KiCad,Pcbnew,(5.1.6)-1*%
%TF.CreationDate,2020-09-26T10:02:19-05:00*%
%TF.ProjectId,customDisplay,63757374-6f6d-4446-9973-706c61792e6b,A0*%
%TF.SameCoordinates,Original*%
%TF.FileFunction,Legend,Bot*%
%TF.FilePolarity,Positive*%
%FSLAX46Y46*%
G04 Gerber Fmt 4.6, Leading zero omitted, Abs format (unit mm)*
G04 Created by KiCad (PCBNEW (5.1.6)-1) date 2020-09-26 10:02:19*
%MOMM*%
%LPD*%
G01*
G04 APERTURE LIST*
%ADD10C,0.150000*%
%ADD11C,0.508000*%
%ADD12C,0.254000*%
%ADD13C,0.010000*%
%ADD14C,0.200000*%
G04 APERTURE END LIST*
D10*
X125999523Y-103449333D02*
X126047142Y-103401714D01*
X126142380Y-103258857D01*
X126190000Y-103163619D01*
X126237619Y-103020761D01*
X126285238Y-102782666D01*
X126285238Y-102592190D01*
X126237619Y-102354095D01*
X126190000Y-102211238D01*
X126142380Y-102116000D01*
X126047142Y-101973142D01*
X125999523Y-101925523D01*
X125761428Y-102068380D02*
X125428095Y-103068380D01*
X125094761Y-102068380D01*
X124190000Y-102973142D02*
X124237619Y-103020761D01*
X124380476Y-103068380D01*
X124475714Y-103068380D01*
X124618571Y-103020761D01*
X124713809Y-102925523D01*
X124761428Y-102830285D01*
X124809047Y-102639809D01*
X124809047Y-102496952D01*
X124761428Y-102306476D01*
X124713809Y-102211238D01*
X124618571Y-102116000D01*
X124475714Y-102068380D01*
X124380476Y-102068380D01*
X124237619Y-102116000D01*
X124190000Y-102163619D01*
X123761428Y-103068380D02*
X123761428Y-102068380D01*
X123380476Y-102068380D01*
X123285238Y-102116000D01*
X123237619Y-102163619D01*
X123190000Y-102258857D01*
X123190000Y-102401714D01*
X123237619Y-102496952D01*
X123285238Y-102544571D01*
X123380476Y-102592190D01*
X123761428Y-102592190D01*
X122142380Y-102068380D02*
X121570952Y-102068380D01*
X121856666Y-103068380D02*
X121856666Y-102068380D01*
X121332857Y-102068380D02*
X120666190Y-103068380D01*
X120666190Y-102068380D02*
X121332857Y-103068380D01*
X120380476Y-103449333D02*
X120332857Y-103401714D01*
X120237619Y-103258857D01*
X120190000Y-103163619D01*
X120142380Y-103020761D01*
X120094761Y-102782666D01*
X120094761Y-102592190D01*
X120142380Y-102354095D01*
X120190000Y-102211238D01*
X120237619Y-102116000D01*
X120332857Y-101973142D01*
X120380476Y-101925523D01*
X126118571Y-101163333D02*
X126166190Y-101115714D01*
X126261428Y-100972857D01*
X126309047Y-100877619D01*
X126356666Y-100734761D01*
X126404285Y-100496666D01*
X126404285Y-100306190D01*
X126356666Y-100068095D01*
X126309047Y-99925238D01*
X126261428Y-99830000D01*
X126166190Y-99687142D01*
X126118571Y-99639523D01*
X125880476Y-99782380D02*
X125547142Y-100782380D01*
X125213809Y-99782380D01*
X124309047Y-100687142D02*
X124356666Y-100734761D01*
X124499523Y-100782380D01*
X124594761Y-100782380D01*
X124737619Y-100734761D01*
X124832857Y-100639523D01*
X124880476Y-100544285D01*
X124928095Y-100353809D01*
X124928095Y-100210952D01*
X124880476Y-100020476D01*
X124832857Y-99925238D01*
X124737619Y-99830000D01*
X124594761Y-99782380D01*
X124499523Y-99782380D01*
X124356666Y-99830000D01*
X124309047Y-99877619D01*
X123880476Y-100782380D02*
X123880476Y-99782380D01*
X123499523Y-99782380D01*
X123404285Y-99830000D01*
X123356666Y-99877619D01*
X123309047Y-99972857D01*
X123309047Y-100115714D01*
X123356666Y-100210952D01*
X123404285Y-100258571D01*
X123499523Y-100306190D01*
X123880476Y-100306190D01*
X121547142Y-100782380D02*
X121880476Y-100306190D01*
X122118571Y-100782380D02*
X122118571Y-99782380D01*
X121737619Y-99782380D01*
X121642380Y-99830000D01*
X121594761Y-99877619D01*
X121547142Y-99972857D01*
X121547142Y-100115714D01*
X121594761Y-100210952D01*
X121642380Y-100258571D01*
X121737619Y-100306190D01*
X122118571Y-100306190D01*
X121213809Y-99782380D02*
X120547142Y-100782380D01*
X120547142Y-99782380D02*
X121213809Y-100782380D01*
X120261428Y-101163333D02*
X120213809Y-101115714D01*
X120118571Y-100972857D01*
X120070952Y-100877619D01*
X120023333Y-100734761D01*
X119975714Y-100496666D01*
X119975714Y-100306190D01*
X120023333Y-100068095D01*
X120070952Y-99925238D01*
X120118571Y-99830000D01*
X120213809Y-99687142D01*
X120261428Y-99639523D01*
X126126666Y-98623333D02*
X126174285Y-98575714D01*
X126269523Y-98432857D01*
X126317142Y-98337619D01*
X126364761Y-98194761D01*
X126412380Y-97956666D01*
X126412380Y-97766190D01*
X126364761Y-97528095D01*
X126317142Y-97385238D01*
X126269523Y-97290000D01*
X126174285Y-97147142D01*
X126126666Y-97099523D01*
X125221904Y-97290000D02*
X125317142Y-97242380D01*
X125460000Y-97242380D01*
X125602857Y-97290000D01*
X125698095Y-97385238D01*
X125745714Y-97480476D01*
X125793333Y-97670952D01*
X125793333Y-97813809D01*
X125745714Y-98004285D01*
X125698095Y-98099523D01*
X125602857Y-98194761D01*
X125460000Y-98242380D01*
X125364761Y-98242380D01*
X125221904Y-98194761D01*
X125174285Y-98147142D01*
X125174285Y-97813809D01*
X125364761Y-97813809D01*
X124745714Y-98242380D02*
X124745714Y-97242380D01*
X124174285Y-98242380D01*
X124174285Y-97242380D01*
X123698095Y-98242380D02*
X123698095Y-97242380D01*
X123460000Y-97242380D01*
X123317142Y-97290000D01*
X123221904Y-97385238D01*
X123174285Y-97480476D01*
X123126666Y-97670952D01*
X123126666Y-97813809D01*
X123174285Y-98004285D01*
X123221904Y-98099523D01*
X123317142Y-98194761D01*
X123460000Y-98242380D01*
X123698095Y-98242380D01*
X122793333Y-98623333D02*
X122745714Y-98575714D01*
X122650476Y-98432857D01*
X122602857Y-98337619D01*
X122555238Y-98194761D01*
X122507619Y-97956666D01*
X122507619Y-97766190D01*
X122555238Y-97528095D01*
X122602857Y-97385238D01*
X122650476Y-97290000D01*
X122745714Y-97147142D01*
X122793333Y-97099523D01*
X126031428Y-96083333D02*
X126079047Y-96035714D01*
X126174285Y-95892857D01*
X126221904Y-95797619D01*
X126269523Y-95654761D01*
X126317142Y-95416666D01*
X126317142Y-95226190D01*
X126269523Y-94988095D01*
X126221904Y-94845238D01*
X126174285Y-94750000D01*
X126079047Y-94607142D01*
X126031428Y-94559523D01*
X125793333Y-94702380D02*
X125460000Y-95702380D01*
X125126666Y-94702380D01*
X124793333Y-95702380D02*
X124793333Y-94702380D01*
X124555238Y-94702380D01*
X124412380Y-94750000D01*
X124317142Y-94845238D01*
X124269523Y-94940476D01*
X124221904Y-95130952D01*
X124221904Y-95273809D01*
X124269523Y-95464285D01*
X124317142Y-95559523D01*
X124412380Y-95654761D01*
X124555238Y-95702380D01*
X124793333Y-95702380D01*
X123793333Y-95702380D02*
X123793333Y-94702380D01*
X123555238Y-94702380D01*
X123412380Y-94750000D01*
X123317142Y-94845238D01*
X123269523Y-94940476D01*
X123221904Y-95130952D01*
X123221904Y-95273809D01*
X123269523Y-95464285D01*
X123317142Y-95559523D01*
X123412380Y-95654761D01*
X123555238Y-95702380D01*
X123793333Y-95702380D01*
X122888571Y-96083333D02*
X122840952Y-96035714D01*
X122745714Y-95892857D01*
X122698095Y-95797619D01*
X122650476Y-95654761D01*
X122602857Y-95416666D01*
X122602857Y-95226190D01*
X122650476Y-94988095D01*
X122698095Y-94845238D01*
X122745714Y-94750000D01*
X122840952Y-94607142D01*
X122888571Y-94559523D01*
X184546666Y-91003333D02*
X184594285Y-90955714D01*
X184689523Y-90812857D01*
X184737142Y-90717619D01*
X184784761Y-90574761D01*
X184832380Y-90336666D01*
X184832380Y-90146190D01*
X184784761Y-89908095D01*
X184737142Y-89765238D01*
X184689523Y-89670000D01*
X184594285Y-89527142D01*
X184546666Y-89479523D01*
X183641904Y-89670000D02*
X183737142Y-89622380D01*
X183880000Y-89622380D01*
X184022857Y-89670000D01*
X184118095Y-89765238D01*
X184165714Y-89860476D01*
X184213333Y-90050952D01*
X184213333Y-90193809D01*
X184165714Y-90384285D01*
X184118095Y-90479523D01*
X184022857Y-90574761D01*
X183880000Y-90622380D01*
X183784761Y-90622380D01*
X183641904Y-90574761D01*
X183594285Y-90527142D01*
X183594285Y-90193809D01*
X183784761Y-90193809D01*
X183165714Y-90622380D02*
X183165714Y-89622380D01*
X182594285Y-90622380D01*
X182594285Y-89622380D01*
X182118095Y-90622380D02*
X182118095Y-89622380D01*
X181880000Y-89622380D01*
X181737142Y-89670000D01*
X181641904Y-89765238D01*
X181594285Y-89860476D01*
X181546666Y-90050952D01*
X181546666Y-90193809D01*
X181594285Y-90384285D01*
X181641904Y-90479523D01*
X181737142Y-90574761D01*
X181880000Y-90622380D01*
X182118095Y-90622380D01*
X181213333Y-91003333D02*
X181165714Y-90955714D01*
X181070476Y-90812857D01*
X181022857Y-90717619D01*
X180975238Y-90574761D01*
X180927619Y-90336666D01*
X180927619Y-90146190D01*
X180975238Y-89908095D01*
X181022857Y-89765238D01*
X181070476Y-89670000D01*
X181165714Y-89527142D01*
X181213333Y-89479523D01*
X184498857Y-85923333D02*
X184546476Y-85875714D01*
X184641714Y-85732857D01*
X184689333Y-85637619D01*
X184736952Y-85494761D01*
X184784571Y-85256666D01*
X184784571Y-85066190D01*
X184736952Y-84828095D01*
X184689333Y-84685238D01*
X184641714Y-84590000D01*
X184546476Y-84447142D01*
X184498857Y-84399523D01*
X184117904Y-85542380D02*
X184117904Y-84542380D01*
X183689333Y-84637619D02*
X183641714Y-84590000D01*
X183546476Y-84542380D01*
X183308380Y-84542380D01*
X183213142Y-84590000D01*
X183165523Y-84637619D01*
X183117904Y-84732857D01*
X183117904Y-84828095D01*
X183165523Y-84970952D01*
X183736952Y-85542380D01*
X183117904Y-85542380D01*
X182117904Y-85447142D02*
X182165523Y-85494761D01*
X182308380Y-85542380D01*
X182403619Y-85542380D01*
X182546476Y-85494761D01*
X182641714Y-85399523D01*
X182689333Y-85304285D01*
X182736952Y-85113809D01*
X182736952Y-84970952D01*
X182689333Y-84780476D01*
X182641714Y-84685238D01*
X182546476Y-84590000D01*
X182403619Y-84542380D01*
X182308380Y-84542380D01*
X182165523Y-84590000D01*
X182117904Y-84637619D01*
X180975047Y-85494761D02*
X180832190Y-85542380D01*
X180594095Y-85542380D01*
X180498857Y-85494761D01*
X180451238Y-85447142D01*
X180403619Y-85351904D01*
X180403619Y-85256666D01*
X180451238Y-85161428D01*
X180498857Y-85113809D01*
X180594095Y-85066190D01*
X180784571Y-85018571D01*
X180879809Y-84970952D01*
X180927428Y-84923333D01*
X180975047Y-84828095D01*
X180975047Y-84732857D01*
X180927428Y-84637619D01*
X180879809Y-84590000D01*
X180784571Y-84542380D01*
X180546476Y-84542380D01*
X180403619Y-84590000D01*
X179975047Y-85542380D02*
X179975047Y-84542380D01*
X179736952Y-84542380D01*
X179594095Y-84590000D01*
X179498857Y-84685238D01*
X179451238Y-84780476D01*
X179403619Y-84970952D01*
X179403619Y-85113809D01*
X179451238Y-85304285D01*
X179498857Y-85399523D01*
X179594095Y-85494761D01*
X179736952Y-85542380D01*
X179975047Y-85542380D01*
X179022666Y-85256666D02*
X178546476Y-85256666D01*
X179117904Y-85542380D02*
X178784571Y-84542380D01*
X178451238Y-85542380D01*
X178213142Y-85923333D02*
X178165523Y-85875714D01*
X178070285Y-85732857D01*
X178022666Y-85637619D01*
X177975047Y-85494761D01*
X177927428Y-85256666D01*
X177927428Y-85066190D01*
X177975047Y-84828095D01*
X178022666Y-84685238D01*
X178070285Y-84590000D01*
X178165523Y-84447142D01*
X178213142Y-84399523D01*
X184475047Y-88463333D02*
X184522666Y-88415714D01*
X184617904Y-88272857D01*
X184665523Y-88177619D01*
X184713142Y-88034761D01*
X184760761Y-87796666D01*
X184760761Y-87606190D01*
X184713142Y-87368095D01*
X184665523Y-87225238D01*
X184617904Y-87130000D01*
X184522666Y-86987142D01*
X184475047Y-86939523D01*
X184094095Y-88082380D02*
X184094095Y-87082380D01*
X183665523Y-87177619D02*
X183617904Y-87130000D01*
X183522666Y-87082380D01*
X183284571Y-87082380D01*
X183189333Y-87130000D01*
X183141714Y-87177619D01*
X183094095Y-87272857D01*
X183094095Y-87368095D01*
X183141714Y-87510952D01*
X183713142Y-88082380D01*
X183094095Y-88082380D01*
X182094095Y-87987142D02*
X182141714Y-88034761D01*
X182284571Y-88082380D01*
X182379809Y-88082380D01*
X182522666Y-88034761D01*
X182617904Y-87939523D01*
X182665523Y-87844285D01*
X182713142Y-87653809D01*
X182713142Y-87510952D01*
X182665523Y-87320476D01*
X182617904Y-87225238D01*
X182522666Y-87130000D01*
X182379809Y-87082380D01*
X182284571Y-87082380D01*
X182141714Y-87130000D01*
X182094095Y-87177619D01*
X180951238Y-88034761D02*
X180808380Y-88082380D01*
X180570285Y-88082380D01*
X180475047Y-88034761D01*
X180427428Y-87987142D01*
X180379809Y-87891904D01*
X180379809Y-87796666D01*
X180427428Y-87701428D01*
X180475047Y-87653809D01*
X180570285Y-87606190D01*
X180760761Y-87558571D01*
X180856000Y-87510952D01*
X180903619Y-87463333D01*
X180951238Y-87368095D01*
X180951238Y-87272857D01*
X180903619Y-87177619D01*
X180856000Y-87130000D01*
X180760761Y-87082380D01*
X180522666Y-87082380D01*
X180379809Y-87130000D01*
X179379809Y-87987142D02*
X179427428Y-88034761D01*
X179570285Y-88082380D01*
X179665523Y-88082380D01*
X179808380Y-88034761D01*
X179903619Y-87939523D01*
X179951238Y-87844285D01*
X179998857Y-87653809D01*
X179998857Y-87510952D01*
X179951238Y-87320476D01*
X179903619Y-87225238D01*
X179808380Y-87130000D01*
X179665523Y-87082380D01*
X179570285Y-87082380D01*
X179427428Y-87130000D01*
X179379809Y-87177619D01*
X178475047Y-88082380D02*
X178951238Y-88082380D01*
X178951238Y-87082380D01*
X178236952Y-88463333D02*
X178189333Y-88415714D01*
X178094095Y-88272857D01*
X178046476Y-88177619D01*
X177998857Y-88034761D01*
X177951238Y-87796666D01*
X177951238Y-87606190D01*
X177998857Y-87368095D01*
X178046476Y-87225238D01*
X178094095Y-87130000D01*
X178189333Y-86987142D01*
X178236952Y-86939523D01*
X185673952Y-120975428D02*
X184912047Y-120975428D01*
X185673952Y-118435428D02*
X184912047Y-118435428D01*
X185293000Y-118816380D02*
X185293000Y-118054476D01*
D11*
X178428952Y-81594476D02*
X178138666Y-81691238D01*
X177654857Y-81691238D01*
X177461333Y-81594476D01*
X177364571Y-81497714D01*
X177267809Y-81304190D01*
X177267809Y-81110666D01*
X177364571Y-80917142D01*
X177461333Y-80820380D01*
X177654857Y-80723619D01*
X178041904Y-80626857D01*
X178235428Y-80530095D01*
X178332190Y-80433333D01*
X178428952Y-80239809D01*
X178428952Y-80046285D01*
X178332190Y-79852761D01*
X178235428Y-79756000D01*
X178041904Y-79659238D01*
X177558095Y-79659238D01*
X177267809Y-79756000D01*
X176687238Y-79659238D02*
X175526095Y-79659238D01*
X176106666Y-81691238D02*
X176106666Y-79659238D01*
X174848761Y-81691238D02*
X174848761Y-79659238D01*
X174171428Y-81110666D01*
X173494095Y-79659238D01*
X173494095Y-81691238D01*
X172720000Y-79659238D02*
X171462095Y-79659238D01*
X172139428Y-80433333D01*
X171849142Y-80433333D01*
X171655619Y-80530095D01*
X171558857Y-80626857D01*
X171462095Y-80820380D01*
X171462095Y-81304190D01*
X171558857Y-81497714D01*
X171655619Y-81594476D01*
X171849142Y-81691238D01*
X172429714Y-81691238D01*
X172623238Y-81594476D01*
X172720000Y-81497714D01*
X170688000Y-79852761D02*
X170591238Y-79756000D01*
X170397714Y-79659238D01*
X169913904Y-79659238D01*
X169720380Y-79756000D01*
X169623619Y-79852761D01*
X169526857Y-80046285D01*
X169526857Y-80239809D01*
X169623619Y-80530095D01*
X170784761Y-81691238D01*
X169526857Y-81691238D01*
X167978666Y-80626857D02*
X168656000Y-80626857D01*
X168656000Y-81691238D02*
X168656000Y-79659238D01*
X167688380Y-79659238D01*
X167107809Y-79659238D02*
X165753142Y-79659238D01*
X166624000Y-81691238D01*
X164108190Y-79659238D02*
X164495238Y-79659238D01*
X164688761Y-79756000D01*
X164785523Y-79852761D01*
X164979047Y-80143047D01*
X165075809Y-80530095D01*
X165075809Y-81304190D01*
X164979047Y-81497714D01*
X164882285Y-81594476D01*
X164688761Y-81691238D01*
X164301714Y-81691238D01*
X164108190Y-81594476D01*
X164011428Y-81497714D01*
X163914666Y-81304190D01*
X163914666Y-80820380D01*
X164011428Y-80626857D01*
X164108190Y-80530095D01*
X164301714Y-80433333D01*
X164688761Y-80433333D01*
X164882285Y-80530095D01*
X164979047Y-80626857D01*
X165075809Y-80820380D01*
X163237333Y-79659238D02*
X161882666Y-79659238D01*
X162753523Y-81691238D01*
X158399238Y-81497714D02*
X158496000Y-81594476D01*
X158786285Y-81691238D01*
X158979809Y-81691238D01*
X159270095Y-81594476D01*
X159463619Y-81400952D01*
X159560380Y-81207428D01*
X159657142Y-80820380D01*
X159657142Y-80530095D01*
X159560380Y-80143047D01*
X159463619Y-79949523D01*
X159270095Y-79756000D01*
X158979809Y-79659238D01*
X158786285Y-79659238D01*
X158496000Y-79756000D01*
X158399238Y-79852761D01*
X156657523Y-80336571D02*
X156657523Y-81691238D01*
X157528380Y-80336571D02*
X157528380Y-81400952D01*
X157431619Y-81594476D01*
X157238095Y-81691238D01*
X156947809Y-81691238D01*
X156754285Y-81594476D01*
X156657523Y-81497714D01*
X155786666Y-81594476D02*
X155593142Y-81691238D01*
X155206095Y-81691238D01*
X155012571Y-81594476D01*
X154915809Y-81400952D01*
X154915809Y-81304190D01*
X155012571Y-81110666D01*
X155206095Y-81013904D01*
X155496380Y-81013904D01*
X155689904Y-80917142D01*
X155786666Y-80723619D01*
X155786666Y-80626857D01*
X155689904Y-80433333D01*
X155496380Y-80336571D01*
X155206095Y-80336571D01*
X155012571Y-80433333D01*
X154335238Y-80336571D02*
X153561142Y-80336571D01*
X154044952Y-79659238D02*
X154044952Y-81400952D01*
X153948190Y-81594476D01*
X153754666Y-81691238D01*
X153561142Y-81691238D01*
X152593523Y-81691238D02*
X152787047Y-81594476D01*
X152883809Y-81497714D01*
X152980571Y-81304190D01*
X152980571Y-80723619D01*
X152883809Y-80530095D01*
X152787047Y-80433333D01*
X152593523Y-80336571D01*
X152303238Y-80336571D01*
X152109714Y-80433333D01*
X152012952Y-80530095D01*
X151916190Y-80723619D01*
X151916190Y-81304190D01*
X152012952Y-81497714D01*
X152109714Y-81594476D01*
X152303238Y-81691238D01*
X152593523Y-81691238D01*
X151045333Y-81691238D02*
X151045333Y-80336571D01*
X151045333Y-80530095D02*
X150948571Y-80433333D01*
X150755047Y-80336571D01*
X150464761Y-80336571D01*
X150271238Y-80433333D01*
X150174476Y-80626857D01*
X150174476Y-81691238D01*
X150174476Y-80626857D02*
X150077714Y-80433333D01*
X149884190Y-80336571D01*
X149593904Y-80336571D01*
X149400380Y-80433333D01*
X149303619Y-80626857D01*
X149303619Y-81691238D01*
X146787809Y-81691238D02*
X146787809Y-79659238D01*
X146304000Y-79659238D01*
X146013714Y-79756000D01*
X145820190Y-79949523D01*
X145723428Y-80143047D01*
X145626666Y-80530095D01*
X145626666Y-80820380D01*
X145723428Y-81207428D01*
X145820190Y-81400952D01*
X146013714Y-81594476D01*
X146304000Y-81691238D01*
X146787809Y-81691238D01*
X144755809Y-81691238D02*
X144755809Y-80336571D01*
X144755809Y-79659238D02*
X144852571Y-79756000D01*
X144755809Y-79852761D01*
X144659047Y-79756000D01*
X144755809Y-79659238D01*
X144755809Y-79852761D01*
X143884952Y-81594476D02*
X143691428Y-81691238D01*
X143304380Y-81691238D01*
X143110857Y-81594476D01*
X143014095Y-81400952D01*
X143014095Y-81304190D01*
X143110857Y-81110666D01*
X143304380Y-81013904D01*
X143594666Y-81013904D01*
X143788190Y-80917142D01*
X143884952Y-80723619D01*
X143884952Y-80626857D01*
X143788190Y-80433333D01*
X143594666Y-80336571D01*
X143304380Y-80336571D01*
X143110857Y-80433333D01*
X142143238Y-80336571D02*
X142143238Y-82368571D01*
X142143238Y-80433333D02*
X141949714Y-80336571D01*
X141562666Y-80336571D01*
X141369142Y-80433333D01*
X141272380Y-80530095D01*
X141175619Y-80723619D01*
X141175619Y-81304190D01*
X141272380Y-81497714D01*
X141369142Y-81594476D01*
X141562666Y-81691238D01*
X141949714Y-81691238D01*
X142143238Y-81594476D01*
X140014476Y-81691238D02*
X140208000Y-81594476D01*
X140304761Y-81400952D01*
X140304761Y-79659238D01*
X138369523Y-81691238D02*
X138369523Y-80626857D01*
X138466285Y-80433333D01*
X138659809Y-80336571D01*
X139046857Y-80336571D01*
X139240380Y-80433333D01*
X138369523Y-81594476D02*
X138563047Y-81691238D01*
X139046857Y-81691238D01*
X139240380Y-81594476D01*
X139337142Y-81400952D01*
X139337142Y-81207428D01*
X139240380Y-81013904D01*
X139046857Y-80917142D01*
X138563047Y-80917142D01*
X138369523Y-80820380D01*
X137595428Y-80336571D02*
X137111619Y-81691238D01*
X136627809Y-80336571D02*
X137111619Y-81691238D01*
X137305142Y-82175047D01*
X137401904Y-82271809D01*
X137595428Y-82368571D01*
X133628190Y-80626857D02*
X133337904Y-80723619D01*
X133241142Y-80820380D01*
X133144380Y-81013904D01*
X133144380Y-81304190D01*
X133241142Y-81497714D01*
X133337904Y-81594476D01*
X133531428Y-81691238D01*
X134305523Y-81691238D01*
X134305523Y-79659238D01*
X133628190Y-79659238D01*
X133434666Y-79756000D01*
X133337904Y-79852761D01*
X133241142Y-80046285D01*
X133241142Y-80239809D01*
X133337904Y-80433333D01*
X133434666Y-80530095D01*
X133628190Y-80626857D01*
X134305523Y-80626857D01*
X131983238Y-81691238D02*
X132176761Y-81594476D01*
X132273523Y-81497714D01*
X132370285Y-81304190D01*
X132370285Y-80723619D01*
X132273523Y-80530095D01*
X132176761Y-80433333D01*
X131983238Y-80336571D01*
X131692952Y-80336571D01*
X131499428Y-80433333D01*
X131402666Y-80530095D01*
X131305904Y-80723619D01*
X131305904Y-81304190D01*
X131402666Y-81497714D01*
X131499428Y-81594476D01*
X131692952Y-81691238D01*
X131983238Y-81691238D01*
X129564190Y-81691238D02*
X129564190Y-80626857D01*
X129660952Y-80433333D01*
X129854476Y-80336571D01*
X130241523Y-80336571D01*
X130435047Y-80433333D01*
X129564190Y-81594476D02*
X129757714Y-81691238D01*
X130241523Y-81691238D01*
X130435047Y-81594476D01*
X130531809Y-81400952D01*
X130531809Y-81207428D01*
X130435047Y-81013904D01*
X130241523Y-80917142D01*
X129757714Y-80917142D01*
X129564190Y-80820380D01*
X128596571Y-81691238D02*
X128596571Y-80336571D01*
X128596571Y-80723619D02*
X128499809Y-80530095D01*
X128403047Y-80433333D01*
X128209523Y-80336571D01*
X128016000Y-80336571D01*
X126467809Y-81691238D02*
X126467809Y-79659238D01*
X126467809Y-81594476D02*
X126661333Y-81691238D01*
X127048380Y-81691238D01*
X127241904Y-81594476D01*
X127338666Y-81497714D01*
X127435428Y-81304190D01*
X127435428Y-80723619D01*
X127338666Y-80530095D01*
X127241904Y-80433333D01*
X127048380Y-80336571D01*
X126661333Y-80336571D01*
X126467809Y-80433333D01*
X164737142Y-85150476D02*
X164543619Y-85247238D01*
X164156571Y-85247238D01*
X163963047Y-85150476D01*
X163866285Y-84956952D01*
X163866285Y-84860190D01*
X163963047Y-84666666D01*
X164156571Y-84569904D01*
X164446857Y-84569904D01*
X164640380Y-84473142D01*
X164737142Y-84279619D01*
X164737142Y-84182857D01*
X164640380Y-83989333D01*
X164446857Y-83892571D01*
X164156571Y-83892571D01*
X163963047Y-83989333D01*
X163188952Y-83892571D02*
X162705142Y-85247238D01*
X162221333Y-83892571D01*
X160576380Y-85150476D02*
X160769904Y-85247238D01*
X161156952Y-85247238D01*
X161350476Y-85150476D01*
X161447238Y-85053714D01*
X161544000Y-84860190D01*
X161544000Y-84279619D01*
X161447238Y-84086095D01*
X161350476Y-83989333D01*
X161156952Y-83892571D01*
X160769904Y-83892571D01*
X160576380Y-83989333D01*
X158834666Y-83892571D02*
X158834666Y-85537523D01*
X158931428Y-85731047D01*
X159028190Y-85827809D01*
X159221714Y-85924571D01*
X159512000Y-85924571D01*
X159705523Y-85827809D01*
X158834666Y-85150476D02*
X159028190Y-85247238D01*
X159415238Y-85247238D01*
X159608761Y-85150476D01*
X159705523Y-85053714D01*
X159802285Y-84860190D01*
X159802285Y-84279619D01*
X159705523Y-84086095D01*
X159608761Y-83989333D01*
X159415238Y-83892571D01*
X159028190Y-83892571D01*
X158834666Y-83989333D01*
X156996190Y-83892571D02*
X156996190Y-85247238D01*
X157867047Y-83892571D02*
X157867047Y-84956952D01*
X157770285Y-85150476D01*
X157576761Y-85247238D01*
X157286476Y-85247238D01*
X157092952Y-85150476D01*
X156996190Y-85053714D01*
X156222095Y-83892571D02*
X155738285Y-85247238D01*
X155254476Y-83892571D02*
X155738285Y-85247238D01*
X155931809Y-85731047D01*
X156028571Y-85827809D01*
X156222095Y-85924571D01*
X152545142Y-83215238D02*
X152351619Y-83215238D01*
X152158095Y-83312000D01*
X152061333Y-83408761D01*
X151964571Y-83602285D01*
X151867809Y-83989333D01*
X151867809Y-84473142D01*
X151964571Y-84860190D01*
X152061333Y-85053714D01*
X152158095Y-85150476D01*
X152351619Y-85247238D01*
X152545142Y-85247238D01*
X152738666Y-85150476D01*
X152835428Y-85053714D01*
X152932190Y-84860190D01*
X153028952Y-84473142D01*
X153028952Y-83989333D01*
X152932190Y-83602285D01*
X152835428Y-83408761D01*
X152738666Y-83312000D01*
X152545142Y-83215238D01*
X150900190Y-85247238D02*
X150513142Y-85247238D01*
X150319619Y-85150476D01*
X150222857Y-85053714D01*
X150029333Y-84763428D01*
X149932571Y-84376380D01*
X149932571Y-83602285D01*
X150029333Y-83408761D01*
X150126095Y-83312000D01*
X150319619Y-83215238D01*
X150706666Y-83215238D01*
X150900190Y-83312000D01*
X150996952Y-83408761D01*
X151093714Y-83602285D01*
X151093714Y-84086095D01*
X150996952Y-84279619D01*
X150900190Y-84376380D01*
X150706666Y-84473142D01*
X150319619Y-84473142D01*
X150126095Y-84376380D01*
X150029333Y-84279619D01*
X149932571Y-84086095D01*
X147610285Y-83118476D02*
X149352000Y-85731047D01*
X147029714Y-83408761D02*
X146932952Y-83312000D01*
X146739428Y-83215238D01*
X146255619Y-83215238D01*
X146062095Y-83312000D01*
X145965333Y-83408761D01*
X145868571Y-83602285D01*
X145868571Y-83795809D01*
X145965333Y-84086095D01*
X147126476Y-85247238D01*
X145868571Y-85247238D01*
X144610666Y-83215238D02*
X144417142Y-83215238D01*
X144223619Y-83312000D01*
X144126857Y-83408761D01*
X144030095Y-83602285D01*
X143933333Y-83989333D01*
X143933333Y-84473142D01*
X144030095Y-84860190D01*
X144126857Y-85053714D01*
X144223619Y-85150476D01*
X144417142Y-85247238D01*
X144610666Y-85247238D01*
X144804190Y-85150476D01*
X144900952Y-85053714D01*
X144997714Y-84860190D01*
X145094476Y-84473142D01*
X145094476Y-83989333D01*
X144997714Y-83602285D01*
X144900952Y-83408761D01*
X144804190Y-83312000D01*
X144610666Y-83215238D01*
X143159238Y-83408761D02*
X143062476Y-83312000D01*
X142868952Y-83215238D01*
X142385142Y-83215238D01*
X142191619Y-83312000D01*
X142094857Y-83408761D01*
X141998095Y-83602285D01*
X141998095Y-83795809D01*
X142094857Y-84086095D01*
X143256000Y-85247238D01*
X141998095Y-85247238D01*
X140740190Y-83215238D02*
X140546666Y-83215238D01*
X140353142Y-83312000D01*
X140256380Y-83408761D01*
X140159619Y-83602285D01*
X140062857Y-83989333D01*
X140062857Y-84473142D01*
X140159619Y-84860190D01*
X140256380Y-85053714D01*
X140353142Y-85150476D01*
X140546666Y-85247238D01*
X140740190Y-85247238D01*
X140933714Y-85150476D01*
X141030476Y-85053714D01*
X141127238Y-84860190D01*
X141224000Y-84473142D01*
X141224000Y-83989333D01*
X141127238Y-83602285D01*
X141030476Y-83408761D01*
X140933714Y-83312000D01*
X140740190Y-83215238D01*
D12*
X159717014Y-122839842D02*
X160301214Y-122005271D01*
X160718500Y-122839842D02*
X160718500Y-121087242D01*
X160050842Y-121087242D01*
X159883928Y-121170700D01*
X159800471Y-121254157D01*
X159717014Y-121421071D01*
X159717014Y-121671442D01*
X159800471Y-121838357D01*
X159883928Y-121921814D01*
X160050842Y-122005271D01*
X160718500Y-122005271D01*
X158965900Y-121921814D02*
X158381700Y-121921814D01*
X158131328Y-122839842D02*
X158965900Y-122839842D01*
X158965900Y-121087242D01*
X158131328Y-121087242D01*
X157630585Y-121087242D02*
X157046385Y-122839842D01*
X156462185Y-121087242D01*
X153958471Y-121921814D02*
X153708100Y-122005271D01*
X153624642Y-122088728D01*
X153541185Y-122255642D01*
X153541185Y-122506014D01*
X153624642Y-122672928D01*
X153708100Y-122756385D01*
X153875014Y-122839842D01*
X154542671Y-122839842D01*
X154542671Y-121087242D01*
X153958471Y-121087242D01*
X153791557Y-121170700D01*
X153708100Y-121254157D01*
X153624642Y-121421071D01*
X153624642Y-121587985D01*
X153708100Y-121754900D01*
X153791557Y-121838357D01*
X153958471Y-121921814D01*
X154542671Y-121921814D01*
X151872042Y-122839842D02*
X152873528Y-122839842D01*
X152372785Y-122839842D02*
X152372785Y-121087242D01*
X152539700Y-121337614D01*
X152706614Y-121504528D01*
X152873528Y-121587985D01*
D13*
%TO.C,REF\u002A\u002A*%
G36*
X172755743Y-93374236D02*
G01*
X171878739Y-93374354D01*
X171470505Y-93374372D01*
X164936165Y-93374372D01*
X164936165Y-93759556D01*
X164895053Y-94228293D01*
X164770973Y-94660598D01*
X164562810Y-95059040D01*
X164269450Y-95426189D01*
X164170197Y-95525349D01*
X163813159Y-95806618D01*
X163419482Y-96011754D01*
X163000861Y-96140850D01*
X162568988Y-96193999D01*
X162135555Y-96171294D01*
X161712255Y-96072828D01*
X161310781Y-95898696D01*
X160942826Y-95648988D01*
X160777572Y-95498335D01*
X160469622Y-95128960D01*
X160243806Y-94722769D01*
X160102094Y-94284404D01*
X160046453Y-93818510D01*
X160045714Y-93772677D01*
X160042796Y-93374387D01*
X159867741Y-93374380D01*
X159712450Y-93395455D01*
X159570593Y-93446734D01*
X159561218Y-93452032D01*
X159529179Y-93468656D01*
X159499757Y-93481603D01*
X159472847Y-93494644D01*
X159448342Y-93511550D01*
X159426135Y-93536092D01*
X159406120Y-93572041D01*
X159388192Y-93623169D01*
X159372243Y-93693245D01*
X159358168Y-93786043D01*
X159345859Y-93905332D01*
X159335212Y-94054884D01*
X159326118Y-94238469D01*
X159318473Y-94459860D01*
X159312169Y-94722827D01*
X159307100Y-95031141D01*
X159303161Y-95388573D01*
X159300244Y-95798895D01*
X159298244Y-96265878D01*
X159297054Y-96793292D01*
X159296567Y-97384909D01*
X159296678Y-98044501D01*
X159297279Y-98775837D01*
X159298266Y-99582689D01*
X159299531Y-100468829D01*
X159300968Y-101438028D01*
X159302470Y-102494056D01*
X159302645Y-102622715D01*
X159303992Y-103685478D01*
X159305135Y-104660971D01*
X159306195Y-105552964D01*
X159307294Y-106365226D01*
X159308551Y-107101528D01*
X159310088Y-107765637D01*
X159312027Y-108361324D01*
X159314488Y-108892359D01*
X159317592Y-109362509D01*
X159321460Y-109775546D01*
X159326214Y-110135238D01*
X159331975Y-110445355D01*
X159338863Y-110709666D01*
X159347000Y-110931940D01*
X159356506Y-111115948D01*
X159367503Y-111265458D01*
X159380112Y-111384240D01*
X159394454Y-111476063D01*
X159410650Y-111544696D01*
X159428821Y-111593910D01*
X159449088Y-111627474D01*
X159471572Y-111649156D01*
X159496394Y-111662726D01*
X159523676Y-111671955D01*
X159553538Y-111680610D01*
X159586101Y-111692462D01*
X159594056Y-111696070D01*
X159619057Y-111704177D01*
X159660901Y-111711626D01*
X159723243Y-111718443D01*
X159809736Y-111724655D01*
X159924033Y-111730288D01*
X160069788Y-111735368D01*
X160250656Y-111739923D01*
X160470290Y-111743979D01*
X160732343Y-111747561D01*
X161040469Y-111750698D01*
X161398322Y-111753415D01*
X161809556Y-111755739D01*
X162277824Y-111757696D01*
X162806780Y-111759312D01*
X163400077Y-111760616D01*
X164061370Y-111761632D01*
X164794313Y-111762387D01*
X165602558Y-111762909D01*
X166489760Y-111763223D01*
X167459571Y-111763355D01*
X168515647Y-111763334D01*
X168857740Y-111763300D01*
X169937244Y-111763127D01*
X170929407Y-111762844D01*
X171837925Y-111762421D01*
X172666495Y-111761831D01*
X173418816Y-111761044D01*
X174098585Y-111760031D01*
X174709499Y-111758763D01*
X175255256Y-111757212D01*
X175739552Y-111755349D01*
X176166086Y-111753144D01*
X176538555Y-111750569D01*
X176860656Y-111747595D01*
X177136087Y-111744193D01*
X177368545Y-111740334D01*
X177561728Y-111735990D01*
X177719332Y-111731130D01*
X177845056Y-111725727D01*
X177942597Y-111719752D01*
X178015652Y-111713176D01*
X178067919Y-111705969D01*
X178103095Y-111698103D01*
X178122271Y-111690900D01*
X178156352Y-111676527D01*
X178187645Y-111665928D01*
X178216267Y-111655339D01*
X178242337Y-111640995D01*
X178265974Y-111619133D01*
X178287295Y-111585989D01*
X178306420Y-111537799D01*
X178323467Y-111470798D01*
X178338554Y-111381222D01*
X178351800Y-111265308D01*
X178363323Y-111119290D01*
X178373242Y-110939407D01*
X178381675Y-110721892D01*
X178388741Y-110462982D01*
X178394558Y-110158913D01*
X178399245Y-109805921D01*
X178400472Y-109670430D01*
X177185601Y-109670430D01*
X172891645Y-109670430D01*
X172974268Y-109545251D01*
X173056462Y-109416613D01*
X173126066Y-109294116D01*
X173184068Y-109169187D01*
X173231461Y-109033255D01*
X173269233Y-108877746D01*
X173298375Y-108694088D01*
X173319876Y-108473708D01*
X173334728Y-108208033D01*
X173343919Y-107888492D01*
X173348440Y-107506512D01*
X173349281Y-107053519D01*
X173347432Y-106520943D01*
X173346383Y-106323220D01*
X173334552Y-104203539D01*
X171991721Y-106031684D01*
X171611299Y-106550306D01*
X171281709Y-107001905D01*
X170999391Y-107392464D01*
X170760789Y-107727967D01*
X170562341Y-108014395D01*
X170400491Y-108257733D01*
X170271678Y-108463964D01*
X170172344Y-108639069D01*
X170098931Y-108789033D01*
X170047879Y-108919838D01*
X170015630Y-109037467D01*
X169998625Y-109147903D01*
X169993305Y-109257129D01*
X169996112Y-109371128D01*
X169996828Y-109385457D01*
X170011613Y-109670621D01*
X167658727Y-109670525D01*
X165305841Y-109670430D01*
X165655860Y-109317499D01*
X165750840Y-109220970D01*
X165840943Y-109127042D01*
X165930126Y-109030537D01*
X166022340Y-108926274D01*
X166121542Y-108809072D01*
X166231685Y-108673752D01*
X166356723Y-108515134D01*
X166500612Y-108328038D01*
X166667304Y-108107283D01*
X166860756Y-107847689D01*
X167084920Y-107544077D01*
X167343751Y-107191266D01*
X167641204Y-106784077D01*
X167981232Y-106317328D01*
X168367791Y-105785841D01*
X168684636Y-105349866D01*
X169082287Y-104802153D01*
X169429180Y-104323262D01*
X169728457Y-103908645D01*
X169983261Y-103553756D01*
X170196734Y-103254049D01*
X170372019Y-103004977D01*
X170512259Y-102801993D01*
X170620595Y-102640551D01*
X170700171Y-102516104D01*
X170754128Y-102424105D01*
X170785610Y-102360007D01*
X170797759Y-102319264D01*
X170794107Y-102297844D01*
X170749855Y-102240840D01*
X170654180Y-102120180D01*
X170512855Y-101943034D01*
X170331653Y-101716575D01*
X170116346Y-101447974D01*
X169872709Y-101144404D01*
X169606514Y-100813037D01*
X169323534Y-100461045D01*
X169029542Y-100095599D01*
X168730311Y-99723872D01*
X168565725Y-99519534D01*
X164479246Y-99519534D01*
X164139570Y-100134050D01*
X164139570Y-109055914D01*
X164479246Y-109670430D01*
X162470185Y-109670430D01*
X161990568Y-109670290D01*
X161594411Y-109669661D01*
X161274136Y-109668225D01*
X161022163Y-109665666D01*
X160830914Y-109661667D01*
X160692809Y-109655911D01*
X160600269Y-109648081D01*
X160545716Y-109637862D01*
X160521571Y-109624935D01*
X160520254Y-109608985D01*
X160534188Y-109589695D01*
X160534332Y-109589536D01*
X160591726Y-109506512D01*
X160667728Y-109371517D01*
X160734846Y-109236758D01*
X160862151Y-108964874D01*
X160875135Y-104242204D01*
X160888118Y-99519534D01*
X164479246Y-99519534D01*
X168565725Y-99519534D01*
X168431615Y-99353035D01*
X168139226Y-98990261D01*
X167858916Y-98642722D01*
X167596461Y-98317589D01*
X167357631Y-98022035D01*
X167148201Y-97763231D01*
X166973943Y-97548350D01*
X166840631Y-97384563D01*
X166762329Y-97289068D01*
X166458272Y-96931967D01*
X166165753Y-96609717D01*
X165895026Y-96332866D01*
X165656341Y-96111966D01*
X165486952Y-95976535D01*
X165286664Y-95832437D01*
X169893066Y-95832437D01*
X169891773Y-96102744D01*
X169904647Y-96301471D01*
X169953047Y-96485711D01*
X170027970Y-96660360D01*
X170076673Y-96759026D01*
X170129038Y-96856791D01*
X170189847Y-96960144D01*
X170263885Y-97075576D01*
X170355935Y-97209576D01*
X170470781Y-97368636D01*
X170613205Y-97559244D01*
X170787992Y-97787892D01*
X170999925Y-98061070D01*
X171253788Y-98385267D01*
X171554364Y-98766974D01*
X171906436Y-99212681D01*
X171946201Y-99262972D01*
X173334552Y-101018658D01*
X173347993Y-99074203D01*
X173350699Y-98491782D01*
X173350123Y-97998717D01*
X173346236Y-97593383D01*
X173339011Y-97274154D01*
X173328418Y-97039406D01*
X173314431Y-96887513D01*
X173309730Y-96858700D01*
X173235973Y-96555195D01*
X173139336Y-96281584D01*
X173029061Y-96061590D01*
X172962812Y-95968286D01*
X172848503Y-95832437D01*
X175017422Y-95832437D01*
X175534808Y-95832879D01*
X175967462Y-95834319D01*
X176321689Y-95836924D01*
X176603794Y-95840862D01*
X176820080Y-95846301D01*
X176976851Y-95853409D01*
X177080413Y-95862354D01*
X177137069Y-95873305D01*
X177153123Y-95886430D01*
X177152013Y-95889337D01*
X177106034Y-95958739D01*
X177029273Y-96068747D01*
X176989559Y-96124384D01*
X176948498Y-96179906D01*
X176911592Y-96229557D01*
X176878606Y-96278222D01*
X176849309Y-96330789D01*
X176823468Y-96392144D01*
X176800851Y-96467172D01*
X176781226Y-96560759D01*
X176764360Y-96677792D01*
X176750021Y-96823157D01*
X176737976Y-97001739D01*
X176727993Y-97218425D01*
X176719840Y-97478102D01*
X176713285Y-97785654D01*
X176708094Y-98145969D01*
X176704036Y-98563932D01*
X176700879Y-99044430D01*
X176698389Y-99592348D01*
X176696335Y-100212572D01*
X176694483Y-100909989D01*
X176692603Y-101689486D01*
X176690846Y-102405590D01*
X176689186Y-103203921D01*
X176688324Y-103965604D01*
X176688235Y-104685773D01*
X176688896Y-105359563D01*
X176690286Y-105982108D01*
X176692381Y-106548544D01*
X176695157Y-107054006D01*
X176698593Y-107493628D01*
X176702665Y-107862545D01*
X176707350Y-108155892D01*
X176712626Y-108368804D01*
X176718469Y-108496416D01*
X176719575Y-108509902D01*
X176759841Y-108819280D01*
X176822706Y-109067744D01*
X176918439Y-109284584D01*
X177057314Y-109499087D01*
X177074685Y-109522491D01*
X177185601Y-109670430D01*
X178400472Y-109670430D01*
X178402920Y-109400242D01*
X178405701Y-108938111D01*
X178407707Y-108415765D01*
X178409057Y-107829440D01*
X178409869Y-107175371D01*
X178410260Y-106449795D01*
X178410351Y-105648947D01*
X178410260Y-104769063D01*
X178410104Y-103806379D01*
X178410003Y-102757132D01*
X178410000Y-102548835D01*
X178409941Y-101488537D01*
X178409744Y-100515542D01*
X178409380Y-99626113D01*
X178408820Y-98816515D01*
X178408036Y-98083009D01*
X178406997Y-97421860D01*
X178405676Y-96829332D01*
X178404043Y-96301687D01*
X178402069Y-95835189D01*
X178399726Y-95426102D01*
X178396984Y-95070689D01*
X178393814Y-94765214D01*
X178390187Y-94505940D01*
X178386075Y-94289130D01*
X178381448Y-94111049D01*
X178376278Y-93967959D01*
X178370535Y-93856124D01*
X178364191Y-93771807D01*
X178357216Y-93711273D01*
X178349581Y-93670784D01*
X178341258Y-93646604D01*
X178340950Y-93646001D01*
X178323807Y-93609062D01*
X178309529Y-93575620D01*
X178293735Y-93545502D01*
X178272042Y-93518534D01*
X178240072Y-93494543D01*
X178193442Y-93473356D01*
X178127771Y-93454800D01*
X178038679Y-93438701D01*
X177921784Y-93424886D01*
X177772706Y-93413183D01*
X177587062Y-93403417D01*
X177360473Y-93395416D01*
X177088558Y-93389006D01*
X176766934Y-93384015D01*
X176391222Y-93380269D01*
X175957039Y-93377594D01*
X175460006Y-93375818D01*
X174895741Y-93374767D01*
X174259862Y-93374269D01*
X173547990Y-93374149D01*
X172755743Y-93374236D01*
G37*
X172755743Y-93374236D02*
X171878739Y-93374354D01*
X171470505Y-93374372D01*
X164936165Y-93374372D01*
X164936165Y-93759556D01*
X164895053Y-94228293D01*
X164770973Y-94660598D01*
X164562810Y-95059040D01*
X164269450Y-95426189D01*
X164170197Y-95525349D01*
X163813159Y-95806618D01*
X163419482Y-96011754D01*
X163000861Y-96140850D01*
X162568988Y-96193999D01*
X162135555Y-96171294D01*
X161712255Y-96072828D01*
X161310781Y-95898696D01*
X160942826Y-95648988D01*
X160777572Y-95498335D01*
X160469622Y-95128960D01*
X160243806Y-94722769D01*
X160102094Y-94284404D01*
X160046453Y-93818510D01*
X160045714Y-93772677D01*
X160042796Y-93374387D01*
X159867741Y-93374380D01*
X159712450Y-93395455D01*
X159570593Y-93446734D01*
X159561218Y-93452032D01*
X159529179Y-93468656D01*
X159499757Y-93481603D01*
X159472847Y-93494644D01*
X159448342Y-93511550D01*
X159426135Y-93536092D01*
X159406120Y-93572041D01*
X159388192Y-93623169D01*
X159372243Y-93693245D01*
X159358168Y-93786043D01*
X159345859Y-93905332D01*
X159335212Y-94054884D01*
X159326118Y-94238469D01*
X159318473Y-94459860D01*
X159312169Y-94722827D01*
X159307100Y-95031141D01*
X159303161Y-95388573D01*
X159300244Y-95798895D01*
X159298244Y-96265878D01*
X159297054Y-96793292D01*
X159296567Y-97384909D01*
X159296678Y-98044501D01*
X159297279Y-98775837D01*
X159298266Y-99582689D01*
X159299531Y-100468829D01*
X159300968Y-101438028D01*
X159302470Y-102494056D01*
X159302645Y-102622715D01*
X159303992Y-103685478D01*
X159305135Y-104660971D01*
X159306195Y-105552964D01*
X159307294Y-106365226D01*
X159308551Y-107101528D01*
X159310088Y-107765637D01*
X159312027Y-108361324D01*
X159314488Y-108892359D01*
X159317592Y-109362509D01*
X159321460Y-109775546D01*
X159326214Y-110135238D01*
X159331975Y-110445355D01*
X159338863Y-110709666D01*
X159347000Y-110931940D01*
X159356506Y-111115948D01*
X159367503Y-111265458D01*
X159380112Y-111384240D01*
X159394454Y-111476063D01*
X159410650Y-111544696D01*
X159428821Y-111593910D01*
X159449088Y-111627474D01*
X159471572Y-111649156D01*
X159496394Y-111662726D01*
X159523676Y-111671955D01*
X159553538Y-111680610D01*
X159586101Y-111692462D01*
X159594056Y-111696070D01*
X159619057Y-111704177D01*
X159660901Y-111711626D01*
X159723243Y-111718443D01*
X159809736Y-111724655D01*
X159924033Y-111730288D01*
X160069788Y-111735368D01*
X160250656Y-111739923D01*
X160470290Y-111743979D01*
X160732343Y-111747561D01*
X161040469Y-111750698D01*
X161398322Y-111753415D01*
X161809556Y-111755739D01*
X162277824Y-111757696D01*
X162806780Y-111759312D01*
X163400077Y-111760616D01*
X164061370Y-111761632D01*
X164794313Y-111762387D01*
X165602558Y-111762909D01*
X166489760Y-111763223D01*
X167459571Y-111763355D01*
X168515647Y-111763334D01*
X168857740Y-111763300D01*
X169937244Y-111763127D01*
X170929407Y-111762844D01*
X171837925Y-111762421D01*
X172666495Y-111761831D01*
X173418816Y-111761044D01*
X174098585Y-111760031D01*
X174709499Y-111758763D01*
X175255256Y-111757212D01*
X175739552Y-111755349D01*
X176166086Y-111753144D01*
X176538555Y-111750569D01*
X176860656Y-111747595D01*
X177136087Y-111744193D01*
X177368545Y-111740334D01*
X177561728Y-111735990D01*
X177719332Y-111731130D01*
X177845056Y-111725727D01*
X177942597Y-111719752D01*
X178015652Y-111713176D01*
X178067919Y-111705969D01*
X178103095Y-111698103D01*
X178122271Y-111690900D01*
X178156352Y-111676527D01*
X178187645Y-111665928D01*
X178216267Y-111655339D01*
X178242337Y-111640995D01*
X178265974Y-111619133D01*
X178287295Y-111585989D01*
X178306420Y-111537799D01*
X178323467Y-111470798D01*
X178338554Y-111381222D01*
X178351800Y-111265308D01*
X178363323Y-111119290D01*
X178373242Y-110939407D01*
X178381675Y-110721892D01*
X178388741Y-110462982D01*
X178394558Y-110158913D01*
X178399245Y-109805921D01*
X178400472Y-109670430D01*
X177185601Y-109670430D01*
X172891645Y-109670430D01*
X172974268Y-109545251D01*
X173056462Y-109416613D01*
X173126066Y-109294116D01*
X173184068Y-109169187D01*
X173231461Y-109033255D01*
X173269233Y-108877746D01*
X173298375Y-108694088D01*
X173319876Y-108473708D01*
X173334728Y-108208033D01*
X173343919Y-107888492D01*
X173348440Y-107506512D01*
X173349281Y-107053519D01*
X173347432Y-106520943D01*
X173346383Y-106323220D01*
X173334552Y-104203539D01*
X171991721Y-106031684D01*
X171611299Y-106550306D01*
X171281709Y-107001905D01*
X170999391Y-107392464D01*
X170760789Y-107727967D01*
X170562341Y-108014395D01*
X170400491Y-108257733D01*
X170271678Y-108463964D01*
X170172344Y-108639069D01*
X170098931Y-108789033D01*
X170047879Y-108919838D01*
X170015630Y-109037467D01*
X169998625Y-109147903D01*
X169993305Y-109257129D01*
X169996112Y-109371128D01*
X169996828Y-109385457D01*
X170011613Y-109670621D01*
X167658727Y-109670525D01*
X165305841Y-109670430D01*
X165655860Y-109317499D01*
X165750840Y-109220970D01*
X165840943Y-109127042D01*
X165930126Y-109030537D01*
X166022340Y-108926274D01*
X166121542Y-108809072D01*
X166231685Y-108673752D01*
X166356723Y-108515134D01*
X166500612Y-108328038D01*
X166667304Y-108107283D01*
X166860756Y-107847689D01*
X167084920Y-107544077D01*
X167343751Y-107191266D01*
X167641204Y-106784077D01*
X167981232Y-106317328D01*
X168367791Y-105785841D01*
X168684636Y-105349866D01*
X169082287Y-104802153D01*
X169429180Y-104323262D01*
X169728457Y-103908645D01*
X169983261Y-103553756D01*
X170196734Y-103254049D01*
X170372019Y-103004977D01*
X170512259Y-102801993D01*
X170620595Y-102640551D01*
X170700171Y-102516104D01*
X170754128Y-102424105D01*
X170785610Y-102360007D01*
X170797759Y-102319264D01*
X170794107Y-102297844D01*
X170749855Y-102240840D01*
X170654180Y-102120180D01*
X170512855Y-101943034D01*
X170331653Y-101716575D01*
X170116346Y-101447974D01*
X169872709Y-101144404D01*
X169606514Y-100813037D01*
X169323534Y-100461045D01*
X169029542Y-100095599D01*
X168730311Y-99723872D01*
X168565725Y-99519534D01*
X164479246Y-99519534D01*
X164139570Y-100134050D01*
X164139570Y-109055914D01*
X164479246Y-109670430D01*
X162470185Y-109670430D01*
X161990568Y-109670290D01*
X161594411Y-109669661D01*
X161274136Y-109668225D01*
X161022163Y-109665666D01*
X160830914Y-109661667D01*
X160692809Y-109655911D01*
X160600269Y-109648081D01*
X160545716Y-109637862D01*
X160521571Y-109624935D01*
X160520254Y-109608985D01*
X160534188Y-109589695D01*
X160534332Y-109589536D01*
X160591726Y-109506512D01*
X160667728Y-109371517D01*
X160734846Y-109236758D01*
X160862151Y-108964874D01*
X160875135Y-104242204D01*
X160888118Y-99519534D01*
X164479246Y-99519534D01*
X168565725Y-99519534D01*
X168431615Y-99353035D01*
X168139226Y-98990261D01*
X167858916Y-98642722D01*
X167596461Y-98317589D01*
X167357631Y-98022035D01*
X167148201Y-97763231D01*
X166973943Y-97548350D01*
X166840631Y-97384563D01*
X166762329Y-97289068D01*
X166458272Y-96931967D01*
X166165753Y-96609717D01*
X165895026Y-96332866D01*
X165656341Y-96111966D01*
X165486952Y-95976535D01*
X165286664Y-95832437D01*
X169893066Y-95832437D01*
X169891773Y-96102744D01*
X169904647Y-96301471D01*
X169953047Y-96485711D01*
X170027970Y-96660360D01*
X170076673Y-96759026D01*
X170129038Y-96856791D01*
X170189847Y-96960144D01*
X170263885Y-97075576D01*
X170355935Y-97209576D01*
X170470781Y-97368636D01*
X170613205Y-97559244D01*
X170787992Y-97787892D01*
X170999925Y-98061070D01*
X171253788Y-98385267D01*
X171554364Y-98766974D01*
X171906436Y-99212681D01*
X171946201Y-99262972D01*
X173334552Y-101018658D01*
X173347993Y-99074203D01*
X173350699Y-98491782D01*
X173350123Y-97998717D01*
X173346236Y-97593383D01*
X173339011Y-97274154D01*
X173328418Y-97039406D01*
X173314431Y-96887513D01*
X173309730Y-96858700D01*
X173235973Y-96555195D01*
X173139336Y-96281584D01*
X173029061Y-96061590D01*
X172962812Y-95968286D01*
X172848503Y-95832437D01*
X175017422Y-95832437D01*
X175534808Y-95832879D01*
X175967462Y-95834319D01*
X176321689Y-95836924D01*
X176603794Y-95840862D01*
X176820080Y-95846301D01*
X176976851Y-95853409D01*
X177080413Y-95862354D01*
X177137069Y-95873305D01*
X177153123Y-95886430D01*
X177152013Y-95889337D01*
X177106034Y-95958739D01*
X177029273Y-96068747D01*
X176989559Y-96124384D01*
X176948498Y-96179906D01*
X176911592Y-96229557D01*
X176878606Y-96278222D01*
X176849309Y-96330789D01*
X176823468Y-96392144D01*
X176800851Y-96467172D01*
X176781226Y-96560759D01*
X176764360Y-96677792D01*
X176750021Y-96823157D01*
X176737976Y-97001739D01*
X176727993Y-97218425D01*
X176719840Y-97478102D01*
X176713285Y-97785654D01*
X176708094Y-98145969D01*
X176704036Y-98563932D01*
X176700879Y-99044430D01*
X176698389Y-99592348D01*
X176696335Y-100212572D01*
X176694483Y-100909989D01*
X176692603Y-101689486D01*
X176690846Y-102405590D01*
X176689186Y-103203921D01*
X176688324Y-103965604D01*
X176688235Y-104685773D01*
X176688896Y-105359563D01*
X176690286Y-105982108D01*
X176692381Y-106548544D01*
X176695157Y-107054006D01*
X176698593Y-107493628D01*
X176702665Y-107862545D01*
X176707350Y-108155892D01*
X176712626Y-108368804D01*
X176718469Y-108496416D01*
X176719575Y-108509902D01*
X176759841Y-108819280D01*
X176822706Y-109067744D01*
X176918439Y-109284584D01*
X177057314Y-109499087D01*
X177074685Y-109522491D01*
X177185601Y-109670430D01*
X178400472Y-109670430D01*
X178402920Y-109400242D01*
X178405701Y-108938111D01*
X178407707Y-108415765D01*
X178409057Y-107829440D01*
X178409869Y-107175371D01*
X178410260Y-106449795D01*
X178410351Y-105648947D01*
X178410260Y-104769063D01*
X178410104Y-103806379D01*
X178410003Y-102757132D01*
X178410000Y-102548835D01*
X178409941Y-101488537D01*
X178409744Y-100515542D01*
X178409380Y-99626113D01*
X178408820Y-98816515D01*
X178408036Y-98083009D01*
X178406997Y-97421860D01*
X178405676Y-96829332D01*
X178404043Y-96301687D01*
X178402069Y-95835189D01*
X178399726Y-95426102D01*
X178396984Y-95070689D01*
X178393814Y-94765214D01*
X178390187Y-94505940D01*
X178386075Y-94289130D01*
X178381448Y-94111049D01*
X178376278Y-93967959D01*
X178370535Y-93856124D01*
X178364191Y-93771807D01*
X178357216Y-93711273D01*
X178349581Y-93670784D01*
X178341258Y-93646604D01*
X178340950Y-93646001D01*
X178323807Y-93609062D01*
X178309529Y-93575620D01*
X178293735Y-93545502D01*
X178272042Y-93518534D01*
X178240072Y-93494543D01*
X178193442Y-93473356D01*
X178127771Y-93454800D01*
X178038679Y-93438701D01*
X177921784Y-93424886D01*
X177772706Y-93413183D01*
X177587062Y-93403417D01*
X177360473Y-93395416D01*
X177088558Y-93389006D01*
X176766934Y-93384015D01*
X176391222Y-93380269D01*
X175957039Y-93377594D01*
X175460006Y-93375818D01*
X174895741Y-93374767D01*
X174259862Y-93374269D01*
X173547990Y-93374149D01*
X172755743Y-93374236D01*
G36*
X151551345Y-95651295D02*
G01*
X151060490Y-95705032D01*
X150584934Y-95801216D01*
X150105333Y-95944862D01*
X149602340Y-96140989D01*
X149056610Y-96394612D01*
X148958331Y-96443739D01*
X148732794Y-96554850D01*
X148520081Y-96654899D01*
X148341187Y-96734332D01*
X148217106Y-96783592D01*
X148198045Y-96789794D01*
X148015377Y-96844523D01*
X148833074Y-98034089D01*
X149032990Y-98324825D01*
X149215769Y-98590450D01*
X149375195Y-98821947D01*
X149505052Y-99010297D01*
X149599125Y-99146483D01*
X149651198Y-99221485D01*
X149659658Y-99233364D01*
X149694019Y-99208528D01*
X149778601Y-99133867D01*
X149898277Y-99022942D01*
X149964324Y-98960245D01*
X150338529Y-98662613D01*
X150758789Y-98436446D01*
X151120932Y-98312562D01*
X151338321Y-98273655D01*
X151610511Y-98249946D01*
X151905489Y-98241873D01*
X152191240Y-98249877D01*
X152435752Y-98274397D01*
X152533322Y-98293175D01*
X152973088Y-98444474D01*
X153369370Y-98675493D01*
X153721874Y-98985808D01*
X154030306Y-99374998D01*
X154294374Y-99842640D01*
X154513784Y-100388312D01*
X154688243Y-101011591D01*
X154791925Y-101545161D01*
X154818976Y-101780711D01*
X154837406Y-102085007D01*
X154847395Y-102436182D01*
X154849121Y-102812370D01*
X154842761Y-103191703D01*
X154828494Y-103552314D01*
X154806498Y-103872337D01*
X154776950Y-104129904D01*
X154770554Y-104169644D01*
X154629582Y-104809767D01*
X154437507Y-105376306D01*
X154193162Y-105871797D01*
X153895376Y-106298780D01*
X153684000Y-106529625D01*
X153304124Y-106843046D01*
X152887520Y-107075367D01*
X152441216Y-107225325D01*
X151972239Y-107291656D01*
X151487617Y-107273095D01*
X150994378Y-107168377D01*
X150702767Y-107065912D01*
X150299224Y-106860727D01*
X149883300Y-106566395D01*
X149650318Y-106367353D01*
X149519498Y-106252151D01*
X149416716Y-106167632D01*
X149358212Y-106126906D01*
X149350950Y-106125663D01*
X149324838Y-106167278D01*
X149257179Y-106277247D01*
X149153738Y-106446142D01*
X149020278Y-106664536D01*
X148862562Y-106923000D01*
X148686356Y-107212108D01*
X148588277Y-107373160D01*
X147839122Y-108603669D01*
X148774472Y-109065916D01*
X149112660Y-109231954D01*
X149386621Y-109362882D01*
X149613101Y-109465204D01*
X149808848Y-109545422D01*
X149990606Y-109610038D01*
X150175123Y-109665555D01*
X150379144Y-109718476D01*
X150574696Y-109764949D01*
X150748508Y-109800909D01*
X150930280Y-109828085D01*
X151138211Y-109847985D01*
X151390495Y-109862116D01*
X151705332Y-109871987D01*
X151917527Y-109876248D01*
X152220295Y-109879156D01*
X152510611Y-109877690D01*
X152769262Y-109872267D01*
X152977037Y-109863306D01*
X153114723Y-109851225D01*
X153122882Y-109850020D01*
X153837848Y-109695341D01*
X154509251Y-109460749D01*
X155136853Y-109146398D01*
X155720419Y-108752444D01*
X156259713Y-108279040D01*
X156754499Y-107726342D01*
X157112835Y-107235125D01*
X157494315Y-106592164D01*
X157802685Y-105913159D01*
X158039436Y-105192667D01*
X158206060Y-104425243D01*
X158304047Y-103605445D01*
X158334918Y-102772999D01*
X158309528Y-101967723D01*
X158229740Y-101224737D01*
X158093019Y-100531509D01*
X157896828Y-99875506D01*
X157638634Y-99244196D01*
X157607804Y-99178791D01*
X157268157Y-98567399D01*
X156850996Y-97985599D01*
X156368141Y-97445433D01*
X155831410Y-96958944D01*
X155252623Y-96538174D01*
X154713311Y-96229524D01*
X154168493Y-95987783D01*
X153622518Y-95812672D01*
X153054252Y-95699421D01*
X152442558Y-95643267D01*
X152076846Y-95634987D01*
X151551345Y-95651295D01*
G37*
X151551345Y-95651295D02*
X151060490Y-95705032D01*
X150584934Y-95801216D01*
X150105333Y-95944862D01*
X149602340Y-96140989D01*
X149056610Y-96394612D01*
X148958331Y-96443739D01*
X148732794Y-96554850D01*
X148520081Y-96654899D01*
X148341187Y-96734332D01*
X148217106Y-96783592D01*
X148198045Y-96789794D01*
X148015377Y-96844523D01*
X148833074Y-98034089D01*
X149032990Y-98324825D01*
X149215769Y-98590450D01*
X149375195Y-98821947D01*
X149505052Y-99010297D01*
X149599125Y-99146483D01*
X149651198Y-99221485D01*
X149659658Y-99233364D01*
X149694019Y-99208528D01*
X149778601Y-99133867D01*
X149898277Y-99022942D01*
X149964324Y-98960245D01*
X150338529Y-98662613D01*
X150758789Y-98436446D01*
X151120932Y-98312562D01*
X151338321Y-98273655D01*
X151610511Y-98249946D01*
X151905489Y-98241873D01*
X152191240Y-98249877D01*
X152435752Y-98274397D01*
X152533322Y-98293175D01*
X152973088Y-98444474D01*
X153369370Y-98675493D01*
X153721874Y-98985808D01*
X154030306Y-99374998D01*
X154294374Y-99842640D01*
X154513784Y-100388312D01*
X154688243Y-101011591D01*
X154791925Y-101545161D01*
X154818976Y-101780711D01*
X154837406Y-102085007D01*
X154847395Y-102436182D01*
X154849121Y-102812370D01*
X154842761Y-103191703D01*
X154828494Y-103552314D01*
X154806498Y-103872337D01*
X154776950Y-104129904D01*
X154770554Y-104169644D01*
X154629582Y-104809767D01*
X154437507Y-105376306D01*
X154193162Y-105871797D01*
X153895376Y-106298780D01*
X153684000Y-106529625D01*
X153304124Y-106843046D01*
X152887520Y-107075367D01*
X152441216Y-107225325D01*
X151972239Y-107291656D01*
X151487617Y-107273095D01*
X150994378Y-107168377D01*
X150702767Y-107065912D01*
X150299224Y-106860727D01*
X149883300Y-106566395D01*
X149650318Y-106367353D01*
X149519498Y-106252151D01*
X149416716Y-106167632D01*
X149358212Y-106126906D01*
X149350950Y-106125663D01*
X149324838Y-106167278D01*
X149257179Y-106277247D01*
X149153738Y-106446142D01*
X149020278Y-106664536D01*
X148862562Y-106923000D01*
X148686356Y-107212108D01*
X148588277Y-107373160D01*
X147839122Y-108603669D01*
X148774472Y-109065916D01*
X149112660Y-109231954D01*
X149386621Y-109362882D01*
X149613101Y-109465204D01*
X149808848Y-109545422D01*
X149990606Y-109610038D01*
X150175123Y-109665555D01*
X150379144Y-109718476D01*
X150574696Y-109764949D01*
X150748508Y-109800909D01*
X150930280Y-109828085D01*
X151138211Y-109847985D01*
X151390495Y-109862116D01*
X151705332Y-109871987D01*
X151917527Y-109876248D01*
X152220295Y-109879156D01*
X152510611Y-109877690D01*
X152769262Y-109872267D01*
X152977037Y-109863306D01*
X153114723Y-109851225D01*
X153122882Y-109850020D01*
X153837848Y-109695341D01*
X154509251Y-109460749D01*
X155136853Y-109146398D01*
X155720419Y-108752444D01*
X156259713Y-108279040D01*
X156754499Y-107726342D01*
X157112835Y-107235125D01*
X157494315Y-106592164D01*
X157802685Y-105913159D01*
X158039436Y-105192667D01*
X158206060Y-104425243D01*
X158304047Y-103605445D01*
X158334918Y-102772999D01*
X158309528Y-101967723D01*
X158229740Y-101224737D01*
X158093019Y-100531509D01*
X157896828Y-99875506D01*
X157638634Y-99244196D01*
X157607804Y-99178791D01*
X157268157Y-98567399D01*
X156850996Y-97985599D01*
X156368141Y-97445433D01*
X155831410Y-96958944D01*
X155252623Y-96538174D01*
X154713311Y-96229524D01*
X154168493Y-95987783D01*
X153622518Y-95812672D01*
X153054252Y-95699421D01*
X152442558Y-95643267D01*
X152076846Y-95634987D01*
X151551345Y-95651295D01*
G36*
X142508415Y-99310613D02*
G01*
X142282880Y-99327685D01*
X141637597Y-99413537D01*
X141066131Y-99550471D01*
X140565700Y-99740371D01*
X140133519Y-99985120D01*
X139766806Y-100286603D01*
X139462777Y-100646704D01*
X139218648Y-101067307D01*
X139040381Y-101522401D01*
X138995131Y-101667569D01*
X138955727Y-101803512D01*
X138921705Y-101937548D01*
X138892601Y-102076998D01*
X138867950Y-102229180D01*
X138847287Y-102401412D01*
X138830149Y-102601015D01*
X138816070Y-102835305D01*
X138804586Y-103111603D01*
X138795232Y-103437227D01*
X138787544Y-103819496D01*
X138781057Y-104265729D01*
X138775308Y-104783245D01*
X138769830Y-105379363D01*
X138765914Y-105846774D01*
X138739570Y-109055914D01*
X138568871Y-109364739D01*
X138488041Y-109513518D01*
X138427890Y-109629080D01*
X138399194Y-109690590D01*
X138398173Y-109694757D01*
X138442033Y-109699525D01*
X138566982Y-109703919D01*
X138763065Y-109707814D01*
X139020333Y-109711088D01*
X139328833Y-109713616D01*
X139678612Y-109715275D01*
X140059721Y-109715942D01*
X140105162Y-109715950D01*
X141812151Y-109715950D01*
X141812151Y-109329032D01*
X141815062Y-109154178D01*
X141822829Y-109020451D01*
X141834006Y-108948752D01*
X141838946Y-108942114D01*
X141884128Y-108969917D01*
X141977115Y-109042885D01*
X142097974Y-109145359D01*
X142100684Y-109147730D01*
X142321237Y-109311933D01*
X142599778Y-109476815D01*
X142904833Y-109626177D01*
X143204929Y-109743821D01*
X143337061Y-109784024D01*
X143600015Y-109835086D01*
X143922671Y-109867670D01*
X144275494Y-109881311D01*
X144628947Y-109875545D01*
X144953493Y-109849908D01*
X145180610Y-109813018D01*
X145737576Y-109649460D01*
X146238995Y-109416365D01*
X146681601Y-109116623D01*
X147062132Y-108753127D01*
X147377323Y-108328769D01*
X147623912Y-107846440D01*
X147730292Y-107553763D01*
X147796962Y-107269294D01*
X147841145Y-106927797D01*
X147861588Y-106560773D01*
X147860916Y-106507367D01*
X144782312Y-106507367D01*
X144756783Y-106780088D01*
X144671775Y-107006737D01*
X144514659Y-107217013D01*
X144454315Y-107278672D01*
X144239800Y-107445368D01*
X143991859Y-107552156D01*
X143694811Y-107603849D01*
X143382002Y-107607654D01*
X143085310Y-107582523D01*
X142858146Y-107533368D01*
X142759490Y-107496448D01*
X142581675Y-107395826D01*
X142393271Y-107254315D01*
X142221375Y-107095492D01*
X142093082Y-106942933D01*
X142059015Y-106886969D01*
X142032532Y-106808595D01*
X142013703Y-106683888D01*
X142001652Y-106500933D01*
X141995500Y-106247820D01*
X141994230Y-106006925D01*
X141995090Y-105726073D01*
X141998566Y-105522998D01*
X142005997Y-105384443D01*
X142018724Y-105297154D01*
X142038089Y-105247876D01*
X142065432Y-105223354D01*
X142073889Y-105219449D01*
X142147382Y-105207421D01*
X142292332Y-105197583D01*
X142489166Y-105190822D01*
X142718310Y-105188025D01*
X142768065Y-105188022D01*
X143074357Y-105192910D01*
X143310988Y-105207449D01*
X143499015Y-105233628D01*
X143654329Y-105271863D01*
X144039590Y-105417559D01*
X144341711Y-105596684D01*
X144563309Y-105812103D01*
X144706998Y-106066683D01*
X144775396Y-106363287D01*
X144782312Y-106507367D01*
X147860916Y-106507367D01*
X147857040Y-106199723D01*
X147826246Y-105876148D01*
X147802226Y-105745420D01*
X147648850Y-105260029D01*
X147415627Y-104813423D01*
X147106961Y-104409886D01*
X146727253Y-104053702D01*
X146280905Y-103749153D01*
X145772321Y-103500524D01*
X145339929Y-103349545D01*
X145050943Y-103270226D01*
X144774530Y-103208592D01*
X144492785Y-103162642D01*
X144187804Y-103130374D01*
X143841684Y-103109786D01*
X143436521Y-103098877D01*
X143070213Y-103095805D01*
X141984010Y-103092831D01*
X142004817Y-102766330D01*
X142063905Y-102412071D01*
X142189598Y-102107572D01*
X142376545Y-101860436D01*
X142619394Y-101678266D01*
X142833227Y-101589373D01*
X143139608Y-101533349D01*
X143504343Y-101525304D01*
X143910334Y-101562272D01*
X144340482Y-101641286D01*
X144777691Y-101759382D01*
X145204863Y-101913592D01*
X145515293Y-102054630D01*
X145664648Y-102127052D01*
X145778569Y-102177634D01*
X145836504Y-102197371D01*
X145839649Y-102196738D01*
X145859641Y-102152529D01*
X145909563Y-102035350D01*
X145984717Y-101856425D01*
X146080405Y-101626983D01*
X146191930Y-101358249D01*
X146305293Y-101083992D01*
X146758505Y-99985547D01*
X146436134Y-99932598D01*
X146296409Y-99906031D01*
X146086362Y-99861412D01*
X145823987Y-99802789D01*
X145527278Y-99734214D01*
X145214228Y-99659737D01*
X145089570Y-99629471D01*
X144550270Y-99504385D01*
X144078113Y-99410604D01*
X143655475Y-99346231D01*
X143264730Y-99309371D01*
X142888252Y-99298130D01*
X142508415Y-99310613D01*
G37*
X142508415Y-99310613D02*
X142282880Y-99327685D01*
X141637597Y-99413537D01*
X141066131Y-99550471D01*
X140565700Y-99740371D01*
X140133519Y-99985120D01*
X139766806Y-100286603D01*
X139462777Y-100646704D01*
X139218648Y-101067307D01*
X139040381Y-101522401D01*
X138995131Y-101667569D01*
X138955727Y-101803512D01*
X138921705Y-101937548D01*
X138892601Y-102076998D01*
X138867950Y-102229180D01*
X138847287Y-102401412D01*
X138830149Y-102601015D01*
X138816070Y-102835305D01*
X138804586Y-103111603D01*
X138795232Y-103437227D01*
X138787544Y-103819496D01*
X138781057Y-104265729D01*
X138775308Y-104783245D01*
X138769830Y-105379363D01*
X138765914Y-105846774D01*
X138739570Y-109055914D01*
X138568871Y-109364739D01*
X138488041Y-109513518D01*
X138427890Y-109629080D01*
X138399194Y-109690590D01*
X138398173Y-109694757D01*
X138442033Y-109699525D01*
X138566982Y-109703919D01*
X138763065Y-109707814D01*
X139020333Y-109711088D01*
X139328833Y-109713616D01*
X139678612Y-109715275D01*
X140059721Y-109715942D01*
X140105162Y-109715950D01*
X141812151Y-109715950D01*
X141812151Y-109329032D01*
X141815062Y-109154178D01*
X141822829Y-109020451D01*
X141834006Y-108948752D01*
X141838946Y-108942114D01*
X141884128Y-108969917D01*
X141977115Y-109042885D01*
X142097974Y-109145359D01*
X142100684Y-109147730D01*
X142321237Y-109311933D01*
X142599778Y-109476815D01*
X142904833Y-109626177D01*
X143204929Y-109743821D01*
X143337061Y-109784024D01*
X143600015Y-109835086D01*
X143922671Y-109867670D01*
X144275494Y-109881311D01*
X144628947Y-109875545D01*
X144953493Y-109849908D01*
X145180610Y-109813018D01*
X145737576Y-109649460D01*
X146238995Y-109416365D01*
X146681601Y-109116623D01*
X147062132Y-108753127D01*
X147377323Y-108328769D01*
X147623912Y-107846440D01*
X147730292Y-107553763D01*
X147796962Y-107269294D01*
X147841145Y-106927797D01*
X147861588Y-106560773D01*
X147860916Y-106507367D01*
X144782312Y-106507367D01*
X144756783Y-106780088D01*
X144671775Y-107006737D01*
X144514659Y-107217013D01*
X144454315Y-107278672D01*
X144239800Y-107445368D01*
X143991859Y-107552156D01*
X143694811Y-107603849D01*
X143382002Y-107607654D01*
X143085310Y-107582523D01*
X142858146Y-107533368D01*
X142759490Y-107496448D01*
X142581675Y-107395826D01*
X142393271Y-107254315D01*
X142221375Y-107095492D01*
X142093082Y-106942933D01*
X142059015Y-106886969D01*
X142032532Y-106808595D01*
X142013703Y-106683888D01*
X142001652Y-106500933D01*
X141995500Y-106247820D01*
X141994230Y-106006925D01*
X141995090Y-105726073D01*
X141998566Y-105522998D01*
X142005997Y-105384443D01*
X142018724Y-105297154D01*
X142038089Y-105247876D01*
X142065432Y-105223354D01*
X142073889Y-105219449D01*
X142147382Y-105207421D01*
X142292332Y-105197583D01*
X142489166Y-105190822D01*
X142718310Y-105188025D01*
X142768065Y-105188022D01*
X143074357Y-105192910D01*
X143310988Y-105207449D01*
X143499015Y-105233628D01*
X143654329Y-105271863D01*
X144039590Y-105417559D01*
X144341711Y-105596684D01*
X144563309Y-105812103D01*
X144706998Y-106066683D01*
X144775396Y-106363287D01*
X144782312Y-106507367D01*
X147860916Y-106507367D01*
X147857040Y-106199723D01*
X147826246Y-105876148D01*
X147802226Y-105745420D01*
X147648850Y-105260029D01*
X147415627Y-104813423D01*
X147106961Y-104409886D01*
X146727253Y-104053702D01*
X146280905Y-103749153D01*
X145772321Y-103500524D01*
X145339929Y-103349545D01*
X145050943Y-103270226D01*
X144774530Y-103208592D01*
X144492785Y-103162642D01*
X144187804Y-103130374D01*
X143841684Y-103109786D01*
X143436521Y-103098877D01*
X143070213Y-103095805D01*
X141984010Y-103092831D01*
X142004817Y-102766330D01*
X142063905Y-102412071D01*
X142189598Y-102107572D01*
X142376545Y-101860436D01*
X142619394Y-101678266D01*
X142833227Y-101589373D01*
X143139608Y-101533349D01*
X143504343Y-101525304D01*
X143910334Y-101562272D01*
X144340482Y-101641286D01*
X144777691Y-101759382D01*
X145204863Y-101913592D01*
X145515293Y-102054630D01*
X145664648Y-102127052D01*
X145778569Y-102177634D01*
X145836504Y-102197371D01*
X145839649Y-102196738D01*
X145859641Y-102152529D01*
X145909563Y-102035350D01*
X145984717Y-101856425D01*
X146080405Y-101626983D01*
X146191930Y-101358249D01*
X146305293Y-101083992D01*
X146758505Y-99985547D01*
X146436134Y-99932598D01*
X146296409Y-99906031D01*
X146086362Y-99861412D01*
X145823987Y-99802789D01*
X145527278Y-99734214D01*
X145214228Y-99659737D01*
X145089570Y-99629471D01*
X144550270Y-99504385D01*
X144078113Y-99410604D01*
X143655475Y-99346231D01*
X143264730Y-99309371D01*
X142888252Y-99298130D01*
X142508415Y-99310613D01*
G36*
X130325055Y-94976030D02*
G01*
X129937910Y-94977618D01*
X129806327Y-94978420D01*
X127996918Y-94990322D01*
X127974158Y-101932079D01*
X127971152Y-102873401D01*
X127968486Y-103728107D01*
X127965990Y-104500619D01*
X127963490Y-105195356D01*
X127960818Y-105816742D01*
X127957800Y-106369198D01*
X127954267Y-106857144D01*
X127950046Y-107285003D01*
X127944967Y-107657196D01*
X127938858Y-107978145D01*
X127931548Y-108252271D01*
X127922866Y-108483996D01*
X127912640Y-108677741D01*
X127900700Y-108837927D01*
X127886874Y-108968977D01*
X127870991Y-109075311D01*
X127852879Y-109161352D01*
X127832368Y-109231520D01*
X127809286Y-109290238D01*
X127783462Y-109341926D01*
X127754725Y-109391007D01*
X127722903Y-109441901D01*
X127687825Y-109499031D01*
X127680635Y-109511199D01*
X127560007Y-109717036D01*
X131046739Y-109693190D01*
X131069499Y-109310237D01*
X131081891Y-109126455D01*
X131094805Y-109020204D01*
X131112328Y-108978044D01*
X131138546Y-108986537D01*
X131160538Y-109010830D01*
X131256339Y-109099319D01*
X131412478Y-109213061D01*
X131606958Y-109338466D01*
X131817781Y-109461944D01*
X132022947Y-109569905D01*
X132180478Y-109640935D01*
X132549543Y-109757658D01*
X132972989Y-109840340D01*
X133419556Y-109885824D01*
X133857982Y-109890948D01*
X134257008Y-109852554D01*
X134263578Y-109851455D01*
X134809578Y-109714449D01*
X135320687Y-109496167D01*
X135791976Y-109201301D01*
X136218513Y-108834543D01*
X136595370Y-108400585D01*
X136917617Y-107904120D01*
X137180324Y-107349839D01*
X137323360Y-106939247D01*
X137417685Y-106595742D01*
X137487636Y-106263112D01*
X137535351Y-105921150D01*
X137562969Y-105549651D01*
X137572629Y-105128408D01*
X137568351Y-104784436D01*
X134209457Y-104784436D01*
X134193563Y-105361220D01*
X134143422Y-105857445D01*
X134057494Y-106277516D01*
X133934236Y-106625836D01*
X133772104Y-106906811D01*
X133569556Y-107124843D01*
X133335757Y-107278975D01*
X133214100Y-107336515D01*
X133108588Y-107371012D01*
X132990954Y-107386794D01*
X132832929Y-107388192D01*
X132662689Y-107382047D01*
X132327898Y-107352517D01*
X132063109Y-107294689D01*
X131979893Y-107265722D01*
X131789875Y-107180170D01*
X131589462Y-107072738D01*
X131501936Y-107018960D01*
X131274337Y-106869675D01*
X131274337Y-102137843D01*
X131524696Y-101987775D01*
X131873847Y-101818204D01*
X132230569Y-101717919D01*
X132581817Y-101686326D01*
X132914545Y-101722836D01*
X133215705Y-101826855D01*
X133472252Y-101997793D01*
X133555031Y-102079843D01*
X133754563Y-102348686D01*
X133916060Y-102674118D01*
X134040871Y-103061718D01*
X134130345Y-103517064D01*
X134185834Y-104045735D01*
X134208685Y-104653307D01*
X134209457Y-104784436D01*
X137568351Y-104784436D01*
X137566569Y-104641260D01*
X137528196Y-103891931D01*
X137451037Y-103216046D01*
X137333059Y-102603761D01*
X137172231Y-102045229D01*
X136966521Y-101530605D01*
X136893114Y-101378036D01*
X136597432Y-100880494D01*
X136240116Y-100438346D01*
X135829568Y-100058729D01*
X135374187Y-99748780D01*
X134882377Y-99515637D01*
X134587568Y-99419464D01*
X134298036Y-99362370D01*
X133949659Y-99328401D01*
X133571643Y-99317542D01*
X133193192Y-99329777D01*
X132843513Y-99365091D01*
X132562747Y-99420492D01*
X132228571Y-99529136D01*
X131904675Y-99668845D01*
X131621292Y-99825466D01*
X131470465Y-99931763D01*
X131366427Y-100010806D01*
X131293578Y-100058935D01*
X131277007Y-100065770D01*
X131271869Y-100021735D01*
X131267078Y-99895565D01*
X131262741Y-99696164D01*
X131258964Y-99432437D01*
X131255853Y-99113289D01*
X131253515Y-98747623D01*
X131252054Y-98344344D01*
X131251578Y-97933578D01*
X131251844Y-97407459D01*
X131253153Y-96963895D01*
X131256269Y-96594401D01*
X131261958Y-96290493D01*
X131270985Y-96043687D01*
X131284114Y-95845498D01*
X131302111Y-95687442D01*
X131325741Y-95561034D01*
X131355768Y-95457790D01*
X131392958Y-95369226D01*
X131438077Y-95286858D01*
X131491888Y-95202201D01*
X131498811Y-95191719D01*
X131568215Y-95082075D01*
X131610117Y-95006679D01*
X131615735Y-94990776D01*
X131571829Y-94985758D01*
X131446552Y-94981676D01*
X131249571Y-94978597D01*
X130990551Y-94976585D01*
X130679157Y-94975707D01*
X130325055Y-94976030D01*
G37*
X130325055Y-94976030D02*
X129937910Y-94977618D01*
X129806327Y-94978420D01*
X127996918Y-94990322D01*
X127974158Y-101932079D01*
X127971152Y-102873401D01*
X127968486Y-103728107D01*
X127965990Y-104500619D01*
X127963490Y-105195356D01*
X127960818Y-105816742D01*
X127957800Y-106369198D01*
X127954267Y-106857144D01*
X127950046Y-107285003D01*
X127944967Y-107657196D01*
X127938858Y-107978145D01*
X127931548Y-108252271D01*
X127922866Y-108483996D01*
X127912640Y-108677741D01*
X127900700Y-108837927D01*
X127886874Y-108968977D01*
X127870991Y-109075311D01*
X127852879Y-109161352D01*
X127832368Y-109231520D01*
X127809286Y-109290238D01*
X127783462Y-109341926D01*
X127754725Y-109391007D01*
X127722903Y-109441901D01*
X127687825Y-109499031D01*
X127680635Y-109511199D01*
X127560007Y-109717036D01*
X131046739Y-109693190D01*
X131069499Y-109310237D01*
X131081891Y-109126455D01*
X131094805Y-109020204D01*
X131112328Y-108978044D01*
X131138546Y-108986537D01*
X131160538Y-109010830D01*
X131256339Y-109099319D01*
X131412478Y-109213061D01*
X131606958Y-109338466D01*
X131817781Y-109461944D01*
X132022947Y-109569905D01*
X132180478Y-109640935D01*
X132549543Y-109757658D01*
X132972989Y-109840340D01*
X133419556Y-109885824D01*
X133857982Y-109890948D01*
X134257008Y-109852554D01*
X134263578Y-109851455D01*
X134809578Y-109714449D01*
X135320687Y-109496167D01*
X135791976Y-109201301D01*
X136218513Y-108834543D01*
X136595370Y-108400585D01*
X136917617Y-107904120D01*
X137180324Y-107349839D01*
X137323360Y-106939247D01*
X137417685Y-106595742D01*
X137487636Y-106263112D01*
X137535351Y-105921150D01*
X137562969Y-105549651D01*
X137572629Y-105128408D01*
X137568351Y-104784436D01*
X134209457Y-104784436D01*
X134193563Y-105361220D01*
X134143422Y-105857445D01*
X134057494Y-106277516D01*
X133934236Y-106625836D01*
X133772104Y-106906811D01*
X133569556Y-107124843D01*
X133335757Y-107278975D01*
X133214100Y-107336515D01*
X133108588Y-107371012D01*
X132990954Y-107386794D01*
X132832929Y-107388192D01*
X132662689Y-107382047D01*
X132327898Y-107352517D01*
X132063109Y-107294689D01*
X131979893Y-107265722D01*
X131789875Y-107180170D01*
X131589462Y-107072738D01*
X131501936Y-107018960D01*
X131274337Y-106869675D01*
X131274337Y-102137843D01*
X131524696Y-101987775D01*
X131873847Y-101818204D01*
X132230569Y-101717919D01*
X132581817Y-101686326D01*
X132914545Y-101722836D01*
X133215705Y-101826855D01*
X133472252Y-101997793D01*
X133555031Y-102079843D01*
X133754563Y-102348686D01*
X133916060Y-102674118D01*
X134040871Y-103061718D01*
X134130345Y-103517064D01*
X134185834Y-104045735D01*
X134208685Y-104653307D01*
X134209457Y-104784436D01*
X137568351Y-104784436D01*
X137566569Y-104641260D01*
X137528196Y-103891931D01*
X137451037Y-103216046D01*
X137333059Y-102603761D01*
X137172231Y-102045229D01*
X136966521Y-101530605D01*
X136893114Y-101378036D01*
X136597432Y-100880494D01*
X136240116Y-100438346D01*
X135829568Y-100058729D01*
X135374187Y-99748780D01*
X134882377Y-99515637D01*
X134587568Y-99419464D01*
X134298036Y-99362370D01*
X133949659Y-99328401D01*
X133571643Y-99317542D01*
X133193192Y-99329777D01*
X132843513Y-99365091D01*
X132562747Y-99420492D01*
X132228571Y-99529136D01*
X131904675Y-99668845D01*
X131621292Y-99825466D01*
X131470465Y-99931763D01*
X131366427Y-100010806D01*
X131293578Y-100058935D01*
X131277007Y-100065770D01*
X131271869Y-100021735D01*
X131267078Y-99895565D01*
X131262741Y-99696164D01*
X131258964Y-99432437D01*
X131255853Y-99113289D01*
X131253515Y-98747623D01*
X131252054Y-98344344D01*
X131251578Y-97933578D01*
X131251844Y-97407459D01*
X131253153Y-96963895D01*
X131256269Y-96594401D01*
X131261958Y-96290493D01*
X131270985Y-96043687D01*
X131284114Y-95845498D01*
X131302111Y-95687442D01*
X131325741Y-95561034D01*
X131355768Y-95457790D01*
X131392958Y-95369226D01*
X131438077Y-95286858D01*
X131491888Y-95202201D01*
X131498811Y-95191719D01*
X131568215Y-95082075D01*
X131610117Y-95006679D01*
X131615735Y-94990776D01*
X131571829Y-94985758D01*
X131446552Y-94981676D01*
X131249571Y-94978597D01*
X130990551Y-94976585D01*
X130679157Y-94975707D01*
X130325055Y-94976030D01*
G36*
X162048074Y-91924740D02*
G01*
X161706237Y-92043262D01*
X161387974Y-92229815D01*
X161103738Y-92484375D01*
X160863979Y-92806918D01*
X160756279Y-93010215D01*
X160663070Y-93294572D01*
X160617892Y-93622851D01*
X160622896Y-93960342D01*
X160678444Y-94266166D01*
X160830269Y-94639873D01*
X161050430Y-94964037D01*
X161327736Y-95232279D01*
X161650996Y-95438222D01*
X162009023Y-95575487D01*
X162390625Y-95637695D01*
X162784612Y-95618470D01*
X162978818Y-95577383D01*
X163357308Y-95430151D01*
X163693469Y-95205483D01*
X163979191Y-94910305D01*
X164206366Y-94551544D01*
X164225586Y-94512365D01*
X164292029Y-94365342D01*
X164333748Y-94241517D01*
X164356398Y-94110892D01*
X164365636Y-93943466D01*
X164367169Y-93761290D01*
X164364634Y-93542414D01*
X164353190Y-93384182D01*
X164327083Y-93256254D01*
X164280554Y-93128289D01*
X164223121Y-93002039D01*
X164008896Y-92643650D01*
X163745086Y-92353466D01*
X163442144Y-92131461D01*
X163110521Y-91977610D01*
X162760667Y-91891890D01*
X162403034Y-91874275D01*
X162048074Y-91924740D01*
G37*
X162048074Y-91924740D02*
X161706237Y-92043262D01*
X161387974Y-92229815D01*
X161103738Y-92484375D01*
X160863979Y-92806918D01*
X160756279Y-93010215D01*
X160663070Y-93294572D01*
X160617892Y-93622851D01*
X160622896Y-93960342D01*
X160678444Y-94266166D01*
X160830269Y-94639873D01*
X161050430Y-94964037D01*
X161327736Y-95232279D01*
X161650996Y-95438222D01*
X162009023Y-95575487D01*
X162390625Y-95637695D01*
X162784612Y-95618470D01*
X162978818Y-95577383D01*
X163357308Y-95430151D01*
X163693469Y-95205483D01*
X163979191Y-94910305D01*
X164206366Y-94551544D01*
X164225586Y-94512365D01*
X164292029Y-94365342D01*
X164333748Y-94241517D01*
X164356398Y-94110892D01*
X164365636Y-93943466D01*
X164367169Y-93761290D01*
X164364634Y-93542414D01*
X164353190Y-93384182D01*
X164327083Y-93256254D01*
X164280554Y-93128289D01*
X164223121Y-93002039D01*
X164008896Y-92643650D01*
X163745086Y-92353466D01*
X163442144Y-92131461D01*
X163110521Y-91977610D01*
X162760667Y-91891890D01*
X162403034Y-91874275D01*
X162048074Y-91924740D01*
G36*
X132247255Y-113141777D02*
G01*
X132142660Y-113215920D01*
X132050297Y-113308283D01*
X132050297Y-114339734D01*
X132050538Y-114645998D01*
X132051682Y-114886133D01*
X132054358Y-115069268D01*
X132059197Y-115204533D01*
X132066827Y-115301057D01*
X132077880Y-115367971D01*
X132092983Y-115414403D01*
X132112768Y-115449484D01*
X132128287Y-115470333D01*
X132230724Y-115552245D01*
X132348345Y-115561136D01*
X132455850Y-115510904D01*
X132491373Y-115481248D01*
X132515119Y-115441855D01*
X132529441Y-115378421D01*
X132536696Y-115276640D01*
X132539239Y-115122206D01*
X132539482Y-115002904D01*
X132539482Y-114553482D01*
X134195186Y-114553482D01*
X134195186Y-114962333D01*
X134196898Y-115149289D01*
X134203748Y-115277776D01*
X134218307Y-115364538D01*
X134243146Y-115426323D01*
X134273176Y-115470333D01*
X134376186Y-115552015D01*
X134492680Y-115561687D01*
X134604205Y-115503630D01*
X134634653Y-115473195D01*
X134656158Y-115432849D01*
X134670342Y-115370002D01*
X134678827Y-115272068D01*
X134683236Y-115126457D01*
X134685189Y-114920583D01*
X134685418Y-114873334D01*
X134687030Y-114485436D01*
X134687862Y-114165757D01*
X134687591Y-113907256D01*
X134685897Y-113702895D01*
X134682459Y-113545634D01*
X134676957Y-113428434D01*
X134669069Y-113344255D01*
X134658475Y-113286057D01*
X134644854Y-113246802D01*
X134627886Y-113219449D01*
X134609112Y-113198815D01*
X134502907Y-113132812D01*
X134392144Y-113141777D01*
X134287549Y-113215920D01*
X134245224Y-113263754D01*
X134218245Y-113316592D01*
X134203191Y-113391846D01*
X134196645Y-113506928D01*
X134195187Y-113679252D01*
X134195186Y-113686290D01*
X134195186Y-114064297D01*
X132539482Y-114064297D01*
X132539482Y-113669186D01*
X132537792Y-113487159D01*
X132531007Y-113364249D01*
X132516548Y-113284357D01*
X132491842Y-113231383D01*
X132464223Y-113198815D01*
X132358018Y-113132812D01*
X132247255Y-113141777D01*
G37*
X132247255Y-113141777D02*
X132142660Y-113215920D01*
X132050297Y-113308283D01*
X132050297Y-114339734D01*
X132050538Y-114645998D01*
X132051682Y-114886133D01*
X132054358Y-115069268D01*
X132059197Y-115204533D01*
X132066827Y-115301057D01*
X132077880Y-115367971D01*
X132092983Y-115414403D01*
X132112768Y-115449484D01*
X132128287Y-115470333D01*
X132230724Y-115552245D01*
X132348345Y-115561136D01*
X132455850Y-115510904D01*
X132491373Y-115481248D01*
X132515119Y-115441855D01*
X132529441Y-115378421D01*
X132536696Y-115276640D01*
X132539239Y-115122206D01*
X132539482Y-115002904D01*
X132539482Y-114553482D01*
X134195186Y-114553482D01*
X134195186Y-114962333D01*
X134196898Y-115149289D01*
X134203748Y-115277776D01*
X134218307Y-115364538D01*
X134243146Y-115426323D01*
X134273176Y-115470333D01*
X134376186Y-115552015D01*
X134492680Y-115561687D01*
X134604205Y-115503630D01*
X134634653Y-115473195D01*
X134656158Y-115432849D01*
X134670342Y-115370002D01*
X134678827Y-115272068D01*
X134683236Y-115126457D01*
X134685189Y-114920583D01*
X134685418Y-114873334D01*
X134687030Y-114485436D01*
X134687862Y-114165757D01*
X134687591Y-113907256D01*
X134685897Y-113702895D01*
X134682459Y-113545634D01*
X134676957Y-113428434D01*
X134669069Y-113344255D01*
X134658475Y-113286057D01*
X134644854Y-113246802D01*
X134627886Y-113219449D01*
X134609112Y-113198815D01*
X134502907Y-113132812D01*
X134392144Y-113141777D01*
X134287549Y-113215920D01*
X134245224Y-113263754D01*
X134218245Y-113316592D01*
X134203191Y-113391846D01*
X134196645Y-113506928D01*
X134195187Y-113679252D01*
X134195186Y-113686290D01*
X134195186Y-114064297D01*
X132539482Y-114064297D01*
X132539482Y-113669186D01*
X132537792Y-113487159D01*
X132531007Y-113364249D01*
X132516548Y-113284357D01*
X132491842Y-113231383D01*
X132464223Y-113198815D01*
X132358018Y-113132812D01*
X132247255Y-113141777D01*
G36*
X136466450Y-113123878D02*
G01*
X136204092Y-113125139D01*
X136000457Y-113127777D01*
X135847277Y-113132232D01*
X135736285Y-113138944D01*
X135659213Y-113148352D01*
X135607794Y-113160896D01*
X135573761Y-113177016D01*
X135557291Y-113189408D01*
X135471811Y-113297860D01*
X135461470Y-113410462D01*
X135514295Y-113512754D01*
X135548839Y-113553630D01*
X135586012Y-113581501D01*
X135639884Y-113598858D01*
X135724525Y-113608190D01*
X135854007Y-113611987D01*
X136042399Y-113612737D01*
X136079398Y-113612741D01*
X136565852Y-113612741D01*
X136565852Y-114515852D01*
X136566173Y-114800514D01*
X136567628Y-115019547D01*
X136570959Y-115182580D01*
X136576905Y-115299243D01*
X136586209Y-115379165D01*
X136599611Y-115431975D01*
X136617850Y-115467304D01*
X136641112Y-115494223D01*
X136750887Y-115560374D01*
X136865485Y-115555162D01*
X136969411Y-115479687D01*
X136977047Y-115470333D01*
X137001904Y-115434974D01*
X137020842Y-115393603D01*
X137034662Y-115336167D01*
X137044165Y-115252613D01*
X137050152Y-115132889D01*
X137053426Y-114966943D01*
X137054786Y-114744722D01*
X137055037Y-114491963D01*
X137055037Y-113612741D01*
X137519576Y-113612741D01*
X137718927Y-113611392D01*
X137856940Y-113606135D01*
X137947505Y-113595155D01*
X138004513Y-113576639D01*
X138041856Y-113548771D01*
X138046391Y-113543926D01*
X138100916Y-113433131D01*
X138096094Y-113307874D01*
X138033408Y-113198815D01*
X138009165Y-113177661D01*
X137977909Y-113160887D01*
X137931304Y-113147988D01*
X137861013Y-113138455D01*
X137758703Y-113131783D01*
X137616038Y-113127465D01*
X137424682Y-113124993D01*
X137176300Y-113123860D01*
X136862557Y-113123561D01*
X136795799Y-113123556D01*
X136466450Y-113123878D01*
G37*
X136466450Y-113123878D02*
X136204092Y-113125139D01*
X136000457Y-113127777D01*
X135847277Y-113132232D01*
X135736285Y-113138944D01*
X135659213Y-113148352D01*
X135607794Y-113160896D01*
X135573761Y-113177016D01*
X135557291Y-113189408D01*
X135471811Y-113297860D01*
X135461470Y-113410462D01*
X135514295Y-113512754D01*
X135548839Y-113553630D01*
X135586012Y-113581501D01*
X135639884Y-113598858D01*
X135724525Y-113608190D01*
X135854007Y-113611987D01*
X136042399Y-113612737D01*
X136079398Y-113612741D01*
X136565852Y-113612741D01*
X136565852Y-114515852D01*
X136566173Y-114800514D01*
X136567628Y-115019547D01*
X136570959Y-115182580D01*
X136576905Y-115299243D01*
X136586209Y-115379165D01*
X136599611Y-115431975D01*
X136617850Y-115467304D01*
X136641112Y-115494223D01*
X136750887Y-115560374D01*
X136865485Y-115555162D01*
X136969411Y-115479687D01*
X136977047Y-115470333D01*
X137001904Y-115434974D01*
X137020842Y-115393603D01*
X137034662Y-115336167D01*
X137044165Y-115252613D01*
X137050152Y-115132889D01*
X137053426Y-114966943D01*
X137054786Y-114744722D01*
X137055037Y-114491963D01*
X137055037Y-113612741D01*
X137519576Y-113612741D01*
X137718927Y-113611392D01*
X137856940Y-113606135D01*
X137947505Y-113595155D01*
X138004513Y-113576639D01*
X138041856Y-113548771D01*
X138046391Y-113543926D01*
X138100916Y-113433131D01*
X138096094Y-113307874D01*
X138033408Y-113198815D01*
X138009165Y-113177661D01*
X137977909Y-113160887D01*
X137931304Y-113147988D01*
X137861013Y-113138455D01*
X137758703Y-113131783D01*
X137616038Y-113127465D01*
X137424682Y-113124993D01*
X137176300Y-113123860D01*
X136862557Y-113123561D01*
X136795799Y-113123556D01*
X136466450Y-113123878D01*
G36*
X139047953Y-113146256D02*
G01*
X138968910Y-113195490D01*
X138880074Y-113267425D01*
X138880074Y-114339244D01*
X138880357Y-114652766D01*
X138881569Y-114899774D01*
X138884254Y-115089013D01*
X138888957Y-115229227D01*
X138896222Y-115329160D01*
X138906595Y-115397558D01*
X138920619Y-115443163D01*
X138938839Y-115474722D01*
X138951758Y-115490272D01*
X139056554Y-115558582D01*
X139175889Y-115555796D01*
X139280424Y-115497547D01*
X139369260Y-115425613D01*
X139369260Y-113267425D01*
X139280424Y-113195490D01*
X139194685Y-113143164D01*
X139124667Y-113123556D01*
X139047953Y-113146256D01*
G37*
X139047953Y-113146256D02*
X138968910Y-113195490D01*
X138880074Y-113267425D01*
X138880074Y-114339244D01*
X138880357Y-114652766D01*
X138881569Y-114899774D01*
X138884254Y-115089013D01*
X138888957Y-115229227D01*
X138896222Y-115329160D01*
X138906595Y-115397558D01*
X138920619Y-115443163D01*
X138938839Y-115474722D01*
X138951758Y-115490272D01*
X139056554Y-115558582D01*
X139175889Y-115555796D01*
X139280424Y-115497547D01*
X139369260Y-115425613D01*
X139369260Y-113267425D01*
X139280424Y-113195490D01*
X139194685Y-113143164D01*
X139124667Y-113123556D01*
X139047953Y-113146256D01*
G36*
X140527783Y-113130114D02*
G01*
X140462484Y-113153449D01*
X140459965Y-113154591D01*
X140371290Y-113222262D01*
X140322433Y-113291869D01*
X140312873Y-113324506D01*
X140313345Y-113367871D01*
X140326798Y-113429649D01*
X140356178Y-113517522D01*
X140404435Y-113639175D01*
X140474517Y-113802290D01*
X140569372Y-114014551D01*
X140691948Y-114283642D01*
X140759417Y-114430720D01*
X140881249Y-114693285D01*
X140995618Y-114934743D01*
X141098159Y-115146266D01*
X141184508Y-115319027D01*
X141250298Y-115444197D01*
X141291165Y-115512948D01*
X141299252Y-115522445D01*
X141402722Y-115564341D01*
X141519596Y-115558730D01*
X141613333Y-115507774D01*
X141617151Y-115503630D01*
X141654439Y-115447181D01*
X141716987Y-115337232D01*
X141797081Y-115187934D01*
X141887011Y-115013441D01*
X141919330Y-114949139D01*
X142163286Y-114460500D01*
X142429198Y-114991311D01*
X142524111Y-115174716D01*
X142612168Y-115333774D01*
X142686174Y-115456309D01*
X142738937Y-115530146D01*
X142756818Y-115545802D01*
X142895810Y-115567008D01*
X143010502Y-115522445D01*
X143044239Y-115474820D01*
X143102620Y-115368974D01*
X143180883Y-115215323D01*
X143274265Y-115024282D01*
X143378003Y-114806266D01*
X143487335Y-114571690D01*
X143597498Y-114330969D01*
X143703730Y-114094517D01*
X143801268Y-113872752D01*
X143885350Y-113676086D01*
X143951212Y-113514936D01*
X143994093Y-113399716D01*
X144009229Y-113340842D01*
X144009075Y-113338711D01*
X143972246Y-113264628D01*
X143898633Y-113189176D01*
X143894298Y-113185892D01*
X143803823Y-113134751D01*
X143720138Y-113135246D01*
X143688773Y-113144888D01*
X143650553Y-113165725D01*
X143609966Y-113206715D01*
X143562142Y-113276360D01*
X143502213Y-113383163D01*
X143425310Y-113535628D01*
X143326565Y-113742258D01*
X143237516Y-113932994D01*
X143135065Y-114154088D01*
X143043261Y-114352914D01*
X142966874Y-114519084D01*
X142910671Y-114642213D01*
X142879423Y-114711912D01*
X142874866Y-114722815D01*
X142854368Y-114704991D01*
X142807260Y-114630362D01*
X142739809Y-114509820D01*
X142658283Y-114354258D01*
X142625840Y-114290074D01*
X142515941Y-114073347D01*
X142431188Y-113915513D01*
X142364625Y-113807396D01*
X142309298Y-113739820D01*
X142258252Y-113703608D01*
X142204531Y-113689584D01*
X142169523Y-113688000D01*
X142107768Y-113693472D01*
X142053652Y-113716105D01*
X141999883Y-113765221D01*
X141939164Y-113850146D01*
X141864203Y-113980202D01*
X141767703Y-114164715D01*
X141714461Y-114269676D01*
X141628099Y-114436957D01*
X141552777Y-114575680D01*
X141495139Y-114674140D01*
X141461833Y-114720632D01*
X141457304Y-114722568D01*
X141435795Y-114685978D01*
X141387638Y-114590967D01*
X141317657Y-114447479D01*
X141230675Y-114265459D01*
X141131512Y-114054848D01*
X141082733Y-113950238D01*
X140955834Y-113680262D01*
X140853650Y-113472520D01*
X140770876Y-113320236D01*
X140702208Y-113216631D01*
X140642340Y-113154927D01*
X140585966Y-113128348D01*
X140527783Y-113130114D01*
G37*
X140527783Y-113130114D02*
X140462484Y-113153449D01*
X140459965Y-113154591D01*
X140371290Y-113222262D01*
X140322433Y-113291869D01*
X140312873Y-113324506D01*
X140313345Y-113367871D01*
X140326798Y-113429649D01*
X140356178Y-113517522D01*
X140404435Y-113639175D01*
X140474517Y-113802290D01*
X140569372Y-114014551D01*
X140691948Y-114283642D01*
X140759417Y-114430720D01*
X140881249Y-114693285D01*
X140995618Y-114934743D01*
X141098159Y-115146266D01*
X141184508Y-115319027D01*
X141250298Y-115444197D01*
X141291165Y-115512948D01*
X141299252Y-115522445D01*
X141402722Y-115564341D01*
X141519596Y-115558730D01*
X141613333Y-115507774D01*
X141617151Y-115503630D01*
X141654439Y-115447181D01*
X141716987Y-115337232D01*
X141797081Y-115187934D01*
X141887011Y-115013441D01*
X141919330Y-114949139D01*
X142163286Y-114460500D01*
X142429198Y-114991311D01*
X142524111Y-115174716D01*
X142612168Y-115333774D01*
X142686174Y-115456309D01*
X142738937Y-115530146D01*
X142756818Y-115545802D01*
X142895810Y-115567008D01*
X143010502Y-115522445D01*
X143044239Y-115474820D01*
X143102620Y-115368974D01*
X143180883Y-115215323D01*
X143274265Y-115024282D01*
X143378003Y-114806266D01*
X143487335Y-114571690D01*
X143597498Y-114330969D01*
X143703730Y-114094517D01*
X143801268Y-113872752D01*
X143885350Y-113676086D01*
X143951212Y-113514936D01*
X143994093Y-113399716D01*
X144009229Y-113340842D01*
X144009075Y-113338711D01*
X143972246Y-113264628D01*
X143898633Y-113189176D01*
X143894298Y-113185892D01*
X143803823Y-113134751D01*
X143720138Y-113135246D01*
X143688773Y-113144888D01*
X143650553Y-113165725D01*
X143609966Y-113206715D01*
X143562142Y-113276360D01*
X143502213Y-113383163D01*
X143425310Y-113535628D01*
X143326565Y-113742258D01*
X143237516Y-113932994D01*
X143135065Y-114154088D01*
X143043261Y-114352914D01*
X142966874Y-114519084D01*
X142910671Y-114642213D01*
X142879423Y-114711912D01*
X142874866Y-114722815D01*
X142854368Y-114704991D01*
X142807260Y-114630362D01*
X142739809Y-114509820D01*
X142658283Y-114354258D01*
X142625840Y-114290074D01*
X142515941Y-114073347D01*
X142431188Y-113915513D01*
X142364625Y-113807396D01*
X142309298Y-113739820D01*
X142258252Y-113703608D01*
X142204531Y-113689584D01*
X142169523Y-113688000D01*
X142107768Y-113693472D01*
X142053652Y-113716105D01*
X141999883Y-113765221D01*
X141939164Y-113850146D01*
X141864203Y-113980202D01*
X141767703Y-114164715D01*
X141714461Y-114269676D01*
X141628099Y-114436957D01*
X141552777Y-114575680D01*
X141495139Y-114674140D01*
X141461833Y-114720632D01*
X141457304Y-114722568D01*
X141435795Y-114685978D01*
X141387638Y-114590967D01*
X141317657Y-114447479D01*
X141230675Y-114265459D01*
X141131512Y-114054848D01*
X141082733Y-113950238D01*
X140955834Y-113680262D01*
X140853650Y-113472520D01*
X140770876Y-113320236D01*
X140702208Y-113216631D01*
X140642340Y-113154927D01*
X140585966Y-113128348D01*
X140527783Y-113130114D01*
G36*
X149615637Y-113124249D02*
G01*
X149185706Y-113138786D01*
X148820030Y-113182869D01*
X148512580Y-113259138D01*
X148257327Y-113370233D01*
X148048242Y-113518792D01*
X147879294Y-113707455D01*
X147744455Y-113938860D01*
X147741803Y-113944503D01*
X147661330Y-114151610D01*
X147632658Y-114335032D01*
X147655895Y-114519625D01*
X147731153Y-114730245D01*
X147745426Y-114762296D01*
X147842759Y-114949886D01*
X147952148Y-115094838D01*
X148093327Y-115218057D01*
X148286033Y-115340451D01*
X148297228Y-115346840D01*
X148464985Y-115427424D01*
X148654596Y-115487607D01*
X148878244Y-115529465D01*
X149148116Y-115555074D01*
X149476394Y-115566509D01*
X149592380Y-115567502D01*
X150144686Y-115569482D01*
X150222677Y-115470333D01*
X150245811Y-115437730D01*
X150263858Y-115399657D01*
X150277448Y-115346984D01*
X150287211Y-115270582D01*
X150293776Y-115161320D01*
X150295917Y-115080297D01*
X149773852Y-115080297D01*
X149460911Y-115080297D01*
X149277787Y-115074942D01*
X149089800Y-115060849D01*
X148935515Y-115040974D01*
X148926202Y-115039301D01*
X148652172Y-114965786D01*
X148439621Y-114855335D01*
X148281825Y-114702824D01*
X148172060Y-114503129D01*
X148152973Y-114450203D01*
X148134264Y-114367775D01*
X148142364Y-114286339D01*
X148181777Y-114178000D01*
X148205534Y-114124779D01*
X148283332Y-113983352D01*
X148377066Y-113884132D01*
X148480198Y-113815038D01*
X148686781Y-113725124D01*
X148951164Y-113659993D01*
X149259158Y-113622488D01*
X149482223Y-113614235D01*
X149773852Y-113612741D01*
X149773852Y-115080297D01*
X150295917Y-115080297D01*
X150297773Y-115010070D01*
X150299832Y-114807702D01*
X150300582Y-114545086D01*
X150300667Y-114339734D01*
X150300667Y-113308283D01*
X150208303Y-113215920D01*
X150167312Y-113178481D01*
X150122988Y-113152842D01*
X150061091Y-113136801D01*
X149967379Y-113128155D01*
X149827610Y-113124700D01*
X149627543Y-113124234D01*
X149615637Y-113124249D01*
G37*
X149615637Y-113124249D02*
X149185706Y-113138786D01*
X148820030Y-113182869D01*
X148512580Y-113259138D01*
X148257327Y-113370233D01*
X148048242Y-113518792D01*
X147879294Y-113707455D01*
X147744455Y-113938860D01*
X147741803Y-113944503D01*
X147661330Y-114151610D01*
X147632658Y-114335032D01*
X147655895Y-114519625D01*
X147731153Y-114730245D01*
X147745426Y-114762296D01*
X147842759Y-114949886D01*
X147952148Y-115094838D01*
X148093327Y-115218057D01*
X148286033Y-115340451D01*
X148297228Y-115346840D01*
X148464985Y-115427424D01*
X148654596Y-115487607D01*
X148878244Y-115529465D01*
X149148116Y-115555074D01*
X149476394Y-115566509D01*
X149592380Y-115567502D01*
X150144686Y-115569482D01*
X150222677Y-115470333D01*
X150245811Y-115437730D01*
X150263858Y-115399657D01*
X150277448Y-115346984D01*
X150287211Y-115270582D01*
X150293776Y-115161320D01*
X150295917Y-115080297D01*
X149773852Y-115080297D01*
X149460911Y-115080297D01*
X149277787Y-115074942D01*
X149089800Y-115060849D01*
X148935515Y-115040974D01*
X148926202Y-115039301D01*
X148652172Y-114965786D01*
X148439621Y-114855335D01*
X148281825Y-114702824D01*
X148172060Y-114503129D01*
X148152973Y-114450203D01*
X148134264Y-114367775D01*
X148142364Y-114286339D01*
X148181777Y-114178000D01*
X148205534Y-114124779D01*
X148283332Y-113983352D01*
X148377066Y-113884132D01*
X148480198Y-113815038D01*
X148686781Y-113725124D01*
X148951164Y-113659993D01*
X149259158Y-113622488D01*
X149482223Y-113614235D01*
X149773852Y-113612741D01*
X149773852Y-115080297D01*
X150295917Y-115080297D01*
X150297773Y-115010070D01*
X150299832Y-114807702D01*
X150300582Y-114545086D01*
X150300667Y-114339734D01*
X150300667Y-113308283D01*
X150208303Y-113215920D01*
X150167312Y-113178481D01*
X150122988Y-113152842D01*
X150061091Y-113136801D01*
X149967379Y-113128155D01*
X149827610Y-113124700D01*
X149627543Y-113124234D01*
X149615637Y-113124249D01*
G36*
X152242191Y-113124199D02*
G01*
X151987662Y-113127246D01*
X151792611Y-113134371D01*
X151649149Y-113147249D01*
X151549389Y-113167555D01*
X151485440Y-113196965D01*
X151449414Y-113237154D01*
X151433422Y-113289795D01*
X151429576Y-113356565D01*
X151429556Y-113364450D01*
X151432895Y-113439974D01*
X151448679Y-113498342D01*
X151485555Y-113541914D01*
X151552173Y-113573043D01*
X151657180Y-113594089D01*
X151809225Y-113607407D01*
X152016956Y-113615354D01*
X152289021Y-113620286D01*
X152372409Y-113621379D01*
X153179334Y-113631556D01*
X153190619Y-113847926D01*
X153201904Y-114064297D01*
X152641414Y-114064297D01*
X152422445Y-114065104D01*
X152266093Y-114068521D01*
X152159722Y-114076036D01*
X152090698Y-114089141D01*
X152046385Y-114109326D01*
X152014150Y-114138081D01*
X152013944Y-114138309D01*
X151955480Y-114250373D01*
X151957593Y-114371494D01*
X152018952Y-114474744D01*
X152031095Y-114485356D01*
X152074195Y-114512708D01*
X152133254Y-114531736D01*
X152221433Y-114543874D01*
X152351892Y-114550556D01*
X152537792Y-114553214D01*
X152656688Y-114553482D01*
X153198149Y-114553482D01*
X153198149Y-115080297D01*
X152376129Y-115080297D01*
X152104732Y-115080771D01*
X151898633Y-115082712D01*
X151747877Y-115086893D01*
X151642506Y-115094091D01*
X151572562Y-115105078D01*
X151528090Y-115120631D01*
X151499131Y-115141524D01*
X151491833Y-115149111D01*
X151437951Y-115254266D01*
X151434010Y-115373895D01*
X151478213Y-115477616D01*
X151513188Y-115510904D01*
X151549570Y-115529229D01*
X151605944Y-115543406D01*
X151691224Y-115553933D01*
X151814330Y-115561305D01*
X151984179Y-115566020D01*
X152209686Y-115568573D01*
X152499770Y-115569460D01*
X152565352Y-115569482D01*
X152860297Y-115569289D01*
X153089243Y-115568224D01*
X153261452Y-115565556D01*
X153386184Y-115560557D01*
X153472699Y-115552497D01*
X153530260Y-115540646D01*
X153568126Y-115524274D01*
X153595558Y-115502652D01*
X153610609Y-115487127D01*
X153633262Y-115459629D01*
X153650960Y-115425564D01*
X153664313Y-115376001D01*
X153673929Y-115302006D01*
X153680420Y-115194645D01*
X153684395Y-115044985D01*
X153686464Y-114844093D01*
X153687237Y-114583036D01*
X153687334Y-114363313D01*
X153687097Y-114055428D01*
X153685973Y-113813724D01*
X153683341Y-113629124D01*
X153678581Y-113492551D01*
X153671071Y-113394928D01*
X153660191Y-113327178D01*
X153645321Y-113280222D01*
X153625839Y-113244984D01*
X153609343Y-113222705D01*
X153531353Y-113123556D01*
X152564087Y-113123556D01*
X152242191Y-113124199D01*
G37*
X152242191Y-113124199D02*
X151987662Y-113127246D01*
X151792611Y-113134371D01*
X151649149Y-113147249D01*
X151549389Y-113167555D01*
X151485440Y-113196965D01*
X151449414Y-113237154D01*
X151433422Y-113289795D01*
X151429576Y-113356565D01*
X151429556Y-113364450D01*
X151432895Y-113439974D01*
X151448679Y-113498342D01*
X151485555Y-113541914D01*
X151552173Y-113573043D01*
X151657180Y-113594089D01*
X151809225Y-113607407D01*
X152016956Y-113615354D01*
X152289021Y-113620286D01*
X152372409Y-113621379D01*
X153179334Y-113631556D01*
X153190619Y-113847926D01*
X153201904Y-114064297D01*
X152641414Y-114064297D01*
X152422445Y-114065104D01*
X152266093Y-114068521D01*
X152159722Y-114076036D01*
X152090698Y-114089141D01*
X152046385Y-114109326D01*
X152014150Y-114138081D01*
X152013944Y-114138309D01*
X151955480Y-114250373D01*
X151957593Y-114371494D01*
X152018952Y-114474744D01*
X152031095Y-114485356D01*
X152074195Y-114512708D01*
X152133254Y-114531736D01*
X152221433Y-114543874D01*
X152351892Y-114550556D01*
X152537792Y-114553214D01*
X152656688Y-114553482D01*
X153198149Y-114553482D01*
X153198149Y-115080297D01*
X152376129Y-115080297D01*
X152104732Y-115080771D01*
X151898633Y-115082712D01*
X151747877Y-115086893D01*
X151642506Y-115094091D01*
X151572562Y-115105078D01*
X151528090Y-115120631D01*
X151499131Y-115141524D01*
X151491833Y-115149111D01*
X151437951Y-115254266D01*
X151434010Y-115373895D01*
X151478213Y-115477616D01*
X151513188Y-115510904D01*
X151549570Y-115529229D01*
X151605944Y-115543406D01*
X151691224Y-115553933D01*
X151814330Y-115561305D01*
X151984179Y-115566020D01*
X152209686Y-115568573D01*
X152499770Y-115569460D01*
X152565352Y-115569482D01*
X152860297Y-115569289D01*
X153089243Y-115568224D01*
X153261452Y-115565556D01*
X153386184Y-115560557D01*
X153472699Y-115552497D01*
X153530260Y-115540646D01*
X153568126Y-115524274D01*
X153595558Y-115502652D01*
X153610609Y-115487127D01*
X153633262Y-115459629D01*
X153650960Y-115425564D01*
X153664313Y-115376001D01*
X153673929Y-115302006D01*
X153680420Y-115194645D01*
X153684395Y-115044985D01*
X153686464Y-114844093D01*
X153687237Y-114583036D01*
X153687334Y-114363313D01*
X153687097Y-114055428D01*
X153685973Y-113813724D01*
X153683341Y-113629124D01*
X153678581Y-113492551D01*
X153671071Y-113394928D01*
X153660191Y-113327178D01*
X153645321Y-113280222D01*
X153625839Y-113244984D01*
X153609343Y-113222705D01*
X153531353Y-113123556D01*
X152564087Y-113123556D01*
X152242191Y-113124199D01*
G36*
X157343713Y-113138161D02*
G01*
X157265159Y-113184242D01*
X157162449Y-113259602D01*
X157030259Y-113367792D01*
X156863265Y-113512361D01*
X156656143Y-113696859D01*
X156403571Y-113924836D01*
X156114445Y-114186947D01*
X155512371Y-114732928D01*
X155493556Y-114000096D01*
X155486763Y-113747838D01*
X155480209Y-113559981D01*
X155472445Y-113425687D01*
X155462019Y-113334116D01*
X155447483Y-113274431D01*
X155427386Y-113235791D01*
X155400278Y-113207359D01*
X155385906Y-113195410D01*
X155270804Y-113132235D01*
X155161275Y-113141471D01*
X155074391Y-113195443D01*
X154985556Y-113267329D01*
X154974507Y-114317170D01*
X154971449Y-114625929D01*
X154969893Y-114868480D01*
X154970377Y-115053869D01*
X154973441Y-115191141D01*
X154979624Y-115289342D01*
X154989464Y-115357517D01*
X155003501Y-115404710D01*
X155022273Y-115439969D01*
X155043090Y-115468247D01*
X155088131Y-115520691D01*
X155132944Y-115555454D01*
X155183747Y-115568798D01*
X155246754Y-115556980D01*
X155328181Y-115516262D01*
X155434244Y-115442903D01*
X155571159Y-115333164D01*
X155745141Y-115183304D01*
X155962405Y-114989584D01*
X156208519Y-114766996D01*
X157092815Y-113964861D01*
X157111630Y-114695297D01*
X157118435Y-114947095D01*
X157125005Y-115134514D01*
X157132798Y-115268413D01*
X157143270Y-115359653D01*
X157157878Y-115419095D01*
X157178081Y-115457598D01*
X157205334Y-115486023D01*
X157219280Y-115497607D01*
X157342550Y-115561242D01*
X157459025Y-115551643D01*
X157560454Y-115470333D01*
X157583657Y-115437621D01*
X157601742Y-115399419D01*
X157615343Y-115346559D01*
X157625097Y-115269878D01*
X157631641Y-115160208D01*
X157635610Y-115008386D01*
X157637641Y-114805245D01*
X157638369Y-114541620D01*
X157638445Y-114346519D01*
X157638200Y-114041358D01*
X157637042Y-113802291D01*
X157634335Y-113620151D01*
X157629443Y-113485773D01*
X157621728Y-113389992D01*
X157610557Y-113323643D01*
X157595292Y-113277559D01*
X157575297Y-113242575D01*
X157560454Y-113222705D01*
X157522831Y-113175636D01*
X157487669Y-113140097D01*
X157449644Y-113119639D01*
X157403433Y-113117810D01*
X157343713Y-113138161D01*
G37*
X157343713Y-113138161D02*
X157265159Y-113184242D01*
X157162449Y-113259602D01*
X157030259Y-113367792D01*
X156863265Y-113512361D01*
X156656143Y-113696859D01*
X156403571Y-113924836D01*
X156114445Y-114186947D01*
X155512371Y-114732928D01*
X155493556Y-114000096D01*
X155486763Y-113747838D01*
X155480209Y-113559981D01*
X155472445Y-113425687D01*
X155462019Y-113334116D01*
X155447483Y-113274431D01*
X155427386Y-113235791D01*
X155400278Y-113207359D01*
X155385906Y-113195410D01*
X155270804Y-113132235D01*
X155161275Y-113141471D01*
X155074391Y-113195443D01*
X154985556Y-113267329D01*
X154974507Y-114317170D01*
X154971449Y-114625929D01*
X154969893Y-114868480D01*
X154970377Y-115053869D01*
X154973441Y-115191141D01*
X154979624Y-115289342D01*
X154989464Y-115357517D01*
X155003501Y-115404710D01*
X155022273Y-115439969D01*
X155043090Y-115468247D01*
X155088131Y-115520691D01*
X155132944Y-115555454D01*
X155183747Y-115568798D01*
X155246754Y-115556980D01*
X155328181Y-115516262D01*
X155434244Y-115442903D01*
X155571159Y-115333164D01*
X155745141Y-115183304D01*
X155962405Y-114989584D01*
X156208519Y-114766996D01*
X157092815Y-113964861D01*
X157111630Y-114695297D01*
X157118435Y-114947095D01*
X157125005Y-115134514D01*
X157132798Y-115268413D01*
X157143270Y-115359653D01*
X157157878Y-115419095D01*
X157178081Y-115457598D01*
X157205334Y-115486023D01*
X157219280Y-115497607D01*
X157342550Y-115561242D01*
X157459025Y-115551643D01*
X157560454Y-115470333D01*
X157583657Y-115437621D01*
X157601742Y-115399419D01*
X157615343Y-115346559D01*
X157625097Y-115269878D01*
X157631641Y-115160208D01*
X157635610Y-115008386D01*
X157637641Y-114805245D01*
X157638369Y-114541620D01*
X157638445Y-114346519D01*
X157638200Y-114041358D01*
X157637042Y-113802291D01*
X157634335Y-113620151D01*
X157629443Y-113485773D01*
X157621728Y-113389992D01*
X157610557Y-113323643D01*
X157595292Y-113277559D01*
X157575297Y-113242575D01*
X157560454Y-113222705D01*
X157522831Y-113175636D01*
X157487669Y-113140097D01*
X157449644Y-113119639D01*
X157403433Y-113117810D01*
X157343713Y-113138161D01*
G36*
X159510271Y-113141996D02*
G01*
X159281882Y-113180318D01*
X159106475Y-113239890D01*
X158992360Y-113318329D01*
X158961264Y-113363079D01*
X158929642Y-113467160D01*
X158950922Y-113561317D01*
X159018101Y-113650607D01*
X159122484Y-113692378D01*
X159273942Y-113688986D01*
X159391087Y-113666354D01*
X159651396Y-113623237D01*
X159917420Y-113619139D01*
X160215182Y-113654137D01*
X160297431Y-113668966D01*
X160574304Y-113747028D01*
X160790908Y-113863149D01*
X160944871Y-114015347D01*
X161033815Y-114201646D01*
X161052211Y-114297962D01*
X161040169Y-114493375D01*
X160962431Y-114666264D01*
X160826078Y-114813261D01*
X160638195Y-114930995D01*
X160405865Y-115016097D01*
X160136173Y-115065198D01*
X159836201Y-115074928D01*
X159513033Y-115041916D01*
X159494786Y-115038804D01*
X159366248Y-115014863D01*
X159294979Y-114991738D01*
X159264088Y-114957425D01*
X159256686Y-114899922D01*
X159256519Y-114869471D01*
X159256519Y-114741630D01*
X159484771Y-114741630D01*
X159686332Y-114727822D01*
X159823883Y-114683822D01*
X159903915Y-114605765D01*
X159932922Y-114489786D01*
X159933276Y-114474647D01*
X159916305Y-114375515D01*
X159858108Y-114304729D01*
X159749796Y-114257885D01*
X159582476Y-114230577D01*
X159420408Y-114220537D01*
X159184853Y-114214777D01*
X159013993Y-114223566D01*
X158897463Y-114256001D01*
X158824898Y-114321177D01*
X158785933Y-114428187D01*
X158770200Y-114586128D01*
X158767334Y-114793570D01*
X158772030Y-115025118D01*
X158786160Y-115182620D01*
X158809785Y-115266706D01*
X158814371Y-115273293D01*
X158944092Y-115378361D01*
X159134286Y-115461568D01*
X159372895Y-115521135D01*
X159647861Y-115555285D01*
X159947128Y-115562242D01*
X160258638Y-115540228D01*
X160441852Y-115513186D01*
X160729220Y-115431848D01*
X160996305Y-115298873D01*
X161219923Y-115126291D01*
X161253911Y-115091797D01*
X161364339Y-114946783D01*
X161463979Y-114767060D01*
X161541188Y-114578639D01*
X161584328Y-114407531D01*
X161589526Y-114341813D01*
X161567392Y-114204731D01*
X161508561Y-114034174D01*
X161424321Y-113854647D01*
X161325962Y-113690651D01*
X161239062Y-113581112D01*
X161035881Y-113418173D01*
X160773230Y-113288485D01*
X160460522Y-113194981D01*
X160107168Y-113140596D01*
X159783334Y-113127307D01*
X159510271Y-113141996D01*
G37*
X159510271Y-113141996D02*
X159281882Y-113180318D01*
X159106475Y-113239890D01*
X158992360Y-113318329D01*
X158961264Y-113363079D01*
X158929642Y-113467160D01*
X158950922Y-113561317D01*
X159018101Y-113650607D01*
X159122484Y-113692378D01*
X159273942Y-113688986D01*
X159391087Y-113666354D01*
X159651396Y-113623237D01*
X159917420Y-113619139D01*
X160215182Y-113654137D01*
X160297431Y-113668966D01*
X160574304Y-113747028D01*
X160790908Y-113863149D01*
X160944871Y-114015347D01*
X161033815Y-114201646D01*
X161052211Y-114297962D01*
X161040169Y-114493375D01*
X160962431Y-114666264D01*
X160826078Y-114813261D01*
X160638195Y-114930995D01*
X160405865Y-115016097D01*
X160136173Y-115065198D01*
X159836201Y-115074928D01*
X159513033Y-115041916D01*
X159494786Y-115038804D01*
X159366248Y-115014863D01*
X159294979Y-114991738D01*
X159264088Y-114957425D01*
X159256686Y-114899922D01*
X159256519Y-114869471D01*
X159256519Y-114741630D01*
X159484771Y-114741630D01*
X159686332Y-114727822D01*
X159823883Y-114683822D01*
X159903915Y-114605765D01*
X159932922Y-114489786D01*
X159933276Y-114474647D01*
X159916305Y-114375515D01*
X159858108Y-114304729D01*
X159749796Y-114257885D01*
X159582476Y-114230577D01*
X159420408Y-114220537D01*
X159184853Y-114214777D01*
X159013993Y-114223566D01*
X158897463Y-114256001D01*
X158824898Y-114321177D01*
X158785933Y-114428187D01*
X158770200Y-114586128D01*
X158767334Y-114793570D01*
X158772030Y-115025118D01*
X158786160Y-115182620D01*
X158809785Y-115266706D01*
X158814371Y-115273293D01*
X158944092Y-115378361D01*
X159134286Y-115461568D01*
X159372895Y-115521135D01*
X159647861Y-115555285D01*
X159947128Y-115562242D01*
X160258638Y-115540228D01*
X160441852Y-115513186D01*
X160729220Y-115431848D01*
X160996305Y-115298873D01*
X161219923Y-115126291D01*
X161253911Y-115091797D01*
X161364339Y-114946783D01*
X161463979Y-114767060D01*
X161541188Y-114578639D01*
X161584328Y-114407531D01*
X161589526Y-114341813D01*
X161567392Y-114204731D01*
X161508561Y-114034174D01*
X161424321Y-113854647D01*
X161325962Y-113690651D01*
X161239062Y-113581112D01*
X161035881Y-113418173D01*
X160773230Y-113288485D01*
X160460522Y-113194981D01*
X160107168Y-113140596D01*
X159783334Y-113127307D01*
X159510271Y-113141996D01*
G36*
X162756074Y-113198815D02*
G01*
X162734138Y-113224059D01*
X162716931Y-113256625D01*
X162703879Y-113305237D01*
X162694412Y-113378618D01*
X162687958Y-113485492D01*
X162683943Y-113634584D01*
X162681797Y-113834617D01*
X162680947Y-114094315D01*
X162680815Y-114346519D01*
X162681047Y-114659342D01*
X162682125Y-114905630D01*
X162684621Y-115094106D01*
X162689106Y-115233496D01*
X162696153Y-115332523D01*
X162706334Y-115399910D01*
X162720220Y-115444381D01*
X162738385Y-115474661D01*
X162756074Y-115494223D01*
X162866086Y-115559824D01*
X162983304Y-115553937D01*
X163088182Y-115482390D01*
X163112279Y-115454456D01*
X163131112Y-115422047D01*
X163145328Y-115376203D01*
X163155577Y-115307965D01*
X163162507Y-115208374D01*
X163166766Y-115068471D01*
X163169002Y-114879296D01*
X163169864Y-114631891D01*
X163170000Y-114351791D01*
X163170000Y-113308283D01*
X163077637Y-113215920D01*
X162963788Y-113138211D01*
X162853353Y-113135411D01*
X162756074Y-113198815D01*
G37*
X162756074Y-113198815D02*
X162734138Y-113224059D01*
X162716931Y-113256625D01*
X162703879Y-113305237D01*
X162694412Y-113378618D01*
X162687958Y-113485492D01*
X162683943Y-113634584D01*
X162681797Y-113834617D01*
X162680947Y-114094315D01*
X162680815Y-114346519D01*
X162681047Y-114659342D01*
X162682125Y-114905630D01*
X162684621Y-115094106D01*
X162689106Y-115233496D01*
X162696153Y-115332523D01*
X162706334Y-115399910D01*
X162720220Y-115444381D01*
X162738385Y-115474661D01*
X162756074Y-115494223D01*
X162866086Y-115559824D01*
X162983304Y-115553937D01*
X163088182Y-115482390D01*
X163112279Y-115454456D01*
X163131112Y-115422047D01*
X163145328Y-115376203D01*
X163155577Y-115307965D01*
X163162507Y-115208374D01*
X163166766Y-115068471D01*
X163169002Y-114879296D01*
X163169864Y-114631891D01*
X163170000Y-114351791D01*
X163170000Y-113308283D01*
X163077637Y-113215920D01*
X162963788Y-113138211D01*
X162853353Y-113135411D01*
X162756074Y-113198815D01*
G36*
X165315675Y-113127837D02*
G01*
X165066292Y-113145271D01*
X164834353Y-113172501D01*
X164633339Y-113208500D01*
X164476734Y-113252244D01*
X164378019Y-113302709D01*
X164362867Y-113317563D01*
X164310178Y-113432834D01*
X164326155Y-113551172D01*
X164407879Y-113652418D01*
X164411778Y-113655319D01*
X164459847Y-113686515D01*
X164510026Y-113702919D01*
X164580017Y-113704911D01*
X164687523Y-113692872D01*
X164850244Y-113667182D01*
X164863334Y-113665018D01*
X165105796Y-113635231D01*
X165367390Y-113620538D01*
X165629756Y-113620395D01*
X165874536Y-113634263D01*
X166083370Y-113661598D01*
X166237900Y-113701858D01*
X166248054Y-113705904D01*
X166360160Y-113768716D01*
X166399547Y-113832282D01*
X166368713Y-113894798D01*
X166270155Y-113954458D01*
X166106370Y-114009456D01*
X165879855Y-114057986D01*
X165728815Y-114081352D01*
X165414852Y-114126296D01*
X165165145Y-114167381D01*
X164969056Y-114208165D01*
X164815948Y-114252204D01*
X164695184Y-114303058D01*
X164596127Y-114364282D01*
X164508140Y-114439435D01*
X164437434Y-114513236D01*
X164353550Y-114616064D01*
X164312268Y-114704483D01*
X164299358Y-114813422D01*
X164298889Y-114853318D01*
X164308586Y-114985706D01*
X164347339Y-115084198D01*
X164414410Y-115171619D01*
X164550720Y-115305252D01*
X164702722Y-115407164D01*
X164881708Y-115480677D01*
X165098974Y-115529116D01*
X165365814Y-115555803D01*
X165693522Y-115564062D01*
X165747630Y-115563922D01*
X165966162Y-115559392D01*
X166182885Y-115549099D01*
X166374174Y-115534521D01*
X166516405Y-115517133D01*
X166527908Y-115515136D01*
X166669320Y-115481638D01*
X166789265Y-115439321D01*
X166857167Y-115400635D01*
X166920357Y-115298572D01*
X166924756Y-115179726D01*
X166870283Y-115073813D01*
X166858095Y-115061836D01*
X166807718Y-115026253D01*
X166744715Y-115010921D01*
X166647207Y-115013530D01*
X166528836Y-115027091D01*
X166396567Y-115039206D01*
X166211149Y-115049427D01*
X165994687Y-115056844D01*
X165769283Y-115060547D01*
X165710000Y-115060792D01*
X165483758Y-115059879D01*
X165318181Y-115055487D01*
X165198700Y-115046091D01*
X165110746Y-115030167D01*
X165039751Y-115006191D01*
X164997087Y-114986223D01*
X164903334Y-114930776D01*
X164843560Y-114880560D01*
X164834824Y-114866325D01*
X164853254Y-114807544D01*
X164940867Y-114750640D01*
X165091592Y-114698195D01*
X165299358Y-114652793D01*
X165360571Y-114642679D01*
X165680300Y-114592461D01*
X165935471Y-114550486D01*
X166135932Y-114513705D01*
X166291533Y-114479066D01*
X166412122Y-114443520D01*
X166507548Y-114404016D01*
X166587661Y-114357505D01*
X166662308Y-114300937D01*
X166741339Y-114231260D01*
X166767933Y-114206831D01*
X166861175Y-114115663D01*
X166910532Y-114043430D01*
X166929841Y-113960773D01*
X166932963Y-113856610D01*
X166898584Y-113652350D01*
X166795839Y-113478801D01*
X166625317Y-113336526D01*
X166387609Y-113226084D01*
X166218000Y-113176547D01*
X166033665Y-113144553D01*
X165812844Y-113126453D01*
X165569020Y-113121223D01*
X165315675Y-113127837D01*
G37*
X165315675Y-113127837D02*
X165066292Y-113145271D01*
X164834353Y-113172501D01*
X164633339Y-113208500D01*
X164476734Y-113252244D01*
X164378019Y-113302709D01*
X164362867Y-113317563D01*
X164310178Y-113432834D01*
X164326155Y-113551172D01*
X164407879Y-113652418D01*
X164411778Y-113655319D01*
X164459847Y-113686515D01*
X164510026Y-113702919D01*
X164580017Y-113704911D01*
X164687523Y-113692872D01*
X164850244Y-113667182D01*
X164863334Y-113665018D01*
X165105796Y-113635231D01*
X165367390Y-113620538D01*
X165629756Y-113620395D01*
X165874536Y-113634263D01*
X166083370Y-113661598D01*
X166237900Y-113701858D01*
X166248054Y-113705904D01*
X166360160Y-113768716D01*
X166399547Y-113832282D01*
X166368713Y-113894798D01*
X166270155Y-113954458D01*
X166106370Y-114009456D01*
X165879855Y-114057986D01*
X165728815Y-114081352D01*
X165414852Y-114126296D01*
X165165145Y-114167381D01*
X164969056Y-114208165D01*
X164815948Y-114252204D01*
X164695184Y-114303058D01*
X164596127Y-114364282D01*
X164508140Y-114439435D01*
X164437434Y-114513236D01*
X164353550Y-114616064D01*
X164312268Y-114704483D01*
X164299358Y-114813422D01*
X164298889Y-114853318D01*
X164308586Y-114985706D01*
X164347339Y-115084198D01*
X164414410Y-115171619D01*
X164550720Y-115305252D01*
X164702722Y-115407164D01*
X164881708Y-115480677D01*
X165098974Y-115529116D01*
X165365814Y-115555803D01*
X165693522Y-115564062D01*
X165747630Y-115563922D01*
X165966162Y-115559392D01*
X166182885Y-115549099D01*
X166374174Y-115534521D01*
X166516405Y-115517133D01*
X166527908Y-115515136D01*
X166669320Y-115481638D01*
X166789265Y-115439321D01*
X166857167Y-115400635D01*
X166920357Y-115298572D01*
X166924756Y-115179726D01*
X166870283Y-115073813D01*
X166858095Y-115061836D01*
X166807718Y-115026253D01*
X166744715Y-115010921D01*
X166647207Y-115013530D01*
X166528836Y-115027091D01*
X166396567Y-115039206D01*
X166211149Y-115049427D01*
X165994687Y-115056844D01*
X165769283Y-115060547D01*
X165710000Y-115060792D01*
X165483758Y-115059879D01*
X165318181Y-115055487D01*
X165198700Y-115046091D01*
X165110746Y-115030167D01*
X165039751Y-115006191D01*
X164997087Y-114986223D01*
X164903334Y-114930776D01*
X164843560Y-114880560D01*
X164834824Y-114866325D01*
X164853254Y-114807544D01*
X164940867Y-114750640D01*
X165091592Y-114698195D01*
X165299358Y-114652793D01*
X165360571Y-114642679D01*
X165680300Y-114592461D01*
X165935471Y-114550486D01*
X166135932Y-114513705D01*
X166291533Y-114479066D01*
X166412122Y-114443520D01*
X166507548Y-114404016D01*
X166587661Y-114357505D01*
X166662308Y-114300937D01*
X166741339Y-114231260D01*
X166767933Y-114206831D01*
X166861175Y-114115663D01*
X166910532Y-114043430D01*
X166929841Y-113960773D01*
X166932963Y-113856610D01*
X166898584Y-113652350D01*
X166795839Y-113478801D01*
X166625317Y-113336526D01*
X166387609Y-113226084D01*
X166218000Y-113176547D01*
X166033665Y-113144553D01*
X165812844Y-113126453D01*
X165569020Y-113121223D01*
X165315675Y-113127837D01*
G36*
X168719314Y-113123821D02*
G01*
X168487952Y-113125062D01*
X168313321Y-113127949D01*
X168186157Y-113133153D01*
X168097197Y-113141344D01*
X168037176Y-113153191D01*
X167996831Y-113169366D01*
X167966898Y-113190537D01*
X167956059Y-113200281D01*
X167890142Y-113303808D01*
X167878272Y-113422762D01*
X167921635Y-113528367D01*
X167941686Y-113549710D01*
X167974117Y-113570404D01*
X168026335Y-113586368D01*
X168108025Y-113598379D01*
X168228869Y-113607215D01*
X168398551Y-113613651D01*
X168626754Y-113618464D01*
X168835389Y-113621394D01*
X169661112Y-113631556D01*
X169672397Y-113847926D01*
X169683682Y-114064297D01*
X169123192Y-114064297D01*
X168879862Y-114066396D01*
X168701722Y-114075177D01*
X168578758Y-114094364D01*
X168500959Y-114127681D01*
X168458313Y-114178854D01*
X168440807Y-114251605D01*
X168438149Y-114319126D01*
X168446411Y-114401974D01*
X168477590Y-114463021D01*
X168541276Y-114505457D01*
X168647059Y-114532471D01*
X168804529Y-114547255D01*
X169023276Y-114552997D01*
X169142670Y-114553482D01*
X169679926Y-114553482D01*
X169679926Y-115080297D01*
X168852074Y-115080297D01*
X168580710Y-115080675D01*
X168374472Y-115082372D01*
X168223228Y-115086233D01*
X168116846Y-115093101D01*
X168045196Y-115103822D01*
X167998144Y-115119239D01*
X167965559Y-115140196D01*
X167948963Y-115155556D01*
X167892033Y-115245202D01*
X167873704Y-115324889D01*
X167899876Y-115422225D01*
X167948963Y-115494223D01*
X167975152Y-115516888D01*
X168008959Y-115534488D01*
X168059479Y-115547660D01*
X168135804Y-115557043D01*
X168247029Y-115563274D01*
X168402248Y-115566992D01*
X168610556Y-115568836D01*
X168881045Y-115569442D01*
X169021408Y-115569482D01*
X169321992Y-115569216D01*
X169556412Y-115567993D01*
X169733762Y-115565174D01*
X169863134Y-115560122D01*
X169953624Y-115552198D01*
X170014325Y-115540764D01*
X170054332Y-115525182D01*
X170082738Y-115504813D01*
X170093852Y-115494223D01*
X170115849Y-115468900D01*
X170133090Y-115436232D01*
X170146152Y-115387463D01*
X170155613Y-115313840D01*
X170162050Y-115206607D01*
X170166040Y-115057011D01*
X170168161Y-114856296D01*
X170168990Y-114595710D01*
X170169112Y-114353078D01*
X170168999Y-114042357D01*
X170168218Y-113798103D01*
X170166100Y-113611527D01*
X170161978Y-113473836D01*
X170155186Y-113376240D01*
X170145056Y-113309947D01*
X170130921Y-113266166D01*
X170112115Y-113236107D01*
X170087969Y-113210978D01*
X170082020Y-113205375D01*
X170053151Y-113180572D01*
X170019607Y-113161365D01*
X169972083Y-113147039D01*
X169901276Y-113136879D01*
X169797879Y-113130171D01*
X169652590Y-113126199D01*
X169456103Y-113124251D01*
X169199114Y-113123610D01*
X169016671Y-113123556D01*
X168719314Y-113123821D01*
G37*
X168719314Y-113123821D02*
X168487952Y-113125062D01*
X168313321Y-113127949D01*
X168186157Y-113133153D01*
X168097197Y-113141344D01*
X168037176Y-113153191D01*
X167996831Y-113169366D01*
X167966898Y-113190537D01*
X167956059Y-113200281D01*
X167890142Y-113303808D01*
X167878272Y-113422762D01*
X167921635Y-113528367D01*
X167941686Y-113549710D01*
X167974117Y-113570404D01*
X168026335Y-113586368D01*
X168108025Y-113598379D01*
X168228869Y-113607215D01*
X168398551Y-113613651D01*
X168626754Y-113618464D01*
X168835389Y-113621394D01*
X169661112Y-113631556D01*
X169672397Y-113847926D01*
X169683682Y-114064297D01*
X169123192Y-114064297D01*
X168879862Y-114066396D01*
X168701722Y-114075177D01*
X168578758Y-114094364D01*
X168500959Y-114127681D01*
X168458313Y-114178854D01*
X168440807Y-114251605D01*
X168438149Y-114319126D01*
X168446411Y-114401974D01*
X168477590Y-114463021D01*
X168541276Y-114505457D01*
X168647059Y-114532471D01*
X168804529Y-114547255D01*
X169023276Y-114552997D01*
X169142670Y-114553482D01*
X169679926Y-114553482D01*
X169679926Y-115080297D01*
X168852074Y-115080297D01*
X168580710Y-115080675D01*
X168374472Y-115082372D01*
X168223228Y-115086233D01*
X168116846Y-115093101D01*
X168045196Y-115103822D01*
X167998144Y-115119239D01*
X167965559Y-115140196D01*
X167948963Y-115155556D01*
X167892033Y-115245202D01*
X167873704Y-115324889D01*
X167899876Y-115422225D01*
X167948963Y-115494223D01*
X167975152Y-115516888D01*
X168008959Y-115534488D01*
X168059479Y-115547660D01*
X168135804Y-115557043D01*
X168247029Y-115563274D01*
X168402248Y-115566992D01*
X168610556Y-115568836D01*
X168881045Y-115569442D01*
X169021408Y-115569482D01*
X169321992Y-115569216D01*
X169556412Y-115567993D01*
X169733762Y-115565174D01*
X169863134Y-115560122D01*
X169953624Y-115552198D01*
X170014325Y-115540764D01*
X170054332Y-115525182D01*
X170082738Y-115504813D01*
X170093852Y-115494223D01*
X170115849Y-115468900D01*
X170133090Y-115436232D01*
X170146152Y-115387463D01*
X170155613Y-115313840D01*
X170162050Y-115206607D01*
X170166040Y-115057011D01*
X170168161Y-114856296D01*
X170168990Y-114595710D01*
X170169112Y-114353078D01*
X170168999Y-114042357D01*
X170168218Y-113798103D01*
X170166100Y-113611527D01*
X170161978Y-113473836D01*
X170155186Y-113376240D01*
X170145056Y-113309947D01*
X170130921Y-113266166D01*
X170112115Y-113236107D01*
X170087969Y-113210978D01*
X170082020Y-113205375D01*
X170053151Y-113180572D01*
X170019607Y-113161365D01*
X169972083Y-113147039D01*
X169901276Y-113136879D01*
X169797879Y-113130171D01*
X169652590Y-113126199D01*
X169456103Y-113124251D01*
X169199114Y-113123610D01*
X169016671Y-113123556D01*
X168719314Y-113123821D01*
G36*
X173414571Y-113123553D02*
G01*
X173282963Y-113124891D01*
X172897333Y-113134195D01*
X172574369Y-113161834D01*
X172303064Y-113210773D01*
X172072410Y-113283975D01*
X171871400Y-113384407D01*
X171689027Y-113515033D01*
X171623888Y-113571775D01*
X171515834Y-113704544D01*
X171418400Y-113884709D01*
X171343304Y-114084412D01*
X171302264Y-114275797D01*
X171298000Y-114346519D01*
X171324722Y-114542565D01*
X171396331Y-114756709D01*
X171499997Y-114959403D01*
X171622887Y-115121099D01*
X171642848Y-115140608D01*
X171811928Y-115277737D01*
X171997083Y-115384782D01*
X172208987Y-115464550D01*
X172458314Y-115519844D01*
X172755740Y-115553469D01*
X173111938Y-115568231D01*
X173275093Y-115569482D01*
X173482539Y-115568483D01*
X173628425Y-115564307D01*
X173726438Y-115555181D01*
X173790264Y-115539337D01*
X173833591Y-115515003D01*
X173856815Y-115494223D01*
X173878751Y-115468979D01*
X173895959Y-115436413D01*
X173909010Y-115387801D01*
X173918477Y-115314420D01*
X173924932Y-115207546D01*
X173928947Y-115058454D01*
X173931093Y-114858421D01*
X173931943Y-114598723D01*
X173932074Y-114346519D01*
X173932903Y-114010138D01*
X173932724Y-113741422D01*
X173929523Y-113612741D01*
X173442889Y-113612741D01*
X173442889Y-115080297D01*
X173132445Y-115080012D01*
X172945643Y-115074655D01*
X172749996Y-115060853D01*
X172586760Y-115041548D01*
X172581794Y-115040752D01*
X172317971Y-114976967D01*
X172113341Y-114877625D01*
X171957684Y-114736260D01*
X171858783Y-114583203D01*
X171797844Y-114413419D01*
X171802569Y-114253999D01*
X171873292Y-114083111D01*
X172011629Y-113906329D01*
X172203327Y-113775332D01*
X172452499Y-113687771D01*
X172619025Y-113656783D01*
X172808054Y-113635022D01*
X173008397Y-113619272D01*
X173178796Y-113612724D01*
X173188889Y-113612693D01*
X173442889Y-113612741D01*
X173929523Y-113612741D01*
X173927534Y-113532838D01*
X173913327Y-113376851D01*
X173886100Y-113265927D01*
X173841852Y-113192532D01*
X173776578Y-113149131D01*
X173686276Y-113128190D01*
X173566941Y-113122176D01*
X173414571Y-113123553D01*
G37*
X173414571Y-113123553D02*
X173282963Y-113124891D01*
X172897333Y-113134195D01*
X172574369Y-113161834D01*
X172303064Y-113210773D01*
X172072410Y-113283975D01*
X171871400Y-113384407D01*
X171689027Y-113515033D01*
X171623888Y-113571775D01*
X171515834Y-113704544D01*
X171418400Y-113884709D01*
X171343304Y-114084412D01*
X171302264Y-114275797D01*
X171298000Y-114346519D01*
X171324722Y-114542565D01*
X171396331Y-114756709D01*
X171499997Y-114959403D01*
X171622887Y-115121099D01*
X171642848Y-115140608D01*
X171811928Y-115277737D01*
X171997083Y-115384782D01*
X172208987Y-115464550D01*
X172458314Y-115519844D01*
X172755740Y-115553469D01*
X173111938Y-115568231D01*
X173275093Y-115569482D01*
X173482539Y-115568483D01*
X173628425Y-115564307D01*
X173726438Y-115555181D01*
X173790264Y-115539337D01*
X173833591Y-115515003D01*
X173856815Y-115494223D01*
X173878751Y-115468979D01*
X173895959Y-115436413D01*
X173909010Y-115387801D01*
X173918477Y-115314420D01*
X173924932Y-115207546D01*
X173928947Y-115058454D01*
X173931093Y-114858421D01*
X173931943Y-114598723D01*
X173932074Y-114346519D01*
X173932903Y-114010138D01*
X173932724Y-113741422D01*
X173929523Y-113612741D01*
X173442889Y-113612741D01*
X173442889Y-115080297D01*
X173132445Y-115080012D01*
X172945643Y-115074655D01*
X172749996Y-115060853D01*
X172586760Y-115041548D01*
X172581794Y-115040752D01*
X172317971Y-114976967D01*
X172113341Y-114877625D01*
X171957684Y-114736260D01*
X171858783Y-114583203D01*
X171797844Y-114413419D01*
X171802569Y-114253999D01*
X171873292Y-114083111D01*
X172011629Y-113906329D01*
X172203327Y-113775332D01*
X172452499Y-113687771D01*
X172619025Y-113656783D01*
X172808054Y-113635022D01*
X173008397Y-113619272D01*
X173178796Y-113612724D01*
X173188889Y-113612693D01*
X173442889Y-113612741D01*
X173929523Y-113612741D01*
X173927534Y-113532838D01*
X173913327Y-113376851D01*
X173886100Y-113265927D01*
X173841852Y-113192532D01*
X173776578Y-113149131D01*
X173686276Y-113128190D01*
X173566941Y-113122176D01*
X173414571Y-113123553D01*
D14*
%TO.C,J3*%
X142320000Y-133540000D02*
X142120000Y-133540000D01*
X142520000Y-133740000D02*
X141920000Y-133740000D01*
X142720000Y-133940000D02*
X141720000Y-133940000D01*
X142820000Y-134140000D02*
X141620000Y-134140000D01*
X143020000Y-134340000D02*
X141420000Y-134340000D01*
X141220000Y-134540000D02*
X142220000Y-133340000D01*
X143220000Y-134540000D02*
X141220000Y-134540000D01*
X142220000Y-133340000D02*
X143220000Y-134540000D01*
%TO.C,J2*%
X157460000Y-74920000D02*
X158460000Y-76120000D01*
X158460000Y-76120000D02*
X156460000Y-76120000D01*
X156460000Y-76120000D02*
X157460000Y-74920000D01*
X158260000Y-75920000D02*
X156660000Y-75920000D01*
X158060000Y-75720000D02*
X156860000Y-75720000D01*
X157960000Y-75520000D02*
X156960000Y-75520000D01*
X157760000Y-75320000D02*
X157160000Y-75320000D01*
X157560000Y-75120000D02*
X157360000Y-75120000D01*
%TO.C,J3*%
D10*
X148353333Y-128992380D02*
X148353333Y-129706666D01*
X148400952Y-129849523D01*
X148496190Y-129944761D01*
X148639047Y-129992380D01*
X148734285Y-129992380D01*
X147972380Y-128992380D02*
X147353333Y-128992380D01*
X147686666Y-129373333D01*
X147543809Y-129373333D01*
X147448571Y-129420952D01*
X147400952Y-129468571D01*
X147353333Y-129563809D01*
X147353333Y-129801904D01*
X147400952Y-129897142D01*
X147448571Y-129944761D01*
X147543809Y-129992380D01*
X147829523Y-129992380D01*
X147924761Y-129944761D01*
X147972380Y-129897142D01*
%TO.C,J2*%
X163593333Y-70572380D02*
X163593333Y-71286666D01*
X163640952Y-71429523D01*
X163736190Y-71524761D01*
X163879047Y-71572380D01*
X163974285Y-71572380D01*
X163164761Y-70667619D02*
X163117142Y-70620000D01*
X163021904Y-70572380D01*
X162783809Y-70572380D01*
X162688571Y-70620000D01*
X162640952Y-70667619D01*
X162593333Y-70762857D01*
X162593333Y-70858095D01*
X162640952Y-71000952D01*
X163212380Y-71572380D01*
X162593333Y-71572380D01*
%TO.C,TP3*%
X187951904Y-84542380D02*
X187380476Y-84542380D01*
X187666190Y-85542380D02*
X187666190Y-84542380D01*
X187047142Y-85542380D02*
X187047142Y-84542380D01*
X186666190Y-84542380D01*
X186570952Y-84590000D01*
X186523333Y-84637619D01*
X186475714Y-84732857D01*
X186475714Y-84875714D01*
X186523333Y-84970952D01*
X186570952Y-85018571D01*
X186666190Y-85066190D01*
X187047142Y-85066190D01*
X186142380Y-84542380D02*
X185523333Y-84542380D01*
X185856666Y-84923333D01*
X185713809Y-84923333D01*
X185618571Y-84970952D01*
X185570952Y-85018571D01*
X185523333Y-85113809D01*
X185523333Y-85351904D01*
X185570952Y-85447142D01*
X185618571Y-85494761D01*
X185713809Y-85542380D01*
X185999523Y-85542380D01*
X186094761Y-85494761D01*
X186142380Y-85447142D01*
%TO.C,TP4*%
X187951904Y-87082380D02*
X187380476Y-87082380D01*
X187666190Y-88082380D02*
X187666190Y-87082380D01*
X187047142Y-88082380D02*
X187047142Y-87082380D01*
X186666190Y-87082380D01*
X186570952Y-87130000D01*
X186523333Y-87177619D01*
X186475714Y-87272857D01*
X186475714Y-87415714D01*
X186523333Y-87510952D01*
X186570952Y-87558571D01*
X186666190Y-87606190D01*
X187047142Y-87606190D01*
X185618571Y-87415714D02*
X185618571Y-88082380D01*
X185856666Y-87034761D02*
X186094761Y-87749047D01*
X185475714Y-87749047D01*
%TO.C,TP5*%
X119371904Y-94702380D02*
X118800476Y-94702380D01*
X119086190Y-95702380D02*
X119086190Y-94702380D01*
X118467142Y-95702380D02*
X118467142Y-94702380D01*
X118086190Y-94702380D01*
X117990952Y-94750000D01*
X117943333Y-94797619D01*
X117895714Y-94892857D01*
X117895714Y-95035714D01*
X117943333Y-95130952D01*
X117990952Y-95178571D01*
X118086190Y-95226190D01*
X118467142Y-95226190D01*
X116990952Y-94702380D02*
X117467142Y-94702380D01*
X117514761Y-95178571D01*
X117467142Y-95130952D01*
X117371904Y-95083333D01*
X117133809Y-95083333D01*
X117038571Y-95130952D01*
X116990952Y-95178571D01*
X116943333Y-95273809D01*
X116943333Y-95511904D01*
X116990952Y-95607142D01*
X117038571Y-95654761D01*
X117133809Y-95702380D01*
X117371904Y-95702380D01*
X117467142Y-95654761D01*
X117514761Y-95607142D01*
%TO.C,TP6*%
X119371904Y-97242380D02*
X118800476Y-97242380D01*
X119086190Y-98242380D02*
X119086190Y-97242380D01*
X118467142Y-98242380D02*
X118467142Y-97242380D01*
X118086190Y-97242380D01*
X117990952Y-97290000D01*
X117943333Y-97337619D01*
X117895714Y-97432857D01*
X117895714Y-97575714D01*
X117943333Y-97670952D01*
X117990952Y-97718571D01*
X118086190Y-97766190D01*
X118467142Y-97766190D01*
X117038571Y-97242380D02*
X117229047Y-97242380D01*
X117324285Y-97290000D01*
X117371904Y-97337619D01*
X117467142Y-97480476D01*
X117514761Y-97670952D01*
X117514761Y-98051904D01*
X117467142Y-98147142D01*
X117419523Y-98194761D01*
X117324285Y-98242380D01*
X117133809Y-98242380D01*
X117038571Y-98194761D01*
X116990952Y-98147142D01*
X116943333Y-98051904D01*
X116943333Y-97813809D01*
X116990952Y-97718571D01*
X117038571Y-97670952D01*
X117133809Y-97623333D01*
X117324285Y-97623333D01*
X117419523Y-97670952D01*
X117467142Y-97718571D01*
X117514761Y-97813809D01*
%TO.C,TP7*%
X187951904Y-89622380D02*
X187380476Y-89622380D01*
X187666190Y-90622380D02*
X187666190Y-89622380D01*
X187047142Y-90622380D02*
X187047142Y-89622380D01*
X186666190Y-89622380D01*
X186570952Y-89670000D01*
X186523333Y-89717619D01*
X186475714Y-89812857D01*
X186475714Y-89955714D01*
X186523333Y-90050952D01*
X186570952Y-90098571D01*
X186666190Y-90146190D01*
X187047142Y-90146190D01*
X186142380Y-89622380D02*
X185475714Y-89622380D01*
X185904285Y-90622380D01*
%TO.C,TP1*%
X119371904Y-99782380D02*
X118800476Y-99782380D01*
X119086190Y-100782380D02*
X119086190Y-99782380D01*
X118467142Y-100782380D02*
X118467142Y-99782380D01*
X118086190Y-99782380D01*
X117990952Y-99830000D01*
X117943333Y-99877619D01*
X117895714Y-99972857D01*
X117895714Y-100115714D01*
X117943333Y-100210952D01*
X117990952Y-100258571D01*
X118086190Y-100306190D01*
X118467142Y-100306190D01*
X116943333Y-100782380D02*
X117514761Y-100782380D01*
X117229047Y-100782380D02*
X117229047Y-99782380D01*
X117324285Y-99925238D01*
X117419523Y-100020476D01*
X117514761Y-100068095D01*
%TO.C,TP2*%
X119371904Y-102322380D02*
X118800476Y-102322380D01*
X119086190Y-103322380D02*
X119086190Y-102322380D01*
X118467142Y-103322380D02*
X118467142Y-102322380D01*
X118086190Y-102322380D01*
X117990952Y-102370000D01*
X117943333Y-102417619D01*
X117895714Y-102512857D01*
X117895714Y-102655714D01*
X117943333Y-102750952D01*
X117990952Y-102798571D01*
X118086190Y-102846190D01*
X118467142Y-102846190D01*
X117514761Y-102417619D02*
X117467142Y-102370000D01*
X117371904Y-102322380D01*
X117133809Y-102322380D01*
X117038571Y-102370000D01*
X116990952Y-102417619D01*
X116943333Y-102512857D01*
X116943333Y-102608095D01*
X116990952Y-102750952D01*
X117562380Y-103322380D01*
X116943333Y-103322380D01*
%TD*%
D12*
G36*
X160020000Y-133445663D02*
G01*
X152654000Y-133445663D01*
X152654000Y-123539663D01*
X160020000Y-123539663D01*
X160020000Y-133445663D01*
G37*
X160020000Y-133445663D02*
X152654000Y-133445663D01*
X152654000Y-123539663D01*
X160020000Y-123539663D01*
X160020000Y-133445663D01*
M02*
