M48
; DRILL file {KiCad (5.1.6)-1} date 09/26/20 09:59:47
; FORMAT={-:-/ absolute / inch / decimal}
; #@! TF.CreationDate,2020-09-26T09:59:47-05:00
; #@! TF.GenerationSoftware,Kicad,Pcbnew,(5.1.6)-1
FMAT,2
INCH
T1C0.0079
T2C0.0197
T3C0.0256
T4C0.0276
T5C0.0394
T6C0.0512
T7C0.0591
T8C0.0390
T9C0.0454
T10C0.0935
T11C0.1260
%
G90
G05
T1
X4.5299Y-3.61
X4.533Y-3.485
X4.534Y-3.356
X4.5409Y-4.689
X4.566Y-4.635
X4.5709Y-4.6929
X4.626Y-4.626
X4.632Y-4.072
X4.6611Y-4.005
X4.6662Y-4.635
X4.6732Y-4.5551
X4.69Y-4.6614
X4.7034Y-4.095
X4.709Y-3.591
X4.71Y-4.614
X4.711Y-3.671
X4.7272Y-4.0762
X4.732Y-3.917
X4.736Y-4.585
X4.7404Y-3.7392
X4.7598Y-4.0709
X4.763Y-3.916
X4.763Y-4.5504
X4.7781Y-4.9852
X4.7809Y-4.7508
X4.789Y-4.522
X4.79Y-3.73
X4.796Y-3.931
X4.812Y-4.251
X4.813Y-4.59
X4.815Y-3.99
X4.818Y-3.466
X4.828Y-5.0594
X4.83Y-3.95
X4.844Y-3.449
X4.8487Y-4.5925
X4.851Y-3.996
X4.861Y-3.279
X4.862Y-3.317
X4.863Y-3.473
X4.8669Y-4.5622
X4.873Y-3.82
X4.873Y-4.18
X4.874Y-3.977
X4.882Y-3.85
X4.883Y-4.2252
X4.892Y-3.444
X4.897Y-4.944
X4.8973Y-4.5557
X4.898Y-3.795
X4.92Y-4.92
X4.923Y-3.766
X4.929Y-4.545
X4.9352Y-3.2132
X4.942Y-4.895
X4.96Y-4.542
X4.96Y-4.87
X4.961Y-5.12
X4.962Y-3.471
X4.963Y-3.541
X4.9662Y-3.739
X4.9726Y-2.9395
X4.98Y-3.081
X4.983Y-4.848
X4.987Y-4.531
X4.9924Y-3.6814
X4.9924Y-4.9516
X4.9959Y-3.456
X4.999Y-5.1356
X5.005Y-4.4921
X5.0066Y-2.9923
X5.007Y-4.825
X5.0182Y-3.7076
X5.021Y-2.875
X5.024Y-3.4685
X5.028Y-3.435
X5.0298Y-3.2796
X5.03Y-4.461
X5.031Y-4.806
X5.0334Y-4.951
X5.042Y-3.1661
X5.0432Y-4.5948
X5.05Y-3.32
X5.0523Y-4.782
X5.058Y-3.609
X5.063Y-4.95
X5.065Y-5.136
X5.0669Y-3.2244
X5.0848Y-3.9324
X5.0944Y-5.1156
X5.0948Y-4.9494
X5.0967Y-4.4347
X5.098Y-3.9768
X5.102Y-3.611
X5.108Y-3.22
X5.1134Y-4.0142
X5.118Y-3.64
X5.122Y-4.5985
X5.123Y-3.395
X5.1252Y-3.3472
X5.128Y-5.1104
X5.132Y-3.573
X5.136Y-3.229
X5.1416Y-4.3166
X5.146Y-4.627
X5.1535Y-5.0591
X5.156Y-4.472
X5.156Y-3.0827
X5.158Y-5.134
X5.1742Y-4.6066
X5.185Y-5.0756
X5.1852Y-4.9502
X5.1922Y-3.1813
X5.203Y-4.745
X5.2159Y-3.2519
X5.2205Y-4.6732
X5.221Y-5.071
X5.222Y-5.128
X5.2244Y-3.6929
X5.235Y-3.729
X5.247Y-4.7
X5.251Y-5.136
X5.2525Y-4.9529
X5.269Y-4.209
X5.273Y-3.568
X5.276Y-3.242
X5.28Y-4.726
X5.282Y-5.067
X5.283Y-5.132
X5.287Y-4.461
X5.289Y-3.368
X5.2909Y-3.6854
X5.314Y-3.198
X5.317Y-4.627
X5.318Y-4.226
X5.318Y-5.128
X5.319Y-5.066
X5.3228Y-4.1811
X5.3239Y-3.6919
X5.3479Y-4.7018
X5.348Y-5.137
X5.3535Y-4.268
X5.355Y-4.298
X5.356Y-3.044
X5.356Y-3.315
X5.3622Y-4.2244
X5.366Y-3.547
X5.374Y-3.286
X5.379Y-5.067
X5.381Y-5.131
X5.3937Y-4.8386
X5.394Y-3.526
X5.411Y-5.13
X5.417Y-4.938
X5.421Y-4.51
X5.422Y-3.512
X5.4248Y-4.8289
X5.427Y-4.903
X5.436Y-4.595
X5.4409Y-5.0669
X5.442Y-5.133
X5.446Y-2.911
X5.446Y-3.494
X5.4488Y-4.4843
X5.4646Y-4.4449
X5.4655Y-4.5875
X5.47Y-3.477
X5.475Y-4.918
X5.475Y-5.124
X5.476Y-3.029
X5.485Y-3.0
X5.4882Y-4.6614
X5.4921Y-4.4764
X5.4961Y-3.458
X5.499Y-2.673
X5.5Y-4.5787
X5.505Y-5.128
X5.506Y-2.912
X5.5127Y-4.43
X5.52Y-3.411
X5.52Y-4.907
X5.521Y-3.207
X5.522Y-2.763
X5.522Y-3.441
X5.523Y-4.557
X5.524Y-3.013
X5.527Y-3.237
X5.529Y-3.267
X5.534Y-3.296
X5.535Y-5.134
X5.5359Y-4.9492
X5.5394Y-3.3268
X5.5535Y-4.918
X5.5551Y-3.0
X5.5591Y-4.5866
X5.565Y-2.837
X5.568Y-5.136
X5.5748Y-4.8346
X5.577Y-2.903
X5.5787Y-3.0736
X5.5787Y-4.7717
X5.5827Y-4.563
X5.585Y-3.439
X5.5969Y-4.8563
X5.605Y-4.471
X5.6063Y-4.5394
X5.619Y-3.456
X5.626Y-4.45
X5.627Y-5.195
X5.633Y-2.964
X5.633Y-4.521
X5.636Y-5.062
X5.644Y-4.702
X5.6457Y-4.7323
X5.652Y-3.043
X5.654Y-3.467
X5.663Y-2.948
X5.664Y-2.6489
X5.677Y-4.935
X5.6772Y-4.7913
X5.679Y-4.985
X5.6811Y-4.7598
X5.684Y-3.475
X5.689Y-5.017
X5.695Y-2.77
X5.696Y-2.961
X5.6969Y-3.5866
X5.699Y-3.011
X5.7019Y-4.7253
X5.7085Y-4.6816
X5.7091Y-4.8128
X5.7177Y-3.2163
X5.724Y-2.832
X5.725Y-2.772
X5.727Y-2.956
X5.727Y-3.271
X5.732Y-3.032
X5.734Y-3.597
X5.746Y-3.744
X5.755Y-4.314
X5.7554Y-4.5293
X5.757Y-2.949
X5.758Y-2.651
X5.76Y-3.611
X5.7616Y-4.5633
X5.762Y-4.284
X5.773Y-3.164
X5.778Y-3.742
X5.779Y-4.255
X5.785Y-3.63
X5.789Y-2.772
X5.79Y-3.194
X5.791Y-4.59
X5.81Y-3.74
X5.818Y-4.534
X5.822Y-2.772
X5.842Y-3.739
X5.845Y-3.097
X5.848Y-4.031
X5.852Y-2.651
X5.8521Y-2.952
X5.853Y-4.548
X5.874Y-4.202
X5.875Y-3.635
X5.876Y-4.232
X5.881Y-3.423
X5.8819Y-3.3228
X5.883Y-4.812
X5.884Y-2.953
X5.884Y-4.56
X5.885Y-2.767
X5.888Y-5.034
X5.893Y-4.026
X5.898Y-3.655
X5.9021Y-3.094
X5.9066Y-3.2584
X5.908Y-4.374
X5.909Y-4.937
X5.912Y-4.983
X5.914Y-3.689
X5.916Y-2.771
X5.917Y-4.217
X5.9185Y-3.4145
X5.919Y-4.772
X5.9263Y-3.2997
X5.933Y-4.346
X5.934Y-4.725
X5.936Y-3.234
X5.948Y-2.65
X5.948Y-2.831
X5.95Y-3.687
X5.9564Y-3.2776
X5.957Y-4.745
X5.9625Y-4.3649
X5.974Y-3.216
X5.978Y-3.864
X5.98Y-2.775
X5.987Y-4.082
X5.989Y-2.969
X5.989Y-4.751
X5.991Y-4.433
X5.9914Y-3.2566
X5.994Y-3.167
X5.994Y-3.839
X5.9961Y-3.1969
X5.999Y-3.1339
X6.0Y-4.511
X6.006Y-3.927
X6.009Y-2.778
X6.01Y-2.648
X6.01Y-4.956
X6.019Y-4.756
X6.02Y-2.97
X6.02Y-3.561
X6.031Y-3.903
X6.041Y-2.768
X6.0411Y-2.6489
X6.043Y-4.886
X6.0433Y-2.9449
X6.051Y-3.866
X6.0556Y-3.5536
X6.066Y-4.228
X6.0666Y-3.014
X6.072Y-2.653
X6.072Y-3.925
X6.0756Y-3.482
X6.0827Y-3.1299
X6.0906Y-3.9528
X6.093Y-4.059
X6.0994Y-3.019
X6.1Y-4.311
X6.105Y-2.957
X6.1075Y-4.2123
X6.112Y-3.924
X6.115Y-4.164
X6.124Y-3.035
X6.1339Y-3.9528
X6.135Y-2.951
X6.135Y-4.646
X6.1405Y-2.6489
X6.1535Y-3.046
X6.1542Y-3.1772
X6.1568Y-3.2093
X6.158Y-3.9291
X6.166Y-2.998
X6.167Y-4.246
X6.168Y-2.7651
X6.169Y-2.955
X6.169Y-4.496
X6.1732Y-3.2402
X6.175Y-3.977
X6.18Y-3.906
X6.181Y-4.65
X6.186Y-4.765
X6.188Y-3.728
X6.189Y-3.937
X6.203Y-2.78
X6.2087Y-3.125
X6.2126Y-3.185
X6.214Y-4.066
X6.2165Y-3.9213
X6.2222Y-4.1169
X6.229Y-3.153
X6.234Y-4.391
X6.238Y-2.921
X6.238Y-3.736
X6.242Y-3.272
X6.2441Y-3.0787
X6.248Y-3.9173
X6.249Y-3.657
X6.252Y-4.285
X6.253Y-4.325
X6.255Y-3.227
X6.256Y-4.139
X6.261Y-3.105
X6.27Y-4.014
X6.2717Y-2.9055
X6.281Y-3.198
X6.286Y-4.201
X6.321Y-3.047
X6.322Y-3.112
X6.323Y-3.078
X6.3235Y-4.0046
X6.324Y-3.143
X6.325Y-3.014
X6.341Y-3.549
X6.3411Y-4.9219
X6.35Y-4.029
X6.365Y-3.327
X6.382Y-3.211
X6.3919Y-3.4805
X6.4Y-3.169
X6.409Y-4.685
X6.417Y-3.124
X6.419Y-3.381
X6.421Y-4.952
X6.425Y-3.737
X6.43Y-3.481
X6.431Y-2.88
X6.443Y-4.979
X6.4567Y-3.7598
X6.457Y-2.898
X6.461Y-3.402
X6.475Y-4.87
X6.4921Y-3.7756
X6.494Y-2.919
X6.5Y-3.271
X6.501Y-3.34
X6.5082Y-3.653
X6.512Y-2.857
X6.516Y-3.477
X6.535Y-3.6732
X6.542Y-3.149
X6.5472Y-2.856
X6.5472Y-3.4803
X6.5472Y-3.7126
X6.5512Y-3.7874
X6.558Y-3.508
X6.564Y-3.687
X6.564Y-4.839
X6.574Y-4.335
X6.5748Y-4.2126
X6.575Y-2.837
X6.585Y-4.272
X6.5866Y-3.7795
X6.5906Y-3.7165
X6.5934Y-3.4821
X6.594Y-2.872
X6.605Y-4.334
X6.6063Y-4.2165
X6.609Y-4.249
X6.6142Y-2.8189
X6.622Y-3.744
X6.623Y-3.882
X6.625Y-3.81
X6.625Y-3.8391
X6.6299Y-3.482
X6.6299Y-4.5945
X6.638Y-4.338
X6.648Y-3.861
X6.649Y-3.9
X6.6523Y-4.3687
X6.6532Y-4.1999
X6.6536Y-4.0782
X6.6541Y-3.5699
X6.6547Y-4.3082
X6.655Y-3.6876
X6.6552Y-3.5078
X6.66Y-2.821
X6.6614Y-3.8079
X6.662Y-3.325
X6.662Y-3.374
X6.662Y-3.936
X6.664Y-3.27
X6.68Y-3.961
X6.684Y-2.839
X6.689Y-3.7756
X6.689Y-4.791
X6.693Y-4.89
X6.71Y-3.401
X6.716Y-3.272
X6.7179Y-4.3327
X6.7243Y-3.7749
X6.7253Y-3.4763
X6.7257Y-3.7191
X6.7259Y-4.1081
X6.7261Y-4.2286
X6.7264Y-3.5996
X6.7272Y-4.3982
X6.741Y-3.401
X6.75Y-2.918
X6.755Y-3.271
X6.772Y-2.824
X6.787Y-3.201
X6.79Y-3.015
X6.808Y-2.853
X6.813Y-4.832
X6.838Y-4.992
X6.8583Y-2.8386
X6.8708Y-3.6239
X6.8765Y-4.2524
X6.8777Y-3.7398
X6.878Y-4.1353
X6.888Y-2.922
X6.89Y-4.624
X6.891Y-4.771
X6.892Y-3.054
X6.897Y-3.129
X6.8976Y-3.4646
X6.9173Y-3.437
X6.926Y-4.624
X6.928Y-4.654
X6.929Y-4.688
X6.937Y-3.4094
X6.94Y-4.918
X6.9567Y-3.3819
X6.961Y-4.624
X6.962Y-4.656
X6.963Y-4.689
X6.9651Y-4.4371
X6.979Y-3.356
X6.989Y-4.231
X6.991Y-4.271
X6.993Y-4.982
X6.995Y-4.301
X6.995Y-4.85
X7.0079Y-4.1654
X7.0088Y-3.8951
X7.009Y-3.519
X7.01Y-3.557
X7.01Y-3.59
X7.01Y-3.621
X7.01Y-3.691
X7.011Y-3.654
X7.012Y-2.908
X7.012Y-3.724
X7.013Y-3.757
X7.014Y-3.799
X7.015Y-3.863
X7.0152Y-3.8312
X7.0197Y-4.329
X7.0354Y-3.21
X7.04Y-4.917
X7.046Y-4.084
X7.046Y-4.135
X7.05Y-4.171
X7.0552Y-3.9988
X7.057Y-4.056
X7.069Y-3.058
X7.069Y-4.116
X7.0737Y-4.4371
X7.0748Y-3.211
X7.085Y-4.853
X7.087Y-4.98
X7.0906Y-4.0157
X7.099Y-3.855
X7.109Y-2.932
X7.132Y-4.919
X7.1339Y-3.209
X7.134Y-3.419
X7.135Y-3.896
X7.141Y-3.852
X7.1693Y-3.2087
X7.1947Y-3.683
X7.1956Y-3.5233
X7.198Y-3.5639
X7.249Y-3.113
X7.265Y-4.83
X7.267Y-4.984
X7.299Y-3.419
X7.314Y-4.194
X7.316Y-3.801
X7.316Y-4.313
X7.318Y-4.076
X7.319Y-4.352
X7.3463Y-3.5836
X7.3464Y-4.092
X7.3468Y-4.2904
X7.3483Y-3.772
X7.4173Y-3.6177
X7.4174Y-4.2571
X7.4185Y-3.7375
X7.4195Y-4.1253
X7.429Y-3.246
X7.466Y-3.126
X7.466Y-3.1575
X7.466Y-3.187
T2
X7.45Y-3.45
X4.55Y-4.05
X4.55Y-3.95
X7.45Y-3.55
X4.55Y-3.85
X4.55Y-3.75
X7.45Y-3.35
T4
X4.5825Y-4.2675
X4.5825Y-4.3175
X4.5825Y-4.3675
X4.5825Y-4.4175
X4.5825Y-4.4675
X4.5825Y-4.5175
X4.5825Y-4.5675
X4.6325Y-4.2675
X4.6325Y-4.3175
X4.6325Y-4.3675
X4.6325Y-4.4175
X4.6325Y-4.4675
X4.6325Y-4.5175
X4.6325Y-4.5675
T5
X7.4Y-4.66
X7.4Y-4.76
T6
X4.87Y-2.72
T7
X5.793Y-4.96
T8
X6.59Y-4.64
X6.63Y-5.04
X6.67Y-4.64
T9
X7.15Y-2.7
X7.07Y-5.07
X5.12Y-2.75
T10
X6.53Y-4.715
X6.53Y-5.04
X6.73Y-4.715
X6.73Y-5.04
T11
X7.35Y-2.75
X4.65Y-2.75
X4.65Y-5.15
X7.35Y-5.15
T3
G00X4.6763Y-2.9965
M15
G01X4.6921Y-2.9965
M16
G05
G00X4.6763Y-3.187
M15
G01X4.6921Y-3.187
M16
G05
T4
G00X4.5563Y-2.9843
M15
G01X4.5759Y-2.9843
M16
G05
G00X4.5563Y-3.1992
M15
G01X4.5759Y-3.1992
M16
G05
T0
M30
