%TF.GenerationSoftware,KiCad,Pcbnew,(5.1.6)-1*%
%TF.CreationDate,2020-09-25T10:07:23-05:00*%
%TF.ProjectId,customDisplay,63757374-6f6d-4446-9973-706c61792e6b,rev?*%
%TF.SameCoordinates,Original*%
%TF.FileFunction,Legend,Bot*%
%TF.FilePolarity,Positive*%
%FSLAX46Y46*%
G04 Gerber Fmt 4.6, Leading zero omitted, Abs format (unit mm)*
G04 Created by KiCad (PCBNEW (5.1.6)-1) date 2020-09-25 10:07:23*
%MOMM*%
%LPD*%
G01*
G04 APERTURE LIST*
%ADD10C,0.150000*%
%ADD11C,0.508000*%
%ADD12C,0.254000*%
%ADD13C,0.010000*%
%ADD14C,0.200000*%
G04 APERTURE END LIST*
D10*
X125999523Y-103449333D02*
X126047142Y-103401714D01*
X126142380Y-103258857D01*
X126190000Y-103163619D01*
X126237619Y-103020761D01*
X126285238Y-102782666D01*
X126285238Y-102592190D01*
X126237619Y-102354095D01*
X126190000Y-102211238D01*
X126142380Y-102116000D01*
X126047142Y-101973142D01*
X125999523Y-101925523D01*
X125761428Y-102068380D02*
X125428095Y-103068380D01*
X125094761Y-102068380D01*
X124190000Y-102973142D02*
X124237619Y-103020761D01*
X124380476Y-103068380D01*
X124475714Y-103068380D01*
X124618571Y-103020761D01*
X124713809Y-102925523D01*
X124761428Y-102830285D01*
X124809047Y-102639809D01*
X124809047Y-102496952D01*
X124761428Y-102306476D01*
X124713809Y-102211238D01*
X124618571Y-102116000D01*
X124475714Y-102068380D01*
X124380476Y-102068380D01*
X124237619Y-102116000D01*
X124190000Y-102163619D01*
X123761428Y-103068380D02*
X123761428Y-102068380D01*
X123380476Y-102068380D01*
X123285238Y-102116000D01*
X123237619Y-102163619D01*
X123190000Y-102258857D01*
X123190000Y-102401714D01*
X123237619Y-102496952D01*
X123285238Y-102544571D01*
X123380476Y-102592190D01*
X123761428Y-102592190D01*
X122142380Y-102068380D02*
X121570952Y-102068380D01*
X121856666Y-103068380D02*
X121856666Y-102068380D01*
X121332857Y-102068380D02*
X120666190Y-103068380D01*
X120666190Y-102068380D02*
X121332857Y-103068380D01*
X120380476Y-103449333D02*
X120332857Y-103401714D01*
X120237619Y-103258857D01*
X120190000Y-103163619D01*
X120142380Y-103020761D01*
X120094761Y-102782666D01*
X120094761Y-102592190D01*
X120142380Y-102354095D01*
X120190000Y-102211238D01*
X120237619Y-102116000D01*
X120332857Y-101973142D01*
X120380476Y-101925523D01*
X126118571Y-101163333D02*
X126166190Y-101115714D01*
X126261428Y-100972857D01*
X126309047Y-100877619D01*
X126356666Y-100734761D01*
X126404285Y-100496666D01*
X126404285Y-100306190D01*
X126356666Y-100068095D01*
X126309047Y-99925238D01*
X126261428Y-99830000D01*
X126166190Y-99687142D01*
X126118571Y-99639523D01*
X125880476Y-99782380D02*
X125547142Y-100782380D01*
X125213809Y-99782380D01*
X124309047Y-100687142D02*
X124356666Y-100734761D01*
X124499523Y-100782380D01*
X124594761Y-100782380D01*
X124737619Y-100734761D01*
X124832857Y-100639523D01*
X124880476Y-100544285D01*
X124928095Y-100353809D01*
X124928095Y-100210952D01*
X124880476Y-100020476D01*
X124832857Y-99925238D01*
X124737619Y-99830000D01*
X124594761Y-99782380D01*
X124499523Y-99782380D01*
X124356666Y-99830000D01*
X124309047Y-99877619D01*
X123880476Y-100782380D02*
X123880476Y-99782380D01*
X123499523Y-99782380D01*
X123404285Y-99830000D01*
X123356666Y-99877619D01*
X123309047Y-99972857D01*
X123309047Y-100115714D01*
X123356666Y-100210952D01*
X123404285Y-100258571D01*
X123499523Y-100306190D01*
X123880476Y-100306190D01*
X121547142Y-100782380D02*
X121880476Y-100306190D01*
X122118571Y-100782380D02*
X122118571Y-99782380D01*
X121737619Y-99782380D01*
X121642380Y-99830000D01*
X121594761Y-99877619D01*
X121547142Y-99972857D01*
X121547142Y-100115714D01*
X121594761Y-100210952D01*
X121642380Y-100258571D01*
X121737619Y-100306190D01*
X122118571Y-100306190D01*
X121213809Y-99782380D02*
X120547142Y-100782380D01*
X120547142Y-99782380D02*
X121213809Y-100782380D01*
X120261428Y-101163333D02*
X120213809Y-101115714D01*
X120118571Y-100972857D01*
X120070952Y-100877619D01*
X120023333Y-100734761D01*
X119975714Y-100496666D01*
X119975714Y-100306190D01*
X120023333Y-100068095D01*
X120070952Y-99925238D01*
X120118571Y-99830000D01*
X120213809Y-99687142D01*
X120261428Y-99639523D01*
X126126666Y-98623333D02*
X126174285Y-98575714D01*
X126269523Y-98432857D01*
X126317142Y-98337619D01*
X126364761Y-98194761D01*
X126412380Y-97956666D01*
X126412380Y-97766190D01*
X126364761Y-97528095D01*
X126317142Y-97385238D01*
X126269523Y-97290000D01*
X126174285Y-97147142D01*
X126126666Y-97099523D01*
X125221904Y-97290000D02*
X125317142Y-97242380D01*
X125460000Y-97242380D01*
X125602857Y-97290000D01*
X125698095Y-97385238D01*
X125745714Y-97480476D01*
X125793333Y-97670952D01*
X125793333Y-97813809D01*
X125745714Y-98004285D01*
X125698095Y-98099523D01*
X125602857Y-98194761D01*
X125460000Y-98242380D01*
X125364761Y-98242380D01*
X125221904Y-98194761D01*
X125174285Y-98147142D01*
X125174285Y-97813809D01*
X125364761Y-97813809D01*
X124745714Y-98242380D02*
X124745714Y-97242380D01*
X124174285Y-98242380D01*
X124174285Y-97242380D01*
X123698095Y-98242380D02*
X123698095Y-97242380D01*
X123460000Y-97242380D01*
X123317142Y-97290000D01*
X123221904Y-97385238D01*
X123174285Y-97480476D01*
X123126666Y-97670952D01*
X123126666Y-97813809D01*
X123174285Y-98004285D01*
X123221904Y-98099523D01*
X123317142Y-98194761D01*
X123460000Y-98242380D01*
X123698095Y-98242380D01*
X122793333Y-98623333D02*
X122745714Y-98575714D01*
X122650476Y-98432857D01*
X122602857Y-98337619D01*
X122555238Y-98194761D01*
X122507619Y-97956666D01*
X122507619Y-97766190D01*
X122555238Y-97528095D01*
X122602857Y-97385238D01*
X122650476Y-97290000D01*
X122745714Y-97147142D01*
X122793333Y-97099523D01*
X126031428Y-96083333D02*
X126079047Y-96035714D01*
X126174285Y-95892857D01*
X126221904Y-95797619D01*
X126269523Y-95654761D01*
X126317142Y-95416666D01*
X126317142Y-95226190D01*
X126269523Y-94988095D01*
X126221904Y-94845238D01*
X126174285Y-94750000D01*
X126079047Y-94607142D01*
X126031428Y-94559523D01*
X125793333Y-94702380D02*
X125460000Y-95702380D01*
X125126666Y-94702380D01*
X124793333Y-95702380D02*
X124793333Y-94702380D01*
X124555238Y-94702380D01*
X124412380Y-94750000D01*
X124317142Y-94845238D01*
X124269523Y-94940476D01*
X124221904Y-95130952D01*
X124221904Y-95273809D01*
X124269523Y-95464285D01*
X124317142Y-95559523D01*
X124412380Y-95654761D01*
X124555238Y-95702380D01*
X124793333Y-95702380D01*
X123793333Y-95702380D02*
X123793333Y-94702380D01*
X123555238Y-94702380D01*
X123412380Y-94750000D01*
X123317142Y-94845238D01*
X123269523Y-94940476D01*
X123221904Y-95130952D01*
X123221904Y-95273809D01*
X123269523Y-95464285D01*
X123317142Y-95559523D01*
X123412380Y-95654761D01*
X123555238Y-95702380D01*
X123793333Y-95702380D01*
X122888571Y-96083333D02*
X122840952Y-96035714D01*
X122745714Y-95892857D01*
X122698095Y-95797619D01*
X122650476Y-95654761D01*
X122602857Y-95416666D01*
X122602857Y-95226190D01*
X122650476Y-94988095D01*
X122698095Y-94845238D01*
X122745714Y-94750000D01*
X122840952Y-94607142D01*
X122888571Y-94559523D01*
X184546666Y-91003333D02*
X184594285Y-90955714D01*
X184689523Y-90812857D01*
X184737142Y-90717619D01*
X184784761Y-90574761D01*
X184832380Y-90336666D01*
X184832380Y-90146190D01*
X184784761Y-89908095D01*
X184737142Y-89765238D01*
X184689523Y-89670000D01*
X184594285Y-89527142D01*
X184546666Y-89479523D01*
X183641904Y-89670000D02*
X183737142Y-89622380D01*
X183880000Y-89622380D01*
X184022857Y-89670000D01*
X184118095Y-89765238D01*
X184165714Y-89860476D01*
X184213333Y-90050952D01*
X184213333Y-90193809D01*
X184165714Y-90384285D01*
X184118095Y-90479523D01*
X184022857Y-90574761D01*
X183880000Y-90622380D01*
X183784761Y-90622380D01*
X183641904Y-90574761D01*
X183594285Y-90527142D01*
X183594285Y-90193809D01*
X183784761Y-90193809D01*
X183165714Y-90622380D02*
X183165714Y-89622380D01*
X182594285Y-90622380D01*
X182594285Y-89622380D01*
X182118095Y-90622380D02*
X182118095Y-89622380D01*
X181880000Y-89622380D01*
X181737142Y-89670000D01*
X181641904Y-89765238D01*
X181594285Y-89860476D01*
X181546666Y-90050952D01*
X181546666Y-90193809D01*
X181594285Y-90384285D01*
X181641904Y-90479523D01*
X181737142Y-90574761D01*
X181880000Y-90622380D01*
X182118095Y-90622380D01*
X181213333Y-91003333D02*
X181165714Y-90955714D01*
X181070476Y-90812857D01*
X181022857Y-90717619D01*
X180975238Y-90574761D01*
X180927619Y-90336666D01*
X180927619Y-90146190D01*
X180975238Y-89908095D01*
X181022857Y-89765238D01*
X181070476Y-89670000D01*
X181165714Y-89527142D01*
X181213333Y-89479523D01*
X184498857Y-85923333D02*
X184546476Y-85875714D01*
X184641714Y-85732857D01*
X184689333Y-85637619D01*
X184736952Y-85494761D01*
X184784571Y-85256666D01*
X184784571Y-85066190D01*
X184736952Y-84828095D01*
X184689333Y-84685238D01*
X184641714Y-84590000D01*
X184546476Y-84447142D01*
X184498857Y-84399523D01*
X184117904Y-85542380D02*
X184117904Y-84542380D01*
X183689333Y-84637619D02*
X183641714Y-84590000D01*
X183546476Y-84542380D01*
X183308380Y-84542380D01*
X183213142Y-84590000D01*
X183165523Y-84637619D01*
X183117904Y-84732857D01*
X183117904Y-84828095D01*
X183165523Y-84970952D01*
X183736952Y-85542380D01*
X183117904Y-85542380D01*
X182117904Y-85447142D02*
X182165523Y-85494761D01*
X182308380Y-85542380D01*
X182403619Y-85542380D01*
X182546476Y-85494761D01*
X182641714Y-85399523D01*
X182689333Y-85304285D01*
X182736952Y-85113809D01*
X182736952Y-84970952D01*
X182689333Y-84780476D01*
X182641714Y-84685238D01*
X182546476Y-84590000D01*
X182403619Y-84542380D01*
X182308380Y-84542380D01*
X182165523Y-84590000D01*
X182117904Y-84637619D01*
X180975047Y-85494761D02*
X180832190Y-85542380D01*
X180594095Y-85542380D01*
X180498857Y-85494761D01*
X180451238Y-85447142D01*
X180403619Y-85351904D01*
X180403619Y-85256666D01*
X180451238Y-85161428D01*
X180498857Y-85113809D01*
X180594095Y-85066190D01*
X180784571Y-85018571D01*
X180879809Y-84970952D01*
X180927428Y-84923333D01*
X180975047Y-84828095D01*
X180975047Y-84732857D01*
X180927428Y-84637619D01*
X180879809Y-84590000D01*
X180784571Y-84542380D01*
X180546476Y-84542380D01*
X180403619Y-84590000D01*
X179975047Y-85542380D02*
X179975047Y-84542380D01*
X179736952Y-84542380D01*
X179594095Y-84590000D01*
X179498857Y-84685238D01*
X179451238Y-84780476D01*
X179403619Y-84970952D01*
X179403619Y-85113809D01*
X179451238Y-85304285D01*
X179498857Y-85399523D01*
X179594095Y-85494761D01*
X179736952Y-85542380D01*
X179975047Y-85542380D01*
X179022666Y-85256666D02*
X178546476Y-85256666D01*
X179117904Y-85542380D02*
X178784571Y-84542380D01*
X178451238Y-85542380D01*
X178213142Y-85923333D02*
X178165523Y-85875714D01*
X178070285Y-85732857D01*
X178022666Y-85637619D01*
X177975047Y-85494761D01*
X177927428Y-85256666D01*
X177927428Y-85066190D01*
X177975047Y-84828095D01*
X178022666Y-84685238D01*
X178070285Y-84590000D01*
X178165523Y-84447142D01*
X178213142Y-84399523D01*
X184475047Y-88463333D02*
X184522666Y-88415714D01*
X184617904Y-88272857D01*
X184665523Y-88177619D01*
X184713142Y-88034761D01*
X184760761Y-87796666D01*
X184760761Y-87606190D01*
X184713142Y-87368095D01*
X184665523Y-87225238D01*
X184617904Y-87130000D01*
X184522666Y-86987142D01*
X184475047Y-86939523D01*
X184094095Y-88082380D02*
X184094095Y-87082380D01*
X183665523Y-87177619D02*
X183617904Y-87130000D01*
X183522666Y-87082380D01*
X183284571Y-87082380D01*
X183189333Y-87130000D01*
X183141714Y-87177619D01*
X183094095Y-87272857D01*
X183094095Y-87368095D01*
X183141714Y-87510952D01*
X183713142Y-88082380D01*
X183094095Y-88082380D01*
X182094095Y-87987142D02*
X182141714Y-88034761D01*
X182284571Y-88082380D01*
X182379809Y-88082380D01*
X182522666Y-88034761D01*
X182617904Y-87939523D01*
X182665523Y-87844285D01*
X182713142Y-87653809D01*
X182713142Y-87510952D01*
X182665523Y-87320476D01*
X182617904Y-87225238D01*
X182522666Y-87130000D01*
X182379809Y-87082380D01*
X182284571Y-87082380D01*
X182141714Y-87130000D01*
X182094095Y-87177619D01*
X180951238Y-88034761D02*
X180808380Y-88082380D01*
X180570285Y-88082380D01*
X180475047Y-88034761D01*
X180427428Y-87987142D01*
X180379809Y-87891904D01*
X180379809Y-87796666D01*
X180427428Y-87701428D01*
X180475047Y-87653809D01*
X180570285Y-87606190D01*
X180760761Y-87558571D01*
X180856000Y-87510952D01*
X180903619Y-87463333D01*
X180951238Y-87368095D01*
X180951238Y-87272857D01*
X180903619Y-87177619D01*
X180856000Y-87130000D01*
X180760761Y-87082380D01*
X180522666Y-87082380D01*
X180379809Y-87130000D01*
X179379809Y-87987142D02*
X179427428Y-88034761D01*
X179570285Y-88082380D01*
X179665523Y-88082380D01*
X179808380Y-88034761D01*
X179903619Y-87939523D01*
X179951238Y-87844285D01*
X179998857Y-87653809D01*
X179998857Y-87510952D01*
X179951238Y-87320476D01*
X179903619Y-87225238D01*
X179808380Y-87130000D01*
X179665523Y-87082380D01*
X179570285Y-87082380D01*
X179427428Y-87130000D01*
X179379809Y-87177619D01*
X178475047Y-88082380D02*
X178951238Y-88082380D01*
X178951238Y-87082380D01*
X178236952Y-88463333D02*
X178189333Y-88415714D01*
X178094095Y-88272857D01*
X178046476Y-88177619D01*
X177998857Y-88034761D01*
X177951238Y-87796666D01*
X177951238Y-87606190D01*
X177998857Y-87368095D01*
X178046476Y-87225238D01*
X178094095Y-87130000D01*
X178189333Y-86987142D01*
X178236952Y-86939523D01*
X185673952Y-120975428D02*
X184912047Y-120975428D01*
X185673952Y-118435428D02*
X184912047Y-118435428D01*
X185293000Y-118816380D02*
X185293000Y-118054476D01*
D11*
X178428952Y-81594476D02*
X178138666Y-81691238D01*
X177654857Y-81691238D01*
X177461333Y-81594476D01*
X177364571Y-81497714D01*
X177267809Y-81304190D01*
X177267809Y-81110666D01*
X177364571Y-80917142D01*
X177461333Y-80820380D01*
X177654857Y-80723619D01*
X178041904Y-80626857D01*
X178235428Y-80530095D01*
X178332190Y-80433333D01*
X178428952Y-80239809D01*
X178428952Y-80046285D01*
X178332190Y-79852761D01*
X178235428Y-79756000D01*
X178041904Y-79659238D01*
X177558095Y-79659238D01*
X177267809Y-79756000D01*
X176687238Y-79659238D02*
X175526095Y-79659238D01*
X176106666Y-81691238D02*
X176106666Y-79659238D01*
X174848761Y-81691238D02*
X174848761Y-79659238D01*
X174171428Y-81110666D01*
X173494095Y-79659238D01*
X173494095Y-81691238D01*
X172720000Y-79659238D02*
X171462095Y-79659238D01*
X172139428Y-80433333D01*
X171849142Y-80433333D01*
X171655619Y-80530095D01*
X171558857Y-80626857D01*
X171462095Y-80820380D01*
X171462095Y-81304190D01*
X171558857Y-81497714D01*
X171655619Y-81594476D01*
X171849142Y-81691238D01*
X172429714Y-81691238D01*
X172623238Y-81594476D01*
X172720000Y-81497714D01*
X170688000Y-79852761D02*
X170591238Y-79756000D01*
X170397714Y-79659238D01*
X169913904Y-79659238D01*
X169720380Y-79756000D01*
X169623619Y-79852761D01*
X169526857Y-80046285D01*
X169526857Y-80239809D01*
X169623619Y-80530095D01*
X170784761Y-81691238D01*
X169526857Y-81691238D01*
X167978666Y-80626857D02*
X168656000Y-80626857D01*
X168656000Y-81691238D02*
X168656000Y-79659238D01*
X167688380Y-79659238D01*
X167107809Y-79659238D02*
X165753142Y-79659238D01*
X166624000Y-81691238D01*
X164108190Y-79659238D02*
X164495238Y-79659238D01*
X164688761Y-79756000D01*
X164785523Y-79852761D01*
X164979047Y-80143047D01*
X165075809Y-80530095D01*
X165075809Y-81304190D01*
X164979047Y-81497714D01*
X164882285Y-81594476D01*
X164688761Y-81691238D01*
X164301714Y-81691238D01*
X164108190Y-81594476D01*
X164011428Y-81497714D01*
X163914666Y-81304190D01*
X163914666Y-80820380D01*
X164011428Y-80626857D01*
X164108190Y-80530095D01*
X164301714Y-80433333D01*
X164688761Y-80433333D01*
X164882285Y-80530095D01*
X164979047Y-80626857D01*
X165075809Y-80820380D01*
X163237333Y-79659238D02*
X161882666Y-79659238D01*
X162753523Y-81691238D01*
X158399238Y-81497714D02*
X158496000Y-81594476D01*
X158786285Y-81691238D01*
X158979809Y-81691238D01*
X159270095Y-81594476D01*
X159463619Y-81400952D01*
X159560380Y-81207428D01*
X159657142Y-80820380D01*
X159657142Y-80530095D01*
X159560380Y-80143047D01*
X159463619Y-79949523D01*
X159270095Y-79756000D01*
X158979809Y-79659238D01*
X158786285Y-79659238D01*
X158496000Y-79756000D01*
X158399238Y-79852761D01*
X156657523Y-80336571D02*
X156657523Y-81691238D01*
X157528380Y-80336571D02*
X157528380Y-81400952D01*
X157431619Y-81594476D01*
X157238095Y-81691238D01*
X156947809Y-81691238D01*
X156754285Y-81594476D01*
X156657523Y-81497714D01*
X155786666Y-81594476D02*
X155593142Y-81691238D01*
X155206095Y-81691238D01*
X155012571Y-81594476D01*
X154915809Y-81400952D01*
X154915809Y-81304190D01*
X155012571Y-81110666D01*
X155206095Y-81013904D01*
X155496380Y-81013904D01*
X155689904Y-80917142D01*
X155786666Y-80723619D01*
X155786666Y-80626857D01*
X155689904Y-80433333D01*
X155496380Y-80336571D01*
X155206095Y-80336571D01*
X155012571Y-80433333D01*
X154335238Y-80336571D02*
X153561142Y-80336571D01*
X154044952Y-79659238D02*
X154044952Y-81400952D01*
X153948190Y-81594476D01*
X153754666Y-81691238D01*
X153561142Y-81691238D01*
X152593523Y-81691238D02*
X152787047Y-81594476D01*
X152883809Y-81497714D01*
X152980571Y-81304190D01*
X152980571Y-80723619D01*
X152883809Y-80530095D01*
X152787047Y-80433333D01*
X152593523Y-80336571D01*
X152303238Y-80336571D01*
X152109714Y-80433333D01*
X152012952Y-80530095D01*
X151916190Y-80723619D01*
X151916190Y-81304190D01*
X152012952Y-81497714D01*
X152109714Y-81594476D01*
X152303238Y-81691238D01*
X152593523Y-81691238D01*
X151045333Y-81691238D02*
X151045333Y-80336571D01*
X151045333Y-80530095D02*
X150948571Y-80433333D01*
X150755047Y-80336571D01*
X150464761Y-80336571D01*
X150271238Y-80433333D01*
X150174476Y-80626857D01*
X150174476Y-81691238D01*
X150174476Y-80626857D02*
X150077714Y-80433333D01*
X149884190Y-80336571D01*
X149593904Y-80336571D01*
X149400380Y-80433333D01*
X149303619Y-80626857D01*
X149303619Y-81691238D01*
X146787809Y-81691238D02*
X146787809Y-79659238D01*
X146304000Y-79659238D01*
X146013714Y-79756000D01*
X145820190Y-79949523D01*
X145723428Y-80143047D01*
X145626666Y-80530095D01*
X145626666Y-80820380D01*
X145723428Y-81207428D01*
X145820190Y-81400952D01*
X146013714Y-81594476D01*
X146304000Y-81691238D01*
X146787809Y-81691238D01*
X144755809Y-81691238D02*
X144755809Y-80336571D01*
X144755809Y-79659238D02*
X144852571Y-79756000D01*
X144755809Y-79852761D01*
X144659047Y-79756000D01*
X144755809Y-79659238D01*
X144755809Y-79852761D01*
X143884952Y-81594476D02*
X143691428Y-81691238D01*
X143304380Y-81691238D01*
X143110857Y-81594476D01*
X143014095Y-81400952D01*
X143014095Y-81304190D01*
X143110857Y-81110666D01*
X143304380Y-81013904D01*
X143594666Y-81013904D01*
X143788190Y-80917142D01*
X143884952Y-80723619D01*
X143884952Y-80626857D01*
X143788190Y-80433333D01*
X143594666Y-80336571D01*
X143304380Y-80336571D01*
X143110857Y-80433333D01*
X142143238Y-80336571D02*
X142143238Y-82368571D01*
X142143238Y-80433333D02*
X141949714Y-80336571D01*
X141562666Y-80336571D01*
X141369142Y-80433333D01*
X141272380Y-80530095D01*
X141175619Y-80723619D01*
X141175619Y-81304190D01*
X141272380Y-81497714D01*
X141369142Y-81594476D01*
X141562666Y-81691238D01*
X141949714Y-81691238D01*
X142143238Y-81594476D01*
X140014476Y-81691238D02*
X140208000Y-81594476D01*
X140304761Y-81400952D01*
X140304761Y-79659238D01*
X138369523Y-81691238D02*
X138369523Y-80626857D01*
X138466285Y-80433333D01*
X138659809Y-80336571D01*
X139046857Y-80336571D01*
X139240380Y-80433333D01*
X138369523Y-81594476D02*
X138563047Y-81691238D01*
X139046857Y-81691238D01*
X139240380Y-81594476D01*
X139337142Y-81400952D01*
X139337142Y-81207428D01*
X139240380Y-81013904D01*
X139046857Y-80917142D01*
X138563047Y-80917142D01*
X138369523Y-80820380D01*
X137595428Y-80336571D02*
X137111619Y-81691238D01*
X136627809Y-80336571D02*
X137111619Y-81691238D01*
X137305142Y-82175047D01*
X137401904Y-82271809D01*
X137595428Y-82368571D01*
X133628190Y-80626857D02*
X133337904Y-80723619D01*
X133241142Y-80820380D01*
X133144380Y-81013904D01*
X133144380Y-81304190D01*
X133241142Y-81497714D01*
X133337904Y-81594476D01*
X133531428Y-81691238D01*
X134305523Y-81691238D01*
X134305523Y-79659238D01*
X133628190Y-79659238D01*
X133434666Y-79756000D01*
X133337904Y-79852761D01*
X133241142Y-80046285D01*
X133241142Y-80239809D01*
X133337904Y-80433333D01*
X133434666Y-80530095D01*
X133628190Y-80626857D01*
X134305523Y-80626857D01*
X131983238Y-81691238D02*
X132176761Y-81594476D01*
X132273523Y-81497714D01*
X132370285Y-81304190D01*
X132370285Y-80723619D01*
X132273523Y-80530095D01*
X132176761Y-80433333D01*
X131983238Y-80336571D01*
X131692952Y-80336571D01*
X131499428Y-80433333D01*
X131402666Y-80530095D01*
X131305904Y-80723619D01*
X131305904Y-81304190D01*
X131402666Y-81497714D01*
X131499428Y-81594476D01*
X131692952Y-81691238D01*
X131983238Y-81691238D01*
X129564190Y-81691238D02*
X129564190Y-80626857D01*
X129660952Y-80433333D01*
X129854476Y-80336571D01*
X130241523Y-80336571D01*
X130435047Y-80433333D01*
X129564190Y-81594476D02*
X129757714Y-81691238D01*
X130241523Y-81691238D01*
X130435047Y-81594476D01*
X130531809Y-81400952D01*
X130531809Y-81207428D01*
X130435047Y-81013904D01*
X130241523Y-80917142D01*
X129757714Y-80917142D01*
X129564190Y-80820380D01*
X128596571Y-81691238D02*
X128596571Y-80336571D01*
X128596571Y-80723619D02*
X128499809Y-80530095D01*
X128403047Y-80433333D01*
X128209523Y-80336571D01*
X128016000Y-80336571D01*
X126467809Y-81691238D02*
X126467809Y-79659238D01*
X126467809Y-81594476D02*
X126661333Y-81691238D01*
X127048380Y-81691238D01*
X127241904Y-81594476D01*
X127338666Y-81497714D01*
X127435428Y-81304190D01*
X127435428Y-80723619D01*
X127338666Y-80530095D01*
X127241904Y-80433333D01*
X127048380Y-80336571D01*
X126661333Y-80336571D01*
X126467809Y-80433333D01*
X164737142Y-85150476D02*
X164543619Y-85247238D01*
X164156571Y-85247238D01*
X163963047Y-85150476D01*
X163866285Y-84956952D01*
X163866285Y-84860190D01*
X163963047Y-84666666D01*
X164156571Y-84569904D01*
X164446857Y-84569904D01*
X164640380Y-84473142D01*
X164737142Y-84279619D01*
X164737142Y-84182857D01*
X164640380Y-83989333D01*
X164446857Y-83892571D01*
X164156571Y-83892571D01*
X163963047Y-83989333D01*
X163188952Y-83892571D02*
X162705142Y-85247238D01*
X162221333Y-83892571D01*
X160576380Y-85150476D02*
X160769904Y-85247238D01*
X161156952Y-85247238D01*
X161350476Y-85150476D01*
X161447238Y-85053714D01*
X161544000Y-84860190D01*
X161544000Y-84279619D01*
X161447238Y-84086095D01*
X161350476Y-83989333D01*
X161156952Y-83892571D01*
X160769904Y-83892571D01*
X160576380Y-83989333D01*
X158834666Y-83892571D02*
X158834666Y-85537523D01*
X158931428Y-85731047D01*
X159028190Y-85827809D01*
X159221714Y-85924571D01*
X159512000Y-85924571D01*
X159705523Y-85827809D01*
X158834666Y-85150476D02*
X159028190Y-85247238D01*
X159415238Y-85247238D01*
X159608761Y-85150476D01*
X159705523Y-85053714D01*
X159802285Y-84860190D01*
X159802285Y-84279619D01*
X159705523Y-84086095D01*
X159608761Y-83989333D01*
X159415238Y-83892571D01*
X159028190Y-83892571D01*
X158834666Y-83989333D01*
X156996190Y-83892571D02*
X156996190Y-85247238D01*
X157867047Y-83892571D02*
X157867047Y-84956952D01*
X157770285Y-85150476D01*
X157576761Y-85247238D01*
X157286476Y-85247238D01*
X157092952Y-85150476D01*
X156996190Y-85053714D01*
X156222095Y-83892571D02*
X155738285Y-85247238D01*
X155254476Y-83892571D02*
X155738285Y-85247238D01*
X155931809Y-85731047D01*
X156028571Y-85827809D01*
X156222095Y-85924571D01*
X152545142Y-83215238D02*
X152351619Y-83215238D01*
X152158095Y-83312000D01*
X152061333Y-83408761D01*
X151964571Y-83602285D01*
X151867809Y-83989333D01*
X151867809Y-84473142D01*
X151964571Y-84860190D01*
X152061333Y-85053714D01*
X152158095Y-85150476D01*
X152351619Y-85247238D01*
X152545142Y-85247238D01*
X152738666Y-85150476D01*
X152835428Y-85053714D01*
X152932190Y-84860190D01*
X153028952Y-84473142D01*
X153028952Y-83989333D01*
X152932190Y-83602285D01*
X152835428Y-83408761D01*
X152738666Y-83312000D01*
X152545142Y-83215238D01*
X150900190Y-85247238D02*
X150513142Y-85247238D01*
X150319619Y-85150476D01*
X150222857Y-85053714D01*
X150029333Y-84763428D01*
X149932571Y-84376380D01*
X149932571Y-83602285D01*
X150029333Y-83408761D01*
X150126095Y-83312000D01*
X150319619Y-83215238D01*
X150706666Y-83215238D01*
X150900190Y-83312000D01*
X150996952Y-83408761D01*
X151093714Y-83602285D01*
X151093714Y-84086095D01*
X150996952Y-84279619D01*
X150900190Y-84376380D01*
X150706666Y-84473142D01*
X150319619Y-84473142D01*
X150126095Y-84376380D01*
X150029333Y-84279619D01*
X149932571Y-84086095D01*
X147610285Y-83118476D02*
X149352000Y-85731047D01*
X147029714Y-83408761D02*
X146932952Y-83312000D01*
X146739428Y-83215238D01*
X146255619Y-83215238D01*
X146062095Y-83312000D01*
X145965333Y-83408761D01*
X145868571Y-83602285D01*
X145868571Y-83795809D01*
X145965333Y-84086095D01*
X147126476Y-85247238D01*
X145868571Y-85247238D01*
X144610666Y-83215238D02*
X144417142Y-83215238D01*
X144223619Y-83312000D01*
X144126857Y-83408761D01*
X144030095Y-83602285D01*
X143933333Y-83989333D01*
X143933333Y-84473142D01*
X144030095Y-84860190D01*
X144126857Y-85053714D01*
X144223619Y-85150476D01*
X144417142Y-85247238D01*
X144610666Y-85247238D01*
X144804190Y-85150476D01*
X144900952Y-85053714D01*
X144997714Y-84860190D01*
X145094476Y-84473142D01*
X145094476Y-83989333D01*
X144997714Y-83602285D01*
X144900952Y-83408761D01*
X144804190Y-83312000D01*
X144610666Y-83215238D01*
X143159238Y-83408761D02*
X143062476Y-83312000D01*
X142868952Y-83215238D01*
X142385142Y-83215238D01*
X142191619Y-83312000D01*
X142094857Y-83408761D01*
X141998095Y-83602285D01*
X141998095Y-83795809D01*
X142094857Y-84086095D01*
X143256000Y-85247238D01*
X141998095Y-85247238D01*
X140740190Y-83215238D02*
X140546666Y-83215238D01*
X140353142Y-83312000D01*
X140256380Y-83408761D01*
X140159619Y-83602285D01*
X140062857Y-83989333D01*
X140062857Y-84473142D01*
X140159619Y-84860190D01*
X140256380Y-85053714D01*
X140353142Y-85150476D01*
X140546666Y-85247238D01*
X140740190Y-85247238D01*
X140933714Y-85150476D01*
X141030476Y-85053714D01*
X141127238Y-84860190D01*
X141224000Y-84473142D01*
X141224000Y-83989333D01*
X141127238Y-83602285D01*
X141030476Y-83408761D01*
X140933714Y-83312000D01*
X140740190Y-83215238D01*
D12*
X159591828Y-122839842D02*
X160176028Y-122005271D01*
X160593314Y-122839842D02*
X160593314Y-121087242D01*
X159925657Y-121087242D01*
X159758742Y-121170700D01*
X159675285Y-121254157D01*
X159591828Y-121421071D01*
X159591828Y-121671442D01*
X159675285Y-121838357D01*
X159758742Y-121921814D01*
X159925657Y-122005271D01*
X160593314Y-122005271D01*
X158840714Y-121921814D02*
X158256514Y-121921814D01*
X158006142Y-122839842D02*
X158840714Y-122839842D01*
X158840714Y-121087242D01*
X158006142Y-121087242D01*
X157505400Y-121087242D02*
X156921200Y-122839842D01*
X156337000Y-121087242D01*
X154500942Y-122339100D02*
X153666371Y-122339100D01*
X154667857Y-122839842D02*
X154083657Y-121087242D01*
X153499457Y-122839842D01*
X152581428Y-121087242D02*
X152414514Y-121087242D01*
X152247600Y-121170700D01*
X152164142Y-121254157D01*
X152080685Y-121421071D01*
X151997228Y-121754900D01*
X151997228Y-122172185D01*
X152080685Y-122506014D01*
X152164142Y-122672928D01*
X152247600Y-122756385D01*
X152414514Y-122839842D01*
X152581428Y-122839842D01*
X152748342Y-122756385D01*
X152831800Y-122672928D01*
X152915257Y-122506014D01*
X152998714Y-122172185D01*
X152998714Y-121754900D01*
X152915257Y-121421071D01*
X152831800Y-121254157D01*
X152748342Y-121170700D01*
X152581428Y-121087242D01*
D13*
%TO.C,REF\u002A\u002A*%
G36*
X174177743Y-92970236D02*
G01*
X173300739Y-92970354D01*
X172892505Y-92970372D01*
X166358165Y-92970372D01*
X166358165Y-93355556D01*
X166317053Y-93824293D01*
X166192973Y-94256598D01*
X165984810Y-94655040D01*
X165691450Y-95022189D01*
X165592197Y-95121349D01*
X165235159Y-95402618D01*
X164841482Y-95607754D01*
X164422861Y-95736850D01*
X163990988Y-95789999D01*
X163557555Y-95767294D01*
X163134255Y-95668828D01*
X162732781Y-95494696D01*
X162364826Y-95244988D01*
X162199572Y-95094335D01*
X161891622Y-94724960D01*
X161665806Y-94318769D01*
X161524094Y-93880404D01*
X161468453Y-93414510D01*
X161467714Y-93368677D01*
X161464796Y-92970387D01*
X161289741Y-92970380D01*
X161134450Y-92991455D01*
X160992593Y-93042734D01*
X160983218Y-93048032D01*
X160951179Y-93064656D01*
X160921757Y-93077603D01*
X160894847Y-93090644D01*
X160870342Y-93107550D01*
X160848135Y-93132092D01*
X160828120Y-93168041D01*
X160810192Y-93219169D01*
X160794243Y-93289245D01*
X160780168Y-93382043D01*
X160767859Y-93501332D01*
X160757212Y-93650884D01*
X160748118Y-93834469D01*
X160740473Y-94055860D01*
X160734169Y-94318827D01*
X160729100Y-94627141D01*
X160725161Y-94984573D01*
X160722244Y-95394895D01*
X160720244Y-95861878D01*
X160719054Y-96389292D01*
X160718567Y-96980909D01*
X160718678Y-97640501D01*
X160719279Y-98371837D01*
X160720266Y-99178689D01*
X160721531Y-100064829D01*
X160722968Y-101034028D01*
X160724470Y-102090056D01*
X160724645Y-102218715D01*
X160725992Y-103281478D01*
X160727135Y-104256971D01*
X160728195Y-105148964D01*
X160729294Y-105961226D01*
X160730551Y-106697528D01*
X160732088Y-107361637D01*
X160734027Y-107957324D01*
X160736488Y-108488359D01*
X160739592Y-108958509D01*
X160743460Y-109371546D01*
X160748214Y-109731238D01*
X160753975Y-110041355D01*
X160760863Y-110305666D01*
X160769000Y-110527940D01*
X160778506Y-110711948D01*
X160789503Y-110861458D01*
X160802112Y-110980240D01*
X160816454Y-111072063D01*
X160832650Y-111140696D01*
X160850821Y-111189910D01*
X160871088Y-111223474D01*
X160893572Y-111245156D01*
X160918394Y-111258726D01*
X160945676Y-111267955D01*
X160975538Y-111276610D01*
X161008101Y-111288462D01*
X161016056Y-111292070D01*
X161041057Y-111300177D01*
X161082901Y-111307626D01*
X161145243Y-111314443D01*
X161231736Y-111320655D01*
X161346033Y-111326288D01*
X161491788Y-111331368D01*
X161672656Y-111335923D01*
X161892290Y-111339979D01*
X162154343Y-111343561D01*
X162462469Y-111346698D01*
X162820322Y-111349415D01*
X163231556Y-111351739D01*
X163699824Y-111353696D01*
X164228780Y-111355312D01*
X164822077Y-111356616D01*
X165483370Y-111357632D01*
X166216313Y-111358387D01*
X167024558Y-111358909D01*
X167911760Y-111359223D01*
X168881571Y-111359355D01*
X169937647Y-111359334D01*
X170279740Y-111359300D01*
X171359244Y-111359127D01*
X172351407Y-111358844D01*
X173259925Y-111358421D01*
X174088495Y-111357831D01*
X174840816Y-111357044D01*
X175520585Y-111356031D01*
X176131499Y-111354763D01*
X176677256Y-111353212D01*
X177161552Y-111351349D01*
X177588086Y-111349144D01*
X177960555Y-111346569D01*
X178282656Y-111343595D01*
X178558087Y-111340193D01*
X178790545Y-111336334D01*
X178983728Y-111331990D01*
X179141332Y-111327130D01*
X179267056Y-111321727D01*
X179364597Y-111315752D01*
X179437652Y-111309176D01*
X179489919Y-111301969D01*
X179525095Y-111294103D01*
X179544271Y-111286900D01*
X179578352Y-111272527D01*
X179609645Y-111261928D01*
X179638267Y-111251339D01*
X179664337Y-111236995D01*
X179687974Y-111215133D01*
X179709295Y-111181989D01*
X179728420Y-111133799D01*
X179745467Y-111066798D01*
X179760554Y-110977222D01*
X179773800Y-110861308D01*
X179785323Y-110715290D01*
X179795242Y-110535407D01*
X179803675Y-110317892D01*
X179810741Y-110058982D01*
X179816558Y-109754913D01*
X179821245Y-109401921D01*
X179822472Y-109266430D01*
X178607601Y-109266430D01*
X174313645Y-109266430D01*
X174396268Y-109141251D01*
X174478462Y-109012613D01*
X174548066Y-108890116D01*
X174606068Y-108765187D01*
X174653461Y-108629255D01*
X174691233Y-108473746D01*
X174720375Y-108290088D01*
X174741876Y-108069708D01*
X174756728Y-107804033D01*
X174765919Y-107484492D01*
X174770440Y-107102512D01*
X174771281Y-106649519D01*
X174769432Y-106116943D01*
X174768383Y-105919220D01*
X174756552Y-103799539D01*
X173413721Y-105627684D01*
X173033299Y-106146306D01*
X172703709Y-106597905D01*
X172421391Y-106988464D01*
X172182789Y-107323967D01*
X171984341Y-107610395D01*
X171822491Y-107853733D01*
X171693678Y-108059964D01*
X171594344Y-108235069D01*
X171520931Y-108385033D01*
X171469879Y-108515838D01*
X171437630Y-108633467D01*
X171420625Y-108743903D01*
X171415305Y-108853129D01*
X171418112Y-108967128D01*
X171418828Y-108981457D01*
X171433613Y-109266621D01*
X169080727Y-109266525D01*
X166727841Y-109266430D01*
X167077860Y-108913499D01*
X167172840Y-108816970D01*
X167262943Y-108723042D01*
X167352126Y-108626537D01*
X167444340Y-108522274D01*
X167543542Y-108405072D01*
X167653685Y-108269752D01*
X167778723Y-108111134D01*
X167922612Y-107924038D01*
X168089304Y-107703283D01*
X168282756Y-107443689D01*
X168506920Y-107140077D01*
X168765751Y-106787266D01*
X169063204Y-106380077D01*
X169403232Y-105913328D01*
X169789791Y-105381841D01*
X170106636Y-104945866D01*
X170504287Y-104398153D01*
X170851180Y-103919262D01*
X171150457Y-103504645D01*
X171405261Y-103149756D01*
X171618734Y-102850049D01*
X171794019Y-102600977D01*
X171934259Y-102397993D01*
X172042595Y-102236551D01*
X172122171Y-102112104D01*
X172176128Y-102020105D01*
X172207610Y-101956007D01*
X172219759Y-101915264D01*
X172216107Y-101893844D01*
X172171855Y-101836840D01*
X172076180Y-101716180D01*
X171934855Y-101539034D01*
X171753653Y-101312575D01*
X171538346Y-101043974D01*
X171294709Y-100740404D01*
X171028514Y-100409037D01*
X170745534Y-100057045D01*
X170451542Y-99691599D01*
X170152311Y-99319872D01*
X169987725Y-99115534D01*
X165901246Y-99115534D01*
X165561570Y-99730050D01*
X165561570Y-108651914D01*
X165901246Y-109266430D01*
X163892185Y-109266430D01*
X163412568Y-109266290D01*
X163016411Y-109265661D01*
X162696136Y-109264225D01*
X162444163Y-109261666D01*
X162252914Y-109257667D01*
X162114809Y-109251911D01*
X162022269Y-109244081D01*
X161967716Y-109233862D01*
X161943571Y-109220935D01*
X161942254Y-109204985D01*
X161956188Y-109185695D01*
X161956332Y-109185536D01*
X162013726Y-109102512D01*
X162089728Y-108967517D01*
X162156846Y-108832758D01*
X162284151Y-108560874D01*
X162297135Y-103838204D01*
X162310118Y-99115534D01*
X165901246Y-99115534D01*
X169987725Y-99115534D01*
X169853615Y-98949035D01*
X169561226Y-98586261D01*
X169280916Y-98238722D01*
X169018461Y-97913589D01*
X168779631Y-97618035D01*
X168570201Y-97359231D01*
X168395943Y-97144350D01*
X168262631Y-96980563D01*
X168184329Y-96885068D01*
X167880272Y-96527967D01*
X167587753Y-96205717D01*
X167317026Y-95928866D01*
X167078341Y-95707966D01*
X166908952Y-95572535D01*
X166708664Y-95428437D01*
X171315066Y-95428437D01*
X171313773Y-95698744D01*
X171326647Y-95897471D01*
X171375047Y-96081711D01*
X171449970Y-96256360D01*
X171498673Y-96355026D01*
X171551038Y-96452791D01*
X171611847Y-96556144D01*
X171685885Y-96671576D01*
X171777935Y-96805576D01*
X171892781Y-96964636D01*
X172035205Y-97155244D01*
X172209992Y-97383892D01*
X172421925Y-97657070D01*
X172675788Y-97981267D01*
X172976364Y-98362974D01*
X173328436Y-98808681D01*
X173368201Y-98858972D01*
X174756552Y-100614658D01*
X174769993Y-98670203D01*
X174772699Y-98087782D01*
X174772123Y-97594717D01*
X174768236Y-97189383D01*
X174761011Y-96870154D01*
X174750418Y-96635406D01*
X174736431Y-96483513D01*
X174731730Y-96454700D01*
X174657973Y-96151195D01*
X174561336Y-95877584D01*
X174451061Y-95657590D01*
X174384812Y-95564286D01*
X174270503Y-95428437D01*
X176439422Y-95428437D01*
X176956808Y-95428879D01*
X177389462Y-95430319D01*
X177743689Y-95432924D01*
X178025794Y-95436862D01*
X178242080Y-95442301D01*
X178398851Y-95449409D01*
X178502413Y-95458354D01*
X178559069Y-95469305D01*
X178575123Y-95482430D01*
X178574013Y-95485337D01*
X178528034Y-95554739D01*
X178451273Y-95664747D01*
X178411559Y-95720384D01*
X178370498Y-95775906D01*
X178333592Y-95825557D01*
X178300606Y-95874222D01*
X178271309Y-95926789D01*
X178245468Y-95988144D01*
X178222851Y-96063172D01*
X178203226Y-96156759D01*
X178186360Y-96273792D01*
X178172021Y-96419157D01*
X178159976Y-96597739D01*
X178149993Y-96814425D01*
X178141840Y-97074102D01*
X178135285Y-97381654D01*
X178130094Y-97741969D01*
X178126036Y-98159932D01*
X178122879Y-98640430D01*
X178120389Y-99188348D01*
X178118335Y-99808572D01*
X178116483Y-100505989D01*
X178114603Y-101285486D01*
X178112846Y-102001590D01*
X178111186Y-102799921D01*
X178110324Y-103561604D01*
X178110235Y-104281773D01*
X178110896Y-104955563D01*
X178112286Y-105578108D01*
X178114381Y-106144544D01*
X178117157Y-106650006D01*
X178120593Y-107089628D01*
X178124665Y-107458545D01*
X178129350Y-107751892D01*
X178134626Y-107964804D01*
X178140469Y-108092416D01*
X178141575Y-108105902D01*
X178181841Y-108415280D01*
X178244706Y-108663744D01*
X178340439Y-108880584D01*
X178479314Y-109095087D01*
X178496685Y-109118491D01*
X178607601Y-109266430D01*
X179822472Y-109266430D01*
X179824920Y-108996242D01*
X179827701Y-108534111D01*
X179829707Y-108011765D01*
X179831057Y-107425440D01*
X179831869Y-106771371D01*
X179832260Y-106045795D01*
X179832351Y-105244947D01*
X179832260Y-104365063D01*
X179832104Y-103402379D01*
X179832003Y-102353132D01*
X179832000Y-102144835D01*
X179831941Y-101084537D01*
X179831744Y-100111542D01*
X179831380Y-99222113D01*
X179830820Y-98412515D01*
X179830036Y-97679009D01*
X179828997Y-97017860D01*
X179827676Y-96425332D01*
X179826043Y-95897687D01*
X179824069Y-95431189D01*
X179821726Y-95022102D01*
X179818984Y-94666689D01*
X179815814Y-94361214D01*
X179812187Y-94101940D01*
X179808075Y-93885130D01*
X179803448Y-93707049D01*
X179798278Y-93563959D01*
X179792535Y-93452124D01*
X179786191Y-93367807D01*
X179779216Y-93307273D01*
X179771581Y-93266784D01*
X179763258Y-93242604D01*
X179762950Y-93242001D01*
X179745807Y-93205062D01*
X179731529Y-93171620D01*
X179715735Y-93141502D01*
X179694042Y-93114534D01*
X179662072Y-93090543D01*
X179615442Y-93069356D01*
X179549771Y-93050800D01*
X179460679Y-93034701D01*
X179343784Y-93020886D01*
X179194706Y-93009183D01*
X179009062Y-92999417D01*
X178782473Y-92991416D01*
X178510558Y-92985006D01*
X178188934Y-92980015D01*
X177813222Y-92976269D01*
X177379039Y-92973594D01*
X176882006Y-92971818D01*
X176317741Y-92970767D01*
X175681862Y-92970269D01*
X174969990Y-92970149D01*
X174177743Y-92970236D01*
G37*
X174177743Y-92970236D02*
X173300739Y-92970354D01*
X172892505Y-92970372D01*
X166358165Y-92970372D01*
X166358165Y-93355556D01*
X166317053Y-93824293D01*
X166192973Y-94256598D01*
X165984810Y-94655040D01*
X165691450Y-95022189D01*
X165592197Y-95121349D01*
X165235159Y-95402618D01*
X164841482Y-95607754D01*
X164422861Y-95736850D01*
X163990988Y-95789999D01*
X163557555Y-95767294D01*
X163134255Y-95668828D01*
X162732781Y-95494696D01*
X162364826Y-95244988D01*
X162199572Y-95094335D01*
X161891622Y-94724960D01*
X161665806Y-94318769D01*
X161524094Y-93880404D01*
X161468453Y-93414510D01*
X161467714Y-93368677D01*
X161464796Y-92970387D01*
X161289741Y-92970380D01*
X161134450Y-92991455D01*
X160992593Y-93042734D01*
X160983218Y-93048032D01*
X160951179Y-93064656D01*
X160921757Y-93077603D01*
X160894847Y-93090644D01*
X160870342Y-93107550D01*
X160848135Y-93132092D01*
X160828120Y-93168041D01*
X160810192Y-93219169D01*
X160794243Y-93289245D01*
X160780168Y-93382043D01*
X160767859Y-93501332D01*
X160757212Y-93650884D01*
X160748118Y-93834469D01*
X160740473Y-94055860D01*
X160734169Y-94318827D01*
X160729100Y-94627141D01*
X160725161Y-94984573D01*
X160722244Y-95394895D01*
X160720244Y-95861878D01*
X160719054Y-96389292D01*
X160718567Y-96980909D01*
X160718678Y-97640501D01*
X160719279Y-98371837D01*
X160720266Y-99178689D01*
X160721531Y-100064829D01*
X160722968Y-101034028D01*
X160724470Y-102090056D01*
X160724645Y-102218715D01*
X160725992Y-103281478D01*
X160727135Y-104256971D01*
X160728195Y-105148964D01*
X160729294Y-105961226D01*
X160730551Y-106697528D01*
X160732088Y-107361637D01*
X160734027Y-107957324D01*
X160736488Y-108488359D01*
X160739592Y-108958509D01*
X160743460Y-109371546D01*
X160748214Y-109731238D01*
X160753975Y-110041355D01*
X160760863Y-110305666D01*
X160769000Y-110527940D01*
X160778506Y-110711948D01*
X160789503Y-110861458D01*
X160802112Y-110980240D01*
X160816454Y-111072063D01*
X160832650Y-111140696D01*
X160850821Y-111189910D01*
X160871088Y-111223474D01*
X160893572Y-111245156D01*
X160918394Y-111258726D01*
X160945676Y-111267955D01*
X160975538Y-111276610D01*
X161008101Y-111288462D01*
X161016056Y-111292070D01*
X161041057Y-111300177D01*
X161082901Y-111307626D01*
X161145243Y-111314443D01*
X161231736Y-111320655D01*
X161346033Y-111326288D01*
X161491788Y-111331368D01*
X161672656Y-111335923D01*
X161892290Y-111339979D01*
X162154343Y-111343561D01*
X162462469Y-111346698D01*
X162820322Y-111349415D01*
X163231556Y-111351739D01*
X163699824Y-111353696D01*
X164228780Y-111355312D01*
X164822077Y-111356616D01*
X165483370Y-111357632D01*
X166216313Y-111358387D01*
X167024558Y-111358909D01*
X167911760Y-111359223D01*
X168881571Y-111359355D01*
X169937647Y-111359334D01*
X170279740Y-111359300D01*
X171359244Y-111359127D01*
X172351407Y-111358844D01*
X173259925Y-111358421D01*
X174088495Y-111357831D01*
X174840816Y-111357044D01*
X175520585Y-111356031D01*
X176131499Y-111354763D01*
X176677256Y-111353212D01*
X177161552Y-111351349D01*
X177588086Y-111349144D01*
X177960555Y-111346569D01*
X178282656Y-111343595D01*
X178558087Y-111340193D01*
X178790545Y-111336334D01*
X178983728Y-111331990D01*
X179141332Y-111327130D01*
X179267056Y-111321727D01*
X179364597Y-111315752D01*
X179437652Y-111309176D01*
X179489919Y-111301969D01*
X179525095Y-111294103D01*
X179544271Y-111286900D01*
X179578352Y-111272527D01*
X179609645Y-111261928D01*
X179638267Y-111251339D01*
X179664337Y-111236995D01*
X179687974Y-111215133D01*
X179709295Y-111181989D01*
X179728420Y-111133799D01*
X179745467Y-111066798D01*
X179760554Y-110977222D01*
X179773800Y-110861308D01*
X179785323Y-110715290D01*
X179795242Y-110535407D01*
X179803675Y-110317892D01*
X179810741Y-110058982D01*
X179816558Y-109754913D01*
X179821245Y-109401921D01*
X179822472Y-109266430D01*
X178607601Y-109266430D01*
X174313645Y-109266430D01*
X174396268Y-109141251D01*
X174478462Y-109012613D01*
X174548066Y-108890116D01*
X174606068Y-108765187D01*
X174653461Y-108629255D01*
X174691233Y-108473746D01*
X174720375Y-108290088D01*
X174741876Y-108069708D01*
X174756728Y-107804033D01*
X174765919Y-107484492D01*
X174770440Y-107102512D01*
X174771281Y-106649519D01*
X174769432Y-106116943D01*
X174768383Y-105919220D01*
X174756552Y-103799539D01*
X173413721Y-105627684D01*
X173033299Y-106146306D01*
X172703709Y-106597905D01*
X172421391Y-106988464D01*
X172182789Y-107323967D01*
X171984341Y-107610395D01*
X171822491Y-107853733D01*
X171693678Y-108059964D01*
X171594344Y-108235069D01*
X171520931Y-108385033D01*
X171469879Y-108515838D01*
X171437630Y-108633467D01*
X171420625Y-108743903D01*
X171415305Y-108853129D01*
X171418112Y-108967128D01*
X171418828Y-108981457D01*
X171433613Y-109266621D01*
X169080727Y-109266525D01*
X166727841Y-109266430D01*
X167077860Y-108913499D01*
X167172840Y-108816970D01*
X167262943Y-108723042D01*
X167352126Y-108626537D01*
X167444340Y-108522274D01*
X167543542Y-108405072D01*
X167653685Y-108269752D01*
X167778723Y-108111134D01*
X167922612Y-107924038D01*
X168089304Y-107703283D01*
X168282756Y-107443689D01*
X168506920Y-107140077D01*
X168765751Y-106787266D01*
X169063204Y-106380077D01*
X169403232Y-105913328D01*
X169789791Y-105381841D01*
X170106636Y-104945866D01*
X170504287Y-104398153D01*
X170851180Y-103919262D01*
X171150457Y-103504645D01*
X171405261Y-103149756D01*
X171618734Y-102850049D01*
X171794019Y-102600977D01*
X171934259Y-102397993D01*
X172042595Y-102236551D01*
X172122171Y-102112104D01*
X172176128Y-102020105D01*
X172207610Y-101956007D01*
X172219759Y-101915264D01*
X172216107Y-101893844D01*
X172171855Y-101836840D01*
X172076180Y-101716180D01*
X171934855Y-101539034D01*
X171753653Y-101312575D01*
X171538346Y-101043974D01*
X171294709Y-100740404D01*
X171028514Y-100409037D01*
X170745534Y-100057045D01*
X170451542Y-99691599D01*
X170152311Y-99319872D01*
X169987725Y-99115534D01*
X165901246Y-99115534D01*
X165561570Y-99730050D01*
X165561570Y-108651914D01*
X165901246Y-109266430D01*
X163892185Y-109266430D01*
X163412568Y-109266290D01*
X163016411Y-109265661D01*
X162696136Y-109264225D01*
X162444163Y-109261666D01*
X162252914Y-109257667D01*
X162114809Y-109251911D01*
X162022269Y-109244081D01*
X161967716Y-109233862D01*
X161943571Y-109220935D01*
X161942254Y-109204985D01*
X161956188Y-109185695D01*
X161956332Y-109185536D01*
X162013726Y-109102512D01*
X162089728Y-108967517D01*
X162156846Y-108832758D01*
X162284151Y-108560874D01*
X162297135Y-103838204D01*
X162310118Y-99115534D01*
X165901246Y-99115534D01*
X169987725Y-99115534D01*
X169853615Y-98949035D01*
X169561226Y-98586261D01*
X169280916Y-98238722D01*
X169018461Y-97913589D01*
X168779631Y-97618035D01*
X168570201Y-97359231D01*
X168395943Y-97144350D01*
X168262631Y-96980563D01*
X168184329Y-96885068D01*
X167880272Y-96527967D01*
X167587753Y-96205717D01*
X167317026Y-95928866D01*
X167078341Y-95707966D01*
X166908952Y-95572535D01*
X166708664Y-95428437D01*
X171315066Y-95428437D01*
X171313773Y-95698744D01*
X171326647Y-95897471D01*
X171375047Y-96081711D01*
X171449970Y-96256360D01*
X171498673Y-96355026D01*
X171551038Y-96452791D01*
X171611847Y-96556144D01*
X171685885Y-96671576D01*
X171777935Y-96805576D01*
X171892781Y-96964636D01*
X172035205Y-97155244D01*
X172209992Y-97383892D01*
X172421925Y-97657070D01*
X172675788Y-97981267D01*
X172976364Y-98362974D01*
X173328436Y-98808681D01*
X173368201Y-98858972D01*
X174756552Y-100614658D01*
X174769993Y-98670203D01*
X174772699Y-98087782D01*
X174772123Y-97594717D01*
X174768236Y-97189383D01*
X174761011Y-96870154D01*
X174750418Y-96635406D01*
X174736431Y-96483513D01*
X174731730Y-96454700D01*
X174657973Y-96151195D01*
X174561336Y-95877584D01*
X174451061Y-95657590D01*
X174384812Y-95564286D01*
X174270503Y-95428437D01*
X176439422Y-95428437D01*
X176956808Y-95428879D01*
X177389462Y-95430319D01*
X177743689Y-95432924D01*
X178025794Y-95436862D01*
X178242080Y-95442301D01*
X178398851Y-95449409D01*
X178502413Y-95458354D01*
X178559069Y-95469305D01*
X178575123Y-95482430D01*
X178574013Y-95485337D01*
X178528034Y-95554739D01*
X178451273Y-95664747D01*
X178411559Y-95720384D01*
X178370498Y-95775906D01*
X178333592Y-95825557D01*
X178300606Y-95874222D01*
X178271309Y-95926789D01*
X178245468Y-95988144D01*
X178222851Y-96063172D01*
X178203226Y-96156759D01*
X178186360Y-96273792D01*
X178172021Y-96419157D01*
X178159976Y-96597739D01*
X178149993Y-96814425D01*
X178141840Y-97074102D01*
X178135285Y-97381654D01*
X178130094Y-97741969D01*
X178126036Y-98159932D01*
X178122879Y-98640430D01*
X178120389Y-99188348D01*
X178118335Y-99808572D01*
X178116483Y-100505989D01*
X178114603Y-101285486D01*
X178112846Y-102001590D01*
X178111186Y-102799921D01*
X178110324Y-103561604D01*
X178110235Y-104281773D01*
X178110896Y-104955563D01*
X178112286Y-105578108D01*
X178114381Y-106144544D01*
X178117157Y-106650006D01*
X178120593Y-107089628D01*
X178124665Y-107458545D01*
X178129350Y-107751892D01*
X178134626Y-107964804D01*
X178140469Y-108092416D01*
X178141575Y-108105902D01*
X178181841Y-108415280D01*
X178244706Y-108663744D01*
X178340439Y-108880584D01*
X178479314Y-109095087D01*
X178496685Y-109118491D01*
X178607601Y-109266430D01*
X179822472Y-109266430D01*
X179824920Y-108996242D01*
X179827701Y-108534111D01*
X179829707Y-108011765D01*
X179831057Y-107425440D01*
X179831869Y-106771371D01*
X179832260Y-106045795D01*
X179832351Y-105244947D01*
X179832260Y-104365063D01*
X179832104Y-103402379D01*
X179832003Y-102353132D01*
X179832000Y-102144835D01*
X179831941Y-101084537D01*
X179831744Y-100111542D01*
X179831380Y-99222113D01*
X179830820Y-98412515D01*
X179830036Y-97679009D01*
X179828997Y-97017860D01*
X179827676Y-96425332D01*
X179826043Y-95897687D01*
X179824069Y-95431189D01*
X179821726Y-95022102D01*
X179818984Y-94666689D01*
X179815814Y-94361214D01*
X179812187Y-94101940D01*
X179808075Y-93885130D01*
X179803448Y-93707049D01*
X179798278Y-93563959D01*
X179792535Y-93452124D01*
X179786191Y-93367807D01*
X179779216Y-93307273D01*
X179771581Y-93266784D01*
X179763258Y-93242604D01*
X179762950Y-93242001D01*
X179745807Y-93205062D01*
X179731529Y-93171620D01*
X179715735Y-93141502D01*
X179694042Y-93114534D01*
X179662072Y-93090543D01*
X179615442Y-93069356D01*
X179549771Y-93050800D01*
X179460679Y-93034701D01*
X179343784Y-93020886D01*
X179194706Y-93009183D01*
X179009062Y-92999417D01*
X178782473Y-92991416D01*
X178510558Y-92985006D01*
X178188934Y-92980015D01*
X177813222Y-92976269D01*
X177379039Y-92973594D01*
X176882006Y-92971818D01*
X176317741Y-92970767D01*
X175681862Y-92970269D01*
X174969990Y-92970149D01*
X174177743Y-92970236D01*
G36*
X152973345Y-95247295D02*
G01*
X152482490Y-95301032D01*
X152006934Y-95397216D01*
X151527333Y-95540862D01*
X151024340Y-95736989D01*
X150478610Y-95990612D01*
X150380331Y-96039739D01*
X150154794Y-96150850D01*
X149942081Y-96250899D01*
X149763187Y-96330332D01*
X149639106Y-96379592D01*
X149620045Y-96385794D01*
X149437377Y-96440523D01*
X150255074Y-97630089D01*
X150454990Y-97920825D01*
X150637769Y-98186450D01*
X150797195Y-98417947D01*
X150927052Y-98606297D01*
X151021125Y-98742483D01*
X151073198Y-98817485D01*
X151081658Y-98829364D01*
X151116019Y-98804528D01*
X151200601Y-98729867D01*
X151320277Y-98618942D01*
X151386324Y-98556245D01*
X151760529Y-98258613D01*
X152180789Y-98032446D01*
X152542932Y-97908562D01*
X152760321Y-97869655D01*
X153032511Y-97845946D01*
X153327489Y-97837873D01*
X153613240Y-97845877D01*
X153857752Y-97870397D01*
X153955322Y-97889175D01*
X154395088Y-98040474D01*
X154791370Y-98271493D01*
X155143874Y-98581808D01*
X155452306Y-98970998D01*
X155716374Y-99438640D01*
X155935784Y-99984312D01*
X156110243Y-100607591D01*
X156213925Y-101141161D01*
X156240976Y-101376711D01*
X156259406Y-101681007D01*
X156269395Y-102032182D01*
X156271121Y-102408370D01*
X156264761Y-102787703D01*
X156250494Y-103148314D01*
X156228498Y-103468337D01*
X156198950Y-103725904D01*
X156192554Y-103765644D01*
X156051582Y-104405767D01*
X155859507Y-104972306D01*
X155615162Y-105467797D01*
X155317376Y-105894780D01*
X155106000Y-106125625D01*
X154726124Y-106439046D01*
X154309520Y-106671367D01*
X153863216Y-106821325D01*
X153394239Y-106887656D01*
X152909617Y-106869095D01*
X152416378Y-106764377D01*
X152124767Y-106661912D01*
X151721224Y-106456727D01*
X151305300Y-106162395D01*
X151072318Y-105963353D01*
X150941498Y-105848151D01*
X150838716Y-105763632D01*
X150780212Y-105722906D01*
X150772950Y-105721663D01*
X150746838Y-105763278D01*
X150679179Y-105873247D01*
X150575738Y-106042142D01*
X150442278Y-106260536D01*
X150284562Y-106519000D01*
X150108356Y-106808108D01*
X150010277Y-106969160D01*
X149261122Y-108199669D01*
X150196472Y-108661916D01*
X150534660Y-108827954D01*
X150808621Y-108958882D01*
X151035101Y-109061204D01*
X151230848Y-109141422D01*
X151412606Y-109206038D01*
X151597123Y-109261555D01*
X151801144Y-109314476D01*
X151996696Y-109360949D01*
X152170508Y-109396909D01*
X152352280Y-109424085D01*
X152560211Y-109443985D01*
X152812495Y-109458116D01*
X153127332Y-109467987D01*
X153339527Y-109472248D01*
X153642295Y-109475156D01*
X153932611Y-109473690D01*
X154191262Y-109468267D01*
X154399037Y-109459306D01*
X154536723Y-109447225D01*
X154544882Y-109446020D01*
X155259848Y-109291341D01*
X155931251Y-109056749D01*
X156558853Y-108742398D01*
X157142419Y-108348444D01*
X157681713Y-107875040D01*
X158176499Y-107322342D01*
X158534835Y-106831125D01*
X158916315Y-106188164D01*
X159224685Y-105509159D01*
X159461436Y-104788667D01*
X159628060Y-104021243D01*
X159726047Y-103201445D01*
X159756918Y-102368999D01*
X159731528Y-101563723D01*
X159651740Y-100820737D01*
X159515019Y-100127509D01*
X159318828Y-99471506D01*
X159060634Y-98840196D01*
X159029804Y-98774791D01*
X158690157Y-98163399D01*
X158272996Y-97581599D01*
X157790141Y-97041433D01*
X157253410Y-96554944D01*
X156674623Y-96134174D01*
X156135311Y-95825524D01*
X155590493Y-95583783D01*
X155044518Y-95408672D01*
X154476252Y-95295421D01*
X153864558Y-95239267D01*
X153498846Y-95230987D01*
X152973345Y-95247295D01*
G37*
X152973345Y-95247295D02*
X152482490Y-95301032D01*
X152006934Y-95397216D01*
X151527333Y-95540862D01*
X151024340Y-95736989D01*
X150478610Y-95990612D01*
X150380331Y-96039739D01*
X150154794Y-96150850D01*
X149942081Y-96250899D01*
X149763187Y-96330332D01*
X149639106Y-96379592D01*
X149620045Y-96385794D01*
X149437377Y-96440523D01*
X150255074Y-97630089D01*
X150454990Y-97920825D01*
X150637769Y-98186450D01*
X150797195Y-98417947D01*
X150927052Y-98606297D01*
X151021125Y-98742483D01*
X151073198Y-98817485D01*
X151081658Y-98829364D01*
X151116019Y-98804528D01*
X151200601Y-98729867D01*
X151320277Y-98618942D01*
X151386324Y-98556245D01*
X151760529Y-98258613D01*
X152180789Y-98032446D01*
X152542932Y-97908562D01*
X152760321Y-97869655D01*
X153032511Y-97845946D01*
X153327489Y-97837873D01*
X153613240Y-97845877D01*
X153857752Y-97870397D01*
X153955322Y-97889175D01*
X154395088Y-98040474D01*
X154791370Y-98271493D01*
X155143874Y-98581808D01*
X155452306Y-98970998D01*
X155716374Y-99438640D01*
X155935784Y-99984312D01*
X156110243Y-100607591D01*
X156213925Y-101141161D01*
X156240976Y-101376711D01*
X156259406Y-101681007D01*
X156269395Y-102032182D01*
X156271121Y-102408370D01*
X156264761Y-102787703D01*
X156250494Y-103148314D01*
X156228498Y-103468337D01*
X156198950Y-103725904D01*
X156192554Y-103765644D01*
X156051582Y-104405767D01*
X155859507Y-104972306D01*
X155615162Y-105467797D01*
X155317376Y-105894780D01*
X155106000Y-106125625D01*
X154726124Y-106439046D01*
X154309520Y-106671367D01*
X153863216Y-106821325D01*
X153394239Y-106887656D01*
X152909617Y-106869095D01*
X152416378Y-106764377D01*
X152124767Y-106661912D01*
X151721224Y-106456727D01*
X151305300Y-106162395D01*
X151072318Y-105963353D01*
X150941498Y-105848151D01*
X150838716Y-105763632D01*
X150780212Y-105722906D01*
X150772950Y-105721663D01*
X150746838Y-105763278D01*
X150679179Y-105873247D01*
X150575738Y-106042142D01*
X150442278Y-106260536D01*
X150284562Y-106519000D01*
X150108356Y-106808108D01*
X150010277Y-106969160D01*
X149261122Y-108199669D01*
X150196472Y-108661916D01*
X150534660Y-108827954D01*
X150808621Y-108958882D01*
X151035101Y-109061204D01*
X151230848Y-109141422D01*
X151412606Y-109206038D01*
X151597123Y-109261555D01*
X151801144Y-109314476D01*
X151996696Y-109360949D01*
X152170508Y-109396909D01*
X152352280Y-109424085D01*
X152560211Y-109443985D01*
X152812495Y-109458116D01*
X153127332Y-109467987D01*
X153339527Y-109472248D01*
X153642295Y-109475156D01*
X153932611Y-109473690D01*
X154191262Y-109468267D01*
X154399037Y-109459306D01*
X154536723Y-109447225D01*
X154544882Y-109446020D01*
X155259848Y-109291341D01*
X155931251Y-109056749D01*
X156558853Y-108742398D01*
X157142419Y-108348444D01*
X157681713Y-107875040D01*
X158176499Y-107322342D01*
X158534835Y-106831125D01*
X158916315Y-106188164D01*
X159224685Y-105509159D01*
X159461436Y-104788667D01*
X159628060Y-104021243D01*
X159726047Y-103201445D01*
X159756918Y-102368999D01*
X159731528Y-101563723D01*
X159651740Y-100820737D01*
X159515019Y-100127509D01*
X159318828Y-99471506D01*
X159060634Y-98840196D01*
X159029804Y-98774791D01*
X158690157Y-98163399D01*
X158272996Y-97581599D01*
X157790141Y-97041433D01*
X157253410Y-96554944D01*
X156674623Y-96134174D01*
X156135311Y-95825524D01*
X155590493Y-95583783D01*
X155044518Y-95408672D01*
X154476252Y-95295421D01*
X153864558Y-95239267D01*
X153498846Y-95230987D01*
X152973345Y-95247295D01*
G36*
X143930415Y-98906613D02*
G01*
X143704880Y-98923685D01*
X143059597Y-99009537D01*
X142488131Y-99146471D01*
X141987700Y-99336371D01*
X141555519Y-99581120D01*
X141188806Y-99882603D01*
X140884777Y-100242704D01*
X140640648Y-100663307D01*
X140462381Y-101118401D01*
X140417131Y-101263569D01*
X140377727Y-101399512D01*
X140343705Y-101533548D01*
X140314601Y-101672998D01*
X140289950Y-101825180D01*
X140269287Y-101997412D01*
X140252149Y-102197015D01*
X140238070Y-102431305D01*
X140226586Y-102707603D01*
X140217232Y-103033227D01*
X140209544Y-103415496D01*
X140203057Y-103861729D01*
X140197308Y-104379245D01*
X140191830Y-104975363D01*
X140187914Y-105442774D01*
X140161570Y-108651914D01*
X139990871Y-108960739D01*
X139910041Y-109109518D01*
X139849890Y-109225080D01*
X139821194Y-109286590D01*
X139820173Y-109290757D01*
X139864033Y-109295525D01*
X139988982Y-109299919D01*
X140185065Y-109303814D01*
X140442333Y-109307088D01*
X140750833Y-109309616D01*
X141100612Y-109311275D01*
X141481721Y-109311942D01*
X141527162Y-109311950D01*
X143234151Y-109311950D01*
X143234151Y-108925032D01*
X143237062Y-108750178D01*
X143244829Y-108616451D01*
X143256006Y-108544752D01*
X143260946Y-108538114D01*
X143306128Y-108565917D01*
X143399115Y-108638885D01*
X143519974Y-108741359D01*
X143522684Y-108743730D01*
X143743237Y-108907933D01*
X144021778Y-109072815D01*
X144326833Y-109222177D01*
X144626929Y-109339821D01*
X144759061Y-109380024D01*
X145022015Y-109431086D01*
X145344671Y-109463670D01*
X145697494Y-109477311D01*
X146050947Y-109471545D01*
X146375493Y-109445908D01*
X146602610Y-109409018D01*
X147159576Y-109245460D01*
X147660995Y-109012365D01*
X148103601Y-108712623D01*
X148484132Y-108349127D01*
X148799323Y-107924769D01*
X149045912Y-107442440D01*
X149152292Y-107149763D01*
X149218962Y-106865294D01*
X149263145Y-106523797D01*
X149283588Y-106156773D01*
X149282916Y-106103367D01*
X146204312Y-106103367D01*
X146178783Y-106376088D01*
X146093775Y-106602737D01*
X145936659Y-106813013D01*
X145876315Y-106874672D01*
X145661800Y-107041368D01*
X145413859Y-107148156D01*
X145116811Y-107199849D01*
X144804002Y-107203654D01*
X144507310Y-107178523D01*
X144280146Y-107129368D01*
X144181490Y-107092448D01*
X144003675Y-106991826D01*
X143815271Y-106850315D01*
X143643375Y-106691492D01*
X143515082Y-106538933D01*
X143481015Y-106482969D01*
X143454532Y-106404595D01*
X143435703Y-106279888D01*
X143423652Y-106096933D01*
X143417500Y-105843820D01*
X143416230Y-105602925D01*
X143417090Y-105322073D01*
X143420566Y-105118998D01*
X143427997Y-104980443D01*
X143440724Y-104893154D01*
X143460089Y-104843876D01*
X143487432Y-104819354D01*
X143495889Y-104815449D01*
X143569382Y-104803421D01*
X143714332Y-104793583D01*
X143911166Y-104786822D01*
X144140310Y-104784025D01*
X144190065Y-104784022D01*
X144496357Y-104788910D01*
X144732988Y-104803449D01*
X144921015Y-104829628D01*
X145076329Y-104867863D01*
X145461590Y-105013559D01*
X145763711Y-105192684D01*
X145985309Y-105408103D01*
X146128998Y-105662683D01*
X146197396Y-105959287D01*
X146204312Y-106103367D01*
X149282916Y-106103367D01*
X149279040Y-105795723D01*
X149248246Y-105472148D01*
X149224226Y-105341420D01*
X149070850Y-104856029D01*
X148837627Y-104409423D01*
X148528961Y-104005886D01*
X148149253Y-103649702D01*
X147702905Y-103345153D01*
X147194321Y-103096524D01*
X146761929Y-102945545D01*
X146472943Y-102866226D01*
X146196530Y-102804592D01*
X145914785Y-102758642D01*
X145609804Y-102726374D01*
X145263684Y-102705786D01*
X144858521Y-102694877D01*
X144492213Y-102691805D01*
X143406010Y-102688831D01*
X143426817Y-102362330D01*
X143485905Y-102008071D01*
X143611598Y-101703572D01*
X143798545Y-101456436D01*
X144041394Y-101274266D01*
X144255227Y-101185373D01*
X144561608Y-101129349D01*
X144926343Y-101121304D01*
X145332334Y-101158272D01*
X145762482Y-101237286D01*
X146199691Y-101355382D01*
X146626863Y-101509592D01*
X146937293Y-101650630D01*
X147086648Y-101723052D01*
X147200569Y-101773634D01*
X147258504Y-101793371D01*
X147261649Y-101792738D01*
X147281641Y-101748529D01*
X147331563Y-101631350D01*
X147406717Y-101452425D01*
X147502405Y-101222983D01*
X147613930Y-100954249D01*
X147727293Y-100679992D01*
X148180505Y-99581547D01*
X147858134Y-99528598D01*
X147718409Y-99502031D01*
X147508362Y-99457412D01*
X147245987Y-99398789D01*
X146949278Y-99330214D01*
X146636228Y-99255737D01*
X146511570Y-99225471D01*
X145972270Y-99100385D01*
X145500113Y-99006604D01*
X145077475Y-98942231D01*
X144686730Y-98905371D01*
X144310252Y-98894130D01*
X143930415Y-98906613D01*
G37*
X143930415Y-98906613D02*
X143704880Y-98923685D01*
X143059597Y-99009537D01*
X142488131Y-99146471D01*
X141987700Y-99336371D01*
X141555519Y-99581120D01*
X141188806Y-99882603D01*
X140884777Y-100242704D01*
X140640648Y-100663307D01*
X140462381Y-101118401D01*
X140417131Y-101263569D01*
X140377727Y-101399512D01*
X140343705Y-101533548D01*
X140314601Y-101672998D01*
X140289950Y-101825180D01*
X140269287Y-101997412D01*
X140252149Y-102197015D01*
X140238070Y-102431305D01*
X140226586Y-102707603D01*
X140217232Y-103033227D01*
X140209544Y-103415496D01*
X140203057Y-103861729D01*
X140197308Y-104379245D01*
X140191830Y-104975363D01*
X140187914Y-105442774D01*
X140161570Y-108651914D01*
X139990871Y-108960739D01*
X139910041Y-109109518D01*
X139849890Y-109225080D01*
X139821194Y-109286590D01*
X139820173Y-109290757D01*
X139864033Y-109295525D01*
X139988982Y-109299919D01*
X140185065Y-109303814D01*
X140442333Y-109307088D01*
X140750833Y-109309616D01*
X141100612Y-109311275D01*
X141481721Y-109311942D01*
X141527162Y-109311950D01*
X143234151Y-109311950D01*
X143234151Y-108925032D01*
X143237062Y-108750178D01*
X143244829Y-108616451D01*
X143256006Y-108544752D01*
X143260946Y-108538114D01*
X143306128Y-108565917D01*
X143399115Y-108638885D01*
X143519974Y-108741359D01*
X143522684Y-108743730D01*
X143743237Y-108907933D01*
X144021778Y-109072815D01*
X144326833Y-109222177D01*
X144626929Y-109339821D01*
X144759061Y-109380024D01*
X145022015Y-109431086D01*
X145344671Y-109463670D01*
X145697494Y-109477311D01*
X146050947Y-109471545D01*
X146375493Y-109445908D01*
X146602610Y-109409018D01*
X147159576Y-109245460D01*
X147660995Y-109012365D01*
X148103601Y-108712623D01*
X148484132Y-108349127D01*
X148799323Y-107924769D01*
X149045912Y-107442440D01*
X149152292Y-107149763D01*
X149218962Y-106865294D01*
X149263145Y-106523797D01*
X149283588Y-106156773D01*
X149282916Y-106103367D01*
X146204312Y-106103367D01*
X146178783Y-106376088D01*
X146093775Y-106602737D01*
X145936659Y-106813013D01*
X145876315Y-106874672D01*
X145661800Y-107041368D01*
X145413859Y-107148156D01*
X145116811Y-107199849D01*
X144804002Y-107203654D01*
X144507310Y-107178523D01*
X144280146Y-107129368D01*
X144181490Y-107092448D01*
X144003675Y-106991826D01*
X143815271Y-106850315D01*
X143643375Y-106691492D01*
X143515082Y-106538933D01*
X143481015Y-106482969D01*
X143454532Y-106404595D01*
X143435703Y-106279888D01*
X143423652Y-106096933D01*
X143417500Y-105843820D01*
X143416230Y-105602925D01*
X143417090Y-105322073D01*
X143420566Y-105118998D01*
X143427997Y-104980443D01*
X143440724Y-104893154D01*
X143460089Y-104843876D01*
X143487432Y-104819354D01*
X143495889Y-104815449D01*
X143569382Y-104803421D01*
X143714332Y-104793583D01*
X143911166Y-104786822D01*
X144140310Y-104784025D01*
X144190065Y-104784022D01*
X144496357Y-104788910D01*
X144732988Y-104803449D01*
X144921015Y-104829628D01*
X145076329Y-104867863D01*
X145461590Y-105013559D01*
X145763711Y-105192684D01*
X145985309Y-105408103D01*
X146128998Y-105662683D01*
X146197396Y-105959287D01*
X146204312Y-106103367D01*
X149282916Y-106103367D01*
X149279040Y-105795723D01*
X149248246Y-105472148D01*
X149224226Y-105341420D01*
X149070850Y-104856029D01*
X148837627Y-104409423D01*
X148528961Y-104005886D01*
X148149253Y-103649702D01*
X147702905Y-103345153D01*
X147194321Y-103096524D01*
X146761929Y-102945545D01*
X146472943Y-102866226D01*
X146196530Y-102804592D01*
X145914785Y-102758642D01*
X145609804Y-102726374D01*
X145263684Y-102705786D01*
X144858521Y-102694877D01*
X144492213Y-102691805D01*
X143406010Y-102688831D01*
X143426817Y-102362330D01*
X143485905Y-102008071D01*
X143611598Y-101703572D01*
X143798545Y-101456436D01*
X144041394Y-101274266D01*
X144255227Y-101185373D01*
X144561608Y-101129349D01*
X144926343Y-101121304D01*
X145332334Y-101158272D01*
X145762482Y-101237286D01*
X146199691Y-101355382D01*
X146626863Y-101509592D01*
X146937293Y-101650630D01*
X147086648Y-101723052D01*
X147200569Y-101773634D01*
X147258504Y-101793371D01*
X147261649Y-101792738D01*
X147281641Y-101748529D01*
X147331563Y-101631350D01*
X147406717Y-101452425D01*
X147502405Y-101222983D01*
X147613930Y-100954249D01*
X147727293Y-100679992D01*
X148180505Y-99581547D01*
X147858134Y-99528598D01*
X147718409Y-99502031D01*
X147508362Y-99457412D01*
X147245987Y-99398789D01*
X146949278Y-99330214D01*
X146636228Y-99255737D01*
X146511570Y-99225471D01*
X145972270Y-99100385D01*
X145500113Y-99006604D01*
X145077475Y-98942231D01*
X144686730Y-98905371D01*
X144310252Y-98894130D01*
X143930415Y-98906613D01*
G36*
X131747055Y-94572030D02*
G01*
X131359910Y-94573618D01*
X131228327Y-94574420D01*
X129418918Y-94586322D01*
X129396158Y-101528079D01*
X129393152Y-102469401D01*
X129390486Y-103324107D01*
X129387990Y-104096619D01*
X129385490Y-104791356D01*
X129382818Y-105412742D01*
X129379800Y-105965198D01*
X129376267Y-106453144D01*
X129372046Y-106881003D01*
X129366967Y-107253196D01*
X129360858Y-107574145D01*
X129353548Y-107848271D01*
X129344866Y-108079996D01*
X129334640Y-108273741D01*
X129322700Y-108433927D01*
X129308874Y-108564977D01*
X129292991Y-108671311D01*
X129274879Y-108757352D01*
X129254368Y-108827520D01*
X129231286Y-108886238D01*
X129205462Y-108937926D01*
X129176725Y-108987007D01*
X129144903Y-109037901D01*
X129109825Y-109095031D01*
X129102635Y-109107199D01*
X128982007Y-109313036D01*
X132468739Y-109289190D01*
X132491499Y-108906237D01*
X132503891Y-108722455D01*
X132516805Y-108616204D01*
X132534328Y-108574044D01*
X132560546Y-108582537D01*
X132582538Y-108606830D01*
X132678339Y-108695319D01*
X132834478Y-108809061D01*
X133028958Y-108934466D01*
X133239781Y-109057944D01*
X133444947Y-109165905D01*
X133602478Y-109236935D01*
X133971543Y-109353658D01*
X134394989Y-109436340D01*
X134841556Y-109481824D01*
X135279982Y-109486948D01*
X135679008Y-109448554D01*
X135685578Y-109447455D01*
X136231578Y-109310449D01*
X136742687Y-109092167D01*
X137213976Y-108797301D01*
X137640513Y-108430543D01*
X138017370Y-107996585D01*
X138339617Y-107500120D01*
X138602324Y-106945839D01*
X138745360Y-106535247D01*
X138839685Y-106191742D01*
X138909636Y-105859112D01*
X138957351Y-105517150D01*
X138984969Y-105145651D01*
X138994629Y-104724408D01*
X138990351Y-104380436D01*
X135631457Y-104380436D01*
X135615563Y-104957220D01*
X135565422Y-105453445D01*
X135479494Y-105873516D01*
X135356236Y-106221836D01*
X135194104Y-106502811D01*
X134991556Y-106720843D01*
X134757757Y-106874975D01*
X134636100Y-106932515D01*
X134530588Y-106967012D01*
X134412954Y-106982794D01*
X134254929Y-106984192D01*
X134084689Y-106978047D01*
X133749898Y-106948517D01*
X133485109Y-106890689D01*
X133401893Y-106861722D01*
X133211875Y-106776170D01*
X133011462Y-106668738D01*
X132923936Y-106614960D01*
X132696337Y-106465675D01*
X132696337Y-101733843D01*
X132946696Y-101583775D01*
X133295847Y-101414204D01*
X133652569Y-101313919D01*
X134003817Y-101282326D01*
X134336545Y-101318836D01*
X134637705Y-101422855D01*
X134894252Y-101593793D01*
X134977031Y-101675843D01*
X135176563Y-101944686D01*
X135338060Y-102270118D01*
X135462871Y-102657718D01*
X135552345Y-103113064D01*
X135607834Y-103641735D01*
X135630685Y-104249307D01*
X135631457Y-104380436D01*
X138990351Y-104380436D01*
X138988569Y-104237260D01*
X138950196Y-103487931D01*
X138873037Y-102812046D01*
X138755059Y-102199761D01*
X138594231Y-101641229D01*
X138388521Y-101126605D01*
X138315114Y-100974036D01*
X138019432Y-100476494D01*
X137662116Y-100034346D01*
X137251568Y-99654729D01*
X136796187Y-99344780D01*
X136304377Y-99111637D01*
X136009568Y-99015464D01*
X135720036Y-98958370D01*
X135371659Y-98924401D01*
X134993643Y-98913542D01*
X134615192Y-98925777D01*
X134265513Y-98961091D01*
X133984747Y-99016492D01*
X133650571Y-99125136D01*
X133326675Y-99264845D01*
X133043292Y-99421466D01*
X132892465Y-99527763D01*
X132788427Y-99606806D01*
X132715578Y-99654935D01*
X132699007Y-99661770D01*
X132693869Y-99617735D01*
X132689078Y-99491565D01*
X132684741Y-99292164D01*
X132680964Y-99028437D01*
X132677853Y-98709289D01*
X132675515Y-98343623D01*
X132674054Y-97940344D01*
X132673578Y-97529578D01*
X132673844Y-97003459D01*
X132675153Y-96559895D01*
X132678269Y-96190401D01*
X132683958Y-95886493D01*
X132692985Y-95639687D01*
X132706114Y-95441498D01*
X132724111Y-95283442D01*
X132747741Y-95157034D01*
X132777768Y-95053790D01*
X132814958Y-94965226D01*
X132860077Y-94882858D01*
X132913888Y-94798201D01*
X132920811Y-94787719D01*
X132990215Y-94678075D01*
X133032117Y-94602679D01*
X133037735Y-94586776D01*
X132993829Y-94581758D01*
X132868552Y-94577676D01*
X132671571Y-94574597D01*
X132412551Y-94572585D01*
X132101157Y-94571707D01*
X131747055Y-94572030D01*
G37*
X131747055Y-94572030D02*
X131359910Y-94573618D01*
X131228327Y-94574420D01*
X129418918Y-94586322D01*
X129396158Y-101528079D01*
X129393152Y-102469401D01*
X129390486Y-103324107D01*
X129387990Y-104096619D01*
X129385490Y-104791356D01*
X129382818Y-105412742D01*
X129379800Y-105965198D01*
X129376267Y-106453144D01*
X129372046Y-106881003D01*
X129366967Y-107253196D01*
X129360858Y-107574145D01*
X129353548Y-107848271D01*
X129344866Y-108079996D01*
X129334640Y-108273741D01*
X129322700Y-108433927D01*
X129308874Y-108564977D01*
X129292991Y-108671311D01*
X129274879Y-108757352D01*
X129254368Y-108827520D01*
X129231286Y-108886238D01*
X129205462Y-108937926D01*
X129176725Y-108987007D01*
X129144903Y-109037901D01*
X129109825Y-109095031D01*
X129102635Y-109107199D01*
X128982007Y-109313036D01*
X132468739Y-109289190D01*
X132491499Y-108906237D01*
X132503891Y-108722455D01*
X132516805Y-108616204D01*
X132534328Y-108574044D01*
X132560546Y-108582537D01*
X132582538Y-108606830D01*
X132678339Y-108695319D01*
X132834478Y-108809061D01*
X133028958Y-108934466D01*
X133239781Y-109057944D01*
X133444947Y-109165905D01*
X133602478Y-109236935D01*
X133971543Y-109353658D01*
X134394989Y-109436340D01*
X134841556Y-109481824D01*
X135279982Y-109486948D01*
X135679008Y-109448554D01*
X135685578Y-109447455D01*
X136231578Y-109310449D01*
X136742687Y-109092167D01*
X137213976Y-108797301D01*
X137640513Y-108430543D01*
X138017370Y-107996585D01*
X138339617Y-107500120D01*
X138602324Y-106945839D01*
X138745360Y-106535247D01*
X138839685Y-106191742D01*
X138909636Y-105859112D01*
X138957351Y-105517150D01*
X138984969Y-105145651D01*
X138994629Y-104724408D01*
X138990351Y-104380436D01*
X135631457Y-104380436D01*
X135615563Y-104957220D01*
X135565422Y-105453445D01*
X135479494Y-105873516D01*
X135356236Y-106221836D01*
X135194104Y-106502811D01*
X134991556Y-106720843D01*
X134757757Y-106874975D01*
X134636100Y-106932515D01*
X134530588Y-106967012D01*
X134412954Y-106982794D01*
X134254929Y-106984192D01*
X134084689Y-106978047D01*
X133749898Y-106948517D01*
X133485109Y-106890689D01*
X133401893Y-106861722D01*
X133211875Y-106776170D01*
X133011462Y-106668738D01*
X132923936Y-106614960D01*
X132696337Y-106465675D01*
X132696337Y-101733843D01*
X132946696Y-101583775D01*
X133295847Y-101414204D01*
X133652569Y-101313919D01*
X134003817Y-101282326D01*
X134336545Y-101318836D01*
X134637705Y-101422855D01*
X134894252Y-101593793D01*
X134977031Y-101675843D01*
X135176563Y-101944686D01*
X135338060Y-102270118D01*
X135462871Y-102657718D01*
X135552345Y-103113064D01*
X135607834Y-103641735D01*
X135630685Y-104249307D01*
X135631457Y-104380436D01*
X138990351Y-104380436D01*
X138988569Y-104237260D01*
X138950196Y-103487931D01*
X138873037Y-102812046D01*
X138755059Y-102199761D01*
X138594231Y-101641229D01*
X138388521Y-101126605D01*
X138315114Y-100974036D01*
X138019432Y-100476494D01*
X137662116Y-100034346D01*
X137251568Y-99654729D01*
X136796187Y-99344780D01*
X136304377Y-99111637D01*
X136009568Y-99015464D01*
X135720036Y-98958370D01*
X135371659Y-98924401D01*
X134993643Y-98913542D01*
X134615192Y-98925777D01*
X134265513Y-98961091D01*
X133984747Y-99016492D01*
X133650571Y-99125136D01*
X133326675Y-99264845D01*
X133043292Y-99421466D01*
X132892465Y-99527763D01*
X132788427Y-99606806D01*
X132715578Y-99654935D01*
X132699007Y-99661770D01*
X132693869Y-99617735D01*
X132689078Y-99491565D01*
X132684741Y-99292164D01*
X132680964Y-99028437D01*
X132677853Y-98709289D01*
X132675515Y-98343623D01*
X132674054Y-97940344D01*
X132673578Y-97529578D01*
X132673844Y-97003459D01*
X132675153Y-96559895D01*
X132678269Y-96190401D01*
X132683958Y-95886493D01*
X132692985Y-95639687D01*
X132706114Y-95441498D01*
X132724111Y-95283442D01*
X132747741Y-95157034D01*
X132777768Y-95053790D01*
X132814958Y-94965226D01*
X132860077Y-94882858D01*
X132913888Y-94798201D01*
X132920811Y-94787719D01*
X132990215Y-94678075D01*
X133032117Y-94602679D01*
X133037735Y-94586776D01*
X132993829Y-94581758D01*
X132868552Y-94577676D01*
X132671571Y-94574597D01*
X132412551Y-94572585D01*
X132101157Y-94571707D01*
X131747055Y-94572030D01*
G36*
X163470074Y-91520740D02*
G01*
X163128237Y-91639262D01*
X162809974Y-91825815D01*
X162525738Y-92080375D01*
X162285979Y-92402918D01*
X162178279Y-92606215D01*
X162085070Y-92890572D01*
X162039892Y-93218851D01*
X162044896Y-93556342D01*
X162100444Y-93862166D01*
X162252269Y-94235873D01*
X162472430Y-94560037D01*
X162749736Y-94828279D01*
X163072996Y-95034222D01*
X163431023Y-95171487D01*
X163812625Y-95233695D01*
X164206612Y-95214470D01*
X164400818Y-95173383D01*
X164779308Y-95026151D01*
X165115469Y-94801483D01*
X165401191Y-94506305D01*
X165628366Y-94147544D01*
X165647586Y-94108365D01*
X165714029Y-93961342D01*
X165755748Y-93837517D01*
X165778398Y-93706892D01*
X165787636Y-93539466D01*
X165789169Y-93357290D01*
X165786634Y-93138414D01*
X165775190Y-92980182D01*
X165749083Y-92852254D01*
X165702554Y-92724289D01*
X165645121Y-92598039D01*
X165430896Y-92239650D01*
X165167086Y-91949466D01*
X164864144Y-91727461D01*
X164532521Y-91573610D01*
X164182667Y-91487890D01*
X163825034Y-91470275D01*
X163470074Y-91520740D01*
G37*
X163470074Y-91520740D02*
X163128237Y-91639262D01*
X162809974Y-91825815D01*
X162525738Y-92080375D01*
X162285979Y-92402918D01*
X162178279Y-92606215D01*
X162085070Y-92890572D01*
X162039892Y-93218851D01*
X162044896Y-93556342D01*
X162100444Y-93862166D01*
X162252269Y-94235873D01*
X162472430Y-94560037D01*
X162749736Y-94828279D01*
X163072996Y-95034222D01*
X163431023Y-95171487D01*
X163812625Y-95233695D01*
X164206612Y-95214470D01*
X164400818Y-95173383D01*
X164779308Y-95026151D01*
X165115469Y-94801483D01*
X165401191Y-94506305D01*
X165628366Y-94147544D01*
X165647586Y-94108365D01*
X165714029Y-93961342D01*
X165755748Y-93837517D01*
X165778398Y-93706892D01*
X165787636Y-93539466D01*
X165789169Y-93357290D01*
X165786634Y-93138414D01*
X165775190Y-92980182D01*
X165749083Y-92852254D01*
X165702554Y-92724289D01*
X165645121Y-92598039D01*
X165430896Y-92239650D01*
X165167086Y-91949466D01*
X164864144Y-91727461D01*
X164532521Y-91573610D01*
X164182667Y-91487890D01*
X163825034Y-91470275D01*
X163470074Y-91520740D01*
D14*
%TO.C,J3*%
X142220000Y-133340000D02*
X143220000Y-134540000D01*
X143220000Y-134540000D02*
X141220000Y-134540000D01*
X141220000Y-134540000D02*
X142220000Y-133340000D01*
X143020000Y-134340000D02*
X141420000Y-134340000D01*
X142820000Y-134140000D02*
X141620000Y-134140000D01*
X142720000Y-133940000D02*
X141720000Y-133940000D01*
X142520000Y-133740000D02*
X141920000Y-133740000D01*
X142320000Y-133540000D02*
X142120000Y-133540000D01*
%TO.C,J2*%
X157560000Y-75120000D02*
X157360000Y-75120000D01*
X157760000Y-75320000D02*
X157160000Y-75320000D01*
X157960000Y-75520000D02*
X156960000Y-75520000D01*
X158060000Y-75720000D02*
X156860000Y-75720000D01*
X158260000Y-75920000D02*
X156660000Y-75920000D01*
X156460000Y-76120000D02*
X157460000Y-74920000D01*
X158460000Y-76120000D02*
X156460000Y-76120000D01*
X157460000Y-74920000D02*
X158460000Y-76120000D01*
%TO.C,J3*%
D10*
X148353333Y-128992380D02*
X148353333Y-129706666D01*
X148400952Y-129849523D01*
X148496190Y-129944761D01*
X148639047Y-129992380D01*
X148734285Y-129992380D01*
X147972380Y-128992380D02*
X147353333Y-128992380D01*
X147686666Y-129373333D01*
X147543809Y-129373333D01*
X147448571Y-129420952D01*
X147400952Y-129468571D01*
X147353333Y-129563809D01*
X147353333Y-129801904D01*
X147400952Y-129897142D01*
X147448571Y-129944761D01*
X147543809Y-129992380D01*
X147829523Y-129992380D01*
X147924761Y-129944761D01*
X147972380Y-129897142D01*
%TO.C,J2*%
X163593333Y-70572380D02*
X163593333Y-71286666D01*
X163640952Y-71429523D01*
X163736190Y-71524761D01*
X163879047Y-71572380D01*
X163974285Y-71572380D01*
X163164761Y-70667619D02*
X163117142Y-70620000D01*
X163021904Y-70572380D01*
X162783809Y-70572380D01*
X162688571Y-70620000D01*
X162640952Y-70667619D01*
X162593333Y-70762857D01*
X162593333Y-70858095D01*
X162640952Y-71000952D01*
X163212380Y-71572380D01*
X162593333Y-71572380D01*
%TO.C,TP3*%
X187951904Y-84542380D02*
X187380476Y-84542380D01*
X187666190Y-85542380D02*
X187666190Y-84542380D01*
X187047142Y-85542380D02*
X187047142Y-84542380D01*
X186666190Y-84542380D01*
X186570952Y-84590000D01*
X186523333Y-84637619D01*
X186475714Y-84732857D01*
X186475714Y-84875714D01*
X186523333Y-84970952D01*
X186570952Y-85018571D01*
X186666190Y-85066190D01*
X187047142Y-85066190D01*
X186142380Y-84542380D02*
X185523333Y-84542380D01*
X185856666Y-84923333D01*
X185713809Y-84923333D01*
X185618571Y-84970952D01*
X185570952Y-85018571D01*
X185523333Y-85113809D01*
X185523333Y-85351904D01*
X185570952Y-85447142D01*
X185618571Y-85494761D01*
X185713809Y-85542380D01*
X185999523Y-85542380D01*
X186094761Y-85494761D01*
X186142380Y-85447142D01*
%TO.C,TP4*%
X187951904Y-87082380D02*
X187380476Y-87082380D01*
X187666190Y-88082380D02*
X187666190Y-87082380D01*
X187047142Y-88082380D02*
X187047142Y-87082380D01*
X186666190Y-87082380D01*
X186570952Y-87130000D01*
X186523333Y-87177619D01*
X186475714Y-87272857D01*
X186475714Y-87415714D01*
X186523333Y-87510952D01*
X186570952Y-87558571D01*
X186666190Y-87606190D01*
X187047142Y-87606190D01*
X185618571Y-87415714D02*
X185618571Y-88082380D01*
X185856666Y-87034761D02*
X186094761Y-87749047D01*
X185475714Y-87749047D01*
%TO.C,TP5*%
X119371904Y-94702380D02*
X118800476Y-94702380D01*
X119086190Y-95702380D02*
X119086190Y-94702380D01*
X118467142Y-95702380D02*
X118467142Y-94702380D01*
X118086190Y-94702380D01*
X117990952Y-94750000D01*
X117943333Y-94797619D01*
X117895714Y-94892857D01*
X117895714Y-95035714D01*
X117943333Y-95130952D01*
X117990952Y-95178571D01*
X118086190Y-95226190D01*
X118467142Y-95226190D01*
X116990952Y-94702380D02*
X117467142Y-94702380D01*
X117514761Y-95178571D01*
X117467142Y-95130952D01*
X117371904Y-95083333D01*
X117133809Y-95083333D01*
X117038571Y-95130952D01*
X116990952Y-95178571D01*
X116943333Y-95273809D01*
X116943333Y-95511904D01*
X116990952Y-95607142D01*
X117038571Y-95654761D01*
X117133809Y-95702380D01*
X117371904Y-95702380D01*
X117467142Y-95654761D01*
X117514761Y-95607142D01*
%TO.C,TP6*%
X119371904Y-97242380D02*
X118800476Y-97242380D01*
X119086190Y-98242380D02*
X119086190Y-97242380D01*
X118467142Y-98242380D02*
X118467142Y-97242380D01*
X118086190Y-97242380D01*
X117990952Y-97290000D01*
X117943333Y-97337619D01*
X117895714Y-97432857D01*
X117895714Y-97575714D01*
X117943333Y-97670952D01*
X117990952Y-97718571D01*
X118086190Y-97766190D01*
X118467142Y-97766190D01*
X117038571Y-97242380D02*
X117229047Y-97242380D01*
X117324285Y-97290000D01*
X117371904Y-97337619D01*
X117467142Y-97480476D01*
X117514761Y-97670952D01*
X117514761Y-98051904D01*
X117467142Y-98147142D01*
X117419523Y-98194761D01*
X117324285Y-98242380D01*
X117133809Y-98242380D01*
X117038571Y-98194761D01*
X116990952Y-98147142D01*
X116943333Y-98051904D01*
X116943333Y-97813809D01*
X116990952Y-97718571D01*
X117038571Y-97670952D01*
X117133809Y-97623333D01*
X117324285Y-97623333D01*
X117419523Y-97670952D01*
X117467142Y-97718571D01*
X117514761Y-97813809D01*
%TO.C,TP7*%
X187951904Y-89622380D02*
X187380476Y-89622380D01*
X187666190Y-90622380D02*
X187666190Y-89622380D01*
X187047142Y-90622380D02*
X187047142Y-89622380D01*
X186666190Y-89622380D01*
X186570952Y-89670000D01*
X186523333Y-89717619D01*
X186475714Y-89812857D01*
X186475714Y-89955714D01*
X186523333Y-90050952D01*
X186570952Y-90098571D01*
X186666190Y-90146190D01*
X187047142Y-90146190D01*
X186142380Y-89622380D02*
X185475714Y-89622380D01*
X185904285Y-90622380D01*
%TO.C,TP1*%
X119371904Y-99782380D02*
X118800476Y-99782380D01*
X119086190Y-100782380D02*
X119086190Y-99782380D01*
X118467142Y-100782380D02*
X118467142Y-99782380D01*
X118086190Y-99782380D01*
X117990952Y-99830000D01*
X117943333Y-99877619D01*
X117895714Y-99972857D01*
X117895714Y-100115714D01*
X117943333Y-100210952D01*
X117990952Y-100258571D01*
X118086190Y-100306190D01*
X118467142Y-100306190D01*
X116943333Y-100782380D02*
X117514761Y-100782380D01*
X117229047Y-100782380D02*
X117229047Y-99782380D01*
X117324285Y-99925238D01*
X117419523Y-100020476D01*
X117514761Y-100068095D01*
%TO.C,TP2*%
X119371904Y-102322380D02*
X118800476Y-102322380D01*
X119086190Y-103322380D02*
X119086190Y-102322380D01*
X118467142Y-103322380D02*
X118467142Y-102322380D01*
X118086190Y-102322380D01*
X117990952Y-102370000D01*
X117943333Y-102417619D01*
X117895714Y-102512857D01*
X117895714Y-102655714D01*
X117943333Y-102750952D01*
X117990952Y-102798571D01*
X118086190Y-102846190D01*
X118467142Y-102846190D01*
X117514761Y-102417619D02*
X117467142Y-102370000D01*
X117371904Y-102322380D01*
X117133809Y-102322380D01*
X117038571Y-102370000D01*
X116990952Y-102417619D01*
X116943333Y-102512857D01*
X116943333Y-102608095D01*
X116990952Y-102750952D01*
X117562380Y-103322380D01*
X116943333Y-103322380D01*
%TD*%
D12*
G36*
X160020000Y-133445663D02*
G01*
X152654000Y-133445663D01*
X152654000Y-123539663D01*
X160020000Y-123539663D01*
X160020000Y-133445663D01*
G37*
X160020000Y-133445663D02*
X152654000Y-133445663D01*
X152654000Y-123539663D01*
X160020000Y-123539663D01*
X160020000Y-133445663D01*
M02*
